<?xml version="1.0" encoding="UTF-8" standalone="no"?>
<!-- Created with Inkscape (http://www.inkscape.org/) -->
<svg id="svg1307" xmlns:rdf="http://www.w3.org/1999/02/22-rdf-syntax-ns#" xmlns="http://www.w3.org/2000/svg" height="48" width="48" version="1.0" xmlns:cc="http://creativecommons.org/ns#" xmlns:dc="http://purl.org/dc/elements/1.1/">
 <metadata id="metadata1312">
  <rdf:RDF>
   <cc:Work rdf:about="">
    <dc:format>image/svg+xml</dc:format>
    <dc:type rdf:resource="http://purl.org/dc/dcmitype/StillImage"/>
   </cc:Work>
  </rdf:RDF>
 </metadata>
 <g id="layer1">
  <rect id="rect2415" style="fill:none" height="48.064" width="48" y="-.063745" x="0"/>
 </g>
 <g id="layer5">
  <path id="path3191" style="stroke-linejoin:round;stroke:#fff;stroke-linecap:round;stroke-width:12;fill:none" d="m17.64 6.9465l1.745 1.5454c0 3.7791-0.062 5.6761-0.062 9.5421-1.163 1.546-7.89 7.84-11.575 14.368-1.1633 2.062-1.1601 4.639 0.5852 6.7 1.1635 1.546 3.1948 2.064 5.2338 2.064h20.943c2.038 0 4.07-0.518 5.234-2.064 1.745-2.061 1.748-4.638 0.585-6.7-3.297-6.528-8.962-12.498-10.534-14.368 0-3.779 0.062-5.763 0.062-9.5421l1.688-1.4954 0.056-0.05h-13.961z"/>
  <path id="path29274" style="stroke-linejoin:round;fill-rule:evenodd;stroke:#000;stroke-linecap:round;stroke-width:3.8813;fill:#fff" d="m17.64 6.9465l1.745 1.5454c0 3.7791-0.062 5.6761-0.062 9.5421-1.163 1.546-7.89 7.84-11.575 14.368-1.1633 2.062-1.1601 4.639 0.5852 6.7 1.1635 1.546 3.1948 2.064 5.2338 2.064h20.943c2.038 0 4.07-0.518 5.234-2.064 1.745-2.061 1.748-4.638 0.585-6.7-3.297-6.528-8.962-12.498-10.534-14.368 0-3.779 0.062-5.763 0.062-9.5421l1.688-1.4954 0.056-0.05h-13.961z"/>
  <path id="path6798" style="stroke-linejoin:round;fill-rule:evenodd;stroke:#000;stroke-linecap:round;stroke-width:.073987" d="m19.263 23.119c-1.868 2.926-3.497 4.6-5.458 7.93-0.839 1.424-0.836 3.201 0.422 4.625 0.839 1.068 2.304 1.426 3.773 1.426 5.032 0 6.995-0.049 12.026-0.049 1.469 0 2.935-0.357 3.773-1.425 1.258-1.424 1.261-3.202 0.423-4.626-2.008-3.811-2.771-4.07-4.872-7.881h-10.087z"/>
 </g>
</svg>
