<?xml version="1.0" encoding="UTF-8" standalone="no"?>
<!-- Created with Inkscape (http://www.inkscape.org/) -->
<svg id="svg3660" xmlns:rdf="http://www.w3.org/1999/02/22-rdf-syntax-ns#" xmlns="http://www.w3.org/2000/svg" height="128" width="128" version="1.1" xmlns:cc="http://creativecommons.org/ns#" xmlns:xlink="http://www.w3.org/1999/xlink" xmlns:dc="http://purl.org/dc/elements/1.1/">
 <defs id="defs3662">
  <linearGradient id="linearGradient4842" y2="457" xlink:href="#linearGradient4147" gradientUnits="userSpaceOnUse" x2="229.45" gradientTransform="matrix(1.0179 0 0 -1 -4.1429 1381)" y1="436.23" x1="229.45"/>
  <linearGradient id="linearGradient4147">
   <stop id="stop4149" offset="0"/>
   <stop id="stop4151" style="stop-opacity:0" offset="1"/>
  </linearGradient>
  <filter id="filter4848" color-interpolation-filters="sRGB">
   <feGaussianBlur id="feGaussianBlur4850" stdDeviation="0.18937505"/>
  </filter>
  <radialGradient id="radialGradient4803" xlink:href="#linearGradient4147" gradientUnits="userSpaceOnUse" cy="136" cx="88" gradientTransform="matrix(1 0 0 .14286 0 116.57)" r="56"/>
  <filter id="filter7008-1-41" width="1.1124" y="-.39323" x="-.056176" height="1.7865" color-interpolation-filters="sRGB">
   <feGaussianBlur id="feGaussianBlur7010-9-35" stdDeviation="2.6215397"/>
  </filter>
  <linearGradient id="linearGradient4806" y2="951.36" xlink:href="#linearGradient5449" gradientUnits="userSpaceOnUse" x2="232" gradientTransform="translate(.0000027781 -.12499)" y1="948.36" x1="232"/>
  <linearGradient id="linearGradient5449">
   <stop id="stop5451" style="stop-color:#ed5012" offset="0"/>
   <stop id="stop5453" style="stop-color:#bc3f0e" offset="1"/>
  </linearGradient>
  <linearGradient id="linearGradient4808" y2="469" xlink:href="#radialGradient4201" gradientUnits="userSpaceOnUse" x2="229.45" gradientTransform="translate(0 476.36)" y1="436.23" x1="229.45"/>
  <radialGradient id="radialGradient4201" gradientUnits="userSpaceOnUse" cy="9.8096" cx="-514.13" gradientTransform="matrix(.5424 0 0 .5424 338.17 67.963)" r="145.95">
   <stop id="stop4203" style="stop-color:#ed8246" offset="0"/>
   <stop id="stop4205" style="stop-color:#ee6d2e" offset=".68272"/>
   <stop id="stop4207" style="stop-color:#ef783d" offset=".70102"/>
   <stop id="stop4209" style="stop-color:#f07f48" offset="1"/>
  </radialGradient>
  <linearGradient id="linearGradient4810" y2="976.36" xlink:href="#linearGradient5410" gradientUnits="userSpaceOnUse" x2="225" gradientTransform="translate(0,-64)" y1="972.36" x1="225"/>
  <linearGradient id="linearGradient5410">
   <stop id="stop5412" style="stop-color:#e55016" offset="0"/>
   <stop id="stop5414" style="stop-color:#c44c1c" offset="1"/>
  </linearGradient>
  <linearGradient id="linearGradient4812" y2="907.33" xlink:href="#linearGradient5428" gradientUnits="userSpaceOnUse" x2="232.16" y1="912.3" x1="231.84"/>
  <linearGradient id="linearGradient5428">
   <stop id="stop5430" style="stop-color:#ed9666" offset="0"/>
   <stop id="stop5432" style="stop-color:#ed9666;stop-opacity:0" offset="1"/>
  </linearGradient>
  <linearGradient id="linearGradient4814" y2="436" xlink:href="#linearGradient5416" gradientUnits="userSpaceOnUse" x2="214.38" gradientTransform="translate(0 476.36)" y1="433.75" x1="214.38"/>
  <linearGradient id="linearGradient5416">
   <stop id="stop5418" style="stop-color:#d64912" offset="0"/>
   <stop id="stop5420" style="stop-color:#d64912;stop-opacity:0" offset="1"/>
  </linearGradient>
  <linearGradient id="linearGradient4816" y2="434.5" xlink:href="#linearGradient4147" gradientUnits="userSpaceOnUse" x2="221" gradientTransform="translate(0 476.36)" y1="434.5" x1="215"/>
  <radialGradient id="radialGradient4822" xlink:href="#linearGradient5404" gradientUnits="userSpaceOnUse" cy="434.26" cx="213" gradientTransform="matrix(7.7509e-7 1.5172 -1.931 9.8648e-7 1051.6 590.19)" r="14.5"/>
  <linearGradient id="linearGradient5404">
   <stop id="stop5406" style="stop-color:#e89c59" offset="0"/>
   <stop id="stop5408" style="stop-color:#e89c59;stop-opacity:0" offset="1"/>
  </linearGradient>
  <clipPath id="clipPath5047" clipPathUnits="userSpaceOnUse">
   <rect id="rect5049" style="opacity:.59633;color:#000000;fill:#f0f" height="8" width="64" y="56" x="56"/>
  </clipPath>
  <filter id="filter5055" width="1.0714" y="-.1875" x="-.035714" height="1.375" color-interpolation-filters="sRGB">
   <feGaussianBlur id="feGaussianBlur5057" stdDeviation="0.625"/>
  </filter>
  <linearGradient id="linearGradient5076" y2="896.24" xlink:href="#linearGradient5070" gradientUnits="userSpaceOnUse" x2="232" y1="901.11" x1="232"/>
  <linearGradient id="linearGradient5070">
   <stop id="stop5072" style="stop-color:#520" offset="0"/>
   <stop id="stop5074" style="stop-color:#520;stop-opacity:0" offset="1"/>
  </linearGradient>
  <clipPath id="clipPath5066" clipPathUnits="userSpaceOnUse">
   <path id="path5068" d="m211 901.11h42l-3-2.25 1.125-1.5h-38.25l1.125 1.5z" style="fill:#f0f"/>
  </clipPath>
  <filter id="filter5090" width="1.174" y="-.41760" x="-0.087" height="1.8352" color-interpolation-filters="sRGB">
   <feGaussianBlur id="feGaussianBlur5092" stdDeviation="0.6525003"/>
  </filter>
  <radialGradient id="radialGradient4981" xlink:href="#linearGradient5416" gradientUnits="userSpaceOnUse" cy="64" cx="72" gradientTransform="matrix(1 0 0 .125 0 56)" r="8"/>
  <linearGradient id="linearGradient4945" y2="439" xlink:href="#linearGradient5436" gradientUnits="userSpaceOnUse" x2="227" gradientTransform="translate(-1.5625e-8 540.36)" y1="431" x1="227"/>
  <linearGradient id="linearGradient5436">
   <stop id="stop5438" style="stop-color:#f07e51" offset="0"/>
   <stop id="stop5440" style="stop-color:#ec5d24" offset="1"/>
  </linearGradient>
  <linearGradient id="linearGradient4826" y2="431" xlink:href="#linearGradient5442" gradientUnits="userSpaceOnUse" x2="232" gradientTransform="matrix(1.0714 0 0 1 -16.571 540.11)" y1="428" x1="232"/>
  <linearGradient id="linearGradient5442">
   <stop id="stop5444" style="stop-color:#ef7545" offset="0"/>
   <stop id="stop5446" style="stop-color:#eb5114" offset="1"/>
  </linearGradient>
  <linearGradient id="linearGradient4955" y2="44" xlink:href="#linearGradient5416" gradientUnits="userSpaceOnUse" x2="72" y1="42" x1="72"/>
  <linearGradient id="linearGradient4959" y2="44" xlink:href="#linearGradient5416" gradientUnits="userSpaceOnUse" x2="72" gradientTransform="matrix(0.375 0 0 0.375 211 955.36)" y1="42" x1="72"/>
  <linearGradient id="linearGradient5012" y2="60" xlink:href="#linearGradient5014" gradientUnits="userSpaceOnUse" x2="72" y1="64" x1="72"/>
  <linearGradient id="linearGradient5014">
   <stop id="stop5016" style="stop-color:#612d15" offset="0"/>
   <stop id="stop5018" style="stop-color:#8a3f1e;stop-opacity:0" offset="1"/>
  </linearGradient>
  <radialGradient id="radialGradient4990" xlink:href="#linearGradient5014" gradientUnits="userSpaceOnUse" cy="64" cx="72" gradientTransform="matrix(1 0 0 .125 .0000037 56)" r="8"/>
  <radialGradient id="radialGradient5007" xlink:href="#linearGradient4100-5" gradientUnits="userSpaceOnUse" cy="65.062" cx="72" gradientTransform="matrix(1 0 0 .11888 0 57.328)" r="8.9375"/>
  <linearGradient id="linearGradient4100-5">
   <stop id="stop4102-6" style="stop-color:#fff" offset="0"/>
   <stop id="stop4104-89" style="stop-color:#fff;stop-opacity:0" offset="1"/>
  </linearGradient>
  <linearGradient id="linearGradient5030" y2="60" xlink:href="#linearGradient5014" gradientUnits="userSpaceOnUse" x2="72" gradientTransform="matrix(0.375 0 0 0.375 211 955.36)" y1="64" x1="72"/>
  <radialGradient id="radialGradient5032" xlink:href="#linearGradient5014" gradientUnits="userSpaceOnUse" cy="64" cx="72" gradientTransform="matrix(0.375 0 0 .046875 211 976.36)" r="8"/>
  <radialGradient id="radialGradient5034" xlink:href="#linearGradient4100-5" gradientUnits="userSpaceOnUse" cy="65.062" cx="72" gradientTransform="matrix(0.375 0 0 .044580 211 976.86)" r="8.9375"/>
  <linearGradient id="linearGradient4832" y2="404.5" xlink:href="#linearGradient4100-5" spreadMethod="reflect" gradientUnits="userSpaceOnUse" x2="253" gradientTransform="matrix(1 0 0 .37499 0 793.49)" y1="404.5" x1="232"/>
  <filter id="filter4909" width="1.24" y="-.12" x="-.12" height="1.24" color-interpolation-filters="sRGB">
   <feGaussianBlur id="feGaussianBlur4911" stdDeviation="2.4"/>
  </filter>
  <linearGradient id="linearGradient4871" y2="930.36" xlink:href="#linearGradient4865" gradientUnits="userSpaceOnUse" x2="230.88" y1="934.11" x1="230.88"/>
  <linearGradient id="linearGradient4865">
   <stop id="stop4867" style="stop-color:#e1e1e1" offset="0"/>
   <stop id="stop4869" style="stop-color:#fff" offset="1"/>
  </linearGradient>
  <linearGradient id="linearGradient4836" y2="435.59" xlink:href="#radialGradient4931" gradientUnits="userSpaceOnUse" x2="214.5" gradientTransform="translate(-1 475.36)" y1="433.24" x1="214.5"/>
  <radialGradient id="radialGradient4931" gradientUnits="userSpaceOnUse" cy="9.8096" cx="-514.13" gradientTransform="matrix(.5424 0 0 .5424 338.17 67.963)" r="145.95">
   <stop id="stop4933" style="stop-color:#ed8347" offset="0"/>
   <stop id="stop4935" style="stop-color:#e85913" offset="1"/>
  </radialGradient>
  <linearGradient id="linearGradient4860" y2="112" xlink:href="#linearGradient8054" gradientUnits="userSpaceOnUse" x2="82" gradientTransform="matrix(0.375 0 0 0.375 198.62 891.36)" y1="106" x1="82"/>
  <linearGradient id="linearGradient8054">
   <stop id="stop8056" style="stop-color:#de4814" offset="0"/>
   <stop id="stop8058" style="stop-color:#ff6000" offset="1"/>
  </linearGradient>
  <linearGradient id="linearGradient4919" y2="436" xlink:href="#linearGradient5416" gradientUnits="userSpaceOnUse" x2="214.38" gradientTransform="matrix(-1 0 0 1 464 476.36)" y1="433.75" x1="214.38"/>
  <linearGradient id="linearGradient4921" y2="434.5" xlink:href="#linearGradient4147" gradientUnits="userSpaceOnUse" x2="221" gradientTransform="matrix(-1 0 0 1 464 476.36)" y1="434.5" x1="215"/>
  <linearGradient id="linearGradient4923" y2="435.59" xlink:href="#linearGradient5449" gradientUnits="userSpaceOnUse" x2="214.5" gradientTransform="matrix(-1 0 0 1 465 475.36)" y1="433.24" x1="214.5"/>
  <clipPath id="clipPath5212" clipPathUnits="userSpaceOnUse">
   <path id="path5214" d="m78 29-8 8v3l6-6h24l6 6v-3l-8-8zm-2 13v4h2v-4zm22 0v4h2v-4z" style="fill:#0ff"/>
  </clipPath>
  <filter id="filter5220" color-interpolation-filters="sRGB">
   <feGaussianBlur id="feGaussianBlur5222" stdDeviation="1.0566667"/>
  </filter>
 </defs>
 <metadata id="metadata3665">
  <rdf:RDF>
   <cc:Work rdf:about="">
    <dc:format>image/svg+xml</dc:format>
    <dc:type rdf:resource="http://purl.org/dc/dcmitype/StillImage"/>
    <dc:title/>
   </cc:Work>
  </rdf:RDF>
 </metadata>
 <g id="layer1" transform="translate(2092.6 737.35)">
  <g id="128px" transform="matrix(2.6667 0 0 2.6667 -2647.2 -3138.3)">
   <path id="path4840" d="m210.62 911.99h42.75v10 23h-42.75v-23z" style="opacity:.2;filter:url(#filter4848);fill:url(#linearGradient4842)"/>
   <path id="path4691" style="opacity:.3;color:#000000;fill:url(#radialGradient4803)" d="m144 136c0 4.4183-25.072 8-56 8s-56-3.5817-56-8 25.072-8 56-8 56 3.5817 56 8z" transform="matrix(.42857 0 0 0.5 194.29 876.36)"/>
   <path id="path4693" style="opacity:.3;color:#000000;filter:url(#filter7008-1-41)" d="m144 136c0 4.4183-25.072 8-56 8s-56-3.5817-56-8 25.072-8 56-8 56 3.5817 56 8z" transform="matrix(.38528 0 0 .10496 198.1 931.09)"/>
   <g id="g4695" transform="translate(-0.75 -46)">
    <rect id="rect4697" style="fill:#a42b06" height="5.125" width="3" y="951.24" x="226"/>
    <rect id="rect4699" style="fill:#a42b06" height="5.125" width="3" y="951.24" x="236.5"/>
    <path id="path4701" style="fill:url(#linearGradient4806)" d="m226 951.24h13.5l-3-3h-7.5z"/>
    <path id="path4961-4" style="opacity:.2;fill:#fff" d="m226 951.24 3-3h7.5l-7.5 0.375z"/>
   </g>
   <path id="path4705" style="fill:url(#linearGradient4808)" d="m211 945.36h42v-10-23h-42v23z"/>
   <path id="path4707" style="fill:url(#linearGradient4810)" d="m211 912.36h42l-3-2.25 1.125-1.5h-38.25l1.125 1.5z"/>
   <path id="path4709" style="fill:url(#linearGradient4812)" d="m212.88 908.61 1.125 1.5-3 2.25h0.75l3-2.25-0.9-1.125h36.3l-0.9 1.125 3 2.25 0.74999-0.00001-3-2.25 1.125-1.5z"/>
   <path id="path4711" style="fill:url(#linearGradient4814)" d="m214.75 910.11v2.25h-3z"/>
   <path id="path4713" style="opacity:.15;fill:url(#linearGradient4816)" d="m213.85 908.99 0.9 1.125v2.25h6.375v-3.375z"/>
   <path id="path4719" style="fill:url(#radialGradient4822)" d="m211 912.36h30v23h-30z"/>
   <path id="path4721" style="opacity:.5;fill:#f5aa90" d="m211 912.36h41.999v0.37501h-42z"/>
   <path id="path5038" style="opacity:.2;filter:url(#filter5055);fill:#803300" d="m67 56 1 8h8l1-8h-10zm32 0 1 8h8l1-8h-10z" clip-path="url(#clipPath5047)" transform="matrix(0.375 0 0 0.375 199 891.36)"/>
   <path id="path5059" style="opacity:.5;filter:url(#filter5090);fill:url(#linearGradient5076)" d="m222.25 897.36 1.875 3.75h3.75l1.875-3.75zm12 0 1.875 3.75h3.75l1.875-3.75z" clip-path="url(#clipPath5066)" transform="translate(0 11.25)"/>
   <g id="g4723" transform="translate(0,-64)">
    <path id="path4973" style="color:#000000;fill:url(#radialGradient4981)" d="m80 64c0 0.55228-3.5817 1-8 1s-8-0.44772-8-1 3.5817-1 8-1 8 0.44772 8 1z" transform="matrix(0.375 0 0 0.375 199 955.36)"/>
    <path id="path4725" style="fill:url(#linearGradient4945)" d="m224.5 971.11v8.25c1.5 0.375 3 0 3 0v-8.25zm12 0v8.25h3v-8.25z"/>
    <path id="path4727" d="m224.5 971.11h15l-3-3h-9z" style="fill:url(#linearGradient4826)"/>
    <rect id="rect4947" style="color:#000000;fill:url(#linearGradient4955)" transform="matrix(0.375 0 0 0.375 199 955.36)" height="2" width="8" y="42" x="68"/>
    <rect id="rect4957" style="color:#000000;fill:url(#linearGradient4959)" height="0.75" width="3" y="971.11" x="236.5"/>
    <path id="path4961" style="opacity:.2;fill:#fff" d="m68 42 8-8h24l-24 1z" transform="matrix(0.375 0 0 0.375 199 955.36)"/>
    <path id="rect4963" style="opacity:.4;color:#000000;fill:url(#linearGradient5012)" d="m68 60h8v4s-4 1-8 0z" transform="matrix(0.375 0 0 0.375 199 955.36)"/>
    <path id="path4983" style="color:#000000;fill:url(#radialGradient4990)" transform="matrix(0.375 0 0 0.375 199 955.36)" d="m64 64c0 0.55228 3.5817 1 8 1s8-0.44772 8-1h-16z"/>
    <path id="path4992" style="opacity:.3;block-progression:tb;text-indent:0;color:#000000;text-transform:none;fill:url(#radialGradient5007)" transform="matrix(0.375 0 0 0.375 199 955.36)" d="m63.062 64c0 0.42461 0.23876 0.66799 0.40625 0.8125 0.16747 0.14453 0.35871 0.2457 0.59375 0.34375 0.47008 0.196 1.0928 0.36195 1.875 0.5 1.5643 0.27605 3.7011 0.46875 6.0625 0.46875s4.4982-0.1928 6.0625-0.46875c0.78216-0.13813 1.4049-0.30387 1.875-0.5 0.23493-0.09813 0.42618-0.19916 0.59375-0.34375 0.168-0.144 0.407-0.387 0.407-0.812h-1.2188c-0.39 0.163-1.025 0.335-1.781 0.469-1.513 0.267-3.605 0.406-5.938 0.406s-4.4254-0.13932-5.9375-0.40625c-0.756-0.134-1.391-0.306-1.781-0.469h-1.2188z"/>
    <path id="path5020" style="color:#000000;fill:url(#radialGradient4981)" d="m80 64c0 0.55228-3.5817 1-8 1s-8-0.44772-8-1 3.5817-1 8-1 8 0.44772 8 1z" transform="matrix(0.375 0 0 0.375 211 955.36)"/>
    <path id="path5022" d="m236.5 977.86h3v1.5s-1.5 0.375-3 0z" style="opacity:.4;color:#000000;fill:url(#linearGradient5030)"/>
    <path id="path5024" style="color:#000000;fill:url(#radialGradient5032)" d="m235 979.36c0 0.20711 1.3432 0.375 3 0.375 1.6569 0 3-0.16789 3-0.375h-6z"/>
    <path id="path5026" style="opacity:.3;block-progression:tb;text-indent:0;color:#000000;text-transform:none;fill:url(#radialGradient5034)" d="m234.65 979.36c0 0.15923 0.0895 0.2505 0.15234 0.30469 0.0628 0.0542 0.13452 0.0921 0.22266 0.12891 0.17628 0.0735 0.40982 0.13573 0.70313 0.1875 0.58663 0.10352 1.3879 0.17578 2.2734 0.17578 0.88553 0 1.6868-0.0723 2.2734-0.17578 0.29331-0.0518 0.52685-0.11395 0.70313-0.1875 0.0881-0.0368 0.15981-0.0747 0.22265-0.12891 0.0628-0.0542 0.15235-0.14546 0.15235-0.30469h-0.45703c-0.14631 0.061-0.38446 0.12575-0.66797 0.17578-0.56702 0.10006-1.3517 0.15235-2.2266 0.15235-0.87488 0-1.6595-0.0523-2.2266-0.15235-0.28351-0.05-0.52165-0.11474-0.66797-0.17578h-0.45703z"/>
   </g>
   <path id="path4739" d="m211.09 944.99-0.0937 0.37499h42l-0.0937-0.37499h-41.812z" style="opacity:.2;fill:url(#linearGradient4832)"/>
   <path id="path4899" d="m82.906 78c-1.5977 3.3247-3.1498 6.7405-4.6562 10.25-1.4608 3.4631-2.9792 7.1213-4.5312 11-0.34307 0.88333-0.68345 1.8403-1.0312 2.75h10.156c0.10904-0.30296 0.23584-0.63912 0.34375-0.9375 0.73037-1.8933 1.3753-3.6177 1.9688-5.1875 0.59347-1.5701 1.106-2.9557 1.5625-4.1562 0.45648-1.2005 0.80298-2.151 1.0312-2.8438 0.27389 0.6928 0.63727 1.643 1.0938 2.8438 0.45651 1.2005 1.0004 2.5862 1.5938 4.1562 0.63909 1.5698 1.284 3.2942 1.9688 5.1875 0.10791 0.29838 0.2347 0.63454 0.34375 0.9375h10.531c-0.35594-0.90998-0.70894-1.8664-1.0625-2.75-1.51-3.879-3.026-7.537-4.532-11-1.507-3.509-3.042-6.925-4.594-10.25h-10.188zm-15.344 37.84c-1.149 3.22-2.324 6.56-3.562 10.16h11.094c0.50216-1.6625 1.0628-3.3702 1.6562-5.125 0.59367-1.63 1.1644-3.245 1.7188-4.875h-9.469c-0.49523 0-0.97186-0.0593-1.4375-0.15625zm40.844 0c-0.46 0.1-0.93 0.16-1.41 0.16h-9.8125c0.55109 1.6295 1.1051 3.2455 1.6562 4.875 0.63904 1.7546 1.2166 3.4625 1.7188 5.125h11.44c-1.2383-3.5971-2.4126-6.9388-3.5625-10.156-0.01 0.002-0.0214-0.002-0.0312 0z" style="opacity:.2;filter:url(#filter4909);fill:#d24e1a" transform="matrix(0.375 0 0 0.375 199 891.36)"/>
   <rect id="rect4741" style="opacity:.2;fill:none" transform="translate(0 692.36)" height="48" width="48" y="208" x="208"/>
   <path id="path4743" style="fill:#fff" transform="matrix(0.375 0 0 0.375 199 891.36)" d="m82.906 78c-1.5977 3.3247-3.1498 6.7405-4.6562 10.25-1.4608 3.4631-2.9792 7.1213-4.5312 11-0.34307 0.88333-0.68345 1.8403-1.0312 2.75h10.156c0.10904-0.30296 0.23584-0.63912 0.34375-0.9375 0.73037-1.8933 1.3753-3.6177 1.9688-5.1875 0.59347-1.5701 1.106-2.9557 1.5625-4.1562 0.45648-1.2005 0.80298-2.151 1.0312-2.8438 0.27389 0.6928 0.63727 1.643 1.0938 2.8438 0.45651 1.2005 1.0004 2.5862 1.5938 4.1562 0.63909 1.5698 1.284 3.2942 1.9688 5.1875 0.10791 0.29838 0.2347 0.63454 0.34375 0.9375h10.531c-0.35594-0.90998-0.70894-1.8664-1.0625-2.75-1.51-3.879-3.026-7.537-4.532-11-1.507-3.509-3.042-6.925-4.594-10.25h-10.188zm-15.344 37.84c-1.149 3.22-2.324 6.56-3.562 10.16h11.094c0.50216-1.6625 1.0628-3.3702 1.6562-5.125 0.59367-1.63 1.1644-3.245 1.7188-4.875h-9.469c-0.49523 0-0.97186-0.0593-1.4375-0.15625zm40.844 0c-0.46 0.1-0.93 0.16-1.41 0.16h-9.8125c0.55109 1.6295 1.1051 3.2455 1.6562 4.875 0.63904 1.7546 1.2166 3.4625 1.7188 5.125h11.44c-1.2383-3.5971-2.4126-6.9388-3.5625-10.156-0.01 0.002-0.0214-0.002-0.0312 0z"/>
   <rect id="rect4873" style="opacity:.5;fill:#cd4711" ry="1.875" height="3.75" width="18" y="930.74" x="223"/>
   <rect id="rect4747" style="fill:url(#linearGradient4871)" ry="1.875" height="3.75" width="18" y="930.36" x="223"/>
   <path id="path4751" d="m212.88 908.61 1.125 1.5-1.1233 0.84247z" style="fill:url(#linearGradient4836)"/>
   <rect id="rect4886" style="color:#000000;fill:#fff" ry="1.125" height="2.25" width="11.25" y="931.49" x="223.75"/>
   <rect id="rect4852" style="color:#000000;fill:url(#linearGradient4860)" ry="1.125" height="2.25" width="11.25" y="931.11" x="223.75"/>
   <path id="rect4877" style="fill:#fff" transform="matrix(0.375 0 0 0.375 199 891.36)" d="m69 104c-2.77 0-5 2.23-5 5 0 0.17313 0.01424 0.33151 0.03125 0.5 0.255-2.53 2.372-4.5 4.969-4.5h38c2.5969 0 4.7136 1.9726 4.9688 4.5 0.017-0.16849 0.0312-0.32687 0.0312-0.5 0-2.77-2.23-5-5-5h-38z"/>
   <path id="rect4890" style="opacity:.1;color:#000000" transform="matrix(0.375 0 0 0.375 199 891.36)" d="m69 106c-1.662 0-3 1.338-3 3 0 0.17531 0.03392 0.33309 0.0625 0.5 0.243-1.42 1.451-2.5 2.938-2.5h24c1.4867 0 2.6951 1.0845 2.9375 2.5 0.028-0.17 0.062-0.32 0.062-0.5 0-1.662-1.338-3-3-3h-24z"/>
   <path id="path4913" d="m249.25 910.11v2.25h3z" style="fill:url(#linearGradient4919)"/>
   <path id="path4915" d="m250.15 908.99-0.9 1.125v2.25h-6.375v-3.375z" style="opacity:.15;fill:url(#linearGradient4921)"/>
   <path id="path4917" style="fill:url(#linearGradient4923)" d="m251.12 908.61-1.125 1.5 1.1233 0.84247z"/>
   <path id="path4725-1" style="filter:url(#filter5220);fill:#771f0f" d="m76 34-8 8v22c4 1 8 0 8 0v-22h24v22h8v-22l-8-8h-24z" clip-path="url(#clipPath5212)" transform="matrix(0.375 0 0 0.375 199 891.36)"/>
  </g>
  <g id="g4039" transform="matrix(2.6667 0 0 2.6667 -2647.2 -3138.3)">
   <path id="path4041" style="opacity:.2;filter:url(#filter4848);fill:url(#linearGradient4842)" d="m210.62 911.99h42.75v10 23h-42.75v-23z"/>
   <path id="path4043" style="opacity:.3;color:#000000;fill:url(#radialGradient4803)" d="m144 136c0 4.4183-25.072 8-56 8s-56-3.5817-56-8 25.072-8 56-8 56 3.5817 56 8z" transform="matrix(.42857 0 0 0.5 194.29 876.36)"/>
   <path id="path4045" style="opacity:.3;color:#000000;filter:url(#filter7008-1-41)" d="m144 136c0 4.4183-25.072 8-56 8s-56-3.5817-56-8 25.072-8 56-8 56 3.5817 56 8z" transform="matrix(.38528 0 0 .10496 198.1 931.09)"/>
   <g id="g4047" transform="translate(-0.75 -46)">
    <rect id="rect4049" style="fill:#a42b06" height="5.125" width="3" y="951.24" x="226"/>
    <rect id="rect4051" style="fill:#a42b06" height="5.125" width="3" y="951.24" x="236.5"/>
    <path id="path4053" d="m226 951.24h13.5l-3-3h-7.5z" style="fill:url(#linearGradient4806)"/>
    <path id="path4055" d="m226 951.24 3-3h7.5l-7.5 0.375z" style="opacity:.2;fill:#fff"/>
   </g>
   <path id="path4057" d="m211 945.36h42v-10-23h-42v23z" style="fill:url(#linearGradient4808)"/>
   <path id="path4059" d="m211 912.36h42l-3-2.25 1.125-1.5h-38.25l1.125 1.5z" style="fill:url(#linearGradient4810)"/>
   <path id="path4061" style="fill:url(#linearGradient4812)" d="m212.88 908.61 1.125 1.5-3 2.25h0.75l3-2.25-0.9-1.125h36.3l-0.9 1.125 3 2.25 0.74999-0.00001-3-2.25 1.125-1.5z"/>
   <path id="path4063" d="m214.75 910.11v2.25h-3z" style="fill:url(#linearGradient4814)"/>
   <path id="path4065" d="m213.85 908.99 0.9 1.125v2.25h6.375v-3.375z" style="opacity:.15;fill:url(#linearGradient4816)"/>
   <path id="path4067" d="m211 912.36h30v23h-30z" style="fill:url(#radialGradient4822)"/>
   <path id="path4069" d="m211 912.36h41.999v0.37501h-42z" style="opacity:.5;fill:#f5aa90"/>
   <path id="path4071" style="opacity:.2;filter:url(#filter5055);fill:#803300" d="m67 56 1 8h8l1-8h-10zm32 0 1 8h8l1-8h-10z" clip-path="url(#clipPath5047)" transform="matrix(0.375 0 0 0.375 199 891.36)"/>
   <path id="path4073" style="opacity:.5;filter:url(#filter5090);fill:url(#linearGradient5076)" d="m222.25 897.36 1.875 3.75h3.75l1.875-3.75zm12 0 1.875 3.75h3.75l1.875-3.75z" clip-path="url(#clipPath5066)" transform="translate(0 11.25)"/>
   <g id="g4075" transform="translate(0,-64)">
    <path id="path4077" style="color:#000000;fill:url(#radialGradient4981)" d="m80 64c0 0.55228-3.5817 1-8 1s-8-0.44772-8-1 3.5817-1 8-1 8 0.44772 8 1z" transform="matrix(0.375 0 0 0.375 199 955.36)"/>
    <path id="path4079" d="m224.5 971.11v8.25c1.5 0.375 3 0 3 0v-8.25zm12 0v8.25h3v-8.25z" style="fill:url(#linearGradient4945)"/>
    <path id="path4081" style="fill:url(#linearGradient4826)" d="m224.5 971.11h15l-3-3h-9z"/>
    <rect id="rect4083" style="color:#000000;fill:url(#linearGradient4955)" transform="matrix(0.375 0 0 0.375 199 955.36)" height="2" width="8" y="42" x="68"/>
    <rect id="rect4085" style="color:#000000;fill:url(#linearGradient4959)" height="0.75" width="3" y="971.11" x="236.5"/>
    <path id="path4087" d="m68 42 8-8h24l-24 1z" style="opacity:.2;fill:#fff" transform="matrix(0.375 0 0 0.375 199 955.36)"/>
    <path id="path4089" style="opacity:.4;color:#000000;fill:url(#linearGradient5012)" d="m68 60h8v4s-4 1-8 0z" transform="matrix(0.375 0 0 0.375 199 955.36)"/>
    <path id="path4091" d="m64 64c0 0.55228 3.5817 1 8 1s8-0.44772 8-1h-16z" style="color:#000000;fill:url(#radialGradient4990)" transform="matrix(0.375 0 0 0.375 199 955.36)"/>
    <path id="path4093" d="m63.062 64c0 0.42461 0.23876 0.66799 0.40625 0.8125 0.16747 0.14453 0.35871 0.2457 0.59375 0.34375 0.47008 0.196 1.0928 0.36195 1.875 0.5 1.5643 0.27605 3.7011 0.46875 6.0625 0.46875s4.4982-0.1928 6.0625-0.46875c0.78216-0.13813 1.4049-0.30387 1.875-0.5 0.23493-0.09813 0.42618-0.19916 0.59375-0.34375 0.168-0.144 0.407-0.387 0.407-0.812h-1.2188c-0.39 0.163-1.025 0.335-1.781 0.469-1.513 0.267-3.605 0.406-5.938 0.406s-4.4254-0.13932-5.9375-0.40625c-0.756-0.134-1.391-0.306-1.781-0.469h-1.2188z" style="opacity:.3;block-progression:tb;text-indent:0;color:#000000;text-transform:none;fill:url(#radialGradient5007)" transform="matrix(0.375 0 0 0.375 199 955.36)"/>
    <path id="path4095" style="color:#000000;fill:url(#radialGradient4981)" d="m80 64c0 0.55228-3.5817 1-8 1s-8-0.44772-8-1 3.5817-1 8-1 8 0.44772 8 1z" transform="matrix(0.375 0 0 0.375 211 955.36)"/>
    <path id="path4097" style="opacity:.4;color:#000000;fill:url(#linearGradient5030)" d="m236.5 977.86h3v1.5s-1.5 0.375-3 0z"/>
    <path id="path4099" style="color:#000000;fill:url(#radialGradient5032)" d="m235 979.36c0 0.20711 1.3432 0.375 3 0.375 1.6569 0 3-0.16789 3-0.375h-6z"/>
    <path id="path4101" style="opacity:.3;block-progression:tb;text-indent:0;color:#000000;text-transform:none;fill:url(#radialGradient5034)" d="m234.65 979.36c0 0.15923 0.0895 0.2505 0.15234 0.30469 0.0628 0.0542 0.13452 0.0921 0.22266 0.12891 0.17628 0.0735 0.40982 0.13573 0.70313 0.1875 0.58663 0.10352 1.3879 0.17578 2.2734 0.17578 0.88553 0 1.6868-0.0723 2.2734-0.17578 0.29331-0.0518 0.52685-0.11395 0.70313-0.1875 0.0881-0.0368 0.15981-0.0747 0.22265-0.12891 0.0628-0.0542 0.15235-0.14546 0.15235-0.30469h-0.45703c-0.14631 0.061-0.38446 0.12575-0.66797 0.17578-0.56702 0.10006-1.3517 0.15235-2.2266 0.15235-0.87488 0-1.6595-0.0523-2.2266-0.15235-0.28351-0.05-0.52165-0.11474-0.66797-0.17578h-0.45703z"/>
   </g>
   <path id="path4103" style="opacity:.2;fill:url(#linearGradient4832)" d="m211.09 944.99-0.0937 0.37499h42l-0.0937-0.37499h-41.812z"/>
   <path id="path4105" style="opacity:.2;filter:url(#filter4909);fill:#d24e1a" d="m82.906 78c-1.5977 3.3247-3.1498 6.7405-4.6562 10.25-1.4608 3.4631-2.9792 7.1213-4.5312 11-0.34307 0.88333-0.68345 1.8403-1.0312 2.75h10.156c0.10904-0.30296 0.23584-0.63912 0.34375-0.9375 0.73037-1.8933 1.3753-3.6177 1.9688-5.1875 0.59347-1.5701 1.106-2.9557 1.5625-4.1562 0.45648-1.2005 0.80298-2.151 1.0312-2.8438 0.27389 0.6928 0.63727 1.643 1.0938 2.8438 0.45651 1.2005 1.0004 2.5862 1.5938 4.1562 0.63909 1.5698 1.284 3.2942 1.9688 5.1875 0.10791 0.29838 0.2347 0.63454 0.34375 0.9375h10.531c-0.35594-0.90998-0.70894-1.8664-1.0625-2.75-1.51-3.879-3.026-7.537-4.532-11-1.507-3.509-3.042-6.925-4.594-10.25h-10.188zm-15.344 37.84c-1.149 3.22-2.324 6.56-3.562 10.16h11.094c0.50216-1.6625 1.0628-3.3702 1.6562-5.125 0.59367-1.63 1.1644-3.245 1.7188-4.875h-9.469c-0.49523 0-0.97186-0.0593-1.4375-0.15625zm40.844 0c-0.46 0.1-0.93 0.16-1.41 0.16h-9.8125c0.55109 1.6295 1.1051 3.2455 1.6562 4.875 0.63904 1.7546 1.2166 3.4625 1.7188 5.125h11.44c-1.2383-3.5971-2.4126-6.9388-3.5625-10.156-0.01 0.002-0.0214-0.002-0.0312 0z" transform="matrix(0.375 0 0 0.375 199 891.36)"/>
   <rect id="rect4107" style="opacity:.2;fill:none" transform="translate(0 692.36)" height="48" width="48" y="208" x="208"/>
   <path id="path4109" d="m82.906 78c-1.5977 3.3247-3.1498 6.7405-4.6562 10.25-1.4608 3.4631-2.9792 7.1213-4.5312 11-0.34307 0.88333-0.68345 1.8403-1.0312 2.75h10.156c0.10904-0.30296 0.23584-0.63912 0.34375-0.9375 0.73037-1.8933 1.3753-3.6177 1.9688-5.1875 0.59347-1.5701 1.106-2.9557 1.5625-4.1562 0.45648-1.2005 0.80298-2.151 1.0312-2.8438 0.27389 0.6928 0.63727 1.643 1.0938 2.8438 0.45651 1.2005 1.0004 2.5862 1.5938 4.1562 0.63909 1.5698 1.284 3.2942 1.9688 5.1875 0.10791 0.29838 0.2347 0.63454 0.34375 0.9375h10.531c-0.35594-0.90998-0.70894-1.8664-1.0625-2.75-1.51-3.879-3.026-7.537-4.532-11-1.507-3.509-3.042-6.925-4.594-10.25h-10.188zm-15.344 37.84c-1.149 3.22-2.324 6.56-3.562 10.16h11.094c0.50216-1.6625 1.0628-3.3702 1.6562-5.125 0.59367-1.63 1.1644-3.245 1.7188-4.875h-9.469c-0.49523 0-0.97186-0.0593-1.4375-0.15625zm40.844 0c-0.46 0.1-0.93 0.16-1.41 0.16h-9.8125c0.55109 1.6295 1.1051 3.2455 1.6562 4.875 0.63904 1.7546 1.2166 3.4625 1.7188 5.125h11.44c-1.2383-3.5971-2.4126-6.9388-3.5625-10.156-0.01 0.002-0.0214-0.002-0.0312 0z" style="fill:#fff" transform="matrix(0.375 0 0 0.375 199 891.36)"/>
   <rect id="rect4111" style="opacity:.5;fill:#cd4711" ry="1.875" height="3.75" width="18" y="930.74" x="223"/>
   <rect id="rect4113" style="fill:url(#linearGradient4871)" ry="1.875" height="3.75" width="18" y="930.36" x="223"/>
   <path id="path4115" style="fill:url(#linearGradient4836)" d="m212.88 908.61 1.125 1.5-1.1233 0.84247z"/>
   <rect id="rect4117" style="color:#000000;fill:#fff" ry="1.125" height="2.25" width="11.25" y="931.49" x="223.75"/>
   <rect id="rect4119" style="color:#000000;fill:url(#linearGradient4860)" ry="1.125" height="2.25" width="11.25" y="931.11" x="223.75"/>
   <path id="path4121" d="m69 104c-2.77 0-5 2.23-5 5 0 0.17313 0.01424 0.33151 0.03125 0.5 0.255-2.53 2.372-4.5 4.969-4.5h38c2.5969 0 4.7136 1.9726 4.9688 4.5 0.017-0.16849 0.0312-0.32687 0.0312-0.5 0-2.77-2.23-5-5-5h-38z" style="fill:#fff" transform="matrix(0.375 0 0 0.375 199 891.36)"/>
   <path id="path4123" d="m69 106c-1.662 0-3 1.338-3 3 0 0.17531 0.03392 0.33309 0.0625 0.5 0.243-1.42 1.451-2.5 2.938-2.5h24c1.4867 0 2.6951 1.0845 2.9375 2.5 0.028-0.17 0.062-0.32 0.062-0.5 0-1.662-1.338-3-3-3h-24z" style="opacity:.1;color:#000000" transform="matrix(0.375 0 0 0.375 199 891.36)"/>
   <path id="path4125" style="fill:url(#linearGradient4919)" d="m249.25 910.11v2.25h3z"/>
   <path id="path4127" style="opacity:.15;fill:url(#linearGradient4921)" d="m250.15 908.99-0.9 1.125v2.25h-6.375v-3.375z"/>
   <path id="path4129" d="m251.12 908.61-1.125 1.5 1.1233 0.84247z" style="fill:url(#linearGradient4923)"/>
   <path id="path4131" style="filter:url(#filter5220);fill:#771f0f" d="m76 34-8 8v22c4 1 8 0 8 0v-22h24v22h8v-22l-8-8h-24z" clip-path="url(#clipPath5212)" transform="matrix(0.375 0 0 0.375 199 891.36)"/>
  </g>
  <g id="use4133" transform="matrix(2.6667 0 0 2.6667 -2647.2 -3138.3)">
   <path id="path4137" d="m210.62 911.99h42.75v10 23h-42.75v-23z" style="opacity:.2;filter:url(#filter4848);fill:url(#linearGradient4842)"/>
   <path id="path4139" style="opacity:.3;color:#000000;fill:url(#radialGradient4803)" d="m144 136c0 4.4183-25.072 8-56 8s-56-3.5817-56-8 25.072-8 56-8 56 3.5817 56 8z" transform="matrix(.42857 0 0 0.5 194.29 876.36)"/>
   <path id="path4141" style="opacity:.3;color:#000000;filter:url(#filter7008-1-41)" d="m144 136c0 4.4183-25.072 8-56 8s-56-3.5817-56-8 25.072-8 56-8 56 3.5817 56 8z" transform="matrix(.38528 0 0 .10496 198.1 931.09)"/>
   <g id="g4143" transform="translate(-0.75 -46)">
    <rect id="rect4145" style="fill:#a42b06" height="5.125" width="3" y="951.24" x="226"/>
    <rect id="rect4147" style="fill:#a42b06" height="5.125" width="3" y="951.24" x="236.5"/>
    <path id="path4149" style="fill:url(#linearGradient4806)" d="m226 951.24h13.5l-3-3h-7.5z"/>
    <path id="path4151" style="opacity:.2;fill:#fff" d="m226 951.24 3-3h7.5l-7.5 0.375z"/>
   </g>
   <path id="path4153" style="fill:url(#linearGradient4808)" d="m211 945.36h42v-10-23h-42v23z"/>
   <path id="path4155" style="fill:url(#linearGradient4810)" d="m211 912.36h42l-3-2.25 1.125-1.5h-38.25l1.125 1.5z"/>
   <path id="path4157" style="fill:url(#linearGradient4812)" d="m212.88 908.61 1.125 1.5-3 2.25h0.75l3-2.25-0.9-1.125h36.3l-0.9 1.125 3 2.25 0.74999-0.00001-3-2.25 1.125-1.5z"/>
   <path id="path4159" style="fill:url(#linearGradient4814)" d="m214.75 910.11v2.25h-3z"/>
   <path id="path4161" style="opacity:.15;fill:url(#linearGradient4816)" d="m213.85 908.99 0.9 1.125v2.25h6.375v-3.375z"/>
   <path id="path4163" style="fill:url(#radialGradient4822)" d="m211 912.36h30v23h-30z"/>
   <path id="path4165" style="opacity:.5;fill:#f5aa90" d="m211 912.36h41.999v0.37501h-42z"/>
   <path id="path4167" style="opacity:.2;filter:url(#filter5055);fill:#803300" d="m67 56 1 8h8l1-8h-10zm32 0 1 8h8l1-8h-10z" clip-path="url(#clipPath5047)" transform="matrix(0.375 0 0 0.375 199 891.36)"/>
   <path id="path4169" style="opacity:.5;filter:url(#filter5090);fill:url(#linearGradient5076)" d="m222.25 897.36 1.875 3.75h3.75l1.875-3.75zm12 0 1.875 3.75h3.75l1.875-3.75z" clip-path="url(#clipPath5066)" transform="translate(0 11.25)"/>
   <g id="g4171" transform="translate(0,-64)">
    <path id="path4173" style="color:#000000;fill:url(#radialGradient4981)" d="m80 64c0 0.55228-3.5817 1-8 1s-8-0.44772-8-1 3.5817-1 8-1 8 0.44772 8 1z" transform="matrix(0.375 0 0 0.375 199 955.36)"/>
    <path id="path4175" style="fill:url(#linearGradient4945)" d="m224.5 971.11v8.25c1.5 0.375 3 0 3 0v-8.25zm12 0v8.25h3v-8.25z"/>
    <path id="path4177" d="m224.5 971.11h15l-3-3h-9z" style="fill:url(#linearGradient4826)"/>
    <rect id="rect4179" style="color:#000000;fill:url(#linearGradient4955)" transform="matrix(0.375 0 0 0.375 199 955.36)" height="2" width="8" y="42" x="68"/>
    <rect id="rect4181" style="color:#000000;fill:url(#linearGradient4959)" height="0.75" width="3" y="971.11" x="236.5"/>
    <path id="path4183" style="opacity:.2;fill:#fff" d="m68 42 8-8h24l-24 1z" transform="matrix(0.375 0 0 0.375 199 955.36)"/>
    <path id="path4185" style="opacity:.4;color:#000000;fill:url(#linearGradient5012)" d="m68 60h8v4s-4 1-8 0z" transform="matrix(0.375 0 0 0.375 199 955.36)"/>
    <path id="path4187" style="color:#000000;fill:url(#radialGradient4990)" transform="matrix(0.375 0 0 0.375 199 955.36)" d="m64 64c0 0.55228 3.5817 1 8 1s8-0.44772 8-1h-16z"/>
    <path id="path4189" style="opacity:.3;block-progression:tb;text-indent:0;color:#000000;text-transform:none;fill:url(#radialGradient5007)" transform="matrix(0.375 0 0 0.375 199 955.36)" d="m63.062 64c0 0.42461 0.23876 0.66799 0.40625 0.8125 0.16747 0.14453 0.35871 0.2457 0.59375 0.34375 0.47008 0.196 1.0928 0.36195 1.875 0.5 1.5643 0.27605 3.7011 0.46875 6.0625 0.46875s4.4982-0.1928 6.0625-0.46875c0.78216-0.13813 1.4049-0.30387 1.875-0.5 0.23493-0.09813 0.42618-0.19916 0.59375-0.34375 0.168-0.144 0.407-0.387 0.407-0.812h-1.2188c-0.39 0.163-1.025 0.335-1.781 0.469-1.513 0.267-3.605 0.406-5.938 0.406s-4.4254-0.13932-5.9375-0.40625c-0.756-0.134-1.391-0.306-1.781-0.469h-1.2188z"/>
    <path id="path4191" style="color:#000000;fill:url(#radialGradient4981)" d="m80 64c0 0.55228-3.5817 1-8 1s-8-0.44772-8-1 3.5817-1 8-1 8 0.44772 8 1z" transform="matrix(0.375 0 0 0.375 211 955.36)"/>
    <path id="path4193" d="m236.5 977.86h3v1.5s-1.5 0.375-3 0z" style="opacity:.4;color:#000000;fill:url(#linearGradient5030)"/>
    <path id="path4195" style="color:#000000;fill:url(#radialGradient5032)" d="m235 979.36c0 0.20711 1.3432 0.375 3 0.375 1.6569 0 3-0.16789 3-0.375h-6z"/>
    <path id="path4197" style="opacity:.3;block-progression:tb;text-indent:0;color:#000000;text-transform:none;fill:url(#radialGradient5034)" d="m234.65 979.36c0 0.15923 0.0895 0.2505 0.15234 0.30469 0.0628 0.0542 0.13452 0.0921 0.22266 0.12891 0.17628 0.0735 0.40982 0.13573 0.70313 0.1875 0.58663 0.10352 1.3879 0.17578 2.2734 0.17578 0.88553 0 1.6868-0.0723 2.2734-0.17578 0.29331-0.0518 0.52685-0.11395 0.70313-0.1875 0.0881-0.0368 0.15981-0.0747 0.22265-0.12891 0.0628-0.0542 0.15235-0.14546 0.15235-0.30469h-0.45703c-0.14631 0.061-0.38446 0.12575-0.66797 0.17578-0.56702 0.10006-1.3517 0.15235-2.2266 0.15235-0.87488 0-1.6595-0.0523-2.2266-0.15235-0.28351-0.05-0.52165-0.11474-0.66797-0.17578h-0.45703z"/>
   </g>
   <path id="path4199" d="m211.09 944.99-0.0937 0.37499h42l-0.0937-0.37499h-41.812z" style="opacity:.2;fill:url(#linearGradient4832)"/>
   <path id="path4201" d="m82.906 78c-1.5977 3.3247-3.1498 6.7405-4.6562 10.25-1.4608 3.4631-2.9792 7.1213-4.5312 11-0.34307 0.88333-0.68345 1.8403-1.0312 2.75h10.156c0.10904-0.30296 0.23584-0.63912 0.34375-0.9375 0.73037-1.8933 1.3753-3.6177 1.9688-5.1875 0.59347-1.5701 1.106-2.9557 1.5625-4.1562 0.45648-1.2005 0.80298-2.151 1.0312-2.8438 0.27389 0.6928 0.63727 1.643 1.0938 2.8438 0.45651 1.2005 1.0004 2.5862 1.5938 4.1562 0.63909 1.5698 1.284 3.2942 1.9688 5.1875 0.10791 0.29838 0.2347 0.63454 0.34375 0.9375h10.531c-0.35594-0.90998-0.70894-1.8664-1.0625-2.75-1.51-3.879-3.026-7.537-4.532-11-1.507-3.509-3.042-6.925-4.594-10.25h-10.188zm-15.344 37.84c-1.149 3.22-2.324 6.56-3.562 10.16h11.094c0.50216-1.6625 1.0628-3.3702 1.6562-5.125 0.59367-1.63 1.1644-3.245 1.7188-4.875h-9.469c-0.49523 0-0.97186-0.0593-1.4375-0.15625zm40.844 0c-0.46 0.1-0.93 0.16-1.41 0.16h-9.8125c0.55109 1.6295 1.1051 3.2455 1.6562 4.875 0.63904 1.7546 1.2166 3.4625 1.7188 5.125h11.44c-1.2383-3.5971-2.4126-6.9388-3.5625-10.156-0.01 0.002-0.0214-0.002-0.0312 0z" style="opacity:.2;filter:url(#filter4909);fill:#d24e1a" transform="matrix(0.375 0 0 0.375 199 891.36)"/>
   <rect id="rect4203" style="opacity:.2;fill:none" transform="translate(0 692.36)" height="48" width="48" y="208" x="208"/>
   <path id="path4205" style="fill:#fff" transform="matrix(0.375 0 0 0.375 199 891.36)" d="m82.906 78c-1.5977 3.3247-3.1498 6.7405-4.6562 10.25-1.4608 3.4631-2.9792 7.1213-4.5312 11-0.34307 0.88333-0.68345 1.8403-1.0312 2.75h10.156c0.10904-0.30296 0.23584-0.63912 0.34375-0.9375 0.73037-1.8933 1.3753-3.6177 1.9688-5.1875 0.59347-1.5701 1.106-2.9557 1.5625-4.1562 0.45648-1.2005 0.80298-2.151 1.0312-2.8438 0.27389 0.6928 0.63727 1.643 1.0938 2.8438 0.45651 1.2005 1.0004 2.5862 1.5938 4.1562 0.63909 1.5698 1.284 3.2942 1.9688 5.1875 0.10791 0.29838 0.2347 0.63454 0.34375 0.9375h10.531c-0.35594-0.90998-0.70894-1.8664-1.0625-2.75-1.51-3.879-3.026-7.537-4.532-11-1.507-3.509-3.042-6.925-4.594-10.25h-10.188zm-15.344 37.84c-1.149 3.22-2.324 6.56-3.562 10.16h11.094c0.50216-1.6625 1.0628-3.3702 1.6562-5.125 0.59367-1.63 1.1644-3.245 1.7188-4.875h-9.469c-0.49523 0-0.97186-0.0593-1.4375-0.15625zm40.844 0c-0.46 0.1-0.93 0.16-1.41 0.16h-9.8125c0.55109 1.6295 1.1051 3.2455 1.6562 4.875 0.63904 1.7546 1.2166 3.4625 1.7188 5.125h11.44c-1.2383-3.5971-2.4126-6.9388-3.5625-10.156-0.01 0.002-0.0214-0.002-0.0312 0z"/>
   <rect id="rect4207" style="opacity:.5;fill:#cd4711" ry="1.875" height="3.75" width="18" y="930.74" x="223"/>
   <rect id="rect4209" style="fill:url(#linearGradient4871)" ry="1.875" height="3.75" width="18" y="930.36" x="223"/>
   <path id="path4211" d="m212.88 908.61 1.125 1.5-1.1233 0.84247z" style="fill:url(#linearGradient4836)"/>
   <rect id="rect4213" style="color:#000000;fill:#fff" ry="1.125" height="2.25" width="11.25" y="931.49" x="223.75"/>
   <rect id="rect4215" style="color:#000000;fill:url(#linearGradient4860)" ry="1.125" height="2.25" width="11.25" y="931.11" x="223.75"/>
   <path id="path4217" style="fill:#fff" transform="matrix(0.375 0 0 0.375 199 891.36)" d="m69 104c-2.77 0-5 2.23-5 5 0 0.17313 0.01424 0.33151 0.03125 0.5 0.255-2.53 2.372-4.5 4.969-4.5h38c2.5969 0 4.7136 1.9726 4.9688 4.5 0.017-0.16849 0.0312-0.32687 0.0312-0.5 0-2.77-2.23-5-5-5h-38z"/>
   <path id="path4219" style="opacity:.1;color:#000000" transform="matrix(0.375 0 0 0.375 199 891.36)" d="m69 106c-1.662 0-3 1.338-3 3 0 0.17531 0.03392 0.33309 0.0625 0.5 0.243-1.42 1.451-2.5 2.938-2.5h24c1.4867 0 2.6951 1.0845 2.9375 2.5 0.028-0.17 0.062-0.32 0.062-0.5 0-1.662-1.338-3-3-3h-24z"/>
   <path id="path4221" d="m249.25 910.11v2.25h3z" style="fill:url(#linearGradient4919)"/>
   <path id="path4223" d="m250.15 908.99-0.9 1.125v2.25h-6.375v-3.375z" style="opacity:.15;fill:url(#linearGradient4921)"/>
   <path id="path4225" style="fill:url(#linearGradient4923)" d="m251.12 908.61-1.125 1.5 1.1233 0.84247z"/>
   <path id="path4227" style="filter:url(#filter5220);fill:#771f0f" d="m76 34-8 8v22c4 1 8 0 8 0v-22h24v22h8v-22l-8-8h-24z" clip-path="url(#clipPath5212)" transform="matrix(0.375 0 0 0.375 199 891.36)"/>
  </g>
  <g id="g4287" transform="matrix(2.6667 0 0 2.6667 -2647.2 -3138.3)">
   <path id="path4289" style="opacity:.2;filter:url(#filter4848);fill:url(#linearGradient4842)" d="m210.62 911.99h42.75v10 23h-42.75v-23z"/>
   <path id="path4291" style="opacity:.3;color:#000000;fill:url(#radialGradient4803)" d="m144 136c0 4.4183-25.072 8-56 8s-56-3.5817-56-8 25.072-8 56-8 56 3.5817 56 8z" transform="matrix(.42857 0 0 0.5 194.29 876.36)"/>
   <path id="path4293" style="opacity:.3;color:#000000;filter:url(#filter7008-1-41)" d="m144 136c0 4.4183-25.072 8-56 8s-56-3.5817-56-8 25.072-8 56-8 56 3.5817 56 8z" transform="matrix(.38528 0 0 .10496 198.1 931.09)"/>
   <g id="g4295" transform="translate(-0.75 -46)">
    <rect id="rect4297" style="fill:#a42b06" height="5.125" width="3" y="951.24" x="226"/>
    <rect id="rect4299" style="fill:#a42b06" height="5.125" width="3" y="951.24" x="236.5"/>
    <path id="path4301" d="m226 951.24h13.5l-3-3h-7.5z" style="fill:url(#linearGradient4806)"/>
    <path id="path4303" d="m226 951.24 3-3h7.5l-7.5 0.375z" style="opacity:.2;fill:#fff"/>
   </g>
   <path id="path4305" d="m211 945.36h42v-10-23h-42v23z" style="fill:url(#linearGradient4808)"/>
   <path id="path4307" d="m211 912.36h42l-3-2.25 1.125-1.5h-38.25l1.125 1.5z" style="fill:url(#linearGradient4810)"/>
   <path id="path4309" style="fill:url(#linearGradient4812)" d="m212.88 908.61 1.125 1.5-3 2.25h0.75l3-2.25-0.9-1.125h36.3l-0.9 1.125 3 2.25 0.74999-0.00001-3-2.25 1.125-1.5z"/>
   <path id="path4311" d="m214.75 910.11v2.25h-3z" style="fill:url(#linearGradient4814)"/>
   <path id="path4313" d="m213.85 908.99 0.9 1.125v2.25h6.375v-3.375z" style="opacity:.15;fill:url(#linearGradient4816)"/>
   <path id="path4315" d="m211 912.36h30v23h-30z" style="fill:url(#radialGradient4822)"/>
   <path id="path4317" d="m211 912.36h41.999v0.37501h-42z" style="opacity:.5;fill:#f5aa90"/>
   <path id="path4319" style="opacity:.2;filter:url(#filter5055);fill:#803300" d="m67 56 1 8h8l1-8h-10zm32 0 1 8h8l1-8h-10z" clip-path="url(#clipPath5047)" transform="matrix(0.375 0 0 0.375 199 891.36)"/>
   <path id="path4321" style="opacity:.5;filter:url(#filter5090);fill:url(#linearGradient5076)" d="m222.25 897.36 1.875 3.75h3.75l1.875-3.75zm12 0 1.875 3.75h3.75l1.875-3.75z" clip-path="url(#clipPath5066)" transform="translate(0 11.25)"/>
   <g id="g4323" transform="translate(0,-64)">
    <path id="path4325" style="color:#000000;fill:url(#radialGradient4981)" d="m80 64c0 0.55228-3.5817 1-8 1s-8-0.44772-8-1 3.5817-1 8-1 8 0.44772 8 1z" transform="matrix(0.375 0 0 0.375 199 955.36)"/>
    <path id="path4327" d="m224.5 971.11v8.25c1.5 0.375 3 0 3 0v-8.25zm12 0v8.25h3v-8.25z" style="fill:url(#linearGradient4945)"/>
    <path id="path4329" style="fill:url(#linearGradient4826)" d="m224.5 971.11h15l-3-3h-9z"/>
    <rect id="rect4331" style="color:#000000;fill:url(#linearGradient4955)" transform="matrix(0.375 0 0 0.375 199 955.36)" height="2" width="8" y="42" x="68"/>
    <rect id="rect4333" style="color:#000000;fill:url(#linearGradient4959)" height="0.75" width="3" y="971.11" x="236.5"/>
    <path id="path4335" d="m68 42 8-8h24l-24 1z" style="opacity:.2;fill:#fff" transform="matrix(0.375 0 0 0.375 199 955.36)"/>
    <path id="path4337" style="opacity:.4;color:#000000;fill:url(#linearGradient5012)" d="m68 60h8v4s-4 1-8 0z" transform="matrix(0.375 0 0 0.375 199 955.36)"/>
    <path id="path4339" d="m64 64c0 0.55228 3.5817 1 8 1s8-0.44772 8-1h-16z" style="color:#000000;fill:url(#radialGradient4990)" transform="matrix(0.375 0 0 0.375 199 955.36)"/>
    <path id="path4341" d="m63.062 64c0 0.42461 0.23876 0.66799 0.40625 0.8125 0.16747 0.14453 0.35871 0.2457 0.59375 0.34375 0.47008 0.196 1.0928 0.36195 1.875 0.5 1.5643 0.27605 3.7011 0.46875 6.0625 0.46875s4.4982-0.1928 6.0625-0.46875c0.78216-0.13813 1.4049-0.30387 1.875-0.5 0.23493-0.09813 0.42618-0.19916 0.59375-0.34375 0.168-0.144 0.407-0.387 0.407-0.812h-1.2188c-0.39 0.163-1.025 0.335-1.781 0.469-1.513 0.267-3.605 0.406-5.938 0.406s-4.4254-0.13932-5.9375-0.40625c-0.756-0.134-1.391-0.306-1.781-0.469h-1.2188z" style="opacity:.3;block-progression:tb;text-indent:0;color:#000000;text-transform:none;fill:url(#radialGradient5007)" transform="matrix(0.375 0 0 0.375 199 955.36)"/>
    <path id="path4343" style="color:#000000;fill:url(#radialGradient4981)" d="m80 64c0 0.55228-3.5817 1-8 1s-8-0.44772-8-1 3.5817-1 8-1 8 0.44772 8 1z" transform="matrix(0.375 0 0 0.375 211 955.36)"/>
    <path id="path4345" style="opacity:.4;color:#000000;fill:url(#linearGradient5030)" d="m236.5 977.86h3v1.5s-1.5 0.375-3 0z"/>
    <path id="path4347" style="color:#000000;fill:url(#radialGradient5032)" d="m235 979.36c0 0.20711 1.3432 0.375 3 0.375 1.6569 0 3-0.16789 3-0.375h-6z"/>
    <path id="path4349" style="opacity:.3;block-progression:tb;text-indent:0;color:#000000;text-transform:none;fill:url(#radialGradient5034)" d="m234.65 979.36c0 0.15923 0.0895 0.2505 0.15234 0.30469 0.0628 0.0542 0.13452 0.0921 0.22266 0.12891 0.17628 0.0735 0.40982 0.13573 0.70313 0.1875 0.58663 0.10352 1.3879 0.17578 2.2734 0.17578 0.88553 0 1.6868-0.0723 2.2734-0.17578 0.29331-0.0518 0.52685-0.11395 0.70313-0.1875 0.0881-0.0368 0.15981-0.0747 0.22265-0.12891 0.0628-0.0542 0.15235-0.14546 0.15235-0.30469h-0.45703c-0.14631 0.061-0.38446 0.12575-0.66797 0.17578-0.56702 0.10006-1.3517 0.15235-2.2266 0.15235-0.87488 0-1.6595-0.0523-2.2266-0.15235-0.28351-0.05-0.52165-0.11474-0.66797-0.17578h-0.45703z"/>
   </g>
   <path id="path4351" style="opacity:.2;fill:url(#linearGradient4832)" d="m211.09 944.99-0.0937 0.37499h42l-0.0937-0.37499h-41.812z"/>
   <path id="path4353" style="opacity:.2;filter:url(#filter4909);fill:#d24e1a" d="m82.906 78c-1.5977 3.3247-3.1498 6.7405-4.6562 10.25-1.4608 3.4631-2.9792 7.1213-4.5312 11-0.34307 0.88333-0.68345 1.8403-1.0312 2.75h10.156c0.10904-0.30296 0.23584-0.63912 0.34375-0.9375 0.73037-1.8933 1.3753-3.6177 1.9688-5.1875 0.59347-1.5701 1.106-2.9557 1.5625-4.1562 0.45648-1.2005 0.80298-2.151 1.0312-2.8438 0.27389 0.6928 0.63727 1.643 1.0938 2.8438 0.45651 1.2005 1.0004 2.5862 1.5938 4.1562 0.63909 1.5698 1.284 3.2942 1.9688 5.1875 0.10791 0.29838 0.2347 0.63454 0.34375 0.9375h10.531c-0.35594-0.90998-0.70894-1.8664-1.0625-2.75-1.51-3.879-3.026-7.537-4.532-11-1.507-3.509-3.042-6.925-4.594-10.25h-10.188zm-15.344 37.84c-1.149 3.22-2.324 6.56-3.562 10.16h11.094c0.50216-1.6625 1.0628-3.3702 1.6562-5.125 0.59367-1.63 1.1644-3.245 1.7188-4.875h-9.469c-0.49523 0-0.97186-0.0593-1.4375-0.15625zm40.844 0c-0.46 0.1-0.93 0.16-1.41 0.16h-9.8125c0.55109 1.6295 1.1051 3.2455 1.6562 4.875 0.63904 1.7546 1.2166 3.4625 1.7188 5.125h11.44c-1.2383-3.5971-2.4126-6.9388-3.5625-10.156-0.01 0.002-0.0214-0.002-0.0312 0z" transform="matrix(0.375 0 0 0.375 199 891.36)"/>
   <rect id="rect4355" style="opacity:.2;fill:none" transform="translate(0 692.36)" height="48" width="48" y="208" x="208"/>
   <path id="path4357" d="m82.906 78c-1.5977 3.3247-3.1498 6.7405-4.6562 10.25-1.4608 3.4631-2.9792 7.1213-4.5312 11-0.34307 0.88333-0.68345 1.8403-1.0312 2.75h10.156c0.10904-0.30296 0.23584-0.63912 0.34375-0.9375 0.73037-1.8933 1.3753-3.6177 1.9688-5.1875 0.59347-1.5701 1.106-2.9557 1.5625-4.1562 0.45648-1.2005 0.80298-2.151 1.0312-2.8438 0.27389 0.6928 0.63727 1.643 1.0938 2.8438 0.45651 1.2005 1.0004 2.5862 1.5938 4.1562 0.63909 1.5698 1.284 3.2942 1.9688 5.1875 0.10791 0.29838 0.2347 0.63454 0.34375 0.9375h10.531c-0.35594-0.90998-0.70894-1.8664-1.0625-2.75-1.51-3.879-3.026-7.537-4.532-11-1.507-3.509-3.042-6.925-4.594-10.25h-10.188zm-15.344 37.84c-1.149 3.22-2.324 6.56-3.562 10.16h11.094c0.50216-1.6625 1.0628-3.3702 1.6562-5.125 0.59367-1.63 1.1644-3.245 1.7188-4.875h-9.469c-0.49523 0-0.97186-0.0593-1.4375-0.15625zm40.844 0c-0.46 0.1-0.93 0.16-1.41 0.16h-9.8125c0.55109 1.6295 1.1051 3.2455 1.6562 4.875 0.63904 1.7546 1.2166 3.4625 1.7188 5.125h11.44c-1.2383-3.5971-2.4126-6.9388-3.5625-10.156-0.01 0.002-0.0214-0.002-0.0312 0z" style="fill:#fff" transform="matrix(0.375 0 0 0.375 199 891.36)"/>
   <rect id="rect4359" style="opacity:.5;fill:#cd4711" ry="1.875" height="3.75" width="18" y="930.74" x="223"/>
   <rect id="rect4361" style="fill:url(#linearGradient4871)" ry="1.875" height="3.75" width="18" y="930.36" x="223"/>
   <path id="path4363" style="fill:url(#linearGradient4836)" d="m212.88 908.61 1.125 1.5-1.1233 0.84247z"/>
   <rect id="rect4365" style="color:#000000;fill:#fff" ry="1.125" height="2.25" width="11.25" y="931.49" x="223.75"/>
   <rect id="rect4367" style="color:#000000;fill:url(#linearGradient4860)" ry="1.125" height="2.25" width="11.25" y="931.11" x="223.75"/>
   <path id="path4369" d="m69 104c-2.77 0-5 2.23-5 5 0 0.17313 0.01424 0.33151 0.03125 0.5 0.255-2.53 2.372-4.5 4.969-4.5h38c2.5969 0 4.7136 1.9726 4.9688 4.5 0.017-0.16849 0.0312-0.32687 0.0312-0.5 0-2.77-2.23-5-5-5h-38z" style="fill:#fff" transform="matrix(0.375 0 0 0.375 199 891.36)"/>
   <path id="path4371" d="m69 106c-1.662 0-3 1.338-3 3 0 0.17531 0.03392 0.33309 0.0625 0.5 0.243-1.42 1.451-2.5 2.938-2.5h24c1.4867 0 2.6951 1.0845 2.9375 2.5 0.028-0.17 0.062-0.32 0.062-0.5 0-1.662-1.338-3-3-3h-24z" style="opacity:.1;color:#000000" transform="matrix(0.375 0 0 0.375 199 891.36)"/>
   <path id="path4373" style="fill:url(#linearGradient4919)" d="m249.25 910.11v2.25h3z"/>
   <path id="path4375" style="opacity:.15;fill:url(#linearGradient4921)" d="m250.15 908.99-0.9 1.125v2.25h-6.375v-3.375z"/>
   <path id="path4377" d="m251.12 908.61-1.125 1.5 1.1233 0.84247z" style="fill:url(#linearGradient4923)"/>
   <path id="path4379" style="filter:url(#filter5220);fill:#771f0f" d="m76 34-8 8v22c4 1 8 0 8 0v-22h24v22h8v-22l-8-8h-24z" clip-path="url(#clipPath5212)" transform="matrix(0.375 0 0 0.375 199 891.36)"/>
  </g>
 </g>
</svg>
