<?xml version="1.0" encoding="UTF-8" standalone="no"?>
<!-- Created with Inkscape (http://www.inkscape.org/) -->

<svg
   xmlns:dc="http://purl.org/dc/elements/1.1/"
   xmlns:cc="http://creativecommons.org/ns#"
   xmlns:rdf="http://www.w3.org/1999/02/22-rdf-syntax-ns#"
   xmlns:svg="http://www.w3.org/2000/svg"
   xmlns="http://www.w3.org/2000/svg"
   xmlns:xlink="http://www.w3.org/1999/xlink"
   xmlns:sodipodi="http://sodipodi.sourceforge.net/DTD/sodipodi-0.dtd"
   xmlns:inkscape="http://www.inkscape.org/namespaces/inkscape"
   width="48px"
   height="48px"
   id="svg3010"
   version="1.1"
   inkscape:version="0.91 r13725"
   sodipodi:docname="folder-network.svg">
  <defs
     id="defs3012">
    <linearGradient
       id="linearGradient4169"
       inkscape:collect="always">
      <stop
         id="stop4172"
         offset="0"
         style="stop-color:#a2a2a2;stop-opacity:1" />
      <stop
         id="stop4178"
         offset="1"
         style="stop-color:#d1d1d1;stop-opacity:1" />
    </linearGradient>
    <linearGradient
       inkscape:collect="always"
       xlink:href="#linearGradient4232"
       id="linearGradient4182"
       gradientUnits="userSpaceOnUse"
       x1="414.57144"
       y1="523.79797"
       x2="414.57144"
       y2="505.798"
       gradientTransform="matrix(1,0,0,0.99954446,0,-15.75672)" />
    <linearGradient
       id="linearGradient4232"
       inkscape:collect="always">
      <stop
         id="stop4234"
         offset="0"
         style="stop-color:#3d6584;stop-opacity:1" />
      <stop
         id="stop4236"
         offset="1"
         style="stop-color:#4a7ba3;stop-opacity:1" />
    </linearGradient>
    <linearGradient
       y2="505.798"
       x2="414.57144"
       y1="523.79797"
       x1="414.57144"
       gradientTransform="matrix(0.99999999,0,0,0.99954446,-384.57143,-499.55472)"
       gradientUnits="userSpaceOnUse"
       id="linearGradient3047"
       xlink:href="#linearGradient4169"
       inkscape:collect="always" />
    <linearGradient
       id="linearGradient4167">
      <stop
         style="stop-color:#bfe1f9;stop-opacity:1"
         offset="0"
         id="stop4169" />
      <stop
         style="stop-color:#f6fbfe;stop-opacity:1"
         offset="1"
         id="stop4171" />
    </linearGradient>
    <linearGradient
       id="linearGradient4173">
      <stop
         style="stop-color:#1482cf;stop-opacity:1"
         offset="0"
         id="stop4175" />
      <stop
         style="stop-color:#74bef2;stop-opacity:1"
         offset="1"
         id="stop4177" />
    </linearGradient>
    <style
       id="style874"
       type="text/css">
    .fil0 {fill:#1F1A17}
   </style>
    <linearGradient
       inkscape:collect="always"
       xlink:href="#linearGradient1577"
       id="linearGradient1583"
       x1="28.769722"
       y1="47.028889"
       x2="28.769722"
       y2="0.88182634"
       gradientUnits="userSpaceOnUse"
       gradientTransform="matrix(0.87902578,0,0,0.66036395,-57.221616,10.437817)" />
    <linearGradient
       inkscape:collect="always"
       id="linearGradient1577">
      <stop
         style="stop-color:#ffffff;stop-opacity:0.49803922"
         offset="0"
         id="stop1579" />
      <stop
         style="stop-color:#ffffff;stop-opacity:0;"
         offset="1"
         id="stop1581" />
    </linearGradient>
  </defs>
  <sodipodi:namedview
     id="base"
     pagecolor="#ffffff"
     bordercolor="#666666"
     borderopacity="1.0"
     inkscape:pageopacity="0.0"
     inkscape:pageshadow="2"
     inkscape:zoom="7.9999999"
     inkscape:cx="27.877609"
     inkscape:cy="29.394993"
     inkscape:current-layer="layer1"
     showgrid="true"
     inkscape:grid-bbox="true"
     inkscape:document-units="px"
     inkscape:window-width="1920"
     inkscape:window-height="1016"
     inkscape:window-x="0"
     inkscape:window-y="0"
     inkscape:window-maximized="1">
    <inkscape:grid
       type="xygrid"
       id="grid3094" />
  </sodipodi:namedview>
  <metadata
     id="metadata3015">
    <rdf:RDF>
      <cc:Work
         rdf:about="">
        <dc:format>image/svg+xml</dc:format>
        <dc:type
           rdf:resource="http://purl.org/dc/dcmitype/StillImage" />
        <dc:title />
      </cc:Work>
    </rdf:RDF>
  </metadata>
  <g
     id="layer1"
     inkscape:label="Layer 1"
     inkscape:groupmode="layer">
    <path
       style="fill:url(#linearGradient3047);fill-opacity:1.0;stroke:none"
       d="m 0.85883624,2.7645482 0,4.1379317 0,18.2068951 c 0,0.45826 0.36910356,0.827587 0.82758626,0.827587 l 44.6896545,0 c 0.458474,0 0.827588,-0.369327 0.827588,-0.827587 l 0,-18.1988097 c 0,-0.00248 -0.0016,-0.00497 -0.0016,-0.00827 l 0.0016,0 0,-0.8275862 -23.172414,0 -2.48276,-3.3103454 -20.68965476,0 z"
       id="rect4180"
       inkscape:connector-curvature="0" />
    <g
       id="g4186"
       transform="translate(60,0)">
      <rect
         style="fill:#959595;fill-opacity:1;stroke:none"
         id="rect1448"
         width="40.250004"
         height="30.237625"
         x="-56.25"
         y="-41.415268"
         ry="1.2249663"
         transform="scale(1,-1)" />
      <path
         inkscape:connector-curvature="0"
         id="path4913"
         d="m -55.32138,37.815189 c 0.115824,0.110368 0.228868,0.220886 0.296438,0.340854 0.05563,0.09752 0.04971,0.214007 0.101542,0.301394 0.179044,0.303585 0.969414,0.620778 1.37737,0.771437 0.190995,0.06728 0.401314,0.0954 0.576498,0.168575 0.26556,0.111274 0.791306,0.408359 0.925343,0.583208 0.120204,0.15716 0.192453,0.541329 0.25058,0.791167 0.0531,0.227387 0.03978,0.42877 0.03112,0.643457 l 12.717337,0 c 0.286718,-0.169558 0.357981,-0.472841 0.550294,-0.739461 0.110043,-0.152171 0.255223,-0.306458 0.276784,-0.414634 0.01958,-0.09752 -0.04831,-0.186037 -0.0262,-0.301469 0.02211,-0.112862 0.1603,-0.213553 0.201447,-0.338283 0.05436,-0.163056 0.07534,-0.401556 0.07534,-0.583208 0,-0.149223 -0.09264,-0.279472 -0.101542,-0.413424 -0.03227,-0.488187 0.236277,-0.543597 0.476594,-0.809613 l -17.728935,0 z m 36.379937,0 c -0.176511,0.210681 -0.439515,0.379029 -0.519174,0.647161 -0.03032,0.102657 0.0043,0.209471 -0.02456,0.301469 -0.043,0.139698 -0.172589,0.24432 -0.199808,0.376534 -0.02724,0.13486 -0.06779,0.389763 -0.05077,0.526589 0.02534,0.201533 0.311076,0.387041 0.452025,0.564687 0.149941,0.189137 0.273949,0.507992 0.45039,0.751783 0.09802,0.13486 0.259283,0.247722 0.299713,0.358014 0.0078,0.02117 8.52e-4,0.05065 0.0049,0.07408 l 0.912242,0 c 0.903344,0 1.616486,-0.535735 1.616486,-1.214343 l 0,-2.385749 -2.941448,0 z"
         style="fill:#000000;fill-opacity:0.23529412;fill-rule:nonzero;stroke:none" />
      <path
         id="rect1510"
         d="m -53.944009,11.177657 0,1.822346 -2.305989,0 0,0.157613 2.305989,0 0,2.474572 -2.305989,0 0,0.180292 2.305989,0 0,2.474571 -2.305989,0 0,0.157614 2.305989,0 0,2.474949 -2.305989,0 0,0.157312 2.305989,0 0,2.474874 -2.305989,0 0,0.179913 2.305989,0 0,2.47495 -2.305989,0 0,0.157387 2.305989,0 0,2.474798 -2.305989,0 0,0.17999 2.305989,0 0,2.474874 -2.305989,0 0,0.157386 2.305989,0 0,2.474799 -2.305989,0 0,0.157538 2.305989,0 0,2.497325 -2.305989,0 0,0.157463 2.305989,0 0,2.474798 -2.305989,0 0,0.157463 2.305989,0 0,1.844797 0.209636,0 0,-1.844797 3.294271,0 0,1.844797 0.209635,0 0,-1.844797 3.324219,0 0,1.844797 0.209636,0 0,-1.844797 3.294271,0 0,1.844797 0.209636,0 0,-1.844797 3.29427,0 0,1.844797 0.239584,0 0,-1.844797 3.294269,0 0,1.844797 0.209636,0 0,-1.844797 3.294271,0 0,1.844797 0.209636,0 0,-1.844797 3.324218,0 0,1.844797 0.209636,0 0,-1.844797 3.29427,0 0,1.844797 0.209637,0 0,-1.844797 3.294271,0 0,1.844797 0.239582,0 0,-1.844797 3.294273,0 0,1.844797 0.209633,0 0,-1.844797 2.575521,0 0,-0.157463 -2.575521,0 0,-2.474798 2.575521,0 0,-0.157463 -2.575521,0 0,-2.497325 2.575521,0 0,-0.157538 -2.575521,0 0,-2.474799 2.575521,0 0,-0.157386 -2.575521,0 0,-2.474874 2.575521,0 0,-0.17999 -2.575521,0 0,-2.474798 2.575521,0 0,-0.157387 -2.575521,0 0,-2.47495 2.575521,0 0,-0.179913 -2.575521,0 0,-2.474874 2.575521,0 0,-0.157312 -2.575521,0 0,-2.474949 2.575521,0 0,-0.157614 -2.575521,0 0,-2.474571 2.575521,0 0,-0.180292 -2.575521,0 0,-2.474572 2.575521,0 0,-0.157613 -2.575521,0 0,-1.822346 -0.209633,0 0,1.822346 -3.294273,0 0,-1.822346 -0.239582,0 0,1.822346 -3.294271,0 0,-1.822346 -0.209637,0 0,1.822346 -3.29427,0 0,-1.822346 -0.209636,0 0,1.822346 -3.324218,0 0,-1.822346 -0.209636,0 0,1.822346 -3.294271,0 0,-1.822346 -0.209636,0 0,1.822346 -3.294269,0 0,-1.822346 -0.239584,0 0,1.822346 -3.29427,0 0,-1.822346 -0.209636,0 0,1.822346 -3.294271,0 0,-1.822346 -0.209636,0 0,1.822346 -3.324219,0 0,-1.822346 -0.209635,0 0,1.822346 -3.294271,0 0,-1.822346 -0.209636,0 z m 0.209636,1.979959 3.294271,0 0,2.474572 -3.294271,0 0,-2.474572 z m 3.503906,0 3.324219,0 0,2.474572 -3.324219,0 0,-2.474572 z m 3.533855,0 3.294271,0 0,2.474572 -3.294271,0 0,-2.474572 z m 3.503907,0 3.29427,0 0,2.474572 -3.29427,0 0,-2.474572 z m 3.533854,0 3.294269,0 0,2.474572 -3.294269,0 0,-2.474572 z m 3.503905,0 3.294271,0 0,2.474572 -3.294271,0 0,-2.474572 z m 3.503907,0 3.324218,0 0,2.474572 -3.324218,0 0,-2.474572 z m 3.533854,0 3.29427,0 0,2.474572 -3.29427,0 0,-2.474572 z m 3.503907,0 3.294271,0 0,2.474572 -3.294271,0 0,-2.474572 z m 3.533853,0 3.294273,0 0,2.474572 -3.294273,0 0,-2.474572 z m -31.654948,2.654864 3.294271,0 0,2.474571 -3.294271,0 0,-2.474571 z m 3.503906,0 3.324219,0 0,2.474571 -3.324219,0 0,-2.474571 z m 3.533855,0 3.294271,0 0,2.474571 -3.294271,0 0,-2.474571 z m 3.503907,0 3.29427,0 0,2.474571 -3.29427,0 0,-2.474571 z m 3.533854,0 3.294269,0 0,2.474571 -3.294269,0 0,-2.474571 z m 3.503905,0 3.294271,0 0,2.474571 -3.294271,0 0,-2.474571 z m 3.503907,0 3.324218,0 0,2.474571 -3.324218,0 0,-2.474571 z m 3.533854,0 3.29427,0 0,2.474571 -3.29427,0 0,-2.474571 z m 3.503907,0 3.294271,0 0,2.474571 -3.294271,0 0,-2.474571 z m 3.533853,0 3.294273,0 0,2.474571 -3.294273,0 0,-2.474571 z m -31.654948,2.632185 3.294271,0 0,2.474949 -3.294271,0 0,-2.474949 z m 3.503906,0 3.324219,0 0,2.474949 -3.324219,0 0,-2.474949 z m 3.533855,0 3.294271,0 0,2.474949 -3.294271,0 0,-2.474949 z m 3.503907,0 3.29427,0 0,2.474949 -3.29427,0 0,-2.474949 z m 3.533854,0 3.294269,0 0,2.474949 -3.294269,0 0,-2.474949 z m 3.503905,0 3.294271,0 0,2.474949 -3.294271,0 0,-2.474949 z m 3.503907,0 3.324218,0 0,2.474949 -3.324218,0 0,-2.474949 z m 3.533854,0 3.29427,0 0,2.474949 -3.29427,0 0,-2.474949 z m 3.503907,0 3.294271,0 0,2.474949 -3.294271,0 0,-2.474949 z m 3.533853,0 3.294273,0 0,2.474949 -3.294273,0 0,-2.474949 z m -31.654948,2.632261 3.294271,0 0,2.474874 -3.294271,0 0,-2.474874 z m 3.503906,0 3.324219,0 0,2.474874 -3.324219,0 0,-2.474874 z m 3.533855,0 3.294271,0 0,2.474874 -3.294271,0 0,-2.474874 z m 3.503907,0 3.29427,0 0,2.474874 -3.29427,0 0,-2.474874 z m 3.533854,0 3.294269,0 0,2.474874 -3.294269,0 0,-2.474874 z m 3.503905,0 3.294271,0 0,2.474874 -3.294271,0 0,-2.474874 z m 3.503907,0 3.324218,0 0,2.474874 -3.324218,0 0,-2.474874 z m 3.533854,0 3.29427,0 0,2.474874 -3.29427,0 0,-2.474874 z m 3.503907,0 3.294271,0 0,2.474874 -3.294271,0 0,-2.474874 z m 3.533853,0 3.294273,0 0,2.474874 -3.294273,0 0,-2.474874 z m -31.654948,2.654787 3.294271,0 0,2.47495 -3.294271,0 0,-2.47495 z m 3.503906,0 3.324219,0 0,2.47495 -3.324219,0 0,-2.47495 z m 3.533855,0 3.294271,0 0,2.47495 -3.294271,0 0,-2.47495 z m 3.503907,0 3.29427,0 0,2.47495 -3.29427,0 0,-2.47495 z m 3.533854,0 3.294269,0 0,2.47495 -3.294269,0 0,-2.47495 z m 3.503905,0 3.294271,0 0,2.47495 -3.294271,0 0,-2.47495 z m 3.503907,0 3.324218,0 0,2.47495 -3.324218,0 0,-2.47495 z m 3.533854,0 3.29427,0 0,2.47495 -3.29427,0 0,-2.47495 z m 3.503907,0 3.294271,0 0,2.47495 -3.294271,0 0,-2.47495 z m 3.533853,0 3.294273,0 0,2.47495 -3.294273,0 0,-2.47495 z m -31.654948,2.632337 3.294271,0 0,2.474798 -3.294271,0 0,-2.474798 z m 3.503906,0 3.324219,0 0,2.474798 -3.324219,0 0,-2.474798 z m 3.533855,0 3.294271,0 0,2.474798 -3.294271,0 0,-2.474798 z m 3.503907,0 3.29427,0 0,2.474798 -3.29427,0 0,-2.474798 z m 3.533854,0 3.294269,0 0,2.474798 -3.294269,0 0,-2.474798 z m 3.503905,0 3.294271,0 0,2.474798 -3.294271,0 0,-2.474798 z m 3.503907,0 3.324218,0 0,2.474798 -3.324218,0 0,-2.474798 z m 3.533854,0 3.29427,0 0,2.474798 -3.29427,0 0,-2.474798 z m 3.503907,0 3.294271,0 0,2.474798 -3.294271,0 0,-2.474798 z m 3.533853,0 3.294273,0 0,2.474798 -3.294273,0 0,-2.474798 z m -31.654948,2.654788 3.294271,0 0,2.474874 -3.294271,0 0,-2.474874 z m 3.503906,0 3.324219,0 0,2.474874 -3.324219,0 0,-2.474874 z m 3.533855,0 3.294271,0 0,2.474874 -3.294271,0 0,-2.474874 z m 3.503907,0 3.29427,0 0,2.474874 -3.29427,0 0,-2.474874 z m 3.533854,0 3.294269,0 0,2.474874 -3.294269,0 0,-2.474874 z m 3.503905,0 3.294271,0 0,2.474874 -3.294271,0 0,-2.474874 z m 3.503907,0 3.324218,0 0,2.474874 -3.324218,0 0,-2.474874 z m 3.533854,0 3.29427,0 0,2.474874 -3.29427,0 0,-2.474874 z m 3.503907,0 3.294271,0 0,2.474874 -3.294271,0 0,-2.474874 z m 3.533853,0 3.294273,0 0,2.474874 -3.294273,0 0,-2.474874 z m -31.654948,2.63226 3.294271,0 0,2.474799 -3.294271,0 0,-2.474799 z m 3.503906,0 3.324219,0 0,2.474799 -3.324219,0 0,-2.474799 z m 3.533855,0 3.294271,0 0,2.474799 -3.294271,0 0,-2.474799 z m 3.503907,0 3.29427,0 0,2.474799 -3.29427,0 0,-2.474799 z m 3.533854,0 3.294269,0 0,2.474799 -3.294269,0 0,-2.474799 z m 3.503905,0 3.294271,0 0,2.474799 -3.294271,0 0,-2.474799 z m 3.503907,0 3.324218,0 0,2.474799 -3.324218,0 0,-2.474799 z m 3.533854,0 3.29427,0 0,2.474799 -3.29427,0 0,-2.474799 z m 3.503907,0 3.294271,0 0,2.474799 -3.294271,0 0,-2.474799 z m 3.533853,0 3.294273,0 0,2.474799 -3.294273,0 0,-2.474799 z m -31.654948,2.632337 3.294271,0 0,2.497325 -3.294271,0 0,-2.497325 z m 3.503906,0 3.324219,0 0,2.497325 -3.324219,0 0,-2.497325 z m 3.533855,0 3.294271,0 0,2.497325 -3.294271,0 0,-2.497325 z m 3.503907,0 3.29427,0 0,2.497325 -3.29427,0 0,-2.497325 z m 3.533854,0 3.294269,0 0,2.497325 -3.294269,0 0,-2.497325 z m 3.503905,0 3.294271,0 0,2.497325 -3.294271,0 0,-2.497325 z m 3.503907,0 3.324218,0 0,2.497325 -3.324218,0 0,-2.497325 z m 3.533854,0 3.29427,0 0,2.497325 -3.29427,0 0,-2.497325 z m 3.503907,0 3.294271,0 0,2.497325 -3.294271,0 0,-2.497325 z m 3.533853,0 3.294273,0 0,2.497325 -3.294273,0 0,-2.497325 z m -31.654948,2.654788 3.294271,0 0,2.474798 -3.294271,0 0,-2.474798 z m 3.503906,0 3.324219,0 0,2.474798 -3.324219,0 0,-2.474798 z m 3.533855,0 3.294271,0 0,2.474798 -3.294271,0 0,-2.474798 z m 3.503907,0 3.29427,0 0,2.474798 -3.29427,0 0,-2.474798 z m 3.533854,0 3.294269,0 0,2.474798 -3.294269,0 0,-2.474798 z m 3.503905,0 3.294271,0 0,2.474798 -3.294271,0 0,-2.474798 z m 3.503907,0 3.324218,0 0,2.474798 -3.324218,0 0,-2.474798 z m 3.533854,0 3.29427,0 0,2.474798 -3.29427,0 0,-2.474798 z m 3.503907,0 3.294271,0 0,2.474798 -3.294271,0 0,-2.474798 z m 3.533853,0 3.294273,0 0,2.474798 -3.294273,0 0,-2.474798 z"
         style="opacity:0.38500001;fill:url(#linearGradient1583);fill-opacity:1;stroke:none"
         inkscape:connector-curvature="0" />
      <path
         inkscape:connector-curvature="0"
         id="path34"
         d="m -54.618774,11.177657 c -0.903342,0 -1.631225,0.546847 -1.631225,1.225455 l 0,4.22019 c 0.04337,-0.0076 0.07949,-0.01436 0.124471,-0.02343 0.410649,-0.08421 0.903242,-0.327398 1.292205,-0.333445 l 0,0.0083 c 0.05555,0 0.109736,0 0.160503,0.0098 0.227017,0.04611 0.82333,0.536717 0.324279,0.696372 -0.04736,0.01209 -0.733326,0.07484 -0.851644,0.05443 -0.173205,-0.0189 -0.275204,-0.201685 -0.450388,-0.225119 -0.183527,-0.02495 -0.399753,0.06048 -0.599426,0.105756 l 0,1.119699 c 0.02747,-0.03024 0.06027,-0.06879 0.0737,-0.08126 0.09989,-0.0926 0.232258,-0.174698 0.350485,-0.281739 0.114451,-0.103564 0.189033,-0.243866 0.299713,-0.301393 0.120942,-0.05896 0.467138,-0.135389 0.676402,-0.12919 l 0,0 c 0.06976,0 0.124759,0.0098 0.150675,0.03855 -0.03353,0.2004 -0.244214,0.188079 -0.450389,0.28174 -0.356116,0.161468 -0.563114,0.40783 -0.676401,0.752992 -0.0261,0.0802 -0.247814,0.257322 -0.424185,0.31621 l 0,5.274576 c 0.143657,0.03251 0.291574,0.06123 0.424185,0.102127 0.219474,-0.135918 0.02973,-0.385378 0,-0.581999 -0.01266,-0.08693 0.01202,-0.165173 0,-0.244849 -0.01956,-0.13554 -0.09928,-0.260724 -0.0999,-0.376458 -0.0041,-0.535735 0.573335,-0.78633 1.051453,-0.997842 0.206804,-0.09162 0.372346,-0.252484 0.55193,-0.319914 0.253614,-0.09563 0.440245,-0.118002 0.650198,-0.206674 0.379475,-0.160108 0.705673,-0.288391 1.002319,-0.469968 0.137183,-0.242582 0.0081,-0.569828 0.02457,-0.809613 0.137273,-0.06123 0.255807,0.03099 0.401255,0.01588 0.228996,-0.03855 0.245325,-0.278337 0.375051,-0.375324 0.07456,-0.05367 0.283077,-0.09585 0.376689,-0.15134 0.228367,-0.134104 0.301901,-0.33594 0.50116,-0.393694 0.07142,-0.01814 0.237918,-0.01436 0.350484,-0.04158 0.149223,-0.03251 0.359491,-0.16283 0.601064,-0.225195 0.156859,-0.04309 0.516397,-0.04914 0.576498,-0.09472 0.07394,-0.05443 4.49e-4,-0.215141 0.02456,-0.300184 0.121461,-0.424839 0.973823,-0.515401 1.477275,-0.658273 0.352882,-0.100994 0.714483,-0.282798 1.102225,-0.226405 -0.07591,0.201988 -0.437959,0.131156 -0.37669,0.376534 0.08544,0.339947 0.691644,-0.09994 0.851644,-0.150129 0.305537,-0.09661 0.827385,-0.155497 1.228333,-0.26458 0.351623,-0.09615 0.981608,-0.242657 0.650197,-0.545033 -0.276429,-0.0091 -0.409251,0.242581 -0.650197,0.319914 -0.166381,0.01588 -0.1352,-0.10311 -0.276784,-0.113164 -0.134131,-0.0076 -0.211957,0.09381 -0.350485,0.07627 -0.137816,-0.01587 -0.328923,-0.180367 -0.350484,-0.301469 -0.05497,-0.313942 0.35252,-0.44283 0.525727,-0.676718 -0.114452,-0.284385 -0.63532,-0.05594 -0.951549,-0.169784 0.03037,-0.169104 0.262591,-0.287711 0.525727,-0.319914 0.21561,-0.02948 0.698698,-0.0076 0.827076,0.07627 0.07529,0.04762 0.0096,0.166232 0.126108,0.244849 0.12775,0.08716 0.284728,0.07801 0.450391,0.05443 0.0601,-0.214309 -0.372725,-0.159277 -0.325919,-0.301469 0.33833,-0.166307 0.887789,-0.03251 1.302032,-0.07627 0.238431,-0.02797 0.491309,-0.154137 0.702608,-0.24364 0.201058,-0.08542 0.461578,-0.235324 0.674763,-0.09472 0.05821,0.153531 -0.185885,0.206447 -0.299712,0.282948 -0.383247,0.256188 -0.779755,0.549267 -1.077659,0.846502 0.182821,0.134255 0.517855,0.06426 0.827078,0.09351 0.120831,0.0083 0.271779,0.04233 0.399618,0.05443 0.149221,0.01739 0.308851,0.01285 0.425823,0.03931 0.210668,0.04158 0.268437,0.207959 0.476591,0.207959 0.342733,-4.53e-4 0.344816,-0.27864 0.150675,-0.452808 0.06136,-0.177571 0.158793,-0.269493 0.07534,-0.393694 -0.154343,-0.232149 -0.722631,-2.27e-4 -0.75174,-0.301469 -0.01832,-0.1877 0.209248,-0.179234 0.299713,-0.319839 -0.04115,-0.362473 0.398836,-0.389611 0.352122,-0.714893 -0.01958,-0.135767 -0.17423,-0.136069 -0.301351,-0.263294 -0.06576,-0.06425 -0.09628,-0.194428 -0.175242,-0.244849 -0.261879,-0.166231 -0.794828,-0.134179 -0.827077,-0.451523 -0.01203,-0.187322 0.06097,-0.342744 0.0262,-0.546319 -0.03226,-0.18959 -0.205088,-0.715649 -0.425821,-0.751707 -0.279576,-0.04687 -0.56723,0.313715 -0.902415,0.433078 -0.182192,0.0635 -0.44281,0.137657 -0.625631,0.111955 -0.118853,-0.01512 -0.358362,-0.147333 -0.376689,-0.319914 -0.02022,-0.197452 0.177321,-0.202138 0.226013,-0.413424 -0.04178,-0.124352 -0.212534,-0.09479 -0.375051,-0.188229 -0.184076,-0.105151 -0.331689,-0.332387 -0.576498,-0.358013 -0.121999,-0.0091 -0.279794,0.06728 -0.401255,0.07484 -0.372558,0.01663 -0.692764,-0.179763 -0.976115,-0.131685 -0.338327,0.05518 -0.324825,0.452355 -0.651835,0.527873 0.0443,0.183996 -0.287626,0.306307 -0.32428,0.451523 -0.0247,0.09789 0.04151,0.211664 0.04913,0.300184 0.07529,0.899948 -0.911435,1.323577 -2.078339,1.299311 -0.228906,0.164417 -0.176744,0.469439 -0.30135,0.695163 -0.104931,0.189515 -0.47318,0.392863 -0.725535,0.376459 -0.186593,-0.0091 -0.400626,-0.207657 -0.401255,-0.338359 -5.75e-4,-0.161091 0.311442,-0.24931 0.126108,-0.433079 0.02659,-0.124881 0.396031,-0.196091 0.350485,-0.394903 -0.0468,-0.20743 -0.432228,-0.09956 -0.776306,-0.131685 -0.250467,-0.02419 -0.580524,-0.13297 -0.802511,-0.225195 -0.293413,-0.122084 -0.54436,-0.360357 -0.926982,-0.396113 -0.217585,-0.01739 -0.42322,0.05292 -0.525726,-0.04082 -0.112473,-0.100994 0.04437,-0.250217 0.05077,-0.319839 -0.007,-0.114147 -0.288595,-0.151264 -0.301351,-0.263294 -0.0094,-0.07968 0.269785,-0.325508 0.376689,-0.394979 0.197914,-0.129417 0.557466,-0.265411 0.876211,-0.394979 0.311827,-0.126922 0.673809,-0.263218 0.976115,-0.339568 0.129096,-0.03402 0.277277,-0.0189 0.401255,-0.05443 0.316857,-0.08792 0.527289,-0.253694 0.827077,-0.319914 0.156229,-0.03704 0.324967,-0.03024 0.499522,-0.05443 0.132503,-0.02192 0.252892,-0.06048 0.3685,-0.103337 l -4.595602,0 z m 5.064006,0 c -0.09908,0.06274 -0.196783,0.125864 -0.234201,0.235022 0.302933,0.414331 0.820524,-0.0957 1.175923,-0.09351 0.322607,0 0.64798,0.343045 0.851644,0.01587 -0.02586,-0.06123 -0.07311,-0.111274 -0.127747,-0.157462 l -1.665619,0 z m 3.134705,0 c 0.137379,0.07582 0.312285,0.04536 0.488058,0 l -0.488058,0 z m 1.241435,0 c 0.118297,0.05292 0.227237,0.121328 0.298075,0.178402 0.117059,0.09411 0.159048,0.277808 0.301352,0.339568 0.09487,0.04309 0.259965,0.03175 0.37505,0.05443 0.367435,0.08406 0.673812,0.233888 1.07602,0.169784 0.137899,-0.182106 -0.284473,-0.233737 -0.124471,-0.376458 0.269513,0.01512 0.442763,0.105529 0.650197,0.168574 0.289727,-0.15905 0.486746,-0.176361 0.476593,-0.431868 -0.0015,-0.04233 -0.02482,-0.07257 -0.04914,-0.102128 l -3.003682,0 z m 25.084191,0 c -0.02745,0.06879 -0.05146,0.129719 -0.142487,0.168574 -0.220012,0.09442 -0.551805,0.03477 -0.776307,0.09472 -0.133409,0.04007 -0.23028,0.139244 -0.350483,0.187019 -0.318115,0.127452 -0.759922,0.167592 -0.951549,0.414634 -0.05322,0.213024 0.06959,0.372679 0.0999,0.526588 0.02084,0.105681 -0.02061,0.200551 0.0262,0.301469 0.08216,0.176286 0.413074,0.358014 0.725535,0.358014 0.475599,0 0.845336,-0.449861 1.226695,-0.394904 0.186599,0.02948 0.207735,0.248327 0.301351,0.375249 0.08668,0.116944 0.482153,0.314245 0.425821,0.508143 -0.04491,0.155497 -0.518973,0.208262 -0.751739,0.206675 -0.02021,-0.169785 0.03219,-0.447593 -0.150676,-0.545034 -0.378845,0.135314 -0.645171,0.09616 -0.750101,0.319915 -0.132869,0.283099 0.228964,0.489093 0.175242,0.751707 -0.05699,0.276296 -0.81718,0.180216 -1.152995,0.226404 -0.251096,0.03553 -0.343489,0.265335 -0.550293,0.451523 -0.14356,0.129644 -0.414086,0.269569 -0.627268,0.338359 -0.10428,0.03629 -0.228782,0.03175 -0.32428,0.07756 -0.141047,0.06804 -0.190478,0.238877 -0.350484,0.319838 -0.115173,0.05594 -0.554943,0.224439 -0.676403,0.226405 -0.142303,0 -0.274271,-0.100389 -0.376687,-0.07748 -0.150479,0.03855 -0.130194,0.256112 -0.299714,0.301393 -0.332039,0.08837 -0.886614,-0.221264 -1.00232,0.15013 0.1423,0.215367 0.503244,0.164493 0.751741,0.283024 0.156228,0.07333 0.484577,0.400422 0.525725,0.526588 0.03473,0.106512 -0.01707,0.526891 -0.07534,0.639753 -0.154969,0.30026 -0.516327,0.196318 -0.976114,0.188305 -0.125869,0 -0.260348,0.02646 -0.376689,0.01512 -0.775386,-0.04233 -1.552726,-0.244925 -1.903096,0.169784 0.02841,0.319234 0.118153,0.531955 0.02456,0.809612 -0.06891,0.203877 -0.311659,0.388025 -0.299713,0.564688 0.0059,0.09064 0.146047,0.177117 0.175243,0.300259 0.01516,0.06425 -0.04049,0.203878 0,0.263295 0.127119,0.185281 0.474487,0.03175 0.700968,0.05443 0.22136,0.02721 0.479107,0.266621 0.476593,0.452733 -0.0017,0.129795 -0.167356,0.345163 -0.276784,0.470044 -0.218753,0.249385 -0.512351,0.261933 -0.825439,0.394979 -0.261157,0.111199 -0.372644,0.296253 -0.525726,0.489623 -0.165752,0.209168 -0.269724,0.335864 -0.201448,0.638618 -0.223875,0.333673 -0.561591,0.538835 -1.025248,0.697582 -0.137175,0.04687 -0.326169,0.06048 -0.452026,0.131685 -0.09991,0.05292 -0.15741,0.19851 -0.299714,0.318629 -0.175184,0.147333 -0.359672,0.207884 -0.452026,0.319914 -0.07145,0.08746 -0.09683,0.260195 -0.175242,0.376459 -0.106889,0.15784 -0.334537,0.234946 -0.474955,0.394979 -0.06447,0.07484 -0.10382,0.222851 -0.175243,0.319914 -0.158742,0.216425 -0.430368,0.374266 -0.401255,0.564763 0.02905,0.184298 0.306961,0.215972 0.325917,0.376458 0.0114,0.09079 -0.08045,0.145972 -0.07534,0.244849 0.0077,0.14431 0.135492,0.245757 0.150674,0.356804 0.0379,0.279396 -0.131281,0.392258 -0.201446,0.583209 -0.03363,0.09139 -0.01748,0.192009 -0.04913,0.263294 -0.06133,0.139698 -0.320799,0.26783 -0.325917,0.433078 -0.0027,0.118078 0.161944,0.211512 0.175241,0.376534 0.0091,0.113391 -0.07728,0.233737 -0.05078,0.338284 0.05322,0.204859 0.539901,0.443888 0.75174,0.602938 0.283346,0.212948 0.654224,0.37729 0.776306,0.601653 0.103163,0.190497 0.104089,0.439579 0.301351,0.583208 0.146081,0.105303 0.389274,0.17243 0.576497,0.282949 0.174461,0.1019 0.363789,0.191026 0.550293,0.300184 0.304906,0.179309 0.76714,0.535962 1.2529,0.508143 0.25361,-0.0098 0.513119,-0.168197 0.800873,-0.206674 0.296016,-0.04158 0.677585,-0.0567 0.976114,-0.03931 0.228998,0.01588 0.463171,0.120572 0.700969,0.111955 0.25101,-0.0076 0.541841,-0.151264 0.827077,-0.244849 0.493928,-0.161394 1.232289,-0.379483 1.953868,-0.300184 0.549632,0.05745 0.521676,0.533845 0.902415,0.714817 0.442089,0.03024 0.801617,-0.12148 1.151358,-0.05443 0.264395,0.04914 0.575823,0.350983 0.601064,0.508144 0.02597,0.163434 -0.119049,0.407527 -0.150676,0.508143 -0.06898,0.219601 -0.07203,0.481005 -0.124471,0.620098 -0.04049,0.108099 -0.153188,0.175227 -0.150676,0.283024 0.0022,0.09873 0.166688,0.340627 0.301351,0.469968 0.164493,0.158597 0.425738,0.279623 0.625631,0.451599 0.366807,0.31485 0.522693,0.695768 0.776307,1.111006 0.09234,0.150508 0.270743,0.386286 0.275146,0.545033 0.0027,0.117322 -0.08987,0.219828 -0.07534,0.338359 0.03166,0.252182 0.241392,0.36134 0.276785,0.583209 0.08216,0.523035 -0.550295,0.679741 -0.67804,1.109796 -0.03032,0.102581 0.0042,0.209395 -0.02456,0.301469 -0.043,0.139698 -0.172589,0.24432 -0.199808,0.376458 -0.02724,0.13486 -0.06779,0.389763 -0.05078,0.526589 0.02534,0.201533 0.311077,0.387117 0.452026,0.564763 0.149941,0.189136 0.273949,0.507992 0.45039,0.751783 0.09802,0.13486 0.259283,0.247722 0.299713,0.358013 0.03451,0.09396 0.02743,0.209018 0.02293,0.326038 l 0.879486,0 c 0.903342,0 1.631225,-0.546848 1.631225,-1.225456 l 0,-18.296862 c -0.07491,0.05367 -0.1356,0.115583 -0.153951,0.198057 -0.04752,0.212192 0.144219,0.509806 -0.275146,0.546318 -0.266279,0.02419 -0.537496,-0.204104 -0.902415,-0.263294 -0.149222,-0.02495 -0.358617,-0.0076 -0.474955,-0.04158 -0.273197,-0.07106 -0.241396,-0.270627 -0.476593,-0.394979 -0.136641,-0.06879 -0.485269,-0.170465 -0.700969,-0.188229 -0.134037,-0.0083 -0.259578,0.03326 -0.401255,0.01588 -0.168265,-0.01134 -0.407992,-0.103186 -0.550293,-0.1685 -0.135924,-0.05972 -0.415624,-0.155572 -0.450389,-0.244849 -0.05322,-0.138564 0.33719,-0.296555 0.350484,-0.414633 0.0092,-0.08882 -0.146129,-0.145065 -0.175242,-0.281815 -0.01703,-0.08338 0.04546,-0.16986 0.02456,-0.225119 -0.03662,-0.09676 -0.248706,-0.205616 -0.450388,-0.207959 -0.178423,0 -0.34871,0.109309 -0.501159,0.11324 -0.220108,0.0076 -0.579073,-0.09117 -0.851644,-0.07635 -0.167012,0.0076 -0.320996,0.08444 -0.476594,0.09351 -0.436434,0.02721 -0.789092,-0.0121 -1.12679,0 -0.245978,0.0083 -0.671869,0.07181 -0.900777,0.151339 -0.11634,0.04233 -0.202272,0.131836 -0.352122,0.188305 -0.06765,0.02343 -0.159194,0.02343 -0.248943,0.05443 -0.142304,0.04838 -0.290529,0.162528 -0.425822,0.18823 -0.196116,0.03855 -0.497499,-0.03175 -0.851643,-0.01588 -0.25424,0.0076 -0.672629,0.0076 -0.676402,-0.226329 -0.0063,-0.347959 0.789009,-0.220357 1.226695,-0.281814 0.165034,-0.02192 0.254744,-0.138489 0.452026,-0.226329 0.09433,-0.04385 0.211136,-0.04838 0.299713,-0.09351 0.151732,-0.07983 0.379064,-0.266242 0.401255,-0.356804 0.01956,-0.08414 -0.06392,-0.201156 -0.05078,-0.263294 0.01713,-0.08089 0.139225,-0.162527 0.275147,-0.26337 0.211212,-0.156631 0.443334,-0.368521 0.702606,-0.471178 0.177158,-0.06728 0.417951,-0.06199 0.499522,-0.169784 0.01828,-0.12095 -0.02838,-0.190346 -0.02456,-0.300259 0.108784,-0.07484 0.184048,-0.135314 0.275147,-0.150055 0.270049,-0.04536 0.537304,0.140379 0.851644,0.1304 0.135926,0 0.255181,-0.07892 0.401255,-0.15013 0.122718,-0.05821 0.254846,-0.104093 0.375052,-0.150129 0.132153,-0.05065 0.265192,-0.161847 0.425821,-0.169785 0.39403,-0.01587 0.548128,0.311599 0.727173,0.489699 0.149854,0.148466 0.579465,0.40405 0.82544,0.508143 0.138528,0.05594 0.324134,0.05821 0.476593,0.11324 0.325117,0.109687 0.96533,0.475411 0.976115,0.714817 0.0058,0.119666 -0.149176,0.209849 -0.124472,0.319914 0.245981,0.03251 0.519436,-0.172581 0.525727,-0.358089 0.0042,-0.11581 -0.154295,-0.178024 -0.12447,-0.300184 0.115085,-0.18649 0.45238,3.03e-4 0.601063,-0.07627 -0.02852,-0.210378 -0.412777,-0.230335 -0.651835,-0.339569 -0.129007,-0.05594 -0.216445,-0.183618 -0.350485,-0.225194 -0.194137,-0.0567 -0.399095,-0.0446 -0.550293,-0.13161 -0.141671,-0.0824 -0.212339,-0.270248 -0.352122,-0.394979 -0.203037,-0.182181 -0.647811,-0.210756 -0.525726,-0.621307 0.05317,-0.05292 0.171878,-0.13486 0.263683,-0.136599 l 0,0.0076 c 0.01309,-3.03e-4 0.02585,0 0.03767,0 0.185961,0.03628 0.162439,0.154287 0.299712,0.226404 0.09991,0.05065 0.238546,0.04384 0.350485,0.09472 0.131526,0.05896 0.20189,0.224817 0.350483,0.318629 0.210043,0.132441 0.581924,0.234039 0.877849,0.339644 0.27706,0.09903 0.721956,0.233888 0.776307,0.413349 0.0304,0.101598 -0.04386,0.213704 -0.0262,0.301469 0.02211,0.111728 0.129936,0.225875 0.201446,0.300184 0.103269,0.106965 0.227323,0.210151 0.353759,0.317419 l 0,-6.330246 c -0.307736,0.07703 -0.373622,0.447743 -0.304626,0.735757 -0.178955,0.07257 -0.383968,0.284158 -0.625631,0.301469 -0.151106,0.0083 -0.271291,-0.09835 -0.474955,-0.11445 -0.450897,-0.03629 -0.873615,0.273651 -1.30367,0.26458 -0.186592,0 -0.37976,-0.171977 -0.676402,-0.169785 -0.153083,0 -0.268333,0.08406 -0.425822,0.09472 -0.198542,0.01209 -0.51562,-0.04989 -0.50116,-0.169785 0.02217,-0.185734 0.359679,-0.03326 0.551931,-0.05443 0.241664,-0.03402 0.186083,-0.183543 0.350484,-0.20675 0.110042,-0.01436 0.211655,0.06652 0.376689,0.05443 0.178328,-0.01209 0.335655,-0.210001 0.499522,-0.263295 0.320631,-0.104471 0.576062,-0.04762 0.627267,-0.244849 0.02794,-0.109687 -0.08865,-0.272819 -0.05077,-0.394903 0.08477,-0.26972 0.756279,-0.230713 0.727173,-0.546318 -0.01703,-0.187171 -0.54323,-0.2354 -0.602702,-0.413424 -0.03789,-0.115432 0.05095,-0.306685 0.101543,-0.376459 0.176183,-0.24432 0.65031,-0.318326 0.959736,-0.458931 -0.249658,-0.116491 -0.543139,-0.18702 -0.859832,-0.18702 l -2.463216,0 z m 3.680084,0.414633 c -0.03696,0.03704 -0.06216,0.07665 -0.06551,0.121782 -0.0058,0.07333 0.07709,0.199946 0.0999,0.319914 0.02083,0.108251 2.28e-4,0.185508 0.0262,0.24364 0.04943,0.110367 0.192702,0.201911 0.353759,0.263294 l 0,-0.137808 c 0,-0.312733 -0.159417,-0.594774 -0.414357,-0.810822 z m -32.549177,0.03553 c -0.07475,0 -0.149746,0.0076 -0.199809,0.03175 -0.09802,0.04611 -0.108715,0.115129 -0.0999,0.15013 0.05372,0.200097 0.555324,0.03251 0.550293,-0.07408 -0.0031,-0.06199 -0.126006,-0.101598 -0.250579,-0.105756 l 0,0 z m 23.543042,1.288199 c -0.128376,0.125561 -0.357745,0.07408 -0.576498,0.131684 -0.176532,0.04687 -0.504741,0.276599 -0.550293,0.358014 -0.07533,0.133801 0.01829,0.282344 0,0.488413 0.14293,0.04687 0.230779,0.2577 0.474955,0.358089 0.09235,0.04082 0.219058,0.01966 0.301351,0.05443 0.142934,0.05745 0.255118,0.194352 0.226014,0.301469 -0.04229,0.15459 -0.312326,0.110443 -0.452027,0.225119 0.02401,0.219072 -0.202463,0.249763 -0.275146,0.396189 0.04364,0.09238 0.230998,0.07688 0.25058,0.187019 -0.02788,0.119968 -0.312564,0.138035 -0.25058,0.264504 0.268172,0.157084 0.547261,-0.03553 0.800873,-0.05518 0.56032,-0.0514 1.134835,0.05216 1.478913,-0.150129 -0.04681,-0.201081 0.279688,-0.271912 0.250579,-0.451524 -0.02216,-0.135162 -0.320411,-0.151339 -0.452026,-0.244849 -0.07017,-0.04989 -0.08917,-0.165929 -0.175242,-0.263294 -0.09866,-0.111426 -0.291199,-0.191631 -0.401255,-0.300184 -0.147328,-0.146879 -0.45093,-0.359525 -0.45039,-0.471253 0.0018,-0.128057 0.212668,-0.162528 0.250581,-0.33836 -0.04357,-0.161468 -0.444056,-0.05367 -0.474955,-0.226404 0.01632,-0.106512 0.149415,-0.125032 0.150675,-0.243639 -0.02188,-0.0091 -0.05027,-0.01814 -0.0868,-0.01814 l 0,0 c -0.01218,0 -0.02496,5.29e-4 -0.0393,0 z m 9.420492,0.145367 c -2.13e-4,0 -0.0032,0.0076 -0.0033,0.0076 10e-4,0 0.0022,0 0.0033,0 l 0,-0.0098 z m -11.061544,1.024904 0,0.0076 c -0.128864,0 -0.257398,0.02117 -0.361949,0.06728 -0.190366,0.08746 -0.253831,0.222323 -0.401255,0.264504 -0.203033,0.05518 -0.34478,0.0076 -0.375051,0.15013 -0.02471,0.11581 0.128877,0.17311 0.12447,0.281739 -0.07406,0.138488 -0.289257,0.172732 -0.325916,0.339568 0.253614,0.310994 0.862584,0.03477 1.17756,-0.04158 0.141669,-0.03402 0.349281,-0.02948 0.425823,-0.111955 0.0873,-0.0991 0.0099,-0.270476 0.07534,-0.414634 0.07272,-0.157991 0.27519,-0.17878 0.250579,-0.319914 -0.02216,-0.128358 -0.306087,-0.223078 -0.589599,-0.220205 z m -26.73507,3.089454 0,0.0076 0.07534,0 c 0.116969,0.0076 0.257941,0.105 0.399618,0.11324 0.134036,0.0076 0.243715,-0.05367 0.325917,-0.04158 0.20932,0.04384 0.296651,0.28 0.0999,0.396188 -0.163776,0.01361 -0.227138,-0.05216 -0.350485,-0.04082 -0.340218,0.04536 -0.471295,0.543446 -0.725535,0.526588 -0.239778,-0.01361 -0.369566,-0.452808 -0.126108,-0.583208 0.0096,-0.114374 -0.107545,-0.132138 -0.0999,-0.244773 0.06422,-0.05821 0.22754,-0.126394 0.401255,-0.132895 z m 1.912924,0.740671 0,0 c 0.127122,0 0.239329,0.01361 0.291524,0.0514 -0.08156,0.248402 -0.792473,0.183164 -1.053091,0.09351 0.01707,-0.09313 0.211187,-0.118909 0.375051,-0.131684 0.11607,-0.0076 0.259394,-0.01587 0.386516,-0.01436 z m 31.057162,0.451523 c -0.189095,0 -0.304261,0.301545 -0.03603,0.337149 0.115086,-0.05065 0.203722,-0.122991 0.175242,-0.281739 -0.04766,-0.04158 -0.09555,-0.05292 -0.139211,-0.05292 l 0,0 z m -32.681837,0.0076 c 0.08545,0 0.173037,0.0076 0.262044,0.03326 -0.230795,0.144989 -0.480295,0.225572 -0.87621,0.319914 -0.190368,0.04611 -0.518044,0.102505 -0.550293,-0.05518 -0.03979,-0.195713 0.276462,-0.151339 0.450388,-0.168499 0.21871,-0.01814 0.457701,-0.118078 0.714071,-0.124277 l 0,-0.0076 z m 32.632704,0.521675 c -0.09539,0.0076 -0.205285,0.04838 -0.312816,0.132819 0.0063,0.210151 0.03057,0.344482 -0.02456,0.526663 0.161349,0.23215 0.51877,0.02419 0.601064,-0.131684 0.08867,-0.35877 -0.05382,-0.538306 -0.263682,-0.527798 z m 1.916198,1.042064 0,0 c -0.15941,0.0076 -0.301649,0.03024 -0.399617,0.08731 0.183445,0.225648 0.565649,0.30094 0.976115,0.356804 0.147965,-0.08361 0.158364,-0.269342 0.226013,-0.413348 -0.224926,0 -0.536839,-0.04007 -0.802511,-0.03175 z m -34.0199,8.987756 c -0.105657,0 -0.200495,0.105151 -0.291524,0.152549 -0.138529,0.07257 -0.2722,0.145594 -0.425822,0.188305 -0.344081,0.09615 -0.558196,0.04611 -0.827078,0.150054 -0.249125,0.09684 -0.258575,0.258758 -0.399617,0.451599 -0.115713,0.157462 -0.378632,0.385378 -0.551931,0.394903 -0.209951,0.0083 -0.410698,-0.219827 -0.601064,-0.281739 -0.06183,-0.02041 -0.118032,-0.03175 -0.173604,-0.04082 l 0,0.294061 c 0.08705,0.0923 0.131396,0.230789 0.199808,0.367841 0.06385,0.128661 0.231576,0.241523 0.275147,0.376534 0.07654,0.233812 0.0393,0.931697 -0.02457,1.071621 -0.06291,0.13743 -0.27139,0.214461 -0.450388,0.33594 l 0,4.006032 c 0.246517,0.321501 0.468015,0.670822 0.723897,0.964656 0.162604,0.185734 0.392367,0.35189 0.50116,0.545033 0.05563,0.09752 0.04971,0.214007 0.101542,0.301469 0.179045,0.303586 0.969414,0.620778 1.37737,0.771437 0.190995,0.06728 0.401315,0.09532 0.576498,0.168575 0.26556,0.111199 0.791306,0.408284 0.925344,0.583208 0.120203,0.15716 0.192453,0.541329 0.250579,0.791092 0.07353,0.314925 0.01529,0.563781 0.0262,0.895714 l 11.441508,0 c 0.04189,-0.01739 0.09238,-0.04158 0.129385,-0.0514 0.301585,-0.08058 0.674109,-0.04082 0.949911,-0.113164 0.469314,-0.128812 0.520318,-0.505951 0.75174,-0.826848 0.110043,-0.152171 0.255223,-0.306458 0.276784,-0.414633 0.01958,-0.09752 -0.04831,-0.185962 -0.0262,-0.301394 0.02211,-0.112862 0.1603,-0.213629 0.201447,-0.338359 0.05436,-0.163056 0.07534,-0.401556 0.07534,-0.583208 0,-0.149147 -0.09264,-0.279471 -0.101542,-0.413424 -0.03227,-0.488111 0.236277,-0.543597 0.476594,-0.809537 0.119572,-0.132063 0.166492,-0.281739 0.250579,-0.376534 0.403554,-0.452052 1.10212,-0.670897 1.051453,-1.354645 -0.01633,-0.226405 -0.20383,-0.735909 -0.425822,-0.808328 -0.126491,-0.04309 -0.417706,-0.0076 -0.601064,-0.05443 -0.592032,-0.165854 -0.939198,-0.717917 -1.552613,-0.752993 -0.130982,-0.0076 -0.253829,0.04233 -0.401254,0.04082 -0.242831,-0.0076 -0.607417,-0.12851 -0.876212,-0.151339 -0.17078,-0.01134 -0.398654,0.04006 -0.501159,0 -0.156856,-0.05443 -0.172594,-0.273348 -0.299713,-0.338359 -0.10179,-0.05065 -0.297395,-0.06652 -0.450389,-0.113165 -0.246695,-0.06879 -0.442566,-0.155043 -0.727173,-0.169784 -0.08787,-0.0076 -0.199565,0.03402 -0.301351,0.01739 -0.157488,-0.01663 -0.278735,-0.159731 -0.424184,-0.226329 -0.181562,-0.08338 -0.35063,-0.126393 -0.425822,-0.244849 0.164401,-0.405335 -0.290575,-0.517668 -0.401255,-0.751783 -0.05184,-0.109838 -0.02978,-0.240465 -0.07534,-0.338359 -0.06513,-0.140303 -0.247985,-0.222549 -0.450389,-0.339569 -0.362406,-0.209168 -0.684124,-0.403294 -1.202127,-0.451523 -0.227651,-0.01739 -0.452092,0.04989 -0.727174,0.03931 -0.291527,-0.0098 -0.658084,-0.20675 -0.87621,-0.393769 -0.211929,-0.18324 -0.316454,-0.34675 -0.50116,-0.434288 -0.175182,-0.08383 -0.406243,-0.08338 -0.525727,-0.168575 -0.05309,-0.04082 -0.04296,-0.100313 -0.0999,-0.188229 -0.08787,-0.13675 -0.235622,-0.212646 -0.126108,-0.376534 -0.199889,-0.07862 -0.207515,0.141739 -0.425822,0.11324 -0.194769,-0.207506 -0.35878,-0.305778 -0.800874,-0.24485 -0.201775,0.03175 -0.314377,0.220282 -0.550293,0.22512 -0.193508,0 -0.347203,-0.159957 -0.602701,-0.18702 -0.192881,-0.01739 -0.413022,0.04158 -0.550293,0.01587 -0.213726,-0.03402 -0.279557,-0.166912 -0.474955,-0.263295 -0.142931,-0.0703 -0.420846,-0.190119 -0.50116,-0.188229 -0.251638,0.0076 -0.429084,0.401254 -0.776306,0.263294 -0.169434,-0.160637 0.275215,-0.244773 0.07534,-0.394979 -0.03796,-0.02872 -0.07451,-0.04006 -0.109731,-0.03931 z m 0.01474,0.775141 c 0.169311,0.0076 0.192879,0.274029 0.01965,0.295271 -0.187222,0.01965 -0.281461,-0.218543 -0.0999,-0.281739 0.03003,-0.0076 0.05607,-0.01361 0.08025,-0.0098 l 0,0 z"
         style="fill:#ffffff;fill-opacity:1;fill-rule:nonzero;stroke:none" />
      <path
         sodipodi:nodetypes="cccc"
         inkscape:connector-curvature="0"
         id="path3257"
         d="m -54.237499,41.415281 0,0 c 18.112501,-0.755941 18.112501,-0.755941 36.225003,0 z"
         style="opacity:0.35;fill:#000000;fill-opacity:1;stroke:none" />
      <path
         style="opacity:0.9;fill:#ffffff;fill-opacity:1;stroke:none"
         d="m -54.237499,11.177657 0,0 c 18.112501,0.75594 18.112501,0.75594 36.225003,0 z"
         id="path4027"
         inkscape:connector-curvature="0"
         sodipodi:nodetypes="cccc" />
    </g>
    <path
       style="fill:#d1d1d1;fill-opacity:1;stroke:none"
       d="m 15.755387,21 -2.482758,2.125626 -13.24137073,0 -8.27e-6,0.826641 0.0016555,0 c -4.137e-5,0.0022 -0.0016555,0.0049 -0.0016555,0.0071 l 0,21.249397 0,0.590457 0.82758624,0 46.34482876,0 0.827585,0 0,-0.590457 0,-21.249397 0,-0.0071 0,-2.952267 z"
       id="rect4113"
       inkscape:connector-curvature="0"
       sodipodi:nodetypes="cccccscccccccccc" />
    <path
       style="fill:#adadad;fill-opacity:1;fill-rule:evenodd;stroke:none"
       d="m 47.203665,6.0748935 0,0.8275864 -24.000002,0 -1.655172,-4.1379317 2.48276,3.3103453 z"
       id="path4222"
       inkscape:connector-curvature="0" />
    <path
       inkscape:connector-curvature="0"
       style="fill:#adadad;fill-opacity:1;stroke:none"
       d="m 0.03125,44.971429 0,0.827587 0.82758624,0 46.34482876,0 0.827585,0 0,-0.827587 -0.827585,0 -46.34482876,0 -0.82758624,0 z"
       id="path4151-2" />
    <path
       style="fill:#ffffff;fill-opacity:0.23529412;fill-rule:evenodd;stroke:none"
       d="m 0.03125827,23.125626 0,0.708541 14.06895673,0 L 15.755387,21 13.272629,23.125626 z"
       id="path4224"
       inkscape:connector-curvature="0"
       sodipodi:nodetypes="cccccc" />
    <path
       style="fill:#959595;fill-opacity:1;fill-rule:evenodd;stroke:none"
       d="m 0.85883624,22.417085 0,0.708541 12.41379276,0 L 15.755387,21 12.445043,22.417085 z"
       id="path4228"
       inkscape:connector-curvature="0"
       sodipodi:nodetypes="cccccc" />
  </g>
</svg>
