/* XPM */
static char * bottom_right_active_xpm[] = {
"4 4 6 1",
" 	c #CECFD4",
".	c #EFF0F4",
"+	c #F5F6F8",
"@	c #BDBEC0",
"#	c #EEEFF1",
"$	c #FFFEFF",
" .+@",
"##+@",
"$$+@",
"@@@@"};
