/* XPM */
static char * close_prelight_xpm[] = {
"19 18 103 2",
"  	c #FFFFFF",
". 	c #D1BFBF",
"+ 	c #906666",
"@ 	c #5C1F1F",
"# 	c #460000",
"$ 	c #6B3333",
"% 	c #863631",
"& 	c #B4625C",
"* 	c #CF7F78",
"= 	c #D2847C",
"- 	c #916666",
"; 	c #84332E",
"> 	c #CD7971",
", 	c #CF7C73",
"' 	c #621F1F",
") 	c #AF534C",
"! 	c #CB6F66",
"~ 	c #500000",
"{ 	c #C25D54",
"] 	c #C66157",
"^ 	c #C55D53",
"/ 	c #F3DDDB",
"( 	c #C55E54",
"_ 	c #550000",
": 	c #C05348",
"< 	c #BB463A",
"[ 	c #EFD4D1",
"} 	c #F1D9D6",
"| 	c #BF5044",
"1 	c #590000",
"2 	c #BD493D",
"3 	c #B93D30",
"4 	c #AA1606",
"5 	c #ECCCCC",
"6 	c #F0D6D4",
"7 	c #BA4235",
"8 	c #5E0000",
"9 	c #BA3F33",
"0 	c #B93B2F",
"a 	c #B2281B",
"b 	c #A40300",
"c 	c #EBCCCC",
"d 	c #F5E3E1",
"e 	c #630000",
"f 	c #B6362A",
"g 	c #B53226",
"h 	c #AD1E11",
"i 	c #9F0000",
"j 	c #F2E0E0",
"k 	c #690000",
"l 	c #B42F22",
"m 	c #B12719",
"n 	c #EDCDCC",
"o 	c #F0E0E0",
"p 	c #6E0000",
"q 	c #B22A1D",
"r 	c #B02618",
"s 	c #EECFCC",
"t 	c #E8CCCC",
"u 	c #8E0000",
"v 	c #730000",
"w 	c #E9CCCC",
"x 	c #990000",
"y 	c #A20000",
"z 	c #770000",
"A 	c #B1291D",
"B 	c #B32B1E",
"C 	c #AE1D0F",
"D 	c #9B0000",
"E 	c #AA1203",
"F 	c #B02215",
"G 	c #8B1E1E",
"H 	c #A9251B",
"I 	c #BB3326",
"J 	c #B62416",
"K 	c #AA0000",
"L 	c #A80000",
"M 	c #B31B0C",
"N 	c #BA2F22",
"O 	c #AE6161",
"P 	c #991712",
"Q 	c #C23A2E",
"R 	c #C43C2F",
"S 	c #C3372A",
"T 	c #C02D1F",
"U 	c #C02F21",
"V 	c #C3382B",
"W 	c #D3B2B4",
"X 	c #993031",
"Y 	c #9F1A15",
"Z 	c #B83228",
"` 	c #CA4236",
" .	c #CD4538",
"..	c #E9EAEC",
"+.	c #D5B3B4",
"@.	c #B16061",
"#.	c #931D1D",
"$.	c #870000",
"%.	c #E5E7E9",
"&.	c #E8E9EB",
"*.	c #EBEDEE",
"=.	c #EEEFF1",
"-.	c #EFF1F2",
"  . + @ # # # # # # # # # # # @ + .   ",
". $ % & * = = = = = = = = = * & % $ . ",
"- ; > , , , , , , , , , , , , , > ; - ",
"' ) ! ! ! ! ! ! ! ! ! ! ! ! ! ! ! ) ' ",
"~ { ] ] ^   / ( ] ] ] ( /   ^ ] ] { ~ ",
"_ : : : < [   } | : | }   [ < : : : _ ",
"1 2 2 2 3 4 5   6 7 6   5 4 3 2 2 2 1 ",
"8 9 9 9 0 a b c   d   c b a 0 9 9 9 8 ",
"e f f f f g h i j   j i h g f f f f e ",
"k l l l l l m n   o   n m l l l l l k ",
"p q q q q r s   t u t   s r q q q q p ",
"v q q q r s   w x y x w   s r q q q v ",
"z A B B C   w D E F E D w   C B B A z ",
"G H I I J K L M N I N M L K J I I H G ",
"O P Q R S T U V R R R V U T S R Q P O ",
"W X Y Z `  . . . . . . . . .` Z Y X W ",
"..+.@.#.$.$.$.$.$.$.$.$.$.$.$.#.@.+...",
"%.&.*.=.-.-.-.-.-.-.-.-.-.-.-.=.*.&.%."};
