/* XPM */
static char * close_pressed_xpm[] = {
"19 18 90 1",
" 	c #FFFFFF",
".	c #CABFBF",
"+	c #806666",
"@	c #451F1F",
"#	c #2B0000",
"$	c #553333",
"%	c #621B1B",
"&	c #8E3434",
"*	c #AA4545",
"=	c #AE4848",
"-	c #826666",
";	c #631818",
">	c #A84040",
",	c #AB4141",
"'	c #4B1F1F",
")	c #8A2828",
"!	c #A63737",
"~	c #360000",
"{	c #9E2A2A",
"]	c #A12C2C",
"^	c #9F2727",
"/	c #EBD2D2",
"(	c #9F2828",
"_	c #3C0000",
":	c #9C2020",
"<	c #940F0F",
"[	c #E6CCCC",
"}	c #E9CDCD",
"|	c #9A1C1C",
"1	c #400000",
"2	c #991818",
"3	c #920909",
"4	c #7C0000",
"5	c #E1CCCC",
"6	c #E8CCCC",
"7	c #950F0F",
"8	c #460000",
"9	c #961111",
"0	c #940C0C",
"a	c #8A0000",
"b	c #750000",
"c	c #F0E0E0",
"d	c #4C0000",
"e	c #920A0A",
"f	c #900505",
"g	c #850000",
"h	c #6F0000",
"i	c #ECE0E0",
"j	c #530000",
"k	c #900404",
"l	c #8B0000",
"m	c #E4CCCC",
"n	c #E9E0E0",
"o	c #590000",
"p	c #8E0000",
"q	c #8C0000",
"r	c #DECCCC",
"s	c #580000",
"t	c #5F0000",
"u	c #6A0000",
"v	c #760000",
"w	c #630000",
"x	c #860000",
"y	c #810000",
"z	c #890000",
"A	c #7B1E1E",
"B	c #870000",
"C	c #930000",
"D	c #770000",
"E	c #910000",
"F	c #A36161",
"G	c #7E0000",
"H	c #980000",
"I	c #990000",
"J	c #970000",
"K	c #920000",
"L	c #CFB2B4",
"M	c #8B3031",
"N	c #820000",
"O	c #9B0000",
"P	c #9D0000",
"Q	c #E9EAEC",
"R	c #D0B3B4",
"S	c #A66061",
"T	c #841D1D",
"U	c #E5E7E9",
"V	c #E8E9EB",
"W	c #EBEDEE",
"X	c #EEEFF1",
"Y	c #EFF1F2",
" .+@###########@+. ",
".$%&*=========*&%$.",
"-;>,,,,,,,,,,,,,>;-",
"')!!!!!!!!!!!!!!!)'",
"~{]]^ /(]]](/ ^]]{~",
"_:::<[ }|:|} [<:::_",
"1222345 676 5432221",
"89990ab5 c 5ba09998",
"deeeefghi ihgfeeeed",
"jkkkkklm n mlkkkkkj",
"oppppq[ rsr [qppppo",
"tpppq[ ruvur [qpppt",
"wqppx ruyzyur xppqw",
"ABCClDbxECExbDlCCBA",
"FGHIJEKJIIIJKEJIHGF",
"LMNEOPPPPPPPPPOENML",
"QRSTbbbbbbbbbbbTSRQ",
"UVWXYYYYYYYYYYYXWVU"};
