/* XPM */
static char * close_active_xpm[] = {
"19 18 98 2",
"  	c #FFFFFF",
". 	c #CDBFBF",
"+ 	c #886666",
"@ 	c #501F1F",
"# 	c #380000",
"$ 	c #603333",
"% 	c #78302C",
"& 	c #A85A53",
"* 	c #C3756D",
"= 	c #C77971",
"- 	c #8B6666",
"; 	c #792C28",
"> 	c #C16D66",
", 	c #C47068",
"' 	c #591F1F",
") 	c #A24941",
"! 	c #BE635A",
"~ 	c #480000",
"{ 	c #B45047",
"] 	c #B85249",
"^ 	c #B64E45",
"/ 	c #F0DAD8",
"( 	c #B74F45",
"_ 	c #4F0000",
": 	c #B14339",
"< 	c #AB352A",
"[ 	c #EBD0CD",
"} 	c #EED5D3",
"| 	c #AF3F35",
"1 	c #570000",
"2 	c #AD382D",
"3 	c #A82B1F",
"4 	c #960000",
"5 	c #E7CCCC",
"6 	c #EDD2D0",
"7 	c #AA3024",
"8 	c #5F0000",
"9 	c #A92E22",
"0 	c #A72A1E",
"a 	c #9F1508",
"b 	c #8E0000",
"c 	c #E6CCCC",
"d 	c #F2E0E0",
"e 	c #670000",
"f 	c #A42418",
"g 	c #A22013",
"h 	c #990A00",
"i 	c #870000",
"j 	c #EFE0E0",
"k 	c #6F0000",
"l 	c #A11C10",
"m 	c #9D1306",
"n 	c #E8CCCC",
"o 	c #EDE0E0",
"p 	c #770000",
"q 	c #9F170A",
"r 	c #9D1205",
"s 	c #EACCCC",
"t 	c #E3CCCC",
"u 	c #710000",
"v 	c #7F0000",
"w 	c #800000",
"x 	c #8B0000",
"y 	c #9F170B",
"z 	c #A0180B",
"A 	c #9A0900",
"B 	c #820000",
"C 	c #950000",
"D 	c #9C0F01",
"E 	c #9B241E",
"F 	c #A1190E",
"G 	c #A82013",
"H 	c #A10F01",
"I 	c #920000",
"J 	c #900000",
"K 	c #9E0600",
"L 	c #A61C0E",
"M 	c #BA6961",
"N 	c #B0281B",
"O 	c #B1291C",
"P 	c #AF2417",
"Q 	c #AB190B",
"R 	c #AC1B0D",
"S 	c #AF2517",
"T 	c #D9B6B5",
"U 	c #AA3D35",
"V 	c #A51D10",
"W 	c #B93124",
"X 	c #BA3225",
"Y 	c #E9EAEC",
"Z 	c #DBB9B6",
"` 	c #BF6E67",
" .	c #A93125",
"..	c #E5E7E9",
"+.	c #E8E9EB",
"@.	c #EBEDEE",
"#.	c #EEEFF1",
"$.	c #EFF1F2",
"  . + @ # # # # # # # # # # # @ + .   ",
". $ % & * = = = = = = = = = * & % $ . ",
"- ; > , , , , , , , , , , , , , > ; - ",
"' ) ! ! ! ! ! ! ! ! ! ! ! ! ! ! ! ) ' ",
"~ { ] ] ^   / ( ] ] ] ( /   ^ ] ] { ~ ",
"_ : : : < [   } | : | }   [ < : : : _ ",
"1 2 2 2 3 4 5   6 7 6   5 4 3 2 2 2 1 ",
"8 9 9 9 0 a b c   d   c b a 0 9 9 9 8 ",
"e f f f f g h i j   j i h g f f f f e ",
"k l l l l l m n   o   n m l l l l l k ",
"p q q q q r s   t u t   s r q q q q p ",
"v q q q r s   t w x w t   s r q q q v ",
"i y z z A   t B C D C B t   A z z y i ",
"E F G G H I J K L G L K J I H G G F E ",
"M y N O P Q R S O O O S R Q P O N y M ",
"T U V O W X X X X X X X X X W O V U T ",
"Y Z `  .q q q q q q q q q q q  .` Z Y ",
"..+.@.#.$.$.$.$.$.$.$.$.$.$.$.#.@.+..."};
