/* XPM */
static char * hide_prelight_xpm[] = {
"19 18 71 1",
" 	c #FFFFFF",
".	c #DBBFBF",
"+	c #A86666",
"@	c #801F1F",
"#	c #6E0000",
"$	c #8B3333",
"%	c #A54E30",
"&	c #CC885A",
"*	c #E2AA75",
"=	c #E5AF79",
"-	c #A96666",
";	c #A54B2C",
">	c #E1A76D",
",	c #E3AA70",
"'	c #851F1F",
")	c #C87C49",
"!	c #E0A263",
"~	c #780400",
"{	c #DA9450",
"]	c #DD9852",
"^	c #7D0900",
"/	c #DA8F43",
"(	c #810C00",
"_	c #D98938",
":	c #861100",
"<	c #D6832E",
"[	c #8B1600",
"}	c #D47D24",
"|	c #911D00",
"1	c #D3781C",
"2	c #962200",
"3	c #D27517",
"4	c #9B2700",
"5	c #D17212",
"6	c #F5E2CD",
"7	c #9F2A00",
"8	c #D17317",
"9	c #D37618",
"0	c #D06D0A",
"a	c #F4DDCC",
"b	c #AE481E",
"c	c #CC6817",
"d	c #DB7E20",
"e	c #D97612",
"f	c #D25F00",
"g	c #CD4A00",
"h	c #CC4700",
"i	c #C58061",
"j	c #BE530F",
"k	c #E28528",
"l	c #E48729",
"m	c #E38525",
"n	c #E27F1B",
"o	c #E17B13",
"p	c #E17911",
"q	c #DDC0B4",
"r	c #B95C31",
"s	c #C45913",
"t	c #DB7724",
"u	c #EA8D30",
"v	c #ED9032",
"w	c #E9EAEC",
"x	c #DFC1B4",
"y	c #C98461",
"z	c #B7511D",
"A	c #AF3B00",
"B	c #E5E7E9",
"C	c #E8E9EB",
"D	c #EBEDEE",
"E	c #EEEFF1",
"F	c #EFF1F2",
" .+@###########@+. ",
".$%&*=========*&%$.",
"-;>,,,,,,,,,,,,,>;-",
"')!!!!!!!!!!!!!!!)'",
"~{]]]]]]]]]]]]]]]{~",
"^/////////////////^",
"(_________________(",
":<<<<<<<<<<<<<<<<<:",
"[}}}}}}}}}}}}}}}}}[",
"|11111111111111111|",
"2333333333333333332",
"433356       653334",
"78990a       a09987",
"bcddefghhhhhgfeddcb",
"ijklmnoppppponmlkji",
"qrstuvvvvvvvvvutsrq",
"wxyzAAAAAAAAAAAzyxw",
"BCDEFFFFFFFFFFFEDCB"};
