/* XPM */
static char * left_active_xpm[] = {
"4 25 4 1",
" 	c #BDBEC0",
".	c #F5F6F8",
"+	c #EFF0F4",
"@	c #CECED6",
" .+@",
" .+@",
" .+@",
" .+@",
" .+@",
" .+@",
" .+@",
" .+@",
" .+@",
" .+@",
" .+@",
" .+@",
" .+@",
" .+@",
" .+@",
" .+@",
" .+@",
" .+@",
" .+@",
" .+@",
" .+@",
" .+@",
" .+@",
" .+@",
" .+@"};
