/* XPM */
static char * maximize_toggled_active_xpm[] = {
"19 18 81 1",
" 	c #FFFFFF",
".	c #BFC3BF",
"+	c #666F66",
"@	c #1F2C1F",
"#	c #000F00",
"$	c #333F33",
"%	c #48562A",
"&	c #7F8B50",
"*	c #9FAB69",
"=	c #A4B06E",
"-	c #667266",
";	c #445627",
">	c #9AA762",
",	c #9EAB64",
"'	c #24351F",
")	c #73823E",
"!	c #95A256",
"~	c #0B1F00",
"{	c #869642",
"]	c #8A9944",
"^	c #87973F",
"/	c #F2F4EB",
"(	c #122600",
"_	c #809034",
":	c #768825",
"<	c #1A2E00",
"[	c #798A28",
"}	c #6B7E12",
"|	c #DBDFCC",
"1	c #3B5400",
"2	c #405800",
"3	c #223600",
"4	c #72841D",
"5	c #657808",
"6	c #DCE0CC",
"7	c #576C00",
"8	c #627603",
"9	c #2A3E00",
"0	c #5E7300",
"a	c #324600",
"b	c #66790A",
"c	c #596E00",
"d	c #3A4E00",
"e	c #627604",
"f	c #556A00",
"g	c #DADECC",
"h	c #425600",
"i	c #4A5E00",
"j	c #627605",
"k	c #637705",
"l	c #566B00",
"m	c #CAD0B7",
"n	c #DDE1CC",
"o	c #65771E",
"p	c #647809",
"q	c #6B7F0D",
"r	c #627800",
"s	c #506800",
"t	c #4B6400",
"u	c #4F6600",
"v	c #95A161",
"w	c #627608",
"x	c #738715",
"y	c #728612",
"z	c #6C8108",
"A	c #687E02",
"B	c #C9CEB4",
"C	c #7A8A31",
"D	c #687C0C",
"E	c #748816",
"F	c #7C901E",
"G	c #7D911F",
"H	c #E9E9EC",
"I	c #CAD1B5",
"J	c #9BA763",
"K	c #738521",
"L	c #E3E6E8",
"M	c #E6E9EA",
"N	c #EAECEE",
"O	c #EDEFF0",
"P	c #EEF0F1",
" .+@###########@+. ",
".$%&*=========*&%$.",
"-;>,,,,,,,,,,,,,>;-",
"')!!!!!!!!!!!!!!!)'",
"~{]^/         /^]{~",
"(__:           :__(",
"<[[}|122222221|}[[<",
"3445678888888765443",
"9}}060}}}}}}}060}}9",
"abbc|cbbbbbbbc|cbba",
"deefgfeeeeeeefgfeed",
"heefgfeeeeeeefgfeeh",
"ijklm|nnnnnnn|mlkji",
"opqrstuuuuuuutsrqpo",
"vwxyzAAAAAAAAAzyxwv",
"BCDEFGGGGGGGGGFEDCB",
"HIJKeeeeeeeeeeeKJIH",
"LMNOPPPPPPPPPPPONML"};
