/* XPM */
static char * maximize_toggled_pressed_xpm[] = {
"19 18 80 1",
" 	c #FFFFFF",
".	c #BFBFBF",
"+	c #666666",
"@	c #1F1F1F",
"#	c #000000",
"$	c #333333",
"%	c #333A1B",
"&	c #5C6A34",
"*	c #768645",
"=	c #7B8B48",
"-	c #313818",
";	c #738440",
">	c #768741",
",	c #536128",
"'	c #6F8137",
")	c #63752A",
"!	c #677A2C",
"~	c #637727",
"{	c #EEF0E8",
"]	c #000100",
"^	c #5E7220",
"/	c #52670F",
"(	c #000600",
"_	c #596E18",
":	c #485F00",
"<	c #D2D8CC",
"[	c #0C2A00",
"}	c #133000",
"|	c #000B00",
"1	c #536911",
"2	c #435B00",
"3	c #D4DACC",
"4	c #324C00",
"5	c #3F5800",
"6	c #001100",
"7	c #4E640A",
"8	c #3F5700",
"9	c #D5DACC",
"0	c #001800",
"a	c #4A6004",
"b	c #3B5200",
"c	c #D4D9CC",
"d	c #011E00",
"e	c #475E00",
"f	c #375000",
"g	c #D3D9CC",
"h	c #072400",
"i	c #0B2800",
"j	c #455C00",
"k	c #C0C8B7",
"l	c #D7DCCC",
"m	c #2D471E",
"n	c #3B5400",
"o	c #4B6300",
"p	c #415A00",
"q	c #2A4700",
"r	c #244200",
"s	c #294500",
"t	c #6E7F61",
"u	c #2C4700",
"v	c #4F6700",
"w	c #4E6700",
"x	c #476000",
"y	c #425C00",
"z	c #B9C0B4",
"A	c #455B31",
"B	c #314B00",
"C	c #455E00",
"D	c #546B00",
"E	c #566D00",
"F	c #E9E9EC",
"G	c #B9C1B4",
"H	c #728461",
"I	c #37511D",
"J	c #1E3B00",
"K	c #E3E6E8",
"L	c #E6E9EA",
"M	c #EAECEE",
"N	c #EDEFF0",
"O	c #EEF0F1",
" .+@###########@+. ",
".$%&*=========*&%$.",
"+-;>>>>>>>>>>>>>;-+",
"@,''''''''''''''',@",
"#)!~{         {~!)#",
"]^^/           /^^]",
"(__:<[}}}}}}}[<:__(",
"|11234555555543211|",
"6778987777777898776",
"0aabcbaaaaaaabcbaa0",
"deefgfeeeeeeefgfeed",
"heefgfeeeeeeefgfeeh",
"ijefk3lllllll3kfeji",
"mnopqrsssssssrqponm",
"tuvwxyyyyyyyyyxwvut",
"zABCDEEEEEEEEEDCBAz",
"FGHIJJJJJJJJJJJIHGF",
"KLMNOOOOOOOOOOONMLK"};
