/* XPM */
static char * menu_pressed_xpm[] = {
"19 18 76 1",
" 	c #FFFFFF",
".	c #BFBFC2",
"+	c #66666D",
"@	c #1F1F2A",
"#	c #00000C",
"$	c #33333D",
"%	c #434753",
"&	c #787E8A",
"*	c #999EA9",
"=	c #9DA3AE",
"-	c #666670",
";	c #404453",
">	c #949AA5",
",	c #979DA8",
"'	c #1F2232",
")	c #6B7180",
"!	c #8D94A1",
"~	c #00091C",
"{	c #7E8593",
"]	c #818997",
"^	c #061023",
"/	c #767F8D",
"(	c #0E182B",
"_	c #6E7787",
":	c #6C7586",
"<	c #D9DBDF",
"[	c #162033",
"}	c #677081",
"|	c #616A7C",
"1	c #596275",
"2	c #FAFAFB",
"3	c #1E283B",
"4	c #60697B",
"5	c #5C6578",
"6	c #485367",
"7	c #777F8E",
"8	c #263043",
"9	c #5A6476",
"0	c #525C6F",
"a	c #364258",
"b	c #CBCFD4",
"c	c #2E384B",
"d	c #566073",
"e	c #555F72",
"f	c #465166",
"g	c #354157",
"h	c #F9F9FA",
"i	c #364053",
"j	c #525C70",
"k	c #3E495F",
"l	c #414B61",
"m	c #3E485B",
"n	c #576174",
"o	c #515B6F",
"p	c #4C566B",
"q	c #5A6374",
"r	c #586275",
"s	c #5F697C",
"t	c #5E687B",
"u	c #8F94A0",
"v	c #677184",
"w	c #687285",
"x	c #C6C9CF",
"y	c #707888",
"z	c #5C6679",
"A	c #707A8D",
"B	c #717B8E",
"C	c #E9EAEC",
"D	c #C8CBD1",
"E	c #949AA6",
"F	c #697182",
"G	c #E5E7E9",
"H	c #E8E9EB",
"I	c #EBEDEE",
"J	c #EEEFF1",
"K	c #EFF1F2",
" .+@###########@+. ",
".$%&*=========*&%$.",
"-;>,,,,,,,,,,,,,>;-",
"')!!!!!!!!!!!!!!!)'",
"~{]]]]]]]]]]]]]]]{~",
"^/////////////////^",
"(____:<     <:____(",
"[}}}}|12   21|}}}}[",
"34444567   76544443",
"8999990ab ba0999998",
"cdddddefghgfedddddc",
"iddddddjklkjddddddi",
"mdnnnnndopodnnnnndm",
"qrsssssstttssssssrq",
"udvwwwwwwwwwwwwwvdu",
"xyzwABBBBBBBBBAwzyx",
"CDEFdddddddddddFEDC",
"GHIJKKKKKKKKKKKJIHG"};
