/* XPM */
static char * right_inactive_xpm[] = {
"4 25 2 1",
" 	c #D1D2D7",
".	c #BEBDC2",
"   .",
"   .",
"   .",
"   .",
"   .",
"   .",
"   .",
"   .",
"   .",
"   .",
"   .",
"   .",
"   .",
"   .",
"   .",
"   .",
"   .",
"   .",
"   .",
"   .",
"   .",
"   .",
"   .",
"   .",
"   ."};
