/* XPM */
static char * title_3_inactive_xpm[] = {
"6 25 21 1",
" 	c #BEBDC2",
".	c #D2D1D7",
"+	c #D3D2D8",
"@	c #D3D3D8",
"#	c #D4D4D9",
"$	c #D5D4DA",
"%	c #D5D5DA",
"&	c #D6D6DB",
"*	c #D7D7DC",
"=	c #D8D8DD",
"-	c #D9D9DE",
";	c #D9DADE",
">	c #DADADF",
",	c #DBDBE0",
"'	c #DBDCE0",
")	c #DCDDE1",
"!	c #DDDDE2",
"~	c #DDDEE2",
"{	c #DEDFE3",
"]	c #DFE0E4",
"^	c #E8E9ED",
"      ",
"......",
"......",
"++++++",
"@@@@@@",
"######",
"$$$$$$",
"%%%%%%",
"&&&&&&",
"******",
"******",
"======",
"------",
";;;;;;",
">>>>>>",
",,,,,,",
"''''''",
"))))))",
"!!!!!!",
"~~~~~~",
"{{{{{{",
"]]]]]]",
"]]]]]]",
"''''''",
"^^^^^^"};
