<?xml version="1.0" encoding="UTF-8" standalone="no"?>
<!-- Created with Inkscape (http://www.inkscape.org/) -->

<svg
   xmlns:dc="http://purl.org/dc/elements/1.1/"
   xmlns:cc="http://creativecommons.org/ns#"
   xmlns:rdf="http://www.w3.org/1999/02/22-rdf-syntax-ns#"
   xmlns:svg="http://www.w3.org/2000/svg"
   xmlns="http://www.w3.org/2000/svg"
   xmlns:sodipodi="http://sodipodi.sourceforge.net/DTD/sodipodi-0.dtd"
   xmlns:inkscape="http://www.inkscape.org/namespaces/inkscape"
   id="svg3883"
   height="22"
   width="22"
   version="1.1"
   inkscape:version="0.91 r13725"
   sodipodi:docname="nm-signal-25-secure.svg">
  <defs
     id="defs9" />
  <sodipodi:namedview
     pagecolor="#ffffff"
     bordercolor="#666666"
     borderopacity="1"
     objecttolerance="10"
     gridtolerance="10"
     guidetolerance="10"
     inkscape:pageopacity="0"
     inkscape:pageshadow="2"
     inkscape:window-width="1920"
     inkscape:window-height="1014"
     id="namedview7"
     showgrid="true"
     inkscape:zoom="16"
     inkscape:cx="-16.8125"
     inkscape:cy="19.837465"
     inkscape:window-x="0"
     inkscape:window-y="0"
     inkscape:window-maximized="1"
     inkscape:current-layer="svg3883"
     showguides="true"
     inkscape:guide-bbox="true">
    <inkscape:grid
       type="xygrid"
       id="grid2986" />
    <sodipodi:guide
       position="11,29"
       orientation="1,0"
       id="guide4221" />
    <sodipodi:guide
       position="3,11"
       orientation="0,1"
       id="guide4223" />
  </sodipodi:namedview>
  <metadata
     id="metadata3888">
    <rdf:RDF>
      <cc:Work
         rdf:about="">
        <dc:format>image/svg+xml</dc:format>
        <dc:type
           rdf:resource="http://purl.org/dc/dcmitype/StillImage" />
        <dc:title></dc:title>
      </cc:Work>
    </rdf:RDF>
  </metadata>
  <rect
     style="opacity:1;fill:#000000;fill-opacity:0.4654088;stroke:#ffffff;stroke-width:0.55306709;stroke-miterlimit:4;stroke-dasharray:none;stroke-opacity:1"
     id="rect4246"
     width="22.749439"
     height="22.707884"
     x="-40.319691"
     y="-0.32233" />
  <path
     id="path5"
     d="m 20.987938,-12.427536 c -1.350177,-1.51003 -2.92415,-2.679379 -4.678203,-3.475616 -1.694016,-0.768981 -3.483436,-1.158851 -5.318546,-1.158851 -1.835111,0 -3.6245309,0.38987 -5.3185463,1.158851 -1.7540203,0.796199 -3.3279924,1.965586 -4.67816965,3.475616 -0.45164581,0.505156 -0.45164581,1.324075 0,1.82923 0.45164585,0.505156 1.18394025,0.505081 1.63555255,0 4.610354,-5.156194 12.1119724,-5.156194 16.7222924,0 0.22584,0.252541 0.521808,0.378811 0.81781,0.378811 0.296002,0 0.591937,-0.12627 0.81781,-0.378811 0.451646,-0.505155 0.451646,-1.324112 0,-1.82923 z"
     inkscape:connector-curvature="0"
     style="fill:#ffffff;fill-opacity:1;stroke:#7c7c7c;stroke-width:0.40000001;stroke-miterlimit:4;stroke-dasharray:none;stroke-opacity:1" />
  <path
     id="path7"
     d="m 10.991222,-12.481861 c -2.8319964,0 -5.4958452,1.234921 -7.5008468,3.477304 -0.4516459,0.505155 -0.4516459,1.324074 0,1.82923 0.4516458,0.505118 1.1839067,0.505118 1.6355525,0 3.2341635,-3.617108 8.4964253,-3.617108 11.7305893,0 0.225806,0.25254 0.521808,0.37881 0.817776,0.37881 0.295968,0 0.59197,-0.12627 0.817776,-0.37881 0.451646,-0.505156 0.451646,-1.324075 0,-1.82923 -2.005035,-2.242345 -4.66885,-3.477303 -7.500847,-3.477303 z"
     inkscape:connector-curvature="0"
     style="fill:#ffffff;fill-opacity:1;stroke:#7c7c7c;stroke-width:0.40000001;stroke-miterlimit:4;stroke-dasharray:none;stroke-opacity:1" />
  <path
     id="path9"
     d="m 10.991222,-7.804128 c -1.7308227,0 -3.3588327,0.754659 -4.5841059,2.124997 -0.4516458,0.505156 -0.4516458,1.324075 0,1.829231 0.4516123,0.50508 1.1838732,0.50508 1.6355525,0 1.6258311,-1.818321 4.2712424,-1.818321 5.8970734,0 0.225806,0.25254 0.521775,0.37881 0.817777,0.37881 0.295968,0 0.59197,-0.12627 0.817776,-0.37881 0.451646,-0.505156 0.451646,-1.324075 0,-1.829231 -1.225273,-1.370338 -2.853283,-2.124997 -4.584073,-2.124997 z"
     inkscape:connector-curvature="0"
     style="fill:#ffffff;fill-opacity:1;stroke:#7c7c7c;stroke-width:0.40000001;stroke-miterlimit:4;stroke-dasharray:none;stroke-opacity:1" />
  <ellipse
     id="circle11"
     cy="17.701782"
     cx="10.986428"
     style="fill:#ffffff;fill-opacity:1;stroke:#7c7c7c;stroke-opacity:1;stroke-width:0.4;stroke-miterlimit:4;stroke-dasharray:none"
     rx="0.96048069"
     ry="1.0741961" />
  <g
     transform="matrix(0.07659601,0,0,0.07124554,0.28702,12.723669)"
     id="layer1">
    <g
       style="fill:#7f7f7f;fill-rule:evenodd;stroke-width:0.625;stroke-linecap:round;stroke-linejoin:round"
       id="g2061">
      <path
         inkscape:connector-curvature="0"
         id="rect2723"
         d="M 42.801,0 C 22.729,0 6.57,16.159 6.57,36.231 l 0,40.256 10.064,0 0,-40.256 c 0,-14.496 11.67,-26.167 26.167,-26.167 14.496,0 26.167,11.67 26.167,26.167 l 0,40.256 10.064,0 0,-40.256 C 79.032,16.159 62.873,0 42.801,0 Z" />
      <rect
         id="rect1941"
         rx="0.5"
         ry="0.5"
         height="66.259003"
         width="85.602997"
         y="55.359001"
         x="-1.1e-05" />
    </g>
  </g>
</svg>
