<?xml version="1.0" encoding="UTF-8" standalone="no"?>
<!-- Created with Inkscape (http://www.inkscape.org/) -->

<svg
   xmlns:dc="http://purl.org/dc/elements/1.1/"
   xmlns:cc="http://creativecommons.org/ns#"
   xmlns:rdf="http://www.w3.org/1999/02/22-rdf-syntax-ns#"
   xmlns:svg="http://www.w3.org/2000/svg"
   xmlns="http://www.w3.org/2000/svg"
   xmlns:sodipodi="http://sodipodi.sourceforge.net/DTD/sodipodi-0.dtd"
   xmlns:inkscape="http://www.inkscape.org/namespaces/inkscape"
   width="128mm"
   height="128mm"
   viewBox="0 0 453.54331 453.54331"
   id="svg4302"
   version="1.1"
   inkscape:version="0.91 r13725"
   sodipodi:docname="logo-gray.svg">
  <defs
     id="defs4304" />
  <sodipodi:namedview
     id="base"
     pagecolor="#ffffff"
     bordercolor="#666666"
     borderopacity="1.0"
     inkscape:pageopacity="0.0"
     inkscape:pageshadow="2"
     inkscape:zoom="0.35"
     inkscape:cx="-916.62936"
     inkscape:cy="28.033703"
     inkscape:document-units="px"
     inkscape:current-layer="layer1"
     showgrid="false"
     inkscape:window-width="1920"
     inkscape:window-height="1016"
     inkscape:window-x="0"
     inkscape:window-y="0"
     inkscape:window-maximized="1" />
  <metadata
     id="metadata4307">
    <rdf:RDF>
      <cc:Work
         rdf:about="">
        <dc:format>image/svg+xml</dc:format>
        <dc:type
           rdf:resource="http://purl.org/dc/dcmitype/StillImage" />
        <dc:title></dc:title>
      </cc:Work>
    </rdf:RDF>
  </metadata>
  <g
     inkscape:label="Layer 1"
     inkscape:groupmode="layer"
     id="layer1"
     transform="translate(0,-598.8189)">
    <g
       transform="matrix(1.9445244,0,0,2.0544696,981.53801,-907.58206)"
       id="g4256"
       style="fill:#666666">
      <path
         inkscape:connector-curvature="0"
         id="path3079-4"
         d="M -388.40336,735.23156 A 114.94849,109.05953 0 0 0 -503.35258,844.2921 114.94849,109.05953 0 0 0 -388.40336,953.3507 114.94849,109.05953 0 0 0 -273.45609,844.2921 114.94849,109.05953 0 0 0 -388.40336,735.23156 Z m 0.14649,13.31641 a 103.23083,95.491188 0 0 1 103.23047,95.49023 103.23083,95.491188 0 0 1 -103.23047,95.49219 103.23083,95.491188 0 0 1 -103.23047,-95.49219 103.23083,95.491188 0 0 1 103.23047,-95.49023 z"
         style="fill:#666666;fill-opacity:1;stroke:none;stroke-width:13.64010715;stroke-linecap:butt;stroke-linejoin:miter;stroke-miterlimit:4;stroke-dasharray:none;stroke-opacity:1" />
      <path
         sodipodi:nodetypes="sccccsscsssscs"
         stroke-miterlimit="4"
         id="rect2391-5"
         d="m -324.25398,840.38829 -62.6296,-48.88588 -62.66566,48.90707 0,69.8854 c 0,1.80486 1.65472,3.2527 3.70248,3.2527 l 39.16454,0 0,-53.59167 c 0,-1.80488 1.18769,-3.27732 3.23541,-3.2633 l 33.54546,0.42501 c 2.04756,0.026 3.72122,1.24618 3.69045,3.05079 l -0.91011,53.37917 39.17656,0 c 2.04776,0 3.69048,-1.44782 3.69047,-3.2527 z"
         inkscape:connector-curvature="0"
         style="fill:#666666;fill-opacity:1;stroke:none;stroke-miterlimit:4;stroke-opacity:1" />
      <path
         stroke-miterlimit="4"
         id="path2399-1"
         d="m -387.24701,764.74905 -88.87816,69.36279 9.36229,9.30925 79.87946,-62.34479 79.86126,62.34479 9.34411,-9.30925 -88.85997,-69.36279 -0.3454,0.35251 -0.36359,-0.35251 0,0 z"
         inkscape:connector-curvature="0"
         style="fill:#666666;fill-opacity:1;stroke:none;stroke-miterlimit:4" />
      <path
         stroke-miterlimit="4"
         id="rect2404-9"
         d="m -322.80838,775.99947 -22.53086,0 0.19633,11.7618 22.33453,17.78344 0,-29.54524 z"
         inkscape:connector-curvature="0"
         style="fill:#666666;fill-opacity:1;stroke:none;stroke-miterlimit:4" />
    </g>
  </g>
</svg>
