<?xml version="1.0" encoding="UTF-8" standalone="no"?>
<!-- Created with Inkscape (http://www.inkscape.org/) -->

<svg
   xmlns:dc="http://purl.org/dc/elements/1.1/"
   xmlns:cc="http://creativecommons.org/ns#"
   xmlns:rdf="http://www.w3.org/1999/02/22-rdf-syntax-ns#"
   xmlns:svg="http://www.w3.org/2000/svg"
   xmlns="http://www.w3.org/2000/svg"
   xmlns:xlink="http://www.w3.org/1999/xlink"
   xmlns:sodipodi="http://sodipodi.sourceforge.net/DTD/sodipodi-0.dtd"
   xmlns:inkscape="http://www.inkscape.org/namespaces/inkscape"
   width="48"
   height="48"
   id="svg2"
   version="1.1"
   inkscape:version="0.91 r13725"
   viewBox="0 0 13.546667 13.546667"
   sodipodi:docname="xfce4-panel.svg">
  <defs
     id="defs4">
    <linearGradient
       id="linearGradient3797">
      <stop
         style="stop-color:#ecf0f1;stop-opacity:1;"
         offset="0"
         id="stop3799" />
      <stop
         style="stop-color:#ffffff;stop-opacity:1;"
         offset="1"
         id="stop3801" />
    </linearGradient>
    <linearGradient
       inkscape:collect="always"
       xlink:href="#linearGradient4152"
       id="linearGradient4158"
       x1="414.57144"
       y1="541.79797"
       x2="414.57144"
       y2="489.798"
       gradientUnits="userSpaceOnUse" />
    <linearGradient
       inkscape:collect="always"
       id="linearGradient4152">
      <stop
         style="stop-color:#83b299;stop-opacity:1"
         offset="0"
         id="stop4154" />
      <stop
         style="stop-color:#7ad4d3;stop-opacity:1"
         offset="1"
         id="stop4156" />
    </linearGradient>
    <linearGradient
       id="linearGradient3825">
      <stop
         id="stop3827"
         offset="0"
         style="stop-color:#ff2b2b;stop-opacity:1;" />
      <stop
         style="stop-color:#ffa610;stop-opacity:0.93725491;"
         offset="0.17231309"
         id="stop3839" />
      <stop
         style="stop-color:#fcff12;stop-opacity:0.87450981;"
         offset="0.36799067"
         id="stop3837" />
      <stop
         style="stop-color:#7fff12;stop-opacity:0.74901962;"
         offset="0.57710284"
         id="stop3835" />
      <stop
         style="stop-color:#00fff4;stop-opacity:0.49803922;"
         offset="0.81160116"
         id="stop3833" />
      <stop
         id="stop3829"
         offset="1"
         style="stop-color:#0230ff;stop-opacity:1;" />
    </linearGradient>
    <linearGradient
       inkscape:collect="always"
       id="linearGradient4427">
      <stop
         style="stop-color:#6f2e67;stop-opacity:1"
         offset="0"
         id="stop4429" />
      <stop
         style="stop-color:#680000;stop-opacity:1"
         offset="1"
         id="stop4431" />
    </linearGradient>
    <linearGradient
       inkscape:collect="always"
       id="linearGradient4152-1">
      <stop
         style="stop-color:#ffdb00;stop-opacity:1"
         offset="0"
         id="stop4154-2" />
      <stop
         style="stop-color:#00acff;stop-opacity:1"
         offset="1"
         id="stop4156-6" />
    </linearGradient>
    <linearGradient
       inkscape:collect="always"
       xlink:href="#linearGradient4152-1"
       id="linearGradient4158-1"
       x1="414.57144"
       y1="541.79797"
       x2="414.57144"
       y2="489.798"
       gradientUnits="userSpaceOnUse"
       gradientTransform="matrix(0.2160258,0,0,0.17352521,-83.195317,200.14199)" />
    <linearGradient
       inkscape:collect="always"
       xlink:href="#linearGradient4427"
       id="linearGradient4425"
       x1="418.28546"
       y1="536.58044"
       x2="416.78796"
       y2="510.94785"
       gradientUnits="userSpaceOnUse"
       gradientTransform="matrix(0.20158712,0,0,0.19289118,-77.18948,190.65045)" />
    <linearGradient
       gradientTransform="matrix(0.20158712,0,0,0.19250357,-77.18948,190.84643)"
       inkscape:collect="always"
       xlink:href="#linearGradient4427"
       id="linearGradient4433"
       x1="427.88626"
       y1="533.66357"
       x2="433.87183"
       y2="518.53857"
       gradientUnits="userSpaceOnUse" />
  </defs>
  <sodipodi:namedview
     id="base"
     pagecolor="#ffffff"
     bordercolor="#666666"
     borderopacity="1.0"
     inkscape:pageopacity="0.0"
     inkscape:pageshadow="2"
     inkscape:zoom="5.6568543"
     inkscape:cx="45.79332"
     inkscape:cy="49.548755"
     inkscape:document-units="px"
     inkscape:current-layer="layer1"
     showgrid="false"
     borderlayer="true"
     inkscape:showpageshadow="false"
     units="px"
     inkscape:window-width="1370"
     inkscape:window-height="1012"
     inkscape:window-x="546"
     inkscape:window-y="0"
     inkscape:window-maximized="0"
     showguides="true"
     inkscape:guide-bbox="true">
    <sodipodi:guide
       position="8.9999996,8.9999467"
       orientation="0,30.000001"
       id="guide3276" />
    <sodipodi:guide
       position="3.9999989,44.000052"
       orientation="39.999965,0"
       id="guide3286" />
    <sodipodi:guide
       position="3.9999989,4.0000862"
       orientation="0,40.000001"
       id="guide3288" />
    <sodipodi:guide
       position="44,4.0000862"
       orientation="-39.999965,0"
       id="guide3290" />
    <sodipodi:guide
       position="44,44.000052"
       orientation="0,-40.000001"
       id="guide3292" />
    <sodipodi:guide
       position="23.953242,30.228815"
       orientation="10.999953,0"
       id="guide3309" />
    <sodipodi:guide
       position="44.000003,33.000099"
       orientation="-10.999953,0"
       id="guide3313" />
    <sodipodi:guide
       position="44.000003,44.000052"
       orientation="0,-10.999997"
       id="guide3315" />
    <sodipodi:guide
       orientation="0,1"
       position="27.753941,24.04163"
       id="guide3025" />
    <inkscape:grid
       type="xygrid"
       id="grid3022" />
  </sodipodi:namedview>
  <metadata
     id="metadata7">
    <rdf:RDF>
      <cc:Work
         rdf:about="">
        <dc:format>image/svg+xml</dc:format>
        <dc:type
           rdf:resource="http://purl.org/dc/dcmitype/StillImage" />
        <dc:title></dc:title>
      </cc:Work>
    </rdf:RDF>
  </metadata>
  <g
     inkscape:label="Capa 1"
     inkscape:groupmode="layer"
     id="layer1"
     transform="translate(0,-283.45334)">
    <ellipse
       style="fill:none;fill-opacity:1;fill-rule:evenodd;stroke:none"
       id="path3262"
       cx="0.56444448"
       cy="290.17938"
       rx="0.56444448"
       ry="0.46004477" />
    <rect
       style="opacity:1;fill:url(#linearGradient4158-1);fill-opacity:1;stroke:none"
       id="rect4126-5"
       width="12.529499"
       height="9.0233097"
       x="0.53011787"
       y="285.13431" />
    <path
       style="fill:url(#linearGradient4425);fill-opacity:1"
       d="m 6.7442571,288.17489 4.1122059,4.78635 -0.799104,1.20079 -9.53633836,-0.007 0.005214,-1.2155 2.20539776,-1.15224 1.1698959,1.19133 2.8427071,-4.80333 z"
       id="rect4361"
       inkscape:connector-curvature="0"
       sodipodi:nodetypes="ccccccccc" />
    <path
       style="fill:#ffffff;fill-opacity:1"
       d="m 6.7505221,288.20274 2.7325358,3.19775 -1.9169245,0.39413 -1.2651344,-1.19989 -1.2355452,0.43893 z"
       id="rect4361-8"
       inkscape:connector-curvature="0"
       sodipodi:nodetypes="cccccc" />
    <path
       style="fill:url(#linearGradient4433);fill-opacity:1"
       d="m 10.191224,289.72249 2.02525,3.24207 0.841439,0.29131 -0.01072,0.93029 -3.3211273,-0.0174 -1.4781299,-0.002 z"
       id="rect4361-6"
       inkscape:connector-curvature="0"
       sodipodi:nodetypes="ccccccc" />
    <path
       style="fill:#ffffff;fill-opacity:1"
       d="m 10.191165,289.76335 1.045412,1.67798 -0.560194,0.52824 -0.577922,-0.54431 -0.6936352,0.15583 z"
       id="rect4361-8-2"
       inkscape:connector-curvature="0"
       sodipodi:nodetypes="cccccc" />
    <path
       style="opacity:1;fill:#5599ff;fill-opacity:1;stroke:none"
       d="m 0.53011634,294.15352 0,0.787 0,0.19674 0.21571835,0 12.08024131,0 0.215718,0 0,-0.19674 0,-0.787 -12.51167766,0 z"
       id="rect4128"
       inkscape:connector-curvature="0" />
    <g
       id="g4186"
       transform="matrix(0.17273269,0,0,0.15636039,-64.38265,211.13816)">
      <path
         inkscape:connector-curvature="0"
         id="path3079-4"
         d="m 379.21456,531.42439 a 2.6244327,2.7069186 0 0 0 -2.62445,2.70694 2.6244327,2.7069186 0 0 0 2.62445,2.7069 2.6244327,2.7069186 0 0 0 2.6244,-2.7069 2.6244327,2.7069186 0 0 0 -2.6244,-2.70694 z m 0.003,0.33052 a 2.3569023,2.3701448 0 0 1 2.35689,2.37012 2.3569023,2.3701448 0 0 1 -2.35689,2.37017 2.3569023,2.3701448 0 0 1 -2.35689,-2.37017 2.3569023,2.3701448 0 0 1 2.35689,-2.37012 z"
         style="fill:#ffffff;fill-opacity:1;stroke:none;stroke-width:13.64010715;stroke-linecap:butt;stroke-linejoin:miter;stroke-miterlimit:4;stroke-dasharray:none;stroke-opacity:1" />
      <path
         sodipodi:nodetypes="sccccsscsssscs"
         stroke-miterlimit="4"
         id="rect2391-5"
         d="m 380.67917,534.03444 -1.42992,-1.21338 -1.43074,1.2139 0,1.7346 c 0,0.0448 0.0378,0.0807 0.0845,0.0807 l 0.89418,0 0,-1.33017 c 0,-0.0448 0.0271,-0.0814 0.0739,-0.081 l 0.76589,0.0105 c 0.0468,6.4e-4 0.085,0.0309 0.0843,0.0757 l -0.0208,1.3249 0.89446,0 c 0.0467,0 0.0842,-0.0359 0.0842,-0.0807 z"
         inkscape:connector-curvature="0"
         style="fill:#ffffff;fill-opacity:1;stroke:none;stroke-miterlimit:4;stroke-opacity:1" />
      <path
         stroke-miterlimit="4"
         id="path2399-1"
         d="m 379.24096,532.15703 -2.02921,1.72162 0.21375,0.23106 1.82376,-1.54743 1.82334,1.54743 0.21334,-0.23106 -2.0288,-1.72162 -0.008,0.009 -0.008,-0.009 0,0 z"
         inkscape:connector-curvature="0"
         style="fill:#ffffff;fill-opacity:1;stroke:none;stroke-miterlimit:4" />
      <path
         stroke-miterlimit="4"
         id="rect2404-9"
         d="m 380.71218,532.43627 -0.51441,0 0.004,0.29194 0.50993,0.44139 0,-0.73333 z"
         inkscape:connector-curvature="0"
         style="fill:#ffffff;fill-opacity:1;stroke:none;stroke-miterlimit:4" />
    </g>
    <text
       xml:space="preserve"
       style="font-style:normal;font-weight:normal;font-size:0.51203853px;line-height:125%;font-family:sans-serif;letter-spacing:0px;word-spacing:0px;fill:#ffffff;fill-opacity:1;stroke:none;stroke-width:1px;stroke-linecap:butt;stroke-linejoin:miter;stroke-opacity:1"
       x="1.8002157"
       y="284.13873"
       id="text4192"
       sodipodi:linespacing="125%"
       transform="scale(0.9636777,1.0376913)"><tspan
         sodipodi:role="line"
         id="tspan4194"
         x="1.8002157"
         y="284.13873">ChaletOS</tspan></text>
    <g
       style="font-style:normal;font-variant:normal;font-weight:normal;font-stretch:normal;font-size:4.07529593px;line-height:125%;font-family:Oxygen;-inkscape-font-specification:Oxygen;letter-spacing:0px;word-spacing:0px;fill:#ffffff;fill-opacity:1;stroke:none;stroke-width:1px;stroke-linecap:butt;stroke-linejoin:miter;stroke-opacity:1"
       id="text4213-3"
       transform="matrix(0.15981669,0,0,0.16892308,-57.927629,203.57079)">
      <path
         d="m 434.23853,537.83412 c -0.15893,0.11003 -0.36677,0.22414 -0.54201,0.30157 l 0.0734,0.28934 c 0.14264,-0.0448 0.27305,-0.12225 0.43198,-0.22414 l 0,2.60819 0.35455,0 0,-2.97496 -0.31787,0 z"
         id="path4218-2"
         inkscape:connector-curvature="0"
         style="fill:#ffffff" />
      <path
         d="m 435.20119,538.03381 0.11819,0.29749 c 0.16708,-0.17116 0.41568,-0.24452 0.66427,-0.24452 0.33825,0 0.52571,0.18747 0.52571,0.51757 l 0,0.0204 c -0.004,0.2323 -0.15486,0.46051 -0.38715,0.71726 l -1.02697,1.14108 0.0448,0.32602 1.74016,0 0.0245,-0.30565 -1.38153,0 0.83951,-0.89656 c 0.32603,-0.35048 0.52572,-0.63575 0.52979,-1.01067 l 0,-0.0122 c 0,-0.48904 -0.34232,-0.81098 -0.88434,-0.81098 -0.38715,0 -0.63982,0.10595 -0.80691,0.26082 z"
         id="path4220-7"
         inkscape:connector-curvature="0"
         style="fill:#ffffff" />
      <path
         d="m 437.42599,540.85799 0.4116,0 0,-0.46459 -0.4116,0 0,0.46459 z m 0,-1.82574 0.4116,0 0,-0.46051 -0.4116,0 0,0.46051 z"
         id="path4222-7"
         inkscape:connector-curvature="0"
         style="fill:#ffffff" />
      <path
         d="m 439.75394,539.98995 c 0,0.3627 -0.2649,0.56239 -0.65613,0.56239 -0.30157,0 -0.50941,-0.0978 -0.6602,-0.21599 l -0.1141,0.28934 c 0.11003,0.10596 0.39122,0.22822 0.77838,0.22822 0.57869,0 1.00252,-0.3301 1.00252,-0.85989 0,-0.41975 -0.23229,-0.68872 -0.59499,-0.77023 0.32195,-0.0978 0.52164,-0.3301 0.52164,-0.71317 0,-0.47681 -0.41161,-0.73763 -0.85174,-0.73763 -0.41161,0 -0.6765,0.0897 -0.85581,0.22821 l 0.1141,0.28935 c 0.15894,-0.12634 0.39123,-0.21192 0.66428,-0.21192 0.35047,0 0.54609,0.14671 0.54609,0.47681 0,0.46866 -0.43198,0.52164 -0.88842,0.52164 l 0,0.29342 c 0.55424,0 0.99438,0.0856 0.99438,0.61945 z"
         id="path4224-4"
         inkscape:connector-curvature="0"
         style="fill:#ffffff" />
      <path
         d="m 441.86538,538.2824 0,1.49971 -0.99437,0 0.99437,-1.49971 z m 0.67243,1.78905 0.0285,-0.28934 -0.36678,0 0,-1.94799 -0.37085,0 -1.30817,1.93169 0,0.30564 1.34484,0 0,0.73763 0.33418,0 0,-0.73763 0.33825,0 z"
         id="path4226-9"
         inkscape:connector-curvature="0"
         style="fill:#ffffff" />
    </g>
    <path
       style="fill:#ffffff;fill-opacity:1"
       d="m 2.7277062,291.80763 0.9032262,0.92187 -0.5749215,0.29249 -0.312199,-0.22107 -1.6461911,-0.1435 z"
       id="rect4361-8-5"
       inkscape:connector-curvature="0"
       sodipodi:nodetypes="cccccc" />
    <rect
       style="opacity:0.91600001;fill:#ffffff;fill-opacity:1;stroke:none;stroke-width:0.15899999;stroke-miterlimit:4;stroke-dasharray:none;stroke-opacity:1"
       id="rect4281"
       width="12.541372"
       height="9.0253839"
       x="0.51706177"
       y="285.12744" />
  </g>
</svg>
