<?xml version="1.0" encoding="UTF-8" standalone="no"?>
<!-- Created with Inkscape (http://www.inkscape.org/) -->
<svg id="svg3304" xmlns:rdf="http://www.w3.org/1999/02/22-rdf-syntax-ns#" xmlns="http://www.w3.org/2000/svg" height="48px" width="48px" xmlns:cc="http://creativecommons.org/ns#" xmlns:dc="http://purl.org/dc/elements/1.1/">
 <metadata id="metadata3309">
  <rdf:RDF>
   <cc:Work rdf:about="">
    <dc:format>image/svg+xml</dc:format>
    <dc:type rdf:resource="http://purl.org/dc/dcmitype/StillImage"/>
    <dc:title>Call Start</dc:title>
    <dc:date>November 2008</dc:date>
    <dc:creator>
     <cc:Agent>
      <dc:title>Luca Ferretti &lt;elle.uca@libero.it&gt;</dc:title>
     </cc:Agent>
    </dc:creator>
    <dc:subject>
     <rdf:Bag>
      <rdf:li>call</rdf:li>
      <rdf:li>incoming</rdf:li>
      <rdf:li>open</rdf:li>
      <rdf:li>start</rdf:li>
     </rdf:Bag>
    </dc:subject>
    <dc:coverage>Start an incoming call</dc:coverage>
    <dc:description>A phone receiver</dc:description>
    <dc:contributor>
     <cc:Agent>
      <dc:title>A lot of mobile phones over the world :)</dc:title>
     </cc:Agent>
    </dc:contributor>
    <cc:license rdf:resource=""/>
   </cc:Work>
  </rdf:RDF>
 </metadata>
 <g id="layer1">
  <rect id="rect2381" style="fill:none" height="48.133" width="48.133" y="0" x="0"/>
  <path id="path3668" style="stroke-linejoin:round;stroke:#fff;stroke-linecap:round;stroke-width:8;fill:none" d="m13 29h-8v-13c0-2 1-3 3-3h32c2 0 3 1 3 3v13h-8v-7s0-1-1-1h-20c-1 0-1 1-1 1v7z"/>
  <path id="path3155" style="fill-rule:evenodd" d="m13 29h-8v-13c0-2 1-3 3-3h32c2 0 3 1 3 3v13h-8v-7s0-1-1-1h-20c-1 0-1 1-1 1v7z"/>
 </g>
</svg>
