<?xml version="1.0" encoding="UTF-8" standalone="no"?>
<!-- Generator: Adobe Illustrator 9.0, SVG Export Plug-In  -->
<svg id="svg2" xmlns:rdf="http://www.w3.org/1999/02/22-rdf-syntax-ns#" xmlns="http://www.w3.org/2000/svg" xml:space="preserve" height="48px" width="48px" xmlns:cc="http://creativecommons.org/ns#" xmlns:dc="http://purl.org/dc/elements/1.1/" viewBox="0 0 48 48"><metadata id="metadata19"><rdf:RDF><cc:Work rdf:about=""><dc:format>image/svg+xml</dc:format><dc:type rdf:resource="http://purl.org/dc/dcmitype/StillImage"/><dc:title>Document Page Setup</dc:title><dc:creator><cc:Agent><dc:title>Kevin Kubasik</dc:title></cc:Agent></dc:creator><cc:license rdf:resource=""/><dc:subject><rdf:Bag><rdf:li>document</rdf:li><rdf:li>page setup</rdf:li><rdf:li>print margins</rdf:li></rdf:Bag></dc:subject><dc:description>A paper sheet with a gear sign</dc:description><dc:coverage>Set up magins and other for print</dc:coverage><dc:contributor><cc:Agent><dc:title/></cc:Agent></dc:contributor></cc:Work></rdf:RDF></metadata>
	<rect id="rect3319" style="fill:none" height="48" width="48" y="0" x="0"/><path id="path4775" style="stroke-linejoin:round;stroke:#fff;stroke-width:12;fill:#fff" d="m39 41.125h-30v-35l17 0.0003 13 14v21z"/><path id="path7" style="stroke-linejoin:round;stroke:#000;stroke-width:4" d="m39 41h-30v-35h17l13 14v21z"/><path id="path9" style="fill:#fff" d="m36.991 20l0.006 19.004-25.997-0.004 0.017-30.982 13.952 0.0159 12.022 11.966z"/>
<g id="g3285" transform="matrix(-0.5 -.86603 .86603 -0.5 13.482 56.412)"><path id="path2461" d="m30.908 17.289l-2.866 2.964c-0.366-1.366-2.964-2.866-4.33-2.5l1.134-3.964-5.33-0.768 0.749 5.058c-0.592 0.233-1.546 0.765-2.017 1.138l-3.83-3.366-3 5.196 4.83 1.634c-0.131 0.588-0.057 1.589 0.03 2.253l-4.762 1.943 3.33 4.232 2.866-2.964c0.366 1.366 2.964 2.866 4.33 2.5l-1.134 3.964 5.331 0.768-0.599-4.964c0.88-0.315 1.184-0.619 1.866-1.232l3.831 3.366 3-5.196-4.831-1.634c0.132-0.588 0.221-1.568 0.134-2.232l4.599-1.964-3.331-4.232zm-6.925 9.393c-1.376 0.595-3.014-0.023-3.66-1.392-0.646-1.37 0.022-3.015 1.392-3.661 1.376-0.595 3.015 0.022 3.66 1.392 0.595 1.377-0.022 3.015-1.392 3.661z"/></g></svg>
