/* XPM */
static char * bottom_right_inactive_xpm[] = {
"2 3 2 1",
" 	c #4F5A71",
".	c #2B2E33",
" .",
" .",
".."};
