/* XPM */
static char * bottom_inactive_xpm[] = {
"25 3 3 1",
" 	c #747F96",
".	c #485672",
"+	c #2B2E33",
"                         ",
".........................",
"+++++++++++++++++++++++++"};
