/* XPM */
static char * close_inactive_xpm[] = {
"19 18 92 2",
"  	c #23314D",
". 	c #3C4860",
"+ 	c #60697A",
"@ 	c #7B828E",
"# 	c #888D97",
"$ 	c #747B88",
"% 	c #ADB0B8",
"& 	c #C8CBD1",
"* 	c #D8DADE",
"= 	c #DBDDE0",
"- 	c #5E6778",
"; 	c #AAAEB5",
"> 	c #D6D8DD",
", 	c #D7D9DE",
"' 	c #787E8A",
") 	c #C1C3CA",
"! 	c #D2D5D9",
"~ 	c #818690",
"{ 	c #CBCDD3",
"] 	c #CDCFD5",
"^ 	c #CCCED4",
"/ 	c #686B71",
"( 	c #7C7E85",
"_ 	c #7F848E",
": 	c #C7CAD0",
"< 	c #C6C9CF",
"[ 	c #797C82",
"} 	c #66696F",
"| 	c #7C818B",
"1 	c #C3C6CD",
"2 	c #C2C5CC",
"3 	c #BEC1C9",
"4 	c #777A80",
"5 	c #65686F",
"6 	c #777A81",
"7 	c #787D87",
"8 	c #BFC3CA",
"9 	c #BEC2C9",
"0 	c #BDC1C8",
"a 	c #B8BDC5",
"b 	c #75787F",
"c 	c #64686E",
"d 	c #6F7278",
"e 	c #757A84",
"f 	c #BCBFC7",
"g 	c #BBBEC6",
"h 	c #B9BDC5",
"i 	c #B5B8C1",
"j 	c #6D7077",
"k 	c #64676D",
"l 	c #727781",
"m 	c #B9BDC4",
"n 	c #B8BCC3",
"o 	c #73777D",
"p 	c #63666C",
"q 	c #6C6F76",
"r 	c #6E737D",
"s 	c #B7BBC3",
"t 	c #B6BAC2",
"u 	c #73767D",
"v 	c #62666C",
"w 	c #71757C",
"x 	c #ADB1BB",
"y 	c #6B707A",
"z 	c #B0B4BD",
"A 	c #B2B7BF",
"B 	c #686D77",
"C 	c #B4B8C0",
"D 	c #B4B8C1",
"E 	c #5E6471",
"F 	c #A1A5AE",
"G 	c #B8BCC4",
"H 	c #B6BBC3",
"I 	c #B2B6BF",
"J 	c #B1B6BF",
"K 	c #B5B9C2",
"L 	c #4B5568",
"M 	c #848992",
"N 	c #BBBFC7",
"O 	c #BABEC6",
"P 	c #374561",
"Q 	c #565E6C",
"R 	c #848892",
"S 	c #A3A8B0",
"T 	c #B9BDC6",
"U 	c #BDC1C9",
"V 	c #2B3C5E",
"W 	c #384662",
"X 	c #4A5468",
"Y 	c #585F6C",
"Z 	c #5F646E",
"` 	c #2C3D60",
"  . + @ # # # # # # # # # # # @ + .   ",
". $ % & * = = = = = = = = = * & % $ . ",
"- ; > , , , , , , , , , , , , , > ; - ",
"' ) ! ! ! ! ! ! ! ! ! ! ! ! ! ! ! ) ' ",
"~ { ] ] ^ / ( ^ ] ] ] ^ ( / ^ ] ] { ~ ",
"_ : : : < [ } [ < : < [ } [ < : : : _ ",
"| 1 1 1 2 3 4 5 6 2 6 5 4 3 2 1 1 1 | ",
"7 8 8 8 9 0 a b c d c b a 0 9 8 8 8 7 ",
"e f f f f g h i j k j i h g f f f f e ",
"l m m m m m n o p q p o n m m m m m l ",
"r s s s s t u v w x w v u t s s s s r ",
"y s s s t u v w z A z w v u t s s s y ",
"B C s s t v w z D t D z w v t s s C B ",
"E F G G H I J K s G s K J I H G G F E ",
"L M h N O O O O N N N O O O O N h M L ",
"P Q R S T U U U U U U U U U T S R Q P ",
"V W X Y Z Z Z Z Z Z Z Z Z Z Z Y X W V ",
"` ` ` ` ` ` ` ` ` ` ` ` ` ` ` ` ` ` ` "};
