/* XPM */
static char * close_pressed_xpm[] = {
"19 18 92 2",
"  	c #41516D",
". 	c #3C3D52",
"+ 	c #34202C",
"@ 	c #2E0A0D",
"# 	c #2B0000",
"$ 	c #393A4F",
"% 	c #321318",
"& 	c #621B1B",
"* 	c #8E3434",
"= 	c #AA4545",
"- 	c #AE4848",
"; 	c #3B242E",
"> 	c #631818",
", 	c #A84040",
"' 	c #AB4141",
") 	c #380E10",
"! 	c #8A2828",
"~ 	c #A63737",
"{ 	c #360000",
"] 	c #9E2A2A",
"^ 	c #A12C2C",
"/ 	c #9F2727",
"( 	c #FFFFFF",
"_ 	c #EBD2D2",
": 	c #9F2828",
"< 	c #3C0000",
"[ 	c #9C2020",
"} 	c #940F0F",
"| 	c #E6CCCC",
"1 	c #E9CDCD",
"2 	c #9A1C1C",
"3 	c #400000",
"4 	c #991818",
"5 	c #920909",
"6 	c #7C0000",
"7 	c #E1CCCC",
"8 	c #E8CCCC",
"9 	c #950F0F",
"0 	c #460000",
"a 	c #961111",
"b 	c #940C0C",
"c 	c #8A0000",
"d 	c #750000",
"e 	c #F0E0E0",
"f 	c #4C0000",
"g 	c #920A0A",
"h 	c #900505",
"i 	c #850000",
"j 	c #6F0000",
"k 	c #ECE0E0",
"l 	c #530000",
"m 	c #900404",
"n 	c #8B0000",
"o 	c #E4CCCC",
"p 	c #E9E0E0",
"q 	c #590000",
"r 	c #8E0000",
"s 	c #8C0000",
"t 	c #DECCCC",
"u 	c #580000",
"v 	c #5F0000",
"w 	c #6A0000",
"x 	c #760000",
"y 	c #630000",
"z 	c #860000",
"A 	c #810000",
"B 	c #890000",
"C 	c #6C1013",
"D 	c #870000",
"E 	c #930000",
"F 	c #770000",
"G 	c #910000",
"H 	c #72343D",
"I 	c #7E0000",
"J 	c #980000",
"K 	c #990000",
"L 	c #970000",
"M 	c #920000",
"N 	c #665469",
"O 	c #751C21",
"P 	c #820000",
"Q 	c #9B0000",
"R 	c #9D0000",
"S 	c #48597D",
"T 	c #746175",
"U 	c #7B3A43",
"V 	c #771114",
"W 	c #364A75",
"X 	c #4A5C83",
"Y 	c #667596",
"Z 	c #7D8AA6",
"` 	c #8692AC",
"  . + @ # # # # # # # # # # # @ + .   ",
"$ % & * = - - - - - - - - - = * & % $ ",
"; > , ' ' ' ' ' ' ' ' ' ' ' ' ' , > ; ",
") ! ~ ~ ~ ~ ~ ~ ~ ~ ~ ~ ~ ~ ~ ~ ~ ! ) ",
"{ ] ^ ^ / ( _ : ^ ^ ^ : _ ( / ^ ^ ] { ",
"< [ [ [ } | ( 1 2 [ 2 1 ( | } [ [ [ < ",
"3 4 4 4 5 6 7 ( 8 9 8 ( 7 6 5 4 4 4 3 ",
"0 a a a b c d 7 ( e ( 7 d c b a a a 0 ",
"f g g g g h i j k ( k j i h g g g g f ",
"l m m m m m n o ( p ( o n m m m m m l ",
"q r r r r s | ( t u t ( | s r r r r q ",
"v r r r s | ( t w x w t ( | s r r r v ",
"y s r r z ( t w A B A w t ( z r r s y ",
"C D E E n F d z G E G z d F n E E D C ",
"H I J K L G M L K K K L M G L K J I H ",
"N O P G Q R R R R R R R R R Q G P O N ",
"S T U V d d d d d d d d d d d V U T S ",
"W X Y Z ` ` ` ` ` ` ` ` ` ` ` Z Y X W "};
