/* XPM */
static char * close_prelight_xpm[] = {
"19 18 105 2",
"  	c #41516D",
". 	c #433D52",
"+ 	c #44202C",
"@ 	c #450A0D",
"# 	c #460000",
"$ 	c #403A4F",
"% 	c #481318",
"& 	c #863631",
"* 	c #B4625C",
"= 	c #CF7F78",
"- 	c #D2847C",
"; 	c #4A242E",
"> 	c #84332E",
", 	c #CD7971",
"' 	c #CF7C73",
") 	c #4F0E10",
"! 	c #AF534C",
"~ 	c #CB6F66",
"{ 	c #500000",
"] 	c #C25D54",
"^ 	c #C66157",
"/ 	c #C55D53",
"( 	c #FFFFFF",
"_ 	c #F3DDDB",
": 	c #C55E54",
"< 	c #550000",
"[ 	c #C05348",
"} 	c #BB463A",
"| 	c #EFD4D1",
"1 	c #F1D9D6",
"2 	c #BF5044",
"3 	c #590000",
"4 	c #BD493D",
"5 	c #B93D30",
"6 	c #AA1606",
"7 	c #ECCCCC",
"8 	c #F0D6D4",
"9 	c #BA4235",
"0 	c #5E0000",
"a 	c #BA3F33",
"b 	c #B93B2F",
"c 	c #B2281B",
"d 	c #A40300",
"e 	c #EBCCCC",
"f 	c #F5E3E1",
"g 	c #630000",
"h 	c #B6362A",
"i 	c #B53226",
"j 	c #AD1E11",
"k 	c #9F0000",
"l 	c #F2E0E0",
"m 	c #690000",
"n 	c #B42F22",
"o 	c #B12719",
"p 	c #EDCDCC",
"q 	c #F0E0E0",
"r 	c #6E0000",
"s 	c #B22A1D",
"t 	c #B02618",
"u 	c #EECFCC",
"v 	c #E8CCCC",
"w 	c #8E0000",
"x 	c #730000",
"y 	c #E9CCCC",
"z 	c #990000",
"A 	c #A20000",
"B 	c #770000",
"C 	c #B1291D",
"D 	c #B32B1E",
"E 	c #AE1D0F",
"F 	c #9B0000",
"G 	c #AA1203",
"H 	c #B02215",
"I 	c #7C1013",
"J 	c #A9251B",
"K 	c #BB3326",
"L 	c #B62416",
"M 	c #AA0000",
"N 	c #A80000",
"O 	c #B31B0C",
"P 	c #BA2F22",
"Q 	c #7D343D",
"R 	c #991712",
"S 	c #C23A2E",
"T 	c #C43C2F",
"U 	c #C3372A",
"V 	c #C02D1F",
"W 	c #C02F21",
"X 	c #C3382B",
"Y 	c #6A5469",
"Z 	c #831C21",
"` 	c #9F1A15",
" .	c #B83228",
"..	c #CA4236",
"+.	c #CD4538",
"@.	c #48597D",
"#.	c #796175",
"$.	c #863A43",
"%.	c #861114",
"&.	c #870000",
"*.	c #364A75",
"=.	c #4A5C83",
"-.	c #667596",
";.	c #7D8AA6",
">.	c #8692AC",
"  . + @ # # # # # # # # # # # @ + .   ",
"$ % & * = - - - - - - - - - = * & % $ ",
"; > , ' ' ' ' ' ' ' ' ' ' ' ' ' , > ; ",
") ! ~ ~ ~ ~ ~ ~ ~ ~ ~ ~ ~ ~ ~ ~ ~ ! ) ",
"{ ] ^ ^ / ( _ : ^ ^ ^ : _ ( / ^ ^ ] { ",
"< [ [ [ } | ( 1 2 [ 2 1 ( | } [ [ [ < ",
"3 4 4 4 5 6 7 ( 8 9 8 ( 7 6 5 4 4 4 3 ",
"0 a a a b c d e ( f ( e d c b a a a 0 ",
"g h h h h i j k l ( l k j i h h h h g ",
"m n n n n n o p ( q ( p o n n n n n m ",
"r s s s s t u ( v w v ( u t s s s s r ",
"x s s s t u ( y z A z y ( u t s s s x ",
"B C D D E ( y F G H G F y ( E D D C B ",
"I J K K L M N O P K P O N M L K K J I ",
"Q R S T U V W X T T T X W V U T S R Q ",
"Y Z `  ...+.+.+.+.+.+.+.+.+... .` Z Y ",
"@.#.$.%.&.&.&.&.&.&.&.&.&.&.&.%.$.#.@.",
"*.=.-.;.>.>.>.>.>.>.>.>.>.>.>.;.-.=.*."};
