/* XPM */
static char * hide_inactive_xpm[] = {
"19 18 63 1",
" 	c #23314D",
".	c #3C4860",
"+	c #60697A",
"@	c #7B828E",
"#	c #888D97",
"$	c #747B88",
"%	c #ADB0B8",
"&	c #C8CBD1",
"*	c #D8DADE",
"=	c #DBDDE0",
"-	c #5E6778",
";	c #AAAEB5",
">	c #D6D8DD",
",	c #D7D9DE",
"'	c #787E8A",
")	c #C1C3CA",
"!	c #D2D5D9",
"~	c #818690",
"{	c #CBCDD3",
"]	c #CDCFD5",
"^	c #7F848E",
"/	c #C7CAD0",
"(	c #7C818B",
"_	c #C3C6CD",
":	c #787D87",
"<	c #BFC3CA",
"[	c #757A84",
"}	c #BCBFC7",
"|	c #727781",
"1	c #B9BDC4",
"2	c #6E737D",
"3	c #B7BBC3",
"4	c #6B707A",
"5	c #B6BAC2",
"6	c #73767D",
"7	c #62666C",
"8	c #686D77",
"9	c #B4B8C0",
"0	c #72757D",
"a	c #5E6471",
"b	c #A1A5AE",
"c	c #B8BCC4",
"d	c #B2B7C0",
"e	c #AFB4BD",
"f	c #AFB3BD",
"g	c #4B5568",
"h	c #848992",
"i	c #B9BDC5",
"j	c #BBBFC7",
"k	c #BABEC6",
"l	c #B8BDC5",
"m	c #374561",
"n	c #565E6C",
"o	c #848892",
"p	c #A3A8B0",
"q	c #B9BDC6",
"r	c #BDC1C9",
"s	c #2B3C5E",
"t	c #384662",
"u	c #4A5468",
"v	c #585F6C",
"w	c #5F646E",
"x	c #2C3D60",
" .+@###########@+. ",
".$%&*=========*&%$.",
"-;>,,,,,,,,,,,,,>;-",
"')!!!!!!!!!!!!!!!)'",
"~{]]]]]]]]]]]]]]]{~",
"^/////////////////^",
"(_________________(",
":<<<<<<<<<<<<<<<<<:",
"[}}}}}}}}}}}}}}}}}[",
"|11111111111111111|",
"2333333333333333332",
"4333567777777653334",
"8933507777777053398",
"abcc3defffffed3ccba",
"ghijkkilllllikkjihg",
"mnopqrrrrrrrrrqponm",
"stuvwwwwwwwwwwwvuts",
"xxxxxxxxxxxxxxxxxxx"};
