/* XPM */
static char * maximize_pressed_xpm[] = {
"19 18 84 1",
" 	c #41516D",
".	c #313D52",
"+	c #1A202C",
"@	c #080A0D",
"#	c #000000",
"$	c #2E3A4F",
"%	c #101318",
"&	c #333A1B",
"*	c #5C6A34",
"=	c #768645",
"-	c #7B8B48",
";	c #1F242E",
">	c #313818",
",	c #738440",
"'	c #768741",
")	c #0C0E10",
"!	c #536128",
"~	c #6F8137",
"{	c #63752A",
"]	c #677A2C",
"^	c #637727",
"/	c #EEF0E8",
"(	c #FFFFFF",
"_	c #000100",
":	c #5E7220",
"<	c #52670F",
"[	c #000600",
"}	c #596E18",
"|	c #485F00",
"1	c #D2D8CC",
"2	c #0C2A00",
"3	c #133000",
"4	c #000B00",
"5	c #536911",
"6	c #435B00",
"7	c #D4DACC",
"8	c #324C00",
"9	c #3F5800",
"0	c #001100",
"a	c #4E640A",
"b	c #3F5700",
"c	c #D5DACC",
"d	c #001800",
"e	c #4A6004",
"f	c #3B5200",
"g	c #D4D9CC",
"h	c #011E00",
"i	c #475E00",
"j	c #375000",
"k	c #D3D9CC",
"l	c #072400",
"m	c #0B2800",
"n	c #455C00",
"o	c #C0C8B7",
"p	c #D7DCCC",
"q	c #1E3913",
"r	c #3B5400",
"s	c #4B6300",
"t	c #415A00",
"u	c #2A4700",
"v	c #244200",
"w	c #294500",
"x	c #3D523D",
"y	c #2C4700",
"z	c #4F6700",
"A	c #4E6700",
"B	c #476000",
"C	c #425C00",
"D	c #506269",
"E	c #2F4721",
"F	c #314B00",
"G	c #455E00",
"H	c #546B00",
"I	c #566D00",
"J	c #48597D",
"K	c #5E6F75",
"L	c #475E43",
"M	c #2A4514",
"N	c #1E3B00",
"O	c #364A75",
"P	c #4A5C83",
"Q	c #667596",
"R	c #7D8AA6",
"S	c #8692AC",
" .+@###########@+. ",
"$%&*=---------=*&%$",
";>,''''''''''''',>;",
")!~~~~~~~~~~~~~~~!)",
"#{]^/(((((((((/^]{#",
"_::<(((((((((((<::_",
"[}}|12333333321|}}[",
"4556789999999876554",
"0aabcbaaaaaaabcbaa0",
"deefgfeeeeeeefgfeed",
"hiijkjiiiiiiijkjiih",
"liijkjiiiiiiijkjiil",
"mnijo7ppppppp7ojinm",
"qrstuvwwwwwwwvutsrq",
"xyzABCCCCCCCCCBAzyx",
"DEFGHIIIIIIIIIHGFED",
"JKLMNNNNNNNNNNNMLKJ",
"OPQRSSSSSSSSSSSRQPO"};
