/* XPM */
static char * maximize_toggled_active_xpm[] = {
"19 18 83 1",
" 	c #445571",
".	c #334455",
"+	c #1B2B2D",
"@	c #08170E",
"#	c #000F00",
"$	c #314152",
"%	c #112019",
"&	c #48562A",
"*	c #7F8B50",
"=	c #9FAB69",
"-	c #A4B06E",
";	c #203230",
">	c #445627",
",	c #9AA762",
"'	c #9EAB64",
")	c #112411",
"!	c #73823E",
"~	c #95A256",
"{	c #0B1F00",
"]	c #869642",
"^	c #8A9944",
"/	c #87973F",
"(	c #F2F4EB",
"_	c #FFFFFF",
":	c #122600",
"<	c #809034",
"[	c #768825",
"}	c #1A2E00",
"|	c #798A28",
"1	c #6B7E12",
"2	c #DBDFCC",
"3	c #3B5400",
"4	c #405800",
"5	c #223600",
"6	c #72841D",
"7	c #657808",
"8	c #DCE0CC",
"9	c #576C00",
"0	c #627603",
"a	c #2A3E00",
"b	c #5E7300",
"c	c #324600",
"d	c #66790A",
"e	c #596E00",
"f	c #3A4E00",
"g	c #627604",
"h	c #556A00",
"i	c #DADECC",
"j	c #425600",
"k	c #4A5E00",
"l	c #627605",
"m	c #637705",
"n	c #566B00",
"o	c #CAD0B7",
"p	c #DDE1CC",
"q	c #566913",
"r	c #647809",
"s	c #6B7F0D",
"t	c #627800",
"u	c #506800",
"v	c #4B6400",
"w	c #4F6600",
"x	c #63733C",
"y	c #627608",
"z	c #738715",
"A	c #728612",
"B	c #6C8108",
"C	c #687E02",
"D	c #5F6D65",
"E	c #637620",
"F	c #687C0C",
"G	c #748816",
"H	c #7C901E",
"I	c #7D911F",
"J	c #455576",
"K	c #6D7D73",
"L	c #6F8044",
"M	c #667918",
"N	c #33466E",
"O	c #48597D",
"P	c #647291",
"Q	c #7B87A1",
"R	c #8590A8",
" .+@###########@+. ",
"$%&*=---------=*&%$",
";>,''''''''''''',>;",
")!~~~~~~~~~~~~~~~!)",
"{]^/(_________(/^]{",
":<<[___________[<<:",
"}||1234444444321||}",
"5667890000000987665",
"a11b8b1111111b8b11a",
"cdde2eddddddde2eddc",
"fgghihggggggghihggf",
"jgghihggggggghihggj",
"klmno2ppppppp2onmlk",
"qrstuvwwwwwwwvutsrq",
"xyzABCCCCCCCCCBAzyx",
"DEFGHIIIIIIIIIHGFED",
"JKLMgggggggggggMLKJ",
"NOPQRRRRRRRRRRRQPON"};
