/* XPM */
static char * maximize_inactive_xpm[] = {
"19 18 74 1",
" 	c #23314D",
".	c #3C4860",
"+	c #60697A",
"@	c #7B828E",
"#	c #888D97",
"$	c #747B88",
"%	c #ADB0B8",
"&	c #C8CBD1",
"*	c #D8DADE",
"=	c #DBDDE0",
"-	c #5E6778",
";	c #AAAEB5",
">	c #D6D8DD",
",	c #D7D9DE",
"'	c #787E8A",
")	c #C1C3CA",
"!	c #D2D5D9",
"~	c #818690",
"{	c #CBCDD3",
"]	c #CDCFD5",
"^	c #CCCED4",
"/	c #72747A",
"(	c #686B71",
"_	c #7F848E",
":	c #C7CAD0",
"<	c #C6C9CF",
"[	c #66696F",
"}	c #7C818B",
"|	c #C3C6CD",
"1	c #C1C4CC",
"2	c #777A81",
"3	c #BBBEC6",
"4	c #BBBFC6",
"5	c #787D87",
"6	c #BFC3CA",
"7	c #BDC1C9",
"8	c #76797F",
"9	c #BDC1C8",
"0	c #757A84",
"a	c #BCBFC7",
"b	c #BABDC6",
"c	c #74787E",
"d	c #727781",
"e	c #B9BDC4",
"f	c #B7BBC3",
"g	c #73777D",
"h	c #6E737D",
"i	c #B5B9C2",
"j	c #72767D",
"k	c #6B707A",
"l	c #686D77",
"m	c #B4B8C0",
"n	c #797C83",
"o	c #73767D",
"p	c #5E6471",
"q	c #A1A5AE",
"r	c #B8BCC4",
"s	c #B3B8C0",
"t	c #4B5568",
"u	c #848992",
"v	c #B9BDC5",
"w	c #BABEC7",
"x	c #BABEC6",
"y	c #B9BDC6",
"z	c #374561",
"A	c #565E6C",
"B	c #848892",
"C	c #A3A8B0",
"D	c #2B3C5E",
"E	c #384662",
"F	c #4A5468",
"G	c #585F6C",
"H	c #5F646E",
"I	c #2C3D60",
" .+@###########@+. ",
".$%&*=========*&%$.",
"-;>,,,,,,,,,,,,,>;-",
"')!!!!!!!!!!!!!!!)'",
"~{]^/(((((((((/^]{~",
"_::<[[[[[[[[[[[<::_",
"}||1234444444321||}",
"5667849999999487665",
"0aabcbaaaaaaabcbaa0",
"deefgfeeeeeeefgfeed",
"hffijifffffffijiffh",
"kffijifffffffijiffk",
"lmfinooooooooonifml",
"pqrfmsmmmmmmmsmfrqp",
"tuvwxyyyyyyyyyxwvut",
"zABCy777777777yCBAz",
"DEFGHHHHHHHHHHHGFED",
"IIIIIIIIIIIIIIIIIII"};
