/* XPM */
static char * menu_active_xpm[] = {
"19 18 78 1",
" 	c #41516D",
".	c #313D55",
"+	c #1A2033",
"@	c #080A18",
"#	c #00000C",
"$	c #2E3A52",
"%	c #101322",
"&	c #434753",
"*	c #787E8A",
"=	c #999EA9",
"-	c #9DA3AE",
";	c #1F2438",
">	c #404453",
",	c #949AA5",
"'	c #979DA8",
")	c #0C1123",
"!	c #6B7180",
"~	c #8D94A1",
"{	c #00091C",
"]	c #7E8593",
"^	c #818997",
"/	c #061023",
"(	c #767F8D",
"_	c #0E182B",
":	c #6E7787",
"<	c #6C7586",
"[	c #D9DBDF",
"}	c #FFFFFF",
"|	c #162033",
"1	c #677081",
"2	c #616A7C",
"3	c #596275",
"4	c #FAFAFB",
"5	c #1E283B",
"6	c #60697B",
"7	c #5C6578",
"8	c #485367",
"9	c #777F8E",
"0	c #263043",
"a	c #5A6476",
"b	c #525C6F",
"c	c #364258",
"d	c #CBCFD4",
"e	c #2E384B",
"f	c #566073",
"g	c #555F72",
"h	c #465166",
"i	c #354157",
"j	c #F9F9FA",
"k	c #364053",
"l	c #525C70",
"m	c #3E495F",
"n	c #414B61",
"o	c #3E485B",
"p	c #576174",
"q	c #515B6F",
"r	c #4C566B",
"s	c #4B5569",
"t	c #586275",
"u	c #5F697C",
"v	c #5E687B",
"w	c #5E677C",
"x	c #677184",
"y	c #687285",
"z	c #5D6B84",
"A	c #5A6478",
"B	c #5C6679",
"C	c #707A8D",
"D	c #717B8E",
"E	c #48597D",
"F	c #6C7992",
"G	c #697488",
"H	c #5C6579",
"I	c #364A75",
"J	c #4A5C83",
"K	c #667596",
"L	c #7D8AA6",
"M	c #8692AC",
" .+@###########@+. ",
"$%&*=---------=*&%$",
";>,''''''''''''',>;",
")!~~~~~~~~~~~~~~~!)",
"{]^^^^^^^^^^^^^^^]{",
"/(((((((((((((((((/",
"_::::<[}}}}}[<::::_",
"|1111234}}}4321111|",
"56666789}}}98766665",
"0aaaaabcd}dcbaaaaa0",
"efffffghijihgfffffe",
"kfffffflmnmlffffffk",
"ofpppppfqrqfpppppfo",
"stuuuuuuvvvuuuuuuts",
"wfxyyyyyyyyyyyyyxfw",
"zAByCDDDDDDDDDCyBAz",
"EFGHfffffffffffHGFE",
"IJKLMMMMMMMMMMMLKJI"};
