/* XPM */
static char * menu_inactive_xpm[] = {
"19 18 74 1",
" 	c #23314D",
".	c #3C4860",
"+	c #60697A",
"@	c #7B828E",
"#	c #888D97",
"$	c #747B88",
"%	c #ADB0B8",
"&	c #C8CBD1",
"*	c #D8DADE",
"=	c #DBDDE0",
"-	c #5E6778",
";	c #AAAEB5",
">	c #D6D8DD",
",	c #D7D9DE",
"'	c #787E8A",
")	c #C1C3CA",
"!	c #D2D5D9",
"~	c #818690",
"{	c #CBCDD3",
"]	c #CDCFD5",
"^	c #7F848E",
"/	c #C7CAD0",
"(	c #7C818B",
"_	c #C3C6CD",
":	c #C2C5CC",
"<	c #7C7F86",
"[	c #65686F",
"}	c #787D87",
"|	c #BFC3CA",
"1	c #BEC2C9",
"2	c #B5B9C0",
"3	c #676A70",
"4	c #64686E",
"5	c #757A84",
"6	c #BCBFC7",
"7	c #BBBEC6",
"8	c #B9BCC4",
"9	c #94979F",
"0	c #64676D",
"a	c #727781",
"b	c #B9BDC4",
"c	c #B8BCC3",
"d	c #B4B8C0",
"e	c #73767D",
"f	c #63666C",
"g	c #6E737D",
"h	c #B7BBC3",
"i	c #B5B9C1",
"j	c #A8ADB6",
"k	c #64676E",
"l	c #6B707A",
"m	c #B6BAC2",
"n	c #B3B7C0",
"o	c #A9ADB6",
"p	c #686D77",
"q	c #5E6471",
"r	c #A1A5AE",
"s	c #B8BCC4",
"t	c #4B5568",
"u	c #848992",
"v	c #B9BDC5",
"w	c #BBBFC7",
"x	c #374561",
"y	c #565E6C",
"z	c #848892",
"A	c #A3A8B0",
"B	c #B9BDC6",
"C	c #BDC1C9",
"D	c #2B3C5E",
"E	c #384662",
"F	c #4A5468",
"G	c #585F6C",
"H	c #5F646E",
"I	c #2C3D60",
" .+@###########@+. ",
".$%&*=========*&%$.",
"-;>,,,,,,,,,,,,,>;-",
"')!!!!!!!!!!!!!!!)'",
"~{]]]]]]]]]]]]]]]{~",
"^/////////////////^",
"(____:<[[[[[<:____(",
"}||||123444321||||}",
"5666678900098766665",
"abbbbbcdefedcbbbbba",
"ghhhhhhijkjihhhhhhg",
"lhhhhhhmnonmhhhhhhl",
"pdhhhhhhmmmhhhhhhdp",
"qrsssssssssssssssrq",
"tuvwwwwwwwwwwwwwvut",
"xyzABCCCCCCCCCBAzyx",
"DEFGHHHHHHHHHHHGFED",
"IIIIIIIIIIIIIIIIIII"};
