/* XPM */
static char * right_inactive_xpm[] = {
"2 25 2 1",
" 	c #4F5A71",
".	c #2B2E33",
" .",
" .",
" .",
" .",
" .",
" .",
" .",
" .",
" .",
" .",
" .",
" .",
" .",
" .",
" .",
" .",
" .",
" .",
" .",
" .",
" .",
" .",
" .",
" .",
" ."};
