/* XPM */
static char * title_3_inactive_xpm[] = {
"6 25 15 1",
" 	c #2B2E33",
".	c #4F5A71",
"+	c #23314D",
"@	c #24324F",
"#	c #253351",
"$	c #263553",
"%	c #273655",
"&	c #283857",
"*	c #293959",
"=	c #2A3A5C",
"-	c #2B3C5E",
";	c #2C3D60",
">	c #2D3F62",
",	c #2E4064",
"'	c #2F3F50",
"      ",
"......",
"++++++",
"++++++",
"++++++",
"++++++",
"++++++",
"++++++",
"++++++",
"++++++",
"++++++",
"++++++",
"++++++",
"@@@@@@",
"######",
"$$$$$$",
"%%%%%%",
"&&&&&&",
"******",
"======",
"------",
";;;;;;",
">>>>>>",
",,,,,,",
"''''''"};
