/* XPM */
static char * title_5_active_xpm[] = {
"6 25 25 1",
" 	c #2B2E33",
".	c #717F95",
"+	c #485975",
"@	c #445571",
"#	c #41516D",
"$	c #3D4D69",
"%	c #3A4965",
"&	c #364662",
"*	c #33425E",
"=	c #2F3E5A",
"-	c #2C3A56",
";	c #283652",
">	c #25334F",
",	c #263451",
"'	c #273654",
")	c #283756",
"!	c #293959",
"~	c #2A3A5B",
"{	c #2D3E61",
"]	c #304267",
"^	c #33466E",
"/	c #364A75",
"(	c #394F7C",
"_	c #3C5383",
":	c #2F3F50",
"      ",
"......",
"++++++",
"@@@@@@",
"######",
"$$$$$$",
"%%%%%%",
"&&&&&&",
"******",
"======",
"------",
";;;;;;",
">>>>>>",
",,,,,,",
"''''''",
"))))))",
"!!!!!!",
"~~~~~~",
"{{{{{{",
"]]]]]]",
"^^^^^^",
"//////",
"((((((",
"______",
"::::::"};
