/* XPM */
static char * close_pressed_xpm[] = {
"21 21 190 2",
"  	c #303030",
". 	c #282828",
"+ 	c #97594C",
"@ 	c #9E513D",
"# 	c #262626",
"$ 	c #3A3A3A",
"% 	c #982F1E",
"& 	c #313131",
"* 	c #DF9A88",
"= 	c #444444",
"- 	c #802D21",
"; 	c #565656",
"> 	c #98584B",
", 	c #972D1B",
"' 	c #991602",
") 	c #2B2B2B",
"! 	c #3B3B3B",
"~ 	c #DC9786",
"{ 	c #99301E",
"] 	c #DF9A87",
"^ 	c #98301E",
"/ 	c #992F1C",
"( 	c #A0260A",
"_ 	c #7D2F22",
": 	c #8B3325",
"< 	c #982F1D",
"[ 	c #9C0F02",
"} 	c #981202",
"| 	c #975547",
"1 	c #8B0A01",
"2 	c #975446",
"3 	c #A0301A",
"4 	c #DD9987",
"5 	c #A04933",
"6 	c #64423C",
"7 	c #9B2A16",
"8 	c #9E4B36",
"9 	c #E6A18B",
"0 	c #99432D",
"a 	c #99301D",
"b 	c #9B1502",
"c 	c #A02F15",
"d 	c #991502",
"e 	c #9E4F3C",
"f 	c #A03217",
"g 	c #9B2D18",
"h 	c #992918",
"i 	c #D59485",
"j 	c #373737",
"k 	c #873529",
"l 	c #975345",
"m 	c #9E756A",
"n 	c #982513",
"o 	c #9E756C",
"p 	c #E5A08B",
"q 	c #971102",
"r 	c #A0442C",
"s 	c #883526",
"t 	c #975042",
"u 	c #9E786D",
"v 	c #9E796F",
"w 	c #9E7A70",
"x 	c #981305",
"y 	c #992A19",
"z 	c #A0250A",
"A 	c #A0391E",
"B 	c #982C19",
"C 	c #A04B36",
"D 	c #981502",
"E 	c #882212",
"F 	c #A03E27",
"G 	c #9C1302",
"H 	c #913121",
"I 	c #9E5C4C",
"J 	c #8B2718",
"K 	c #9E5F4F",
"L 	c #9B5749",
"M 	c #952F1D",
"N 	c #9E5745",
"O 	c #974230",
"P 	c #A0250F",
"Q 	c #910B01",
"R 	c #A03C20",
"S 	c #A0341B",
"T 	c #A01903",
"U 	c #A01503",
"V 	c #6A6A6A",
"W 	c #A02811",
"X 	c #9E7367",
"Y 	c #9B1302",
"Z 	c #953020",
"` 	c #98432F",
" .	c #8C3323",
"..	c #A0361D",
"+.	c #2D2D2D",
"@.	c #2E2E2E",
"#.	c #903222",
"$.	c #A03B26",
"%.	c #A0412A",
"&.	c #8D3323",
"*.	c #900A01",
"=.	c #343434",
"-.	c #9E5240",
";.	c #991102",
">.	c #9E4D39",
",.	c #DB9686",
"'.	c #68453F",
").	c #991002",
"!.	c #A01703",
"~.	c #832D1F",
"{.	c #9C1102",
"].	c #981102",
"^.	c #99584B",
"/.	c #8A2B1C",
"(.	c #842D1E",
"_.	c #982B19",
":.	c #893525",
"<.	c #A01D08",
"[.	c #992814",
"}.	c #991302",
"|.	c #980E02",
"1.	c #353535",
"2.	c #990F02",
"3.	c #684740",
"4.	c #9B1402",
"5.	c #992915",
"6.	c #942F1E",
"7.	c #9B3F26",
"8.	c #9B0E02",
"9.	c #8C2819",
"0.	c #975343",
"a.	c #985648",
"b.	c #575757",
"c.	c #9C1002",
"d.	c #A01B06",
"e.	c #880902",
"f.	c #9E4831",
"g.	c #A04731",
"h.	c #9E3D23",
"i.	c #383838",
"j.	c #A0462F",
"k.	c #A03016",
"l.	c #981302",
"m.	c #8D3324",
"n.	c #A01E04",
"o.	c #9E4730",
"p.	c #9E7266",
"q.	c #99574A",
"r.	c #8A2214",
"s.	c #981A0A",
"t.	c #9E4934",
"u.	c #8B1F11",
"v.	c #912F20",
"w.	c #984C3B",
"x.	c #992817",
"y.	c #8E2A1A",
"z.	c #97422F",
"A.	c #8A2516",
"B.	c #272727",
"C.	c #62423D",
"D.	c #863729",
"E.	c #E39F8A",
"F.	c #9B301B",
"G.	c #994028",
"H.	c #E29D89",
"I.	c #BE7668",
"J.	c #DF9782",
"K.	c #DC9887",
"L.	c #9C7973",
"M.	c #E39E89",
"N.	c #C47969",
"O.	c #DA9686",
"P.	c #A01F04",
"Q.	c #D89585",
"R.	c #9C4935",
"S.	c #D79585",
"T.	c #CD7B68",
"U.	c #A03218",
"V.	c #991A02",
"W.	c #E09B88",
"X.	c #843729",
"Y.	c #D99585",
"Z.	c #E6A08B",
"`.	c #E19D89",
" +	c #E59F8B",
".+	c #C87866",
"++	c #9B5342",
"@+	c #DE9987",
"#+	c #DD9887",
"$+	c #434343",
"V ; $+$+$+$+$+$+$+$+$+$+$+$+$+$+$+$+$+; V ",
"; b.C.L q.^.> > + + + + + > > ^.q.L C.b.; ",
"$+6 w.y./.(.~.- - _ _ _ - - ~.(./.y.w.6 $+",
"$+a.9.Z #. .:.s k D.X.D.k s :. .#.Z 9.a.$+",
"$+| J M 6.v.H &.m.: : : m.&.H v.6.M J | $+",
"$+2 A., , I.i % % ^ ^ ^ % % K.N., , A.2 $+",
"$+l r._.B i S.Q.a { { { a #+#+#+B _.r.l $+",
"= 0.E x.h y Y.O.,./ / / #+@+@+y h x.E 0.= ",
"= t u.[.5.7 g ,.~ ~ F.#+@+@+g 7 5.[.u.t = ",
"$ O e.8.[ c.{.G ~ #+@+@+* G {.c.[ 8.e.O $ ",
"1.z.1 2.).;.Y 4.b @+] * b 4.Y ;.).2.1 z.1.",
"& ` *.].} }.d ' #+] * W.H.' d }.} ].*.` & ",
"@.0 Q q l.D ' #+@+* V.`.M.J.' D l.q Q 0 @.",
") o.|.U !.T #+4 ] n.P.n.E. +p T !.U |.o.) ",
". 8 x d.<.#+#+@+z ( ( ( z p Z.9 <.d.x 8 . ",
". @ s.P W .+4 c k.f U.f k.c 9 T.W P s.@ . ",
"B.N n 3 S ..A R h.7.G.7.h.R A ..S 3 n N B.",
"# K < $.F %.r j.f.t.R.t.f.j.r %.F $.< K # ",
"# '.I g.5 C >.e @ -.++-.@ e >.C 5 g.I '.# ",
"  i.3.p.X m o u v w L.w v u o m X p.3.i.  ",
"    . ) +.& =.j $ ! ! ! $ j =.& +.) .     "};
