/* XPM */
static char * hide_active_xpm[] = {
"21 21 48 1",
" 	c #4C4C4C",
".	c #696969",
"+	c #424242",
"@	c #232323",
"#	c #6A6A6A",
"$	c #2D2D2D",
"%	c #333333",
"&	c #6D6D6D",
"*	c #252525",
"=	c #6B6B6B",
"-	c #717171",
";	c #2B2B2B",
">	c #4B4B4B",
",	c #242424",
"'	c #6E6E6E",
")	c #5B5B5B",
"!	c #282828",
"~	c #686868",
"{	c #545454",
"]	c #6C6C6C",
"^	c #2E2E2E",
"/	c #707070",
"(	c #666666",
"_	c #383838",
":	c #606060",
"<	c #616161",
"[	c #5D5D5D",
"}	c #5E5E5E",
"|	c #777777",
"1	c #2C2C2C",
"2	c #575757",
"3	c #373737",
"4	c #7D7D7D",
"5	c #222222",
"6	c #4A4A4A",
"7	c #656565",
"8	c #5F5F5F",
"9	c #4F4F4F",
"0	c #767676",
"a	c #636363",
"b	c #676767",
"c	c #626262",
"d	c #5C5C5C",
"e	c #5A5A5A",
"f	c #464646",
"g	c #434343",
"h	c #3F3F3F",
"i	c #FFFFFF",
"#)ggggggggggggggggg{#",
")f000000000000000002{",
"g'/.......==....==/'g",
"g&bbbbbbbbbbbbbbbbb&g",
"g&aaaaaaaaaaaaaaaaa&g",
"g]ccccccccccccccccc]g",
"g#88888888888888888#g",
"g~ddddddddddddddddd~g",
"gbeeeeeeeeeeeeeeeeebg",
"3d>     >          d_",
"%efffffffffffffffffe%",
"$ehhhhhhhhhhhhhhhhhe^",
";ehhhhhhhhhhhhhhhhhe;",
"![hhhiiiiiiihhhhhhh}!",
"*:+++iiiiiii+++++++<*",
"*(fffiiiiiiifffffff(*",
",#66666666666666666#,",
"@-99999999999999999-@",
"@c|777777777777777-c@",
"$%74444444444444447%$",
"$;555555555@@5555551^"};
