/* XPM */
static char * maximize_toggled_inactive_xpm[] = {
"21 21 33 1",
" 	c #4F4F4F",
".	c #363636",
"+	c #424242",
"@	c #444444",
"#	c #383838",
"$	c #272727",
"%	c #4C4C4C",
"&	c #3D3D3D",
"*	c #3E3E3E",
"=	c #292929",
"-	c #5B5B5B",
";	c #5A5A5A",
">	c #575757",
",	c #4A4A4A",
"'	c #595959",
")	c #545454",
"!	c #454545",
"~	c #494949",
"{	c #474747",
"]	c #4E4E4E",
"^	c #4B4B4B",
"/	c #515151",
"(	c #343434",
"_	c #3C3C3C",
":	c #505050",
"<	c #585858",
"[	c #3B3B3B",
"}	c #525252",
"|	c #5C5C5C",
"1	c #353535",
"2	c #252525",
"3	c #333333",
"4	c #FFFFFF",
"=$22222222222222222$=",
"$2[[[[[[[[[[[[[[[[[2$",
"2[33333333333333333[2",
"2_(((((((((((((((((_2",
"2&11111111111111111&2",
"2&11111144444441111&2",
"2*......4444444....*2",
"2!____________4____!2",
"2,+++4444444++4++++,2",
"2%@@@4444444@@4@@@@%2",
"2:{{{4{{{{{4{{4{{{{:2",
"2}~~~4~~~~~4~44~~~~}2",
"2)^^^4^^^^^4^^^^^^^)2",
"2>]]]4]]]]]4]]]]]]]>2",
"2<   4444444       <2",
"2':::::::::::::::::'2",
"2;/////////////////;2",
"2-}}}}}}}}}}}}}}}}}-2",
"2|<<<<<<<<<<<<<<<<<|2",
"#2|||||||||||||||||2#",
"%#22222222222222222#%"};
