/* XPM */
static char * maximize_active_xpm[] = {
"21 21 48 1",
" 	c #626262",
".	c #5C5C5C",
"+	c #6A6A6A",
"@	c #232323",
"#	c #5F5F5F",
"$	c #2D2D2D",
"%	c #6B6B6B",
"&	c #333333",
"*	c #6D6D6D",
"=	c #252525",
"-	c #2B2B2B",
";	c #717171",
">	c #282828",
",	c #5B5B5B",
"'	c #2E2E2E",
")	c #6E6E6E",
"!	c #6C6C6C",
"~	c #242424",
"{	c #686868",
"]	c #707070",
"^	c #666666",
"/	c #4B4B4B",
"(	c #545454",
"_	c #606060",
":	c #373737",
"<	c #5D5D5D",
"[	c #575757",
"}	c #616161",
"|	c #383838",
"1	c #2C2C2C",
"2	c #777777",
"3	c #5E5E5E",
"4	c #696969",
"5	c #4C4C4C",
"6	c #7D7D7D",
"7	c #424242",
"8	c #222222",
"9	c #4A4A4A",
"0	c #656565",
"a	c #4F4F4F",
"b	c #767676",
"c	c #636363",
"d	c #676767",
"e	c #5A5A5A",
"f	c #464646",
"g	c #434343",
"h	c #3F3F3F",
"i	c #FFFFFF",
"+,ggggggggggggggggg(+",
",fbbbbbbbbbbbbbbbbb[(",
"g)]4444444%%4444%%])g",
"g*ddddddddddddddddd*g",
"g*ccccccccccccccccc*g",
"g!   iiiiiiiiiii   !g",
"g+###iiiiiiiiiii###+g",
"g{...iiiiiiiiiii...{g",
"gdeeeieeeeeeeeeieeedg",
":./55i55/555555i555.|",
"&efffifffffffffifffe&",
"$ehhhihhhhhhhhhihhhe'",
"-ehhhihhhhhhhhhihhhe-",
"><hhhihhhhhhhhhihhh3>",
"=_777i777777777i777}=",
"=^fffiiiiiiiiiiifff^=",
"~+99999999999999999+~",
"@;aaaaaaaaaaaaaaaaa;@",
"@ 2000000000000000; @",
"$&06666666666666660&$",
"$-888888888@@8888881'"};
