/* XPM */
static char * maximize_pressed_xpm[] = {
"21 21 82 1",
" 	c #454545",
".	c #2C2C2C",
"+	c #6B6B6B",
"@	c #4A4A4A",
"#	c #464646",
"$	c #585858",
"%	c #393939",
"&	c #434343",
"*	c #4F4F4F",
"=	c #3A3A3A",
"-	c #252525",
";	c #1D1D1D",
">	c #303030",
",	c #2D2D2D",
"'	c #333333",
")	c #323232",
"!	c #4B4B4B",
"~	c #202020",
"{	c #1A1A1A",
"]	c #262626",
"^	c #373737",
"/	c #000000",
"(	c #4E4E4E",
"_	c #171717",
":	c #232323",
"<	c #2A2A2A",
"[	c #2F2F2F",
"}	c #3D3D3D",
"|	c #222222",
"1	c #191919",
"2	c #101010",
"3	c #1F1F1F",
"4	c #1B1B1B",
"5	c #484848",
"6	c #1C1C1C",
"7	c #6A6A6A",
"8	c #676767",
"9	c #686868",
"0	c #161616",
"a	c #404040",
"b	c #242424",
"c	c #3B3B3B",
"d	c #505050",
"e	c #555555",
"f	c #5D5D5D",
"g	c #424242",
"h	c #565656",
"i	c #3C3C3C",
"j	c #626262",
"k	c #494949",
"l	c #646464",
"m	c #535353",
"n	c #4D4D4D",
"o	c #3E3E3E",
"p	c #666666",
"q	c #212121",
"r	c #353535",
"s	c #717171",
"t	c #696969",
"u	c #5F5F5F",
"v	c #5A5A5A",
"w	c #111111",
"x	c #5B5B5B",
"y	c #151515",
"z	c #727272",
"A	c #474747",
"B	c #525252",
"C	c #141414",
"D	c #444444",
"E	c #4C4C4C",
"F	c #2B2B2B",
"G	c #282828",
"H	c #2E2E2E",
"I	c #010101",
"J	c #292929",
"K	c #313131",
"L	c #060606",
"M	c #0D0D0D",
"N	c #181818",
"O	c #3F3F3F",
"P	c #414141",
"Q	c #BABBBC",
"7 w//IIIIIIIIIII//C(7",
" 1PPPPPPPPPPPPPPPPD2(",
"{*g..,H[[>KK[[H,HHg*{",
"M$FF.,H>KK)KK>H,.FF$L",
"MeGJ<.H>K'''K>H.<JGeL",
"M@GJFQQQQQQQQQQQFJG@L",
"Md]JFQQQQQQQQQQQFJ]dL",
"M*-GFQQQQQQQQQQQFG-*L",
"Mk-J.Q%O#@!@#O%Q.J-kL",
"MO4~-Q)=O # O=)Q-~6OL",
"MO1;:Q)=P#5#P=)Q:;1OL",
"MO04qQK%P A P%KQq40OL",
"MO_6|Q'i&5@5&i'Q|6_OL",
"MO_;bQro#!E!#orQb;_OL",
"MO{~GQ%&@*B*@&%QG~{OL",
"MO;|<QQQQQQQQQQQ<|;OL",
"M}3]H^P!m$v$m!P^H]3}L",
"M}:JKc (hfufh( cKJ:}L",
"Ma^=&n$j+szs+j$n&=^aL",
"G2$lp89t++++++98plx2J",
",GNNNNNNNNNNNNNNNNy3H"};
