/* XPM */
static char * right_active_xpm[] = {
"4 4 3 1",
" 	c #858585",
".	c #292929",
"+	c #1B1B1B",
"+. +",
"+. +",
"+. +",
"+. +"};
