/* XPM */
static char * title_1_inactive_xpm[] = {
"8 30 24 1",
" 	c #464646",
".	c #252525",
"+	c #282828",
"@	c #555555",
"#	c #424242",
"$	c #454545",
"%	c #2C2C2C",
"&	c #494949",
"*	c #404040",
"=	c #4A4A4A",
"-	c #474747",
";	c #2A2A2A",
">	c #343434",
",	c #3E3E3E",
"'	c #4B4B4B",
")	c #2E2E2E",
"!	c #3B3B3B",
"~	c #484848",
"{	c #2B2B2B",
"]	c #2D2D2D",
"^	c #272727",
"/	c #393939",
"(	c #292929",
"_	c #4C4C4C",
"........",
"@@@@@@@@",
"^^^^^^^^",
"^^^^^^^^",
"++++++++",
"((((((((",
"((((((((",
";;;;;;;;",
"{{{{{{{{",
"%%%%%%%%",
"]]]]]]]]",
"]]]]]]]]",
"))))))))",
">>>>>>>>",
"////////",
"!!!!!!!!",
",,,,,,,,",
"********",
"########",
"$$$$$$$$",
"        ",
"--------",
"~~~~~~~~",
"&&&&&&&&",
"========",
"''''''''",
"________",
"________",
"________",
"////////"};
