/* XPM */
static char * title_1_active_xpm[] = {
"8 30 24 1",
" 	c #6F6F6F",
".	c #252525",
"+	c #323232",
"@	c #383838",
"#	c #565656",
"$	c #1B1B1B",
"%	c #636363",
"&	c #6C6C6C",
"*	c #606060",
"=	c #303030",
"-	c #2D2D2D",
";	c #545454",
">	c #343434",
",	c #5B5B5B",
"'	c #858585",
")	c #2E2E2E",
"!	c #3B3B3B",
"~	c #2B2B2B",
"{	c #363636",
"]	c #6A6A6A",
"^	c #3D3D3D",
"/	c #5E5E5E",
"(	c #656565",
"_	c #292929",
"........",
"''''''''",
"        ",
"&&&&&&&&",
"]]]]]]]]",
"]]]]]]]]",
"((((((((",
"((((((((",
"%%%%%%%%",
"********",
"////////",
"////////",
",,,,,,,,",
"########",
";;;;;;;;",
"^^^^^^^^",
"^^^^^^^^",
"!!!!!!!!",
"@@@@@@@@",
"{{{{{{{{",
"{{{{{{{{",
">>>>>>>>",
"++++++++",
"========",
"))))))))",
"--------",
"~~~~~~~~",
"________",
"________",
"$$$$$$$$"};
