/* XPM */
static char * bottom_right_active_xpm[] = {
"5 5 4 1",
" 	c None",
".	c #EBEBEB",
"+	c #FFFFFF",
"@	c #6B6B6B",
"...+@",
"...+@",
"...+@",
"++++@",
"@@@@@"};
