/* XPM */
static char * bottom_left_active_xpm[] = {
"5 5 4 1",
" 	c None",
".	c #6B6B6B",
"+	c #FFFFFF",
"@	c #EBEBEB",
".+@@@",
".+@@@",
".+@@@",
".++++",
"....."};
