/* XPM */
static char * bottom_inactive_xpm[] = {
"4 5 4 1",
" 	c None",
".	c #EBEBEB",
"+	c #FFFFFF",
"@	c #6B6B6B",
"....",
"....",
"....",
"++++",
"@@@@"};
