/* XPM */
static char * close_prelight_xpm[] = {
"43 23 30 1",
" 	c None",
".	c #757575",
"+	c #F57A73",
"@	c #F17A73",
"#	c #EB7C77",
"$	c #959595",
"%	c #E87F7A",
"&	c #FFFFFF",
"*	c #E3827D",
"=	c #DE8480",
"-	c #D6837F",
";	c #A43232",
">	c #A83737",
",	c #AC3D3D",
"'	c #B24343",
")	c #B74B4B",
"!	c #BC5454",
"~	c #F3F3F3",
"{	c #747474",
"]	c #F2F2F2",
"^	c #FDFDFD",
"/	c #F9F9F9",
"(	c #F6F6F6",
"_	c #EEEEEE",
":	c #EAEAEA",
"<	c #E7E7E7",
"[	c #E6E6E6",
"}	c #E8E8E8",
"|	c #E9E9E9",
"1	c #EBEBEB",
"...........................................",
".+++++++++++++++++++++++++++++++++++++++++.",
".+@@@@@@@@@@@@@@@@@@@@@@@@@@@@@@@@@@@@@@@+.",
".+##############$...###...$##############+.",
".+%%%%%%%%%%%%%%.&&&.%.&&&.%%%%%%%%%%%%%%+.",
".+***************.&&&.&&&.***************+.",
".+================.&&&&&.================+.",
".+-----------------.&&&.-----------------+.",
".+;;;;;;;;;;;;;;;;;.&&&.;;;;;;;;;;;;;;;;;+.",
".+>>>>>>>>>>>>>>>>.&&&&&.>>>>>>>>>>>>>>>>+.",
".+,,,,,,,,,,,,,,,.&&&.&&&.,,,,,,,,,,,,,,,+.",
".+''''''''''''''.&&&.'.&&&.''''''''''''''+.",
".+))))))))))))))$...)))...$))))))))))))))+.",
".+!!!!!!!!!!!!!!!!!!!!!!!!!!!!!!!!!!!!!!!+.",
".++++++++++++++++++++++++++++++++++++++++.~",
"{{{{{{{{{{{{{{{{{{{{{{{{{{{{{{{{{{{{{{{{{]]",
"&&&&&&&&&&&&&&&&&&&&&&&&&&&&&&&&&&&^/(]_:<<",
"[[[[[[[[[[[[[[[[[[[[[[[[[[[[[[[[[[[[[[[[[[[",
"}}}}}}}}}}}}}}}}}}}}}}}}}}}}}}}}}}}}}}}}}}}",
"}}}}}}}}}}}}}}}}}}}}}}}}}}}}}}}}}}}}}}}}}}}",
"|||||||||||||||||||||||||||||||||||||||||||",
"1111111111111111111111111111111111111111111",
"1111111111111111111111111111111111111111111"};
