/* XPM */
static char * hide_pressed_xpm[] = {
"26 22 23 1",
" 	c None",
".	c #FFFFFF",
"+	c #6C6C6C",
"@	c #DCDCDC",
"#	c #878787",
"$	c #7A7A7A",
"%	c #DEDEDE",
"&	c #E8E8E8",
"*	c #EFEFEF",
"=	c #F9F9F9",
"-	c #F8F8F8",
";	c #939393",
">	c #F1F1F1",
",	c #E5E5E5",
"'	c #787878",
")	c #E4E4E4",
"!	c #E6E6E6",
"~	c #ECECEC",
"{	c #F0F0F0",
"]	c #F4F4F4",
"^	c #FDFDFD",
"/	c #E9E9E9",
"(	c #EBEBEB",
".+........................",
".+........................",
".+........................",
".+........................",
".+........................",
".+........................",
".+........................",
".+.@@@@@#$$$$$$$$$$#@@@@@.",
".+.%%%%%$..........$%%%%%.",
".+.&&&&&$..........$&&&&&.",
".+.*****$..........$*****.",
"=+.-----;$$$$$$$$$$;-----.",
">+........................",
"&,'.......................",
"))!+++++++++++++++++++++++",
",,&~{]-^..................",
"!!!!!!!!!!!!!!!!!!!!!!!!!!",
"&&&&&&&&&&&&&&&&&&&&&&&&&&",
"&&&&&&&&&&&&&&&&&&&&&&&&&&",
"//////////////////////////",
"((((((((((((((((((((((((((",
"(((((((((((((((((((((((((("};
