/* XPM */
static char * hide_active_xpm[] = {
"26 22 29 1",
" 	c None",
".	c #FFFFFF",
"+	c #6B6B6B",
"@	c #F1F1F1",
"#	c #F0F0F0",
"$	c #EFEFEF",
"%	c #EEEEEE",
"&	c #EDEDED",
"*	c #ECECEC",
"=	c #EAEAEA",
"-	c #C1C1C1",
";	c #767676",
">	c #C3C3C3",
",	c #CBCBCB",
"'	c #D2D2D2",
")	c #F9F9F9",
"!	c #DADADA",
"~	c #818181",
"{	c #E2E2E2",
"]	c #E8E8E8",
"^	c #E3E3E3",
"/	c #E4E4E4",
"(	c #E5E5E5",
"_	c #F4F4F4",
":	c #F8F8F8",
"<	c #FDFDFD",
"[	c #E6E6E6",
"}	c #E9E9E9",
"|	c #EBEBEB",
".+@@@@@@@@@@@@@@@@@@@@@@@@",
".+@######################@",
".+@$$$$$$$$$$$$$$$$$$$$$$@",
".+@%%%%%%%%%%%%%%%%%%%%%%@",
".+@&&&&&&&&&&&&&&&&&&&&&&@",
".+@**********************@",
".+@======================@",
".+@-----;++++++++++;-----@",
".+@>>>>>+..........+>>>>>@",
".+@,,,,,+..........+,,,,,@",
".+@'''''+..........+'''''@",
")+@!!!!!~++++++++++~!!!!!@",
"@+@{{{{{{{{{{{{{{{{{{{{{{@",
"]^+@@@@@@@@@@@@@@@@@@@@@@@",
"///+++++++++++++++++++++++",
"((]*#_:<..................",
"[[[[[[[[[[[[[[[[[[[[[[[[[[",
"]]]]]]]]]]]]]]]]]]]]]]]]]]",
"]]]]]]]]]]]]]]]]]]]]]]]]]]",
"}}}}}}}}}}}}}}}}}}}}}}}}}}",
"||||||||||||||||||||||||||",
"||||||||||||||||||||||||||"};
