/* XPM */
static char * hide_prelight_xpm[] = {
"26 22 28 1",
" 	c None",
".	c #FFFFFF",
"+	c #6B6B6B",
"@	c #FEFEFE",
"#	c #FDFDFD",
"$	c #FCFCFC",
"%	c #FAFAFA",
"&	c #CFCFCF",
"*	c #818181",
"=	c #757575",
"-	c #D1D1D1",
";	c #DADADA",
">	c #E1E1E1",
",	c #F9F9F9",
"'	c #E9E9E9",
")	c #8C8C8C",
"!	c #F1F1F1",
"~	c #F2F2F2",
"{	c #E8E8E8",
"]	c #E3E3E3",
"^	c #E4E4E4",
"/	c #E5E5E5",
"(	c #ECECEC",
"_	c #F0F0F0",
":	c #F4F4F4",
"<	c #F8F8F8",
"[	c #E6E6E6",
"}	c #EBEBEB",
".+........................",
".+........................",
".+........................",
".+.@@@@@@@@@@@@@@@@@@@@@@.",
".+.######################.",
".+.$$$$$$$$$$$$$$$$$$$$$$.",
".+.%%%%%%%%%%%%%%%%%%%%%%.",
".+.&&&&&*==========*&&&&&.",
".+.-----=..........=-----.",
".+.;;;;;=..........=;;;;;.",
".+.>>>>>=..........=>>>>>.",
",+.''''')==========)'''''.",
"!+.~~~~~~~~~~~~~~~~~~~~~~.",
"{]=.......................",
"^^^+++++++++++++++++++++++",
"//{(_:<#..................",
"[[[[[[[[[[[[[[[[[[[[[[[[[[",
"{{{{{{{{{{{{{{{{{{{{{{{{{{",
"{{{{{{{{{{{{{{{{{{{{{{{{{{",
"''''''''''''''''''''''''''",
"}}}}}}}}}}}}}}}}}}}}}}}}}}",
"}}}}}}}}}}}}}}}}}}}}}}}}}}"};
