/* XPM */
static char * maximize_prelight_xpm[] = {
"25 22 19 1",
" 	c None",
".	c #757575",
"+	c #FFFFFF",
"@	c #959595",
"#	c #FEFEFE",
"$	c #FDFDFD",
"%	c #FCFCFC",
"&	c #FAFAFA",
"*	c #CFCFCF",
"=	c #D1D1D1",
"-	c #DADADA",
";	c #E1E1E1",
">	c #E9E9E9",
",	c #8C8C8C",
"'	c #F2F2F2",
")	c #747474",
"!	c #E6E6E6",
"~	c #E8E8E8",
"{	c #EBEBEB",
".++++++++++++++++++++++++",
".++++++++++++++++++++++++",
".++++++@..........@++++++",
".+#####.++++++++++.#####+",
".+$$$$$.++++++++++.$$$$$+",
".+%%%%%.++......++.%%%%%+",
".+&&&&&.++.&&&&.++.&&&&&+",
".+*****.++.****.++.*****+",
".+=====.++......++.=====+",
".+-----.++++++++++.-----+",
".+;;;;;.++++++++++.;;;;;+",
".+>>>>>,..........,>>>>>+",
".+''''''''''''''''''''''+",
".++++++++++++++++++++++++",
")))))))))))))))))))))))))",
"+++++++++++++++++++++++++",
"!!!!!!!!!!!!!!!!!!!!!!!!!",
"~~~~~~~~~~~~~~~~~~~~~~~~~",
"~~~~~~~~~~~~~~~~~~~~~~~~~",
">>>>>>>>>>>>>>>>>>>>>>>>>",
"{{{{{{{{{{{{{{{{{{{{{{{{{",
"{{{{{{{{{{{{{{{{{{{{{{{{{"};
