/* XPM */
static char * maximize_pressed_xpm[] = {
"25 22 14 1",
" 	c None",
".	c #7A7A7A",
"+	c #FFFFFF",
"@	c #9D9D9D",
"#	c #DCDCDC",
"$	c #DEDEDE",
"%	c #E8E8E8",
"&	c #EFEFEF",
"*	c #F8F8F8",
"=	c #939393",
"-	c #787878",
";	c #E6E6E6",
">	c #E9E9E9",
",	c #EBEBEB",
".++++++++++++++++++++++++",
".++++++++++++++++++++++++",
".++++++@..........@++++++",
".++++++.++++++++++.++++++",
".++++++.++++++++++.++++++",
".++++++.++......++.++++++",
".++++++.++.++++.++.++++++",
".+#####.++.####.++.#####+",
".+$$$$$.++......++.$$$$$+",
".+%%%%%.++++++++++.%%%%%+",
".+&&&&&.++++++++++.&&&&&+",
".+*****=..........=*****+",
".++++++++++++++++++++++++",
".++++++++++++++++++++++++",
"-------------------------",
"+++++++++++++++++++++++++",
";;;;;;;;;;;;;;;;;;;;;;;;;",
"%%%%%%%%%%%%%%%%%%%%%%%%%",
"%%%%%%%%%%%%%%%%%%%%%%%%%",
">>>>>>>>>>>>>>>>>>>>>>>>>",
",,,,,,,,,,,,,,,,,,,,,,,,,",
",,,,,,,,,,,,,,,,,,,,,,,,,"};
