/* XPM */
static char * right_active_xpm[] = {
"5 4 4 1",
" 	c None",
".	c #EBEBEB",
"+	c #FFFFFF",
"@	c #6B6B6B",
"...+@",
"...+@",
"...+@",
"...+@"};
