/* XPM */
static char * top_right_inactive_xpm[] = {
"5 23 21 1",
" 	c None",
".	c #6B6B6B",
"+	c #FFFFFF",
"@	c #D7D7D7",
"#	c #D8D8D8",
"$	c #D9D9D9",
"%	c #DADADA",
"&	c #DBDBDB",
"*	c #DCDCDC",
"=	c #DDDDDD",
"-	c #DEDEDE",
";	c #DFDFDF",
">	c #E0E0E0",
",	c #E2E2E2",
"'	c #E3E3E3",
")	c #E4E4E4",
"!	c #E5E5E5",
"~	c #E6E6E6",
"{	c #E8E8E8",
"]	c #E9E9E9",
"^	c #EBEBEB",
".....",
"++++.",
"@@@+.",
"###+.",
"$$$+.",
"%%%+.",
"&&&+.",
"***+.",
"===+.",
"---+.",
";;;+.",
">>>+.",
",,,+.",
"'''+.",
"'''+.",
")))+.",
"!!!+.",
"~~~+.",
"{{{+.",
"{{{+.",
"]]]+.",
"^^^+.",
"^^^+."};
