/* XPM */
static char *bottom_inactive[] = {
/* columns rows colors chars-per-pixel */
"6 6 5 1",
"  c #CBCFD5",
". c #D3D6DB",
"X c #9EA3AD",
"o c #888D97",
"O c #C0C4CB",
/* pixels */
"XXXXXX",
"      ",
"OOOOOO",
"OOOOOO",
"......",
"oooooo"
};
