/* XPM */
static char *close_active[] = {
/* columns rows colors chars-per-pixel */
"19 18 99 2",
"   c #AD382D",
".  c #E3CCCC",
"X  c #A92E22",
"o  c #A82013",
"O  c #9D1205",
"+  c #9F170B",
"@  c #870000",
"#  c #EACCCC",
"$  c #A0180B",
"%  c #B3B7C0",
"&  c #990A00",
"*  c #551B1C",
"=  c #770000",
"-  c #7D595A",
";  c #E7CCCC",
":  c #96201A",
">  c #7B5A5C",
",  c #4C1B1C",
"<  c #9F1508",
"1  c #670000",
"2  c #EFE0E0",
"3  c #DFE1E5",
"4  c #A85A53",
"5  c #AAAFB9",
"6  c #480000",
"7  c #A72A1E",
"8  c #A52D22",
"9  c #B3A6A9",
"0  c #7F0000",
"q  c #A51D10",
"w  c #A1190E",
"e  c #A82B1F",
"r  c #AF2517",
"t  c #BC9C9D",
"y  c #B5A9AC",
"u  c #AB5B55",
"i  c #A10F01",
"p  c #4F0000",
"a  c #A22013",
"s  c #C3756D",
"d  c #5A2D2E",
"f  c #AF3F35",
"g  c #6F0000",
"h  c #A61C0E",
"j  c #9D1306",
"k  c #920000",
"l  c #B45047",
"z  c #820000",
"x  c #B74F45",
"c  c #8E0000",
"v  c #78302C",
"b  c #570000",
"n  c #E6CCCC",
"m  c #9A0900",
"M  c #900000",
"N  c #950000",
"B  c #5F0000",
"V  c #AC1B0D",
"C  c #A24941",
"Z  c #B93124",
"A  c #EED5D3",
"S  c #B79799",
"D  c #C16D66",
"F  c #EDD2D0",
"G  c #C8CBD2",
"H  c #AF2417",
"J  c #AB352A",
"K  c #EBD0CD",
"L  c #B0281B",
"P  c #AB190B",
"I  c #960000",
"U  c #800000",
"Y  c #A3372F",
"T  c #F0DAD8",
"R  c #792C28",
"E  c #B64E45",
"W  c #9E0600",
"Q  c #B1615B",
"!  c #E8CCCC",
"~  c #BEC2CA",
"^  c #EDE0E0",
"/  c #710000",
"(  c #F2E0E0",
")  c #AA3024",
"_  c #9C0F01",
"`  c #8B0000",
"'  c #B14339",
"]  c #B1291C",
"[  c #B85249",
"{  c #A42418",
"}  c #BA3225",
"|  c #C77971",
" . c #A11C10",
".. c #CCCFD5",
"X. c #380000",
"o. c #C47068",
"O. c #BE635A",
"+. c #9F170A",
"@. c gray100",
/* pixels */
"3 y > , X.X.X.X.X.X.X.X.X.X.X., > y 3 ",
"9 d v 4 s | | | | | | | | | s 4 v d 9 ",
"- R D o.o.o.o.o.o.o.o.o.o.o.o.o.D R - ",
"* C O.O.O.O.O.O.O.O.O.O.O.O.O.O.O.C * ",
"6 l [ [ E @.T x [ [ [ x T @.E [ [ l 6 ",
"p ' ' ' J K @.A f ' f A @.K J ' ' ' p ",
"b       e I ; @.F ) F @.; I e       b ",
"B X X X 7 < c n @.( @.n c < 7 X X X B ",
"1 { { { { a & @ 2 @.2 @ & a { { { { 1 ",
"g  . . . . .j ! @.^ @.! j  . . . . .g ",
"= +.+.+.+.O # @.. / . @.# O +.+.+.+.= ",
"0 +.+.+.O # @.. U ` U . @.# O +.+.+.0 ",
"@ + $ $ m @.. z N _ N z . @.m $ $ + @ ",
": w o o i k M W h o h W M k i o o w : ",
"u + L ] H P V r ] ] ] r V P H ] L + u ",
"S Y q ] Z } } } } } } } } } Z ] q Y S ",
"% t Q 8 +.+.+.+.+.+.+.+.+.+.+.8 Q t % ",
"5 % ~ G ......................G ~ % 5 "
};
