/* XPM */
static char *close_inactive[] = {
/* columns rows colors chars-per-pixel */
"19 18 92 1",
"  c #62666C",
". c #BFC3CA",
"X c #71757C",
"o c #C3C6CD",
"O c #B8BCC4",
"+ c #BBBFC7",
"@ c #73767D",
"# c #B0B4BD",
"$ c #797C82",
"% c #B9BDC5",
"& c #C6C9CF",
"* c #CCCED4",
"= c #C2C5CC",
"- c #AAAEB5",
"; c #BBBEC6",
": c #CBCDD3",
"> c #63666C",
", c #868A93",
"< c #75787F",
"1 c #A5A9B2",
"2 c #A3A8B0",
"3 c #B4B8C0",
"4 c #7C818B",
"5 c #D8DADE",
"6 c #BEC2C9",
"7 c #ADB0B8",
"8 c #B8BDC5",
"9 c #A4A8B1",
"0 c #686D77",
"q c #B4B8C1",
"w c #66696F",
"e c #6E737D",
"r c #BEC1C9",
"t c #90959E",
"y c #818690",
"u c #727781",
"i c #7C7E85",
"p c #B9BDC6",
"a c #B5B8C1",
"s c #6D7077",
"d c #B1B6BF",
"f c #B6BBC3",
"g c #777A81",
"h c #64686E",
"j c #B2B6BF",
"k c #6B707A",
"l c #969BA4",
"z c #848992",
"x c #979CA5",
"c c #C8CBD1",
"v c #70757E",
"b c #8C929C",
"n c #747983",
"m c #65686F",
"M c #8A8E98",
"N c #D6D8DD",
"B c #6A707A",
"V c #BDC1C8",
"C c #B8BCC3",
"Z c #787D87",
"A c #A1A5AE",
"S c #777A80",
"D c #ADB1BA",
"F c #73777D",
"G c #A8ADB4",
"H c #C1C3CA",
"J c #7F848E",
"K c #757A84",
"L c #B5B9C2",
"P c #A8ACB4",
"I c #888C95",
"U c #686B71",
"Y c #848892",
"T c #64676D",
"R c #6F7278",
"E c #6C6F76",
"W c #ADB1BB",
"Q c #B2B7BF",
"! c #B6BAC2",
"~ c #C7CAD0",
"^ c #CDCFD5",
"/ c #BCBFC7",
"( c #BABEC6",
") c #BDC1C9",
"_ c #DBDDE0",
"` c #B9BDC4",
"' c #5F646E",
"] c #888D97",
"[ c #D7D9DE",
"{ c #D2D5D9",
"} c #B7BBC3",
"| c #C0C4CB",
/* pixels */
"D9xb]]]]]]]]]]]bx9D",
"1t7c5_________5c7t1",
"l-N[[[[[[[[[[[[[N-l",
"MH{{{{{{{{{{{{{{{HM",
"y:^^*Ui*^^^*iU*^^:y",
"J~~~&$w$&~&$w$&~~~J",
"4ooo=rSmg=gmSr=ooo4",
"Z...6V8<hRh<8V6...Z",
"K////;%asTsa%;////K",
"u`````CF>E>FC`````u",
"e}}}}!@ XWX @!}}}}e",
"k}}}!@ X#Q#X @!}}}k",
"03}}! X#q!q#X !}}30",
"vAOOfjdL}O}LdjfOOAv",
"Iz%+((((+++((((+%zI",
"GnY2p)))))))))p2YnG",
"|P,B'''''''''''B,P|",
"|||||||||||||||||||"
};
