/* XPM */
static char *hide_pressed[] = {
/* columns rows colors chars-per-pixel */
"19 18 70 1",
"  c #B73D00",
". c #9A0000",
"X c #AF3B00",
"o c #B84B00",
"O c #B3B7C0",
"+ c #810000",
"@ c #6E0000",
"# c #8E5A5C",
"$ c #870100",
"% c #A71F00",
"& c #6F1B1C",
"* c #BA4500",
"= c #9C0300",
"- c #B73F00",
"; c #691B1C",
": c #B24300",
"> c #8C0700",
", c #BD4E00",
"< c #BD9D9B",
"1 c #BDA9AC",
"2 c #B89A98",
"3 c #8F595A",
"4 c #7A0000",
"5 c #AC5328",
"6 c #AF5C34",
"7 c #DFE1E5",
"8 c #742D2E",
"9 c #BEC2CA",
"0 c #BE632A",
"q c #A93F2B",
"w c #BE5100",
"e c #BD4F00",
"r c #89331B",
"t c #640000",
"y c #C8CBD2",
"u c #C57645",
"i c #EFD8CC",
"p c #B36555",
"a c #BBA6A9",
"s c #ECD1CC",
"d c #AD3100",
"f c #740000",
"g c #B44000",
"h c #6A0000",
"j c #B94500",
"k c #C57340",
"l c #AAAFB9",
"z c #910B00",
"x c #9C291A",
"c c #A8331A",
"v c #A82C00",
"b c #C25400",
"n c #AF6055",
"m c #893118",
"M c #B34500",
"N c #C97B48",
"B c #C35600",
"V c #A31E00",
"C c #590000",
"Z c #CCCFD5",
"A c #C77641",
"S c #C46F37",
"D c #C1672C",
"F c #BB5918",
"G c #B74E0A",
"H c #B95311",
"J c #BE5E20",
"K c #B54A04",
"L c #B44700",
"P c gray100",
/* pixels */
"71#;CCCCCCCCCCC;#17",
"a8r6uNNNNNNNNNu6r8a",
"3mkAAAAAAAAAAAAAkm3",
"&5SSSSSSSSSSSSSSS5&",
"t0DDDDDDDDDDDDDDD0t",
"hJJJJJJJJJJJJJJJJJh",
"@FFFFFFFFFFFFFFFFF@",
"fHHHHHHHHHHHHHHHHHf",
"4GGGGGGGGGGGGGGGGG4",
"+KKKKKKKKKKKKKKKKK+",
"$LLLLLLLLLLLLLLLLL$",
">LLL:iPPPPPPPi:LLL>",
"zMLLXsPPPPPPPsXLLMz",
"xXoog%=.....=%gooXx",
"nvew,*-     -*,wevn",
"2qdjbBBBBBBBBBbjdq2",
"O<pcVVVVVVVVVVVcp<O",
"lO9yZZZZZZZZZZZy9Ol"
};
