/* XPM */
static char *left_active[] = {
/* columns rows colors chars-per-pixel */
"6 6 5 1",
"  c #2B2E33",
". c #6C7280",
"X c #959EA7",
"o c #CCCFD5",
"O c #AAAFB9",
/* pixels */
" oOOX.",
" oOOX.",
" oOOX.",
" oOOX.",
" oOOX.",
" oOOX."
};
