/* XPM */
static char * left_inactive_xpm[] = {
"6 25 4 1",
" 	c #888D97",
".	c #C0C4CB",
"+	c #CBCFD5",
"@	c #9EA3AD",
" ...+@",
" ...+@",
" ...+@",
" ...+@",
" ...+@",
" ...+@",
" ...+@",
" ...+@",
" ...+@",
" ...+@",
" ...+@",
" ...+@",
" ...+@",
" ...+@",
" ...+@",
" ...+@",
" ...+@",
" ...+@",
" ...+@",
" ...+@",
" ...+@",
" ...+@",
" ...+@",
" ...+@",
" ...+@"};
