/* XPM */
static char * maximize_toggled_prelight_xpm[] = {
"19 18 108 2",
"  	c #D8DBDF",
". 	c #A2A9A7",
"+ 	c #566359",
"@ 	c #1A2C1B",
"# 	c #001300",
"$ 	c #A0A7A5",
"% 	c #2B3B2D",
"& 	c #54612F",
"* 	c #939C59",
"= 	c #B7BD74",
"- 	c #BBC178",
"; 	c #566459",
"> 	c #51602B",
", 	c #B3BA6D",
"' 	c #B7BE6F",
") 	c #1A311B",
"! 	c #899348",
"~ 	c #B0B762",
"{ 	c #041D00",
"] 	c #A3AB4F",
"^ 	c #A8B052",
"/ 	c #A6AE4E",
"( 	c #F5F6EC",
"_ 	c #FFFFFF",
": 	c #092200",
"< 	c #A0A942",
"[ 	c #99A234",
"} 	c #0C2500",
"| 	c #9BA438",
"1 	c #919B23",
"2 	c #E4E6CC",
"3 	c #6C7A00",
"4 	c #717D00",
"5 	c #112A00",
"6 	c #959F2D",
"7 	c #8B9619",
"8 	c #E5E7CC",
"9 	c #818D05",
"0 	c #899415",
"a 	c #889313",
"b 	c #F3F4E8",
"c 	c #929D28",
"d 	c #162F00",
"e 	c #889210",
"f 	c #7D8800",
"g 	c #899312",
"h 	c #1D3600",
"i 	c #8D971B",
"j 	c #838E08",
"k 	c #D8DBB7",
"l 	c #E6E8CE",
"m 	c #788400",
"n 	c #687600",
"o 	c #E0E3CC",
"p 	c #818C03",
"q 	c #223B00",
"r 	c #8A9516",
"s 	c #838F08",
"t 	c #758200",
"u 	c #717E00",
"v 	c #748100",
"w 	c #7F8B01",
"x 	c #788500",
"y 	c #E2E5CC",
"z 	c #7F8B00",
"A 	c #274000",
"B 	c #889312",
"C 	c #808C02",
"D 	c #7D8900",
"E 	c #E4E7CC",
"F 	c #E3E6CC",
"G 	c #2A4300",
"H 	c #879316",
"I 	c #8B9617",
"J 	c #848F08",
"K 	c #D9DDB7",
"L 	c #E6E8CD",
"M 	c #D7DBB7",
"N 	c #818D03",
"O 	c #43581A",
"P 	c #778616",
"Q 	c #939E1F",
"R 	c #8D9812",
"S 	c #7F8C00",
"T 	c #7C8900",
"U 	c #7E8B00",
"V 	c #6F7F54",
"W 	c #5B6E0F",
"X 	c #99A527",
"Y 	c #9CA728",
"Z 	c #9AA625",
"` 	c #96A21C",
" .	c #94A016",
"..	c #9DA697",
"+.	c #55692A",
"@.	c #607412",
"#.	c #869523",
"$.	c #A1AC2F",
"%.	c #A5B031",
"&.	c #B3B7C0",
"*.	c #A2AB9B",
"=.	c #768555",
"-.	c #4D631A",
";.	c #3B5400",
">.	c #AAAFB9",
",.	c #BEC2CA",
"'.	c #C8CBD2",
").	c #CCCFD5",
"  . + @ # # # # # # # # # # # @ + .   ",
"$ % & * = - - - - - - - - - = * & % $ ",
"; > , ' ' ' ' ' ' ' ' ' ' ' ' ' , > ; ",
") ! ~ ~ ~ ~ ~ ~ ~ ~ ~ ~ ~ ~ ~ ~ ~ ! ) ",
"{ ] ^ / ( _ _ _ _ _ _ ( / ^ ^ ^ ^ ] { ",
": < < [ _ _ _ _ _ _ _ _ [ < < < < < : ",
"} | | 1 2 3 4 4 4 4 3 2 1 | | | | | } ",
"5 6 6 7 8 9 0 0 0 0 9 8 a _ b c 6 6 5 ",
"d 1 1 e 8 e 1 1 1 1 e 8 f _ _ g 1 1 d ",
"h i i j k 8 l l l l 8 k m n o p i i h ",
"q r r s t u v v v v u t w x y z r r q ",
"A r r B s C D E D C C s B C F C r r A ",
"G H I I I I J K 8 L L L L E M N I H G ",
"O P Q Q Q Q R S T U U U U T S R Q P O ",
"V W X Y Y Y Z `  . . . . . .` Z X W V ",
"..+.@.#.$.%.%.%.%.%.%.%.%.%.$.#.@.+...",
"&.*.=.-.;.;.;.;.;.;.;.;.;.;.;.-.=.*.&.",
">.&.,.'.).).).).).).).).).).).'.,.&.>."};
