/* XPM */
static char * maximize_toggled_pressed_xpm[] = {
"19 18 104 2",
"  	c #D8DBDF",
". 	c #A2A4A7",
"+ 	c #565859",
"@ 	c #1A1B1B",
"# 	c #000000",
"$ 	c #A0A2A5",
"% 	c #2B2C2D",
"& 	c #333A1B",
"* 	c #5C6A34",
"= 	c #768645",
"- 	c #7B8B48",
"; 	c #565759",
"> 	c #313818",
", 	c #738440",
"' 	c #768741",
") 	c #536128",
"! 	c #6F8137",
"~ 	c #63752A",
"{ 	c #677A2C",
"] 	c #637727",
"^ 	c #EEF0E8",
"/ 	c #FFFFFF",
"( 	c #000100",
"_ 	c #5E7220",
": 	c #52670F",
"< 	c #000600",
"[ 	c #596E18",
"} 	c #485F00",
"| 	c #D2D8CC",
"1 	c #0C2A00",
"2 	c #133000",
"3 	c #000B00",
"4 	c #536911",
"5 	c #435B00",
"6 	c #D4DACC",
"7 	c #324C00",
"8 	c #3F5800",
"9 	c #3E5600",
"0 	c #ECEFE5",
"a 	c #4F650B",
"b 	c #001100",
"c 	c #4E640A",
"d 	c #3F5700",
"e 	c #D5DACC",
"f 	c #2D4700",
"g 	c #415800",
"h 	c #001800",
"i 	c #4A6004",
"j 	c #3B5200",
"k 	c #C1C9B7",
"l 	c #D8DCCC",
"m 	c #294300",
"n 	c #102D00",
"o 	c #CED4CC",
"p 	c #374F00",
"q 	c #011E00",
"r 	c #475E00",
"s 	c #3C5500",
"t 	c #264100",
"u 	c #203B00",
"v 	c #243F00",
"w 	c #365000",
"x 	c #2B4500",
"y 	c #D1D7CC",
"z 	c #364F00",
"A 	c #072400",
"B 	c #445B00",
"C 	c #375000",
"D 	c #D3D9CC",
"E 	c #0B2800",
"F 	c #455C00",
"G 	c #3B5400",
"H 	c #C3CAB7",
"I 	c #D5DBCC",
"J 	c #D7DCCC",
"K 	c #C0C8B7",
"L 	c #28421A",
"M 	c #4B6300",
"N 	c #415A00",
"O 	c #2A4700",
"P 	c #244200",
"Q 	c #294500",
"R 	c #5D6F54",
"S 	c #2C4700",
"T 	c #4F6700",
"U 	c #516900",
"V 	c #4E6700",
"W 	c #476000",
"X 	c #425C00",
"Y 	c #96A097",
"Z 	c #3E542A",
"` 	c #314B00",
" .	c #455E00",
"..	c #546B00",
"+.	c #566D00",
"@.	c #B3B7C0",
"#.	c #9BA49B",
"$.	c #647755",
"%.	c #334D1A",
"&.	c #1E3B00",
"*.	c #AAAFB9",
"=.	c #BEC2CA",
"-.	c #C8CBD2",
";.	c #CCCFD5",
"  . + @ # # # # # # # # # # # @ + .   ",
"$ % & * = - - - - - - - - - = * & % $ ",
"; > , ' ' ' ' ' ' ' ' ' ' ' ' ' , > ; ",
"@ ) ! ! ! ! ! ! ! ! ! ! ! ! ! ! ! ) @ ",
"# ~ { ] ^ / / / / / / ^ ] { { { { ~ # ",
"( _ _ : / / / / / / / / : _ _ _ _ _ ( ",
"< [ [ } | 1 2 2 2 2 1 | } [ [ [ [ [ < ",
"3 4 4 5 6 7 8 8 8 8 7 6 9 / 0 a 4 4 3 ",
"b c c d e d c c c c d e f / / g c c b ",
"h i i j k e l l l l e k m n o p i i h ",
"q r r s t u v v v v u t w x y z r r q ",
"A r r B s C 7 e 7 C C s B C D C r r A ",
"E F r r r r G H I J J J J 6 K C r F E ",
"L G M M M M N O P Q Q Q Q P O N M G L ",
"R S T U U U V W X X X X X X W V T S R ",
"Y Z `  ...+.+.+.+.+.+.+.+.+... .` Z Y ",
"@.#.$.%.&.&.&.&.&.&.&.&.&.&.&.%.$.#.@.",
"*.@.=.-.;.;.;.;.;.;.;.;.;.;.;.-.=.@.*."};
