/* XPM */
static char * maximize_toggled_active_xpm[] = {
"19 18 101 2",
"  	c #DBDDE1",
". 	c #A4A9A9",
"+ 	c #58615A",
"@ 	c #1B281B",
"# 	c #000F00",
"$ 	c #A0A6A6",
"% 	c #2C382D",
"& 	c #48562A",
"* 	c #7F8B50",
"= 	c #9FAB69",
"- 	c #A4B06E",
"; 	c #556358",
"> 	c #445627",
", 	c #9AA762",
"' 	c #9EAB64",
") 	c #1F301B",
"! 	c #73823E",
"~ 	c #95A256",
"{ 	c #0B1F00",
"] 	c #869642",
"^ 	c #8A9944",
"/ 	c #87973F",
"( 	c #F2F4EB",
"_ 	c #FFFFFF",
": 	c #122600",
"< 	c #809034",
"[ 	c #768825",
"} 	c #1A2E00",
"| 	c #798A28",
"1 	c #6B7E12",
"2 	c #DBDFCC",
"3 	c #3B5400",
"4 	c #405800",
"5 	c #223600",
"6 	c #72841D",
"7 	c #657808",
"8 	c #DCE0CC",
"9 	c #576C00",
"0 	c #627603",
"a 	c #617501",
"b 	c #F0F2E6",
"c 	c #6F8118",
"d 	c #2A3E00",
"e 	c #5E7300",
"f 	c #4F6600",
"g 	c #607400",
"h 	c #324600",
"i 	c #66790A",
"j 	c #596E00",
"k 	c #CAD1B7",
"l 	c #DEE2CC",
"m 	c #4A6100",
"n 	c #354E00",
"o 	c #D6DBCC",
"p 	c #566B00",
"q 	c #3A4E00",
"r 	c #627604",
"s 	c #465D00",
"t 	c #405900",
"u 	c #445C00",
"v 	c #546A00",
"w 	c #D8DDCC",
"x 	c #536900",
"y 	c #425600",
"z 	c #5F7400",
"A 	c #556A00",
"B 	c #506600",
"C 	c #DBE0CC",
"D 	c #DADECC",
"E 	c #4A5E00",
"F 	c #627605",
"G 	c #637705",
"H 	c #CCD2B7",
"I 	c #DDE1CC",
"J 	c #CAD0B7",
"K 	c #60721A",
"L 	c #647809",
"M 	c #6B7F0D",
"N 	c #627800",
"O 	c #506800",
"P 	c #4B6400",
"Q 	c #859255",
"R 	c #627608",
"S 	c #738715",
"T 	c #748816",
"U 	c #728612",
"V 	c #6C8108",
"W 	c #687E02",
"X 	c #A6AE97",
"Y 	c #73832B",
"Z 	c #687C0C",
"` 	c #7C901E",
" .	c #7D911F",
"..	c #B3B7C0",
"+.	c #ACB49C",
"@.	c #8C9A58",
"#.	c #6F811E",
"$.	c #AAAFB9",
"%.	c #BEC2CA",
"&.	c #C8CBD2",
"*.	c #CCCFD5",
"  . + @ # # # # # # # # # # # @ + .   ",
"$ % & * = - - - - - - - - - = * & % $ ",
"; > , ' ' ' ' ' ' ' ' ' ' ' ' ' , > ; ",
") ! ~ ~ ~ ~ ~ ~ ~ ~ ~ ~ ~ ~ ~ ~ ~ ! ) ",
"{ ] ^ / ( _ _ _ _ _ _ ( / ^ ^ ^ ^ ] { ",
": < < [ _ _ _ _ _ _ _ _ [ < < < < < : ",
"} | | 1 2 3 4 4 4 4 3 2 1 | | | | | } ",
"5 6 6 7 8 9 0 0 0 0 9 8 a _ b c 6 6 5 ",
"d 1 1 e 8 e 1 1 1 1 e 8 f _ _ g 1 1 d ",
"h i i j k 8 l l l l 8 k m n o p i i h ",
"q r r j s t u u u u t s v m w x r r q ",
"y r r z j A B C B A A j z A D A r r y ",
"E F G G G G j H 8 I I I I 2 J p G F E ",
"K L M M M M N O P f f f f P O N M L K ",
"Q R S T T T U V W W W W W W V U S R Q ",
"X Y Z T `  . . . . . . . . .` T Z Y X ",
"..+.@.#.r r r r r r r r r r r #.@.+...",
"$...%.&.*.*.*.*.*.*.*.*.*.*.*.&.%...$."};
