/* XPM */
static char *maximize_pressed[] = {
/* columns rows colors chars-per-pixel */
"19 18 82 1",
"  c #294500",
". c #5E7220",
"X c #536911",
"o c #D3D9CC",
"O c #3B5200",
"+ c #3F5700",
"@ c #D4DACC",
"# c #1B1B1C",
"$ c #596E18",
"% c #B3B7C0",
"& c #58595A",
"* c #415A00",
"= c #455E00",
"- c #324C00",
"; c #455C00",
": c #333A1B",
"> c #97A198",
", c #D5DACC",
"< c #D4D9CC",
"1 c #647755",
"2 c #768645",
"3 c #2C4700",
"4 c #000B00",
"5 c #9BA49B",
"6 c #A7A9AC",
"7 c #DFE1E5",
"8 c #485F00",
"9 c #4B6300",
"0 c #C8CBD2",
"q c #BEC2CA",
"w c #546B00",
"e c #63752A",
"r c #0C2A00",
"t c #28431A",
"y c #738440",
"u c #0B2800",
"i c #C0C8B7",
"p c #001800",
"a c #011E00",
"s c #313818",
"d c #001100",
"f c #4E6700",
"g c #EEF0E8",
"h c #5F7155",
"j c #334D1A",
"k c #A5A6A9",
"l c #314B00",
"z c #677A2C",
"x c #AAAFB9",
"c c #52670F",
"v c #4F6700",
"b c #000600",
"n c #D2D8CC",
"m c #595A5C",
"M c #435B00",
"N c #072400",
"B c #244200",
"V c #000100",
"C c #476000",
"Z c #2A4700",
"A c #536128",
"S c #3E552B",
"D c #2D2D2E",
"F c #3B5400",
"G c #5C6A34",
"H c #637727",
"J c #D7DCCC",
"K c #3F5800",
"L c #133000",
"P c #7B8B48",
"I c #425C00",
"U c #566D00",
"Y c #375000",
"T c #4E640A",
"R c #1E3B00",
"E c #4A6004",
"W c #CCCFD5",
"Q c #768741",
"! c #6F8137",
"~ c #475E00",
"^ c black",
"/ c gray100",
/* pixels */
"76m#^^^^^^^^^^^#m67",
"kD:G2PPPPPPPPP2G:Dk",
"&syQQQQQQQQQQQQQys&",
"#A!!!!!!!!!!!!!!!A#",
"^ezHg/////////gHze^",
"V..c///////////c..V",
"b$$8nrLLLLLLLrn8$$b",
"4XXM@-KKKKKKK-@MXX4",
"dTT+,+TTTTTTT+,+TTd",
"pEEO<OEEEEEEEO<OEEp",
"a~~YoY~~~~~~~YoY~~a",
"N~~YoY~~~~~~~YoY~~N",
"u;~Yi@JJJJJJJ@iY~;u",
"tF9*ZB       BZ*9Ft",
"h3vfCIIIIIIIIICfv3h",
">Sl=wUUUUUUUUUw=lS>",
"%51jRRRRRRRRRRRj15%",
"x%q0WWWWWWWWWWW0q%x"
};
