/* XPM */
static char * maximize_toggled_inactive_xpm[] = {
"19 18 92 2",
"  	c #ADB1BA",
". 	c #A4A8B1",
"+ 	c #979BA5",
"@ 	c #8D919B",
"# 	c #888D97",
"$ 	c #A4A9B2",
"% 	c #90949E",
"& 	c #ADB0B8",
"* 	c #C8CBD1",
"= 	c #D8DADE",
"- 	c #DBDDE0",
"; 	c #969BA5",
"> 	c #AAAEB5",
", 	c #D6D8DD",
"' 	c #D7D9DE",
") 	c #898E98",
"! 	c #C1C3CA",
"~ 	c #D2D5D9",
"{ 	c #818690",
"] 	c #CBCDD3",
"^ 	c #CDCFD5",
"/ 	c #CCCED4",
"( 	c #72747A",
"_ 	c #686B71",
": 	c #7F848E",
"< 	c #C7CAD0",
"[ 	c #C6C9CF",
"} 	c #66696F",
"| 	c #7C818B",
"1 	c #C3C6CD",
"2 	c #C1C4CC",
"3 	c #777A81",
"4 	c #BBBEC6",
"5 	c #BBBFC6",
"6 	c #787D87",
"7 	c #BFC3CA",
"8 	c #BDC1C9",
"9 	c #76797F",
"0 	c #BDC1C8",
"a 	c #BCC1C8",
"b 	c #64686E",
"c 	c #6D7177",
"d 	c #BEC2C9",
"e 	c #757A84",
"f 	c #BCBFC7",
"g 	c #BABDC6",
"h 	c #74787E",
"i 	c #B8BBC3",
"j 	c #64676D",
"k 	c #727781",
"l 	c #B9BDC4",
"m 	c #B7BBC3",
"n 	c #797D84",
"o 	c #73777E",
"p 	c #B5B9C0",
"q 	c #B2B6BE",
"r 	c #73767D",
"s 	c #B7BBC2",
"t 	c #6E737D",
"u 	c #B6BAC2",
"v 	c #B3B7BF",
"w 	c #B2B7BF",
"x 	c #B5B9C2",
"y 	c #B3B7C0",
"z 	c #72757D",
"A 	c #B5B9C1",
"B 	c #6B707A",
"C 	c #B6BAC3",
"D 	c #B4B8C1",
"E 	c #72767D",
"F 	c #686D77",
"G 	c #B4B8C0",
"H 	c #797C83",
"I 	c #6F747E",
"J 	c #A1A5AE",
"K 	c #B8BCC4",
"L 	c #B3B8C0",
"M 	c #868A94",
"N 	c #848992",
"O 	c #B9BDC5",
"P 	c #BBBFC7",
"Q 	c #BABEC7",
"R 	c #BABEC6",
"S 	c #B9BDC6",
"T 	c #A4A9B1",
"U 	c #737881",
"V 	c #848892",
"W 	c #A3A8B0",
"X 	c #BCC0C7",
"Y 	c #A5A9B1",
"Z 	c #6A6F79",
"` 	c #5F646E",
"  . + @ # # # # # # # # # # # @ + .   ",
"$ % & * = - - - - - - - - - = * & % $ ",
"; > , ' ' ' ' ' ' ' ' ' ' ' ' ' , > ; ",
") ! ~ ~ ~ ~ ~ ~ ~ ~ ~ ~ ~ ~ ~ ~ ~ ! ) ",
"{ ] ^ / ( _ _ _ _ _ _ ( / ^ ^ ^ ^ ] { ",
": < < [ } } } } } } } } [ < < < < < : ",
"| 1 1 2 3 4 5 5 5 5 4 3 2 1 1 1 1 1 | ",
"6 7 7 8 9 5 0 0 0 0 5 9 a b c d 7 7 6 ",
"e f f g h g f f f f g h i j j 4 f f e ",
"k l l m n o o o o o o n p q r s l l k ",
"t m m u v w v v v v w v x y z A m m t ",
"B m m C u x D r D x x u C x E x m m B ",
"F G m m m m u n r r r r r r H x m G F ",
"I J K K K K m G L G G G G L G m K J I ",
"M N O P P P Q R S S S S S S R Q O N M ",
"T U V W S 8 8 8 8 8 8 8 8 8 S W V U T ",
"X Y N Z ` ` ` ` ` ` ` ` ` ` ` Z N Y X ",
"0 0 0 0 0 0 0 0 0 0 0 0 0 0 0 0 0 0 0 "};
