/* XPM */
static char * maximize_toggled_pressed_xpm[] = {
"19 18 105 2",
"  	c #DBDDE1",
". 	c #A4A6A9",
"+ 	c #58585A",
"@ 	c #1B1B1B",
"# 	c #000000",
"$ 	c #A0A2A6",
"% 	c #2C2C2D",
"& 	c #333A1B",
"* 	c #5C6A34",
"= 	c #768645",
"- 	c #7B8B48",
"; 	c #555658",
"> 	c #313818",
", 	c #738440",
"' 	c #768741",
") 	c #1A1B1B",
"! 	c #536128",
"~ 	c #6F8137",
"{ 	c #63752A",
"] 	c #677A2C",
"^ 	c #637727",
"/ 	c #EEF0E8",
"( 	c #FFFFFF",
"_ 	c #000100",
": 	c #5E7220",
"< 	c #52670F",
"[ 	c #000600",
"} 	c #596E18",
"| 	c #485F00",
"1 	c #D2D8CC",
"2 	c #0C2A00",
"3 	c #133000",
"4 	c #000B00",
"5 	c #536911",
"6 	c #435B00",
"7 	c #D4DACC",
"8 	c #324C00",
"9 	c #3F5800",
"0 	c #3E5600",
"a 	c #ECEFE5",
"b 	c #4F650B",
"c 	c #001100",
"d 	c #4E640A",
"e 	c #3F5700",
"f 	c #D5DACC",
"g 	c #2D4700",
"h 	c #415800",
"i 	c #001800",
"j 	c #4A6004",
"k 	c #3B5200",
"l 	c #C1C9B7",
"m 	c #D8DCCC",
"n 	c #294300",
"o 	c #102D00",
"p 	c #CED4CC",
"q 	c #374F00",
"r 	c #011E00",
"s 	c #475E00",
"t 	c #3C5500",
"u 	c #264100",
"v 	c #203B00",
"w 	c #243F00",
"x 	c #365000",
"y 	c #2B4500",
"z 	c #D1D7CC",
"A 	c #364F00",
"B 	c #072400",
"C 	c #445B00",
"D 	c #375000",
"E 	c #D3D9CC",
"F 	c #0B2800",
"G 	c #455C00",
"H 	c #3B5400",
"I 	c #C3CAB7",
"J 	c #D5DBCC",
"K 	c #D7DCCC",
"L 	c #C0C8B7",
"M 	c #28421A",
"N 	c #4B6300",
"O 	c #415A00",
"P 	c #2A4700",
"Q 	c #244200",
"R 	c #294500",
"S 	c #5D7055",
"T 	c #2C4700",
"U 	c #4F6700",
"V 	c #516900",
"W 	c #4E6700",
"X 	c #476000",
"Y 	c #425C00",
"Z 	c #959F97",
"` 	c #3E552B",
" .	c #314B00",
"..	c #455E00",
"+.	c #546B00",
"@.	c #566D00",
"#.	c #B3B7C0",
"$.	c #9BA59B",
"%.	c #647755",
"&.	c #334D1A",
"*.	c #1E3B00",
"=.	c #AAAFB9",
"-.	c #BEC2CA",
";.	c #C8CBD2",
">.	c #CCCFD5",
"  . + @ # # # # # # # # # # # @ + .   ",
"$ % & * = - - - - - - - - - = * & % $ ",
"; > , ' ' ' ' ' ' ' ' ' ' ' ' ' , > ; ",
") ! ~ ~ ~ ~ ~ ~ ~ ~ ~ ~ ~ ~ ~ ~ ~ ! ) ",
"# { ] ^ / ( ( ( ( ( ( / ^ ] ] ] ] { # ",
"_ : : < ( ( ( ( ( ( ( ( < : : : : : _ ",
"[ } } | 1 2 3 3 3 3 2 1 | } } } } } [ ",
"4 5 5 6 7 8 9 9 9 9 8 7 0 ( a b 5 5 4 ",
"c d d e f e d d d d e f g ( ( h d d c ",
"i j j k l f m m m m f l n o p q j j i ",
"r s s t u v w w w w v u x y z A s s r ",
"B s s C t D 8 f 8 D D t C D E D s s B ",
"F G s s s s H I J K K K K 7 L D s G F ",
"M H N N N N O P Q R R R R Q P O N H M ",
"S T U V V V W X Y Y Y Y Y Y X W U T S ",
"Z `  ...+.@.@.@.@.@.@.@.@.@.+... .` Z ",
"#.$.%.&.*.*.*.*.*.*.*.*.*.*.*.&.%.$.#.",
"=.#.-.;.>.>.>.>.>.>.>.>.>.>.>.;.-.#.=."};
