/* XPM */
static char * maximize_inactive_xpm[] = {
"19 18 74 1",
" 	c #ADB1BA",
".	c #A4A8B1",
"+	c #979CA5",
"@	c #8C929C",
"#	c #888D97",
"$	c #A5A9B2",
"%	c #90959E",
"&	c #ADB0B8",
"*	c #C8CBD1",
"=	c #D8DADE",
"-	c #DBDDE0",
";	c #969BA4",
">	c #AAAEB5",
",	c #D6D8DD",
"'	c #D7D9DE",
")	c #8A8E98",
"!	c #C1C3CA",
"~	c #D2D5D9",
"{	c #818690",
"]	c #CBCDD3",
"^	c #CDCFD5",
"/	c #CCCED4",
"(	c #72747A",
"_	c #686B71",
":	c #7F848E",
"<	c #C7CAD0",
"[	c #C6C9CF",
"}	c #66696F",
"|	c #7C818B",
"1	c #C3C6CD",
"2	c #C1C4CC",
"3	c #777A81",
"4	c #BBBEC6",
"5	c #BBBFC6",
"6	c #787D87",
"7	c #BFC3CA",
"8	c #BDC1C9",
"9	c #76797F",
"0	c #BDC1C8",
"a	c #757A84",
"b	c #BCBFC7",
"c	c #BABDC6",
"d	c #74787E",
"e	c #727781",
"f	c #B9BDC4",
"g	c #B7BBC3",
"h	c #73777D",
"i	c #6E737D",
"j	c #B5B9C2",
"k	c #72767D",
"l	c #6B707A",
"m	c #686D77",
"n	c #B4B8C0",
"o	c #797C83",
"p	c #73767D",
"q	c #70757E",
"r	c #A1A5AE",
"s	c #B8BCC4",
"t	c #B3B8C0",
"u	c #888C95",
"v	c #848992",
"w	c #B9BDC5",
"x	c #BABEC7",
"y	c #BABEC6",
"z	c #B9BDC6",
"A	c #A8ADB4",
"B	c #747983",
"C	c #848892",
"D	c #A3A8B0",
"E	c #C0C4CB",
"F	c #A8ACB4",
"G	c #868A93",
"H	c #6A707A",
"I	c #5F646E",
" .+@###########@+. ",
"$%&*=---------=*&%$",
";>,''''''''''''',>;",
")!~~~~~~~~~~~~~~~!)",
"{]^/(_________(/^]{",
":<<[}}}}}}}}}}}[<<:",
"|11234555555543211|",
"6778950000000598776",
"abbcdcbbbbbbbcdcbba",
"effghgfffffffghgffe",
"iggjkjgggggggjkjggi",
"lggjkjgggggggjkjggl",
"mngjopppppppppojgnm",
"qrsgntnnnnnnntngsrq",
"uvwxyzzzzzzzzzyxwvu",
"ABCDz888888888zDCBA",
"EFGHIIIIIIIIIIIHGFE",
"EEEEEEEEEEEEEEEEEEE"};
