/* XPM */
static char * menu_inactive_xpm[] = {
"19 18 74 1",
" 	c #ADB1BA",
".	c #A4A8B1",
"+	c #979CA5",
"@	c #8C929C",
"#	c #888D97",
"$	c #A5A9B2",
"%	c #90959E",
"&	c #ADB0B8",
"*	c #C8CBD1",
"=	c #D8DADE",
"-	c #DBDDE0",
";	c #969BA4",
">	c #AAAEB5",
",	c #D6D8DD",
"'	c #D7D9DE",
")	c #8A8E98",
"!	c #C1C3CA",
"~	c #D2D5D9",
"{	c #818690",
"]	c #CBCDD3",
"^	c #CDCFD5",
"/	c #7F848E",
"(	c #C7CAD0",
"_	c #7C818B",
":	c #C3C6CD",
"<	c #C2C5CC",
"[	c #7C7F86",
"}	c #65686F",
"|	c #787D87",
"1	c #BFC3CA",
"2	c #BEC2C9",
"3	c #B5B9C0",
"4	c #676A70",
"5	c #64686E",
"6	c #757A84",
"7	c #BCBFC7",
"8	c #BBBEC6",
"9	c #B9BCC4",
"0	c #94979F",
"a	c #64676D",
"b	c #727781",
"c	c #B9BDC4",
"d	c #B8BCC3",
"e	c #B4B8C0",
"f	c #73767D",
"g	c #63666C",
"h	c #6E737D",
"i	c #B7BBC3",
"j	c #B5B9C1",
"k	c #A8ADB6",
"l	c #64676E",
"m	c #6B707A",
"n	c #B6BAC2",
"o	c #B3B7C0",
"p	c #A9ADB6",
"q	c #686D77",
"r	c #70757E",
"s	c #A1A5AE",
"t	c #B8BCC4",
"u	c #888C95",
"v	c #848992",
"w	c #B9BDC5",
"x	c #BBBFC7",
"y	c #A8ADB4",
"z	c #747983",
"A	c #848892",
"B	c #A3A8B0",
"C	c #B9BDC6",
"D	c #BDC1C9",
"E	c #C0C4CB",
"F	c #A8ACB4",
"G	c #868A93",
"H	c #6A707A",
"I	c #5F646E",
" .+@###########@+. ",
"$%&*=---------=*&%$",
";>,''''''''''''',>;",
")!~~~~~~~~~~~~~~~!)",
"{]^^^^^^^^^^^^^^^]{",
"/(((((((((((((((((/",
"_::::<[}}}}}[<::::_",
"|11112345554321111|",
"67777890aaa09877776",
"bcccccdefgfedcccccb",
"hiiiiiijklkjiiiiiih",
"miiiiiinoponiiiiiim",
"qeiiiiiinnniiiiiieq",
"rstttttttttttttttsr",
"uvwxxxxxxxxxxxxxwvu",
"yzABCDDDDDDDDDCBAzy",
"EFGHIIIIIIIIIIIHGFE",
"EEEEEEEEEEEEEEEEEEE"};
