/* XPM */
static char * right_active_xpm[] = {
"6 25 5 1",
" 	c #6C7280",
".	c #959EA7",
"+	c #AAAFB9",
"@	c #CCCFD5",
"#	c #2B2E33",
" .++@#",
" .++@#",
" .++@#",
" .++@#",
" .++@#",
" .++@#",
" .++@#",
" .++@#",
" .++@#",
" .++@#",
" .++@#",
" .++@#",
" .++@#",
" .++@#",
" .++@#",
" .++@#",
" .++@#",
" .++@#",
" .++@#",
" .++@#",
" .++@#",
" .++@#",
" .++@#",
" .++@#",
" .++@#"};
