/* XPM */
static char * right_inactive_xpm[] = {
"6 25 4 1",
" 	c #9EA3AD",
".	c #CBCFD5",
"+	c #C0C4CB",
"@	c #888D97",
" .+++@",
" .+++@",
" .+++@",
" .+++@",
" .+++@",
" .+++@",
" .+++@",
" .+++@",
" .+++@",
" .+++@",
" .+++@",
" .+++@",
" .+++@",
" .+++@",
" .+++@",
" .+++@",
" .+++@",
" .+++@",
" .+++@",
" .+++@",
" .+++@",
" .+++@",
" .+++@",
" .+++@",
" .+++@"};
