/* XPM */
static char *shade_toggled_inactive[] = {
/* columns rows colors chars-per-pixel */
"19 18 74 1",
"  c #595B5F",
". c #BABEC6",
"X c #8D9096",
"o c #AFB3BB",
"O c #B9BDC5",
"+ c #8D9197",
"@ c #969BA4",
"# c #6A707A",
"$ c #70757E",
"% c #B0B5BD",
"& c #B0B4BC",
"* c #727781",
"= c #A8ADB4",
"- c #868A93",
"; c #A6AAB1",
": c #787D87",
"> c #D8DADE",
", c #8A8E98",
"< c #7F848E",
"1 c #A2A5AA",
"2 c #A4A8B1",
"3 c #ADB1BA",
"4 c #818690",
"5 c #9C9FA5",
"6 c #8C929C",
"7 c #C8CBD1",
"8 c #AAAEB5",
"9 c #90959E",
"0 c #6E737D",
"q c #CBCDD3",
"w c #848892",
"e c #848992",
"r c #A8ACB4",
"t c #747983",
"y c #A3A8B0",
"u c #B1B3B8",
"i c #C9CCD0",
"p c #B4B8C0",
"a c #7B7E84",
"s c #D6D8DD",
"d c #A1A5AE",
"f c #C1C3CA",
"g c #A5A9B2",
"h c #999CA2",
"j c #6B707A",
"k c #9FA2A7",
"l c #888C95",
"z c #979CA5",
"x c #B8BDC5",
"c c #7C818B",
"v c #686D77",
"b c #ADB0B8",
"n c #BBBFC7",
"m c #757A84",
"M c #B9BDC6",
"N c #B1B5BC",
"B c #A7ACB3",
"V c #73767B",
"C c #B9BDC4",
"Z c #BDC1C9",
"A c #DBDDE0",
"S c #CDCFD5",
"D c #D2D5D9",
"F c #B8BCC4",
"G c #5F646E",
"H c #888D97",
"J c #BCBFC7",
"K c #BFC3CA",
"L c #C7CAD0",
"P c #C3C6CD",
"I c #D7D9DE",
"U c #C0C4CB",
"Y c #B7BBC3",
"T c gray56",
/* pixels */
"32z6HHHHHHHHHHH6z23",
"g9b7>AAAAAAAAA>7b9g",
"@8sIIIIIIIIIIIIIs8@",
",fDDDDDiTTTiDDDDDf,",
"4qSSSSSuTTTuSSSSSq4",
"<LLLLLL1TTT1LLLLLL<",
"cPPPPPPkTTTkPPPPPPc",
":KKKKKK5TTT5KKKKKK:",
"mJJJJJJhTTThJJJJJJm",
"*CCCCNTTTTTTTNCCCC*",
"0YYYY;aTTTTTa;YYYY0",
"jYYYYoX TTT XoYYYYj",
"vpYYYYoX T XoYYYYpv",
"$dFFFFF&+V+&FFFFFd$",
"leOn..Ox%B%xO..nOel",
"=twyMZZZZZZZZZMywt=",
"Ur-#GGGGGGGGGGG#-rU",
"UUUUUUUUUUUUUUUUUUU"
};
