/* XPM */
static char *shade_active[] = {
/* columns rows colors chars-per-pixel */
"19 18 77 1",
"  c #11B4CC",
". c #10B3CB",
"X c #B3B7C0",
"o c #008397",
"O c #117483",
"+ c #008396",
"@ c #19A7BC",
"# c #008599",
"$ c #006473",
"% c #00505D",
"& c #00A2BA",
"* c #A0B2B5",
"= c #03A3BB",
"- c #0B4C55",
"; c #048699",
": c #006F80",
"> c #004652",
", c #02A1B9",
"< c #C8CBD2",
"1 c #097181",
"2 c #96B7BC",
"3 c #48A8B6",
"4 c #4EB8C7",
"5 c #00798B",
"6 c #22A7BC",
"7 c #005A68",
"8 c #00343C",
"9 c #65C5D3",
"0 c #35A1B1",
"q c #16535C",
"w c #0794A8",
"e c #1A7583",
"r c #056371",
"t c #1296AA",
"y c #157482",
"u c #27A6B9",
"i c #19BCD4",
"p c #A3B4B7",
"a c #0E9AAF",
"s c #AAAFB9",
"d c #3DB1C2",
"f c #5EC2D1",
"g c #53B3C1",
"h c #9BBDC3",
"j c #07A8C0",
"k c #003D46",
"l c #2EABBE",
"z c #179CB1",
"x c #4A777E",
"c c #0DA1B7",
"v c #0C91A5",
"b c #BEC2CA",
"n c #51ACBA",
"m c #3DB6C8",
"M c #10ACC3",
"N c #DFE1E5",
"B c #48787F",
"V c #02454F",
"C c #034D58",
"Z c #044B56",
"A c #0E93A6",
"S c #19ACC2",
"D c #0EA8BF",
"F c #24AFC4",
"G c #1ABDD5",
"H c #6BC9D7",
"J c #00A3BB",
"K c #40B9CB",
"L c #08ABC3",
"P c #30B3C7",
"I c #002329",
"U c #CCCFD5",
"Y c #05A4BC",
"T c #52C0D0",
"R c #61C6D5",
"E c #00A1B9",
"W c gray100",
/* pixels */
"NpxVIIIIIIIIIIIVxpN",
"*qe39HHHHHHHHH93eq*",
"ByfRRRRRRRRRRRRRfyB",
"C0TTTTTT4W4TTTTTT0C",
"8mKKKKKdWWWdKKKKKm8",
"kPPPPPlWWWWWlPPPPPk",
">FFFF6WWWWWWW6FFFF>",
"%SSSSzO-WWW-OzSSSS%",
"7DDDDcv1WWW1vcDDDD7",
"$YYYYYY;WWW;YYYYYY$",
":EEEEEEoWWWoEEEEEE:",
"5EEEEEEoWWWoEEEEEE5",
"+&JJJJJ#WWW#JJJJJ&+",
"t=LLLLLwrZrwLLLLL=t",
"n,. . .MaAaM..  .,n",
"2uj iGGGGGGGGGi ju2",
"Xhg@EEEEEEEEEEE@ghX",
"sXb<UUUUUUUUUUU<bXs"
};
