/* XPM */
static char *stick_toggled_active[] = {
/* columns rows colors chars-per-pixel */
"19 18 122 2",
"   c #C64BF4",
".  c #CE69F4",
"X  c #CA5CF3",
"o  c #C03BF2",
"O  c #C854F4",
"+  c #C342F3",
"@  c #CE4CFF",
"#  c #C840FB",
"$  c #C038F3",
"%  c #B3B7C0",
"&  c #CD4AFF",
"*  c #8539A2",
"=  c #B359D5",
"-  c #8727AB",
";  c #9539B8",
":  c #B5A6BB",
">  c #511966",
",  c #D3B2DF",
"<  c #A12FCC",
"1  c #912EB6",
"2  c #C86CEA",
"3  c #CD69F3",
"4  c #F1E6F5",
"5  c #BE8FD0",
"6  c #C8CBD2",
"7  c #BD69DD",
"8  c #A86CBF",
"9  c #A839D2",
"0  c #D686F4",
"q  c #BDA2C8",
"w  c #9442B4",
"e  c #BE3DEE",
"r  c #80588F",
"t  c #A873BB",
"y  c #8C1EB5",
"u  c #CB66F1",
"i  c #8435A2",
"p  c #C3A6CE",
"a  c #BE37F1",
"s  c #A027CE",
"d  c #D6B8E1",
"f  c #BC70D9",
"g  c #D4AEE3",
"h  c #BC52E4",
"j  c #580776",
"k  c #5A1C71",
"l  c #CF79EE",
"z  c #6C108F",
"x  c #9F3CC4",
"c  c #620C83",
"v  c #4F046C",
"b  c #D9B0E8",
"n  c #77159C",
"m  c #D29FE5",
"M  c #D3B5DF",
"N  c #B368CF",
"B  c #AF32DD",
"V  c #C03AF2",
"C  c #A635D1",
"Z  c #C740FA",
"A  c #FCF9FC",
"S  c #C95CF2",
"D  c #9A43BA",
"F  c #953FB6",
"G  c #852AA6",
"H  c #B545DF",
"J  c #C474E2",
"K  c #A332CD",
"L  c #A132CB",
"P  c #7E598D",
"I  c #D380F3",
"U  c #B7A9BD",
"Y  c #C748F7",
"T  c #8119A8",
"R  c #AAAFB9",
"E  c #DFE1E5",
"W  c #DCADEE",
"Q  c #B969D7",
"!  c #C43DF6",
"~  c #E1CEE9",
"^  c #8B3EA8",
"/  c #9723C2",
"(  c #C251EC",
")  c #E6CFEE",
"_  c #AE83BF",
"`  c #BEC2CA",
"'  c #D158FF",
"]  c #A836D3",
"[  c #BC45E9",
"{  c #BD8ECE",
"}  c #E1C0ED",
"|  c #E6D2EE",
" . c #A52FD1",
".. c #AD3FD7",
"X. c #C049EC",
"o. c #B140DC",
"O. c #5E2B71",
"+. c #BD38EF",
"@. c #EEDAF5",
"#. c #CF94E6",
"$. c #A739D1",
"%. c #BA36EB",
"&. c #CD4CFE",
"*. c #CC4AFE",
"=. c #6F208C",
"-. c #F4E8F9",
";. c #A637CF",
":. c #FDFAFE",
">. c #E9E3EC",
",. c #FCF9FD",
"<. c #8129A1",
"1. c #9B41BD",
"2. c #8743A0",
"3. c #AD40D6",
"4. c gray100",
"5. c #D98BF7",
"6. c #D159FF",
"7. c #39004E",
"8. c #CCCFD5",
"9. c #D783F7",
"0. c #D478F6",
"q. c #BF37F2",
/* pixels */
"E U P > 7.7.7.7.7.7.7.7.7.7.7.> P U E ",
": O.* Q 0 5.5.5.5.5.5.5.5.5.0 Q * O.: ",
"r i I 9.9.9.9.9.9.9.9.9.9.9.9.9.I i r ",
"k = 0.0.0.0.0.0.0.0.0.0.0.0.0.0.0.= k ",
"v u . . . 3 l W @.:.@.W l 3 . . . u v ",
"j X X X S 2 } d t 2.t d } 2 S X X X j ",
"c O O O ( m M ^ F 1.F ^ M m ( O O O c ",
"z       H | 8 x #.-.#.x 8 | H       z ",
"n + + + 9 A ; $.4 4.4 $.; A 9 + + + n ",
"T o o o L ~ N K _ >._ K N ~ L o o o T ",
"y q.q.q. .{ g C - =.- C g {  .q.q.q.y ",
"/ q.q.q.B D , b 7 ;.7 b , D B q.q.q./ ",
"s a $ $ %.< w 5 ) ,.) 5 w < %.$ $ a s ",
"..V # # Z e ] 1 G <.G 1 ] e Z # # V ..",
"f +.& @ & &.Y [ o.3.o.[ Y *.@ @ & +.f ",
"q h ! @ ' 6.6.6.6.6.6.6.6.6.' @ ! h q ",
"% p J X.q.q.q.q.q.q.q.q.q.q.q.X.J p % ",
"R % ` 6 8.8.8.8.8.8.8.8.8.8.8.6 ` % R "
};
