/* XPM */
static char *stick_toggled_pressed[] = {
/* columns rows colors chars-per-pixel */
"19 18 116 2",
"   c #AE54AE",
".  c #AE42AE",
"X  c #AE38AE",
"o  c #AE3BAE",
"O  c #AE4BAE",
"+  c #AE5CAE",
"@  c #AE4CAE",
"#  c #AEA6AE",
"$  c #AE40AE",
"%  c #B3B7C0",
"&  c #9F459F",
"*  c #AE4AAE",
"=  c #AD3FAE",
"-  c #962F96",
";  c #8A428A",
":  c #AE3DAE",
">  c #AE49AE",
",  c #AE74AE",
"<  c #80588F",
"1  c #7E2E7E",
"2  c #FBF9FB",
"3  c #C79FC7",
"4  c #BEC2CA",
"5  c #9A739A",
"6  c #873987",
"7  c #AD69AD",
"8  c #9F329F",
"9  c #5A1C71",
"0  c #8C1EAE",
"q  c #8119A8",
"w  c #923292",
"e  c #D4B0D4",
"r  c #B369B3",
"t  c #AE58AE",
"y  c #A948A9",
"u  c #A53DA5",
"i  c #CDADCD",
"p  c #AE66AE",
"a  c #DFE1E5",
"s  c #A983A9",
"d  c #A868A8",
"f  c #7E598D",
"g  c #AEA9AE",
"h  c #923692",
"j  c #AE80AE",
"k  c #C8CBD2",
"l  c #D0AED0",
"z  c #9723AE",
"x  c #5E2B71",
"c  c #A936A9",
"v  c #7B277B",
"b  c #580776",
"n  c #4F046C",
"m  c #AE52AE",
"M  c #953995",
"N  c #B78EB7",
"B  c #E3CFE3",
"V  c #620C83",
"C  c #963996",
"Z  c #732A73",
"A  c #DFCEDF",
"S  c #AE3AAE",
"D  c #8C3C8C",
"F  c #823F82",
"G  c #922F92",
"H  c #AEA2AE",
"J  c #983598",
"K  c #8E438E",
"L  c #C494C4",
"P  c #AE86AE",
"I  c #CDB5CD",
"U  c #AE70AE",
"Y  c #D9C0D9",
"T  c #9C6C9C",
"R  c #CFB2CF",
"E  c #A951A9",
"W  c #AD40AD",
"Q  c #CEB8CE",
"!  c #933293",
"~  c #E2D2E2",
"^  c #77159C",
"/  c #B479B4",
"(  c #AAAFB9",
")  c #7A3E7A",
"_  c #B88FB8",
"`  c #E8DAE8",
"'  c #B06CB0",
"]  c #EFE6EF",
"[  c #AD5CAD",
"{  c #8435A2",
"}  c #964096",
"|  c #8539A2",
" . c #6C108F",
".. c #511966",
"X. c #A027AE",
"o. c #F2E8F2",
"O. c gray100",
"+. c #652065",
"@. c #AD4AAD",
"#. c #924092",
"$. c #973797",
"%. c #AD4CAD",
"&. c #FCF9FC",
"*. c #874187",
"=. c #702970",
"-. c #E9E3E9",
";. c #764376",
":. c #FCFAFC",
">. c #AE69AE",
",. c #AE8BAE",
"<. c #39004E",
"1. c #CCCFD5",
"2. c #AE59AE",
"3. c #AE83AE",
"4. c #AE78AE",
"5. c #AE37AE",
/* pixels */
"a g f ..<.<.<.<.<.<.<.<.<.<.<...f g a ",
"# x | >.P ,.,.,.,.,.,.,.,.,.P >.| x # ",
"< { j 3.3.3.3.3.3.3.3.3.3.3.3.3.j { < ",
"9 2.4.4.4.4.4.4.4.4.4.4.4.4.4.4.4.2.9 ",
"n p >.>.>.7 / i ` :.` i / 7 >.>.>.p n ",
"b + + + [ ' Y Q 5 ;.5 Q Y ' [ + + + b ",
"V       E 3 I ) F *.F ) I 3 E       V ",
" .O O O & ~ T D L o.L D T ~ & O O O  .",
"^ . . . C 2 6 M ] O.] M 6 2 C . . . ^ ",
"q o o o w A d ! s -.s ! d A w o o o q ",
"0 5.5.5.- N l J v +.v J l N - 5.5.5.0 ",
"z 5.5.5.8 K R e r $.r e R K 8 5.5.5.z ",
"X.5.X X c G ; _ B &.B _ ; G c X X 5.X.",
"= S $ $ W u h 1 Z =.Z 1 h u W $ $ S = ",
"U X * @ * %.y & } #.} & y @.@ @ * X U ",
"H m : @ t 2.2.2.2.2.2.2.2.2.t @ : m H ",
"% # , > 5.5.5.5.5.5.5.5.5.5.5.> , # % ",
"( % 4 k 1.1.1.1.1.1.1.1.1.1.1.k 4 % ( "
};
