/* XPM */
static char *stick_inactive[] = {
/* columns rows colors chars-per-pixel */
"19 18 105 2",
"   c #CDCFD5",
".  c #C3C6CD",
"X  c #BFC3CA",
"o  c #C7CAD0",
"O  c #929292",
"+  c #B8BCC4",
"@  c #8B8E94",
"#  c #A3A3A4",
"$  c #CBCDD3",
"%  c gray63",
"&  c #B0B3BA",
"*  c #B4B8C0",
"=  c #A4A8B1",
"-  c #BBBFC7",
";  c #A8ADB4",
":  c #B9BDC5",
">  c #D8DADE",
",  c #989BA2",
"<  c #757A84",
"1  c #727781",
"2  c #BABBC0",
"3  c #969BA4",
"4  c #979CA5",
"5  c #848992",
"6  c #6E737D",
"7  c #AFB3BA",
"8  c #ABAEB5",
"9  c #7C818B",
"0  c #808287",
"q  c #7F848E",
"w  c #9FA0A1",
"e  c #B5B5B7",
"r  c #888C95",
"t  c #A1A1A3",
"y  c #919294",
"u  c #989BA1",
"i  c #A0A1A4",
"p  c #C5C8CE",
"a  c #A9ADB4",
"s  c #969799",
"d  c #696C70",
"f  c #C1C3CA",
"g  c #8A8E98",
"h  c #C2C4C8",
"j  c #A5A5A6",
"k  c #ACADAE",
"l  c #8E9197",
"z  c #A1A4AB",
"x  c #C8CBD1",
"c  c #9C9FA5",
"v  c #B1B4B7",
"b  c #AAAEB5",
"n  c #ADB0B8",
"m  c #848892",
"M  c #6F7175",
"N  c #A9AAAA",
"B  c #ADB1B8",
"V  c #BABEC6",
"C  c #868A93",
"Z  c #838589",
"A  c #A8ACB4",
"S  c #A8ABB1",
"D  c #6A707A",
"F  c #D6D8DD",
"G  c #A3A8B0",
"H  c #7D7E81",
"J  c #90959E",
"K  c #70757E",
"L  c #707277",
"P  c #686D77",
"I  c #8C929C",
"U  c #787D87",
"Y  c #ADB1BA",
"T  c #A6A7A7",
"R  c #818690",
"E  c #A9A9AA",
"W  c #A2A6AD",
"Q  c #A0A0A1",
"!  c #A5A9B2",
"~  c #B8BBC2",
"^  c #6B707A",
"/  c #B7BBC2",
"(  c #747983",
")  c #A8ACB2",
"_  c #B9BDC6",
"`  c #A1A5AE",
"'  c #999DA4",
"]  c #7F8185",
"[  c #AEB1B8",
"{  c #A7A7A7",
"}  c #979BA1",
"|  c #6C6E73",
" . c #B5B9C0",
".. c #7B7C80",
"X. c #8B8D92",
"o. c #BCBFC7",
"O. c #BDC1C9",
"+. c #DBDDE0",
"@. c #5F646E",
"#. c #B9BDC4",
"$. c #888D97",
"%. c #D7D9DE",
"&. c #D2D5D9",
"*. c #B7BBC3",
"=. c #C0C4CB",
/* pixels */
"Y = 4 I $.$.$.$.$.$.$.$.$.$.$.I 4 = Y ",
"! J n x > +.+.+.+.+.+.+.+.+.> x n J ! ",
"3 b F %.%.%.%.%.%.%.%.%.%.%.%.%.F b 3 ",
"g f &.&.&.&.&.&.&.&.&.&.&.&.&.&.&.f g ",
"R $       $ h e # O # e h $       $ R ",
"q o o o p 2 N { s ..s { N 2 p o o o q ",
"9 . . . ~ k j M ] X.] M j k ~ . . . 9 ",
"U X X X S % y l [  .[ l y % S X X X U ",
"< o.o.o.c O 0 8 o.o.o.8 0 O c o.o.o.< ",
"1 #.#.#.u Q i & #.#.#.& i Q u #.#.#.1 ",
"6 *.*.*., t T ) *.*.*.) T t , *.*.*.6 ",
"^ *.*.*.z Z # E v & v E # Z z *.*.*.^ ",
"P * *.*.B @ H w % O % w H @ B *.*.* P ",
"K ` + + / a @ L d | d L @ a / + + ` K ",
"r 5 : - V #.7 W ' } ' W 7 #.V - : 5 r ",
"; ( m G _ O.O.O.O.O.O.O.O.O._ G m ( ; ",
"=.A C D @.@.@.@.@.@.@.@.@.@.@.D C A =.",
"=.=.=.=.=.=.=.=.=.=.=.=.=.=.=.=.=.=.=."
};
