/* XPM */
static char *stick_active[] = {
/* columns rows colors chars-per-pixel */
"19 18 116 2",
"   c #C64BF4",
".  c #CA5CF3",
"X  c #C854F4",
"o  c #CE69F4",
"O  c #CE4CFF",
"+  c #B3B7C0",
"@  c #C840FB",
"#  c #C038F3",
"$  c #CD4AFF",
"%  c #CD69F3",
"&  c #C474E2",
"*  c #C95CF2",
"=  c #C03AF2",
"-  c #BA47E6",
";  c #B83EE5",
":  c #BC45E9",
">  c #D3B2DF",
",  c #953FB6",
"<  c #6C108F",
"1  c #9539B8",
"2  c #B545DF",
"3  c #A839D2",
"4  c #BD8ECE",
"5  c #AD3FD7",
"6  c #A873BB",
"7  c #C251EC",
"8  c #BB39EB",
"9  c #EEDAF5",
"0  c #9442B4",
"q  c #5E2B71",
"w  c #A12FCC",
"e  c #D29FE5",
"r  c #C748F7",
"t  c #CB66F1",
"y  c #A132CB",
"u  c #B359D5",
"i  c #80588F",
"p  c #8435A2",
"a  c #7E598D",
"s  c #511966",
"d  c #BC52E4",
"f  c #D6B8E1",
"g  c #D4AEE3",
"h  c #8C1EB5",
"j  c #580776",
"k  c #D158FF",
"l  c #C3A6CE",
"z  c #8119A8",
"x  c #912EB6",
"c  c #B969D7",
"v  c #DCADEE",
"b  c #8539A2",
"n  c #E6D2EE",
"m  c #E1CEE9",
"M  c #BA36EB",
"N  c #E1C0ED",
"B  c #BE3DEE",
"V  c #852AA6",
"C  c #B63AE5",
"Z  c #9A43BA",
"A  c #FCF9FC",
"S  c #BC70D9",
"D  c #DAB0EA",
"F  c #BD38EF",
"G  c #B5A6BB",
"H  c #B7A9BD",
"J  c #9723C2",
"K  c #CF79EE",
"L  c #D380F3",
"P  c #E6CFEE",
"I  c #D686F4",
"U  c #8B3EA8",
"Y  c #C740FA",
"T  c #DFE1E5",
"R  c #C43DF6",
"E  c #A33EC9",
"W  c #4F046C",
"Q  c #B368CF",
"!  c #A836D3",
"~  c #A52FD1",
"^  c #AAAFB9",
"/  c #BE37F1",
"(  c #C96DEC",
")  c #BE8FD0",
"_  c #5A1C71",
"`  c #D3B5DF",
"'  c #A86CBF",
"]  c #620C83",
"[  c #A027CE",
"{  c #B140DC",
"}  c #C86CEA",
"|  c #C049EC",
" . c #BEC2CA",
".. c #AF32DD",
"X. c #77159C",
"o. c #BDA2C8",
"O. c #C8CBD2",
"+. c #C149ED",
"@. c #9B41BD",
"#. c #AD40D6",
"$. c #8743A0",
"%. c #8129A1",
"&. c #CD4CFE",
"*. c #CC4AFE",
"=. c #BD3DEC",
"-. c #FDFAFE",
";. c #FCF9FD",
":. c #D98BF7",
">. c #C342F3",
",. c #D159FF",
"<. c #C03BF2",
"1. c #39004E",
"2. c #CCCFD5",
"3. c #D783F7",
"4. c #D478F6",
"5. c #BF37F2",
/* pixels */
"T H a s 1.1.1.1.1.1.1.1.1.1.1.s a H T ",
"G q b c I :.:.:.:.:.:.:.:.:.I c b q G ",
"i p L 3.3.3.3.3.3.3.3.3.3.3.3.3.L p i ",
"_ u 4.4.4.4.4.4.4.4.4.4.4.4.4.4.4.u _ ",
"W t o o o % K v 9 -.9 v K % o o o t W ",
"j . . . * } N f 6 $.6 f N } * . . . j ",
"] X X X 7 e ` U , @., U ` e 7 X X X ] ",
"<       2 n ' E - +.- E ' n 2       < ",
"X.>.>.>.3 A 1 ; >.>.>.; 1 A 3 >.>.>.X.",
"z <.<.<.y m Q 8 <.<.<.8 Q m y <.<.<.z ",
"h 5.5.5.~ 4 g C 5.5.5.C g 4 ~ 5.5.5.h ",
"J 5.5.5...Z > D ( =.( D > Z ..5.5.5.J ",
"[ / # # M w 0 ) P ;.P ) 0 w M # # / [ ",
"5 = @ @ Y B ! x V %.V x ! B Y @ @ = 5 ",
"S F $ O $ &.r : { #.{ : r *.O O $ F S ",
"o.d R O k ,.,.,.,.,.,.,.,.,.k O R d o.",
"+ l & | 5.5.5.5.5.5.5.5.5.5.5.| & l + ",
"^ +  .O.2.2.2.2.2.2.2.2.2.2.2.O. .+ ^ "
};
