/* XPM */
static char *title___inactive[] = {
/* columns rows colors chars-per-pixel */
"5 24 19 1",
"  c #BEC2C9",
". c #B9BDC5",
"X c #AFB3BB",
"o c #B6BAC2",
"O c #B8BCC3",
"+ c #B1B5BE",
"@ c #B3B7BF",
"# c #B0B4BC",
"$ c #ABAFB8",
"% c #BABEC6",
"& c #BCC0C7",
"* c #B4B8C0",
"= c #ACB0B9",
"- c #BDC1C8",
"; c #9EA3AD",
": c #B5B9C1",
"> c #888D97",
", c #ADB1BA",
"< c #C0C4CB",
/* pixels */
">>>>>",
"$$$$$",
"=====",
",,,,,",
"XXXXX",
"#####",
"+++++",
"@@@@@",
"*****",
":::::",
"ooooo",
"OOOOO",
".....",
"%%%%%",
"&&&&&",
"-----",
"     ",
"<<<<<",
"<<<<<",
"<<<<<",
"<<<<<",
"<<<<<",
"<<<<<",
";;;;;"
};
