/* XPM */
static char * top_left_active_xpm[] = {
"5 24 42 1",
" 	c None",
".	c #2B2E33",
"+	c #95979A",
"@	c #F0F1F2",
"#	c #EEEFF1",
"$	c #E3E5E8",
"%	c #ECEDEF",
"&	c #DFE1E5",
"*	c #EAEBED",
"=	c #DCDEE2",
"-	c #E8E9EC",
";	c #D8DBDF",
">	c #E6E7EA",
",	c #D5D8DC",
"'	c #E4E6E9",
")	c #D2D5DA",
"!	c #E2E4E7",
"~	c #CED1D7",
"{	c #E0E2E6",
"]	c #CBCED4",
"^	c #DEE0E4",
"/	c #C8CBD1",
"(	c #DDDFE3",
"_	c #C4C8CF",
":	c #DBDDE1",
"<	c #C1C5CC",
"[	c #D9DBDF",
"}	c #BEC2C9",
"|	c #D7D9DE",
"1	c #BABEC6",
"2	c #D5D7DC",
"3	c #B7BBC4",
"4	c #D3D6DB",
"5	c #B4B8C1",
"6	c #D1D4D9",
"7	c #B0B5BE",
"8	c #CFD2D8",
"9	c #ADB2BB",
"0	c #CDD0D6",
"a	c #AAAFB9",
"b	c #CCCFD5",
"c	c #959EA7",
" ....",
".+@@@",
".#$$$",
".%&&&",
".*===",
".-;;;",
".>,,,",
".')))",
".!~~~",
".{]]]",
".^///",
".(___",
".:<<<",
".[}}}",
".|111",
".2333",
".4555",
".6777",
".8999",
".0aaa",
".baaa",
".baaa",
".baaa",
".baac"};
