/* XPM */
static char * top_right_active_xpm[] = {
"5 24 42 1",
" 	c None",
".	c #2B2E33",
"+	c #F0F1F2",
"@	c #95979A",
"#	c #E3E5E8",
"$	c #EEEFF1",
"%	c #DFE1E5",
"&	c #ECEDEF",
"*	c #DCDEE2",
"=	c #EAEBED",
"-	c #D8DBDF",
";	c #E8E9EC",
">	c #D5D8DC",
",	c #E6E7EA",
"'	c #D2D5DA",
")	c #E4E6E9",
"!	c #CED1D7",
"~	c #E2E4E7",
"{	c #CBCED4",
"]	c #E0E2E6",
"^	c #C8CBD1",
"/	c #DEE0E4",
"(	c #C4C8CF",
"_	c #DDDFE3",
":	c #C1C5CC",
"<	c #DBDDE1",
"[	c #BEC2C9",
"}	c #D9DBDF",
"|	c #BABEC6",
"1	c #D7D9DE",
"2	c #B7BBC4",
"3	c #D5D7DC",
"4	c #B4B8C1",
"5	c #D3D6DB",
"6	c #B0B5BE",
"7	c #D1D4D9",
"8	c #ADB2BB",
"9	c #CFD2D8",
"0	c #AAAFB9",
"a	c #CDD0D6",
"b	c #CCCFD5",
"c	c #959EA7",
".... ",
"+++@.",
"###$.",
"%%%&.",
"***=.",
"---;.",
">>>,.",
"''').",
"!!!~.",
"{{{].",
"^^^/.",
"(((_.",
":::<.",
"[[[}.",
"|||1.",
"2223.",
"4445.",
"6667.",
"8889.",
"000a.",
"000b.",
"000b.",
"000b.",
"c00b."};
