/* XPM */
static char * top_right_inactive_xpm[] = {
"5 24 21 1",
" 	c None",
".	c #888D97",
"+	c #ABAFB8",
"@	c #9A9FA8",
"#	c #ACB0B9",
"$	c #ADB1BA",
"%	c #AFB3BB",
"&	c #B0B4BC",
"*	c #B1B5BE",
"=	c #B3B7BF",
"-	c #B4B8C0",
";	c #B5B9C1",
">	c #B6BAC2",
",	c #B8BCC3",
"'	c #B9BDC5",
")	c #BABEC6",
"!	c #BCC0C7",
"~	c #BDC1C8",
"{	c #BEC2C9",
"]	c #C0C4CB",
"^	c #CBCFD5",
".... ",
"+++@.",
"####.",
"$$$$.",
"%%%%.",
"&&&&.",
"****.",
"====.",
"----.",
";;;;.",
">>>>.",
",,,,.",
"''''.",
")))).",
"!!!!.",
"~~~~.",
"{{{{.",
"]]]].",
"]]]].",
"]]]].",
"]]]].",
"]]]].",
"]]]].",
"^]]]."};
