/* XPM */
static char *top_left_inactive[] = {
/* columns rows colors chars-per-pixel */
"5 24 20 1",
"  c #B9BDC5",
". c #ABAFB8",
"X c #9A9FA8",
"o c #CBCFD5",
"O c #B6BAC2",
"+ c #B8BCC3",
"@ c #B1B5BE",
"# c #B3B7BF",
"$ c #B0B4BC",
"% c #BABEC6",
"& c #BCC0C7",
"* c #B4B8C0",
"= c #ACB0B9",
"- c #BDC1C8",
"; c #B5B9C1",
": c #ADB1BA",
"> c #AFB3BB",
", c #BEC2C9",
"< c #C0C4CB",
"1 c #888D97",
/* pixels */
"11111",
"1X...",
"1====",
"1::::",
"1>>>>",
"1$$$$",
"1@@@@",
"1####",
"1****",
"1;;;;",
"1OOOO",
"1++++",
"1    ",
"1%%%%",
"1&&&&",
"1----",
"1,,,,",
"1<<<<",
"1<<<<",
"1<<<<",
"1<<<<",
"1<<<<",
"1<<<<",
"1<<<o"
};
