/* XPM */
static char * bottom_active_xpm[] = {
"29 30 3 1",
" 	c None",
".	c #e783bf",
",	c #0070A7",
".............................",
".,,,,,,,,,,,,,,,,,,,,,,,,,,,,",
".,,,,,,,,,,,,,,,,,,,,,,,,,,,,",
".,,,,,,,,,,,,,,,,,,,,,,,,,,,,",
".,,,,,,,,,,,,,,,,,,,,,,,,,,,,",
".,,,,,,,,,,,,,,,,,,,,,,,,,,,,",
".,,,,,,,,,,,,,,,,,,,,,,,,,,,,",
".,,,,,,,,,,,,,,,,,,,,,,,,,,,,",
".,,,,,,,,,,,,,,,,,,,,,,,,,,,,",
".,,,,,,,,,,,,,,,,,,,,,,,,,,,,",
".,,,,,,,,,,,,,,,,,,,,,,,,,,,,",
".,,,,,,,,,,,,,,,,,,,,,,,,,,,,",
".,,,,,,,,,,,,,,,,,,,,,,,,,,,,",
".,,,,,,,,,,,,,,,,,,,,,,,,,,,,",
".,,,,,,,,,,,,,,,,,,,,,,,,,,,,",
".,,,,,,,,,,,,,,,,,,,,,,,,,,,,",
".,,,,,,,,,,,,,,,,,,,,,,,,,,,,",
".,,,,,,,,,,,,,,,,,,,,,,,,,,,,",
" .,,,,,,,,,,,,,,,,,,,,,,,,,,,",
"  .,,,,,,,,,,,,,,,,,,,,,,,,,,",
"   ..........................",
"                             ",
"                             ",
"                             ",
"                             ",
"                             ",
"                             ",
"                             ",
"                             ",
"                             "};