/* XPM */
static char * bottom_active_xpm[] = {
"20 30 2 1",
" 	c None",
".	c #e2da9d",
"                    ",
"                    ",
"                    ",
"                    ",
"                    ",
"....................",
"....................",
"....................",
"....................",
"....................",
"....................",
"....................",
"....................",
"....................",
"....................",
"....................",
"....................",
"....................",
"....................",
"....................",
"....................",
"....................",
"....................",
"....................",
"....................",
"                    ",
"                    ",
"                    ",
"                    ",
"                    "};