/* XPM */
static char * bottom_active_xpm[] = {
"26 30 3 1",
" 	c None",
".	c #e2da9d",
",	c #0070A7",
"                          ",
"                          ",
"                          ",
"                          ",
"     ................     ",
"    .,,,,,,,,,,,,,,,,.    ",
"   .,,,,,,,,,,,,,,,,,,.   ",
"  .,,,,,,,,,,,,,,,,,,,,.  ",
"  .,,,,,,,,,,,,,,,,,,,,.  ",
"  .,,,,,,,,,,,,,,,,,,,,.  ",
"  .,,,,,,,,,,,,,,,,,,,,.  ",
"  .,,,,,,,,,,,,,,,,,,,,.  ",
"  .,,,,,,,,,,,,,,,,,,,,.  ",
"  .,,,,,,,,,,,,,,,,,,,,.  ",
"  .,,,,,,,,,,,,,,,,,,,,.  ",
"  .,,,,,,,,,,,,,,,,,,,,.  ",
"  .,,,,,,,,,,,,,,,,,,,,.  ",
"  .,,,,,,,,,,,,,,,,,,,,.  ",
"  .,,,,,,,,,,,,,,,,,,,,.  ",
"  .,,,,,,,,,,,,,,,,,,,,.  ",
"  .,,,,,,,,,,,,,,,,,,,,.  ",
"  .,,,,,,,,,,,,,,,,,,,,.  ",
"  .,,,,,,,,,,,,,,,,,,,,.  ",
"   .,,,,,,,,,,,,,,,,,,.   ",
"    .,,,,,,,,,,,,,,,,.    ",
"     ................     ",
"                          ",
"                          ",
"                          ",
"                          "};