/* XPM */
static char * close_inactive_xpm[] = {
"21 21 36 1",
" 	c #4B4B4B",
".	c #4F4F4F",
"+	c #424242",
"@	c #4E4E4E",
"#	c #3D3D3D",
"$	c #272727",
"%	c #383838",
"&	c #4C4C4C",
"*	c #5B5B5B",
"=	c #595959",
"-	c #575757",
";	c #5A5A5A",
">	c #454545",
",	c #3E3E3E",
"'	c #B9B9B9",
")	c #545454",
"!	c #4A4A4A",
"~	c #AEAEAE",
"{	c #292929",
"]	c #F4F4F4",
"^	c #363636",
"/	c #444444",
"(	c #494949",
"_	c #3C3C3C",
":	c #474747",
"<	c #505050",
"[	c #515151",
"}	c #343434",
"|	c #585858",
"1	c #3B3B3B",
"2	c #525252",
"3	c #5C5C5C",
"4	c #353535",
"5	c #252525",
"6	c #333333",
"7	c #FFFFFF",
"{$55555555555555555${",
"$5111111111111111115$",
"516666666666666666615",
"5_}}}}}}}}}}}}}}}}}_5",
"5#44444444444444444#5",
"5#444~744444447~444#5",
"5,^^^777^^^^^777^^^,5",
"5>____777___777____>5",
"5!+++++777+777+++++!5",
"5&//////77777//////&5",
"5<:::::::777:::::::<5",
"52((((((77777((((((25",
"5)     777 77]     )5",
"5-@@@@777@@@777@@@@-5",
"5|...777.....777...|5",
"5=<<<'7<<<<<<<7'<<<=5",
"5;[[[[[[[[[[[[[[[[[;5",
"5*22222222222222222*5",
"53|||||||||||||||||35",
"%5333333333333333335%",
"&%55555555555555555%&"};
