/* XPM */
static char * close_active_xpm[] = {
"21 21 119 2",
"  	c #232323",
". 	c #F08F78",
"+ 	c #ED7F61",
"@ 	c #D9836F",
"# 	c #E37B63",
"$ 	c #2E2E2E",
"% 	c #F9AE9B",
"& 	c #565656",
"* 	c #333333",
"= 	c #F28D77",
"- 	c #252525",
"; 	c #EB704A",
"> 	c #F7AE9B",
", 	c #D58471",
"' 	c #F26544",
") 	c #F08871",
"! 	c #D93519",
"~ 	c #242424",
"{ 	c #EE6648",
"] 	c #F96A46",
"^ 	c #F06645",
"/ 	c #EB8F78",
"( 	c #DB7B65",
"_ 	c #F6AF9C",
": 	c #F18972",
"< 	c #DB7D68",
"[ 	c #575757",
"} 	c #D87F69",
"| 	c #F4C7BD",
"1 	c #DF7760",
"2 	c #EE8369",
"3 	c #DE684E",
"4 	c #383838",
"5 	c #E76F4C",
"6 	c #D87A66",
"7 	c #DF7057",
"8 	c #EE866F",
"9 	c #FB7B5B",
"0 	c #F6BEAF",
"a 	c #EB6D4F",
"b 	c #F08F75",
"c 	c #DB826D",
"d 	c #9E6960",
"e 	c #EA8163",
"f 	c #6A6A6A",
"g 	c #D77E6B",
"h 	c #E87F64",
"i 	c #F6B09D",
"j 	c #EF9074",
"k 	c #F1795E",
"l 	c #FA9379",
"m 	c #EB704B",
"n 	c #F56441",
"o 	c #E2765D",
"p 	c #DF7C66",
"q 	c #2C2C2C",
"r 	c #D4826E",
"s 	c #E95B39",
"t 	c #DE7963",
"u 	c #DC3618",
"v 	c #E17F69",
"w 	c #DD806B",
"x 	c #EC8F75",
"y 	c #EB8F76",
"z 	c #E57E66",
"A 	c #E74B27",
"B 	c #ED8060",
"C 	c #FBAE9A",
"D 	c #F48D77",
"E 	c #F58C75",
"F 	c #F0846C",
"G 	c #DF745B",
"H 	c #D6351A",
"I 	c #D57F6E",
"J 	c #2D2D2D",
"K 	c #2B2B2B",
"L 	c #E36F4E",
"M 	c #A3695E",
"N 	c #F68C74",
"O 	c #A26A5F",
"P 	c #EC8F76",
"Q 	c #EE7E66",
"R 	c #F09076",
"S 	c #DD6D52",
"T 	c #EB6E4D",
"U 	c #282828",
"V 	c #F98B70",
"W 	c #E63F1D",
"X 	c #9F695F",
"Y 	c #EE7F64",
"Z 	c #EC7F61",
"` 	c #FB8768",
" .	c #FA714F",
"..	c #EE8163",
"+.	c #E27860",
"@.	c #DB7A64",
"#.	c #EB704C",
"$.	c #E2785F",
"%.	c #D3816D",
"&.	c #E88F7A",
"*.	c #D87A67",
"=.	c #E77F65",
"-.	c #E27152",
";.	c #FDF3F1",
">.	c #F4AF9F",
",.	c #E74B25",
"'.	c #E46A4F",
").	c #DB3918",
"!.	c #E47155",
"~.	c #E46848",
"{.	c #E6401C",
"].	c #E03719",
"^.	c #DC3818",
"/.	c #E95D38",
"(.	c #E47459",
"_.	c #222222",
":.	c #DE3518",
"<.	c #434343",
"[.	c #FFFFFF",
"f & <.<.<.<.<.<.<.<.<.<.<.<.<.<.<.<.<.& f ",
"& [ d N E D = = . . . . . = = D E N d [ & ",
"<.X k z v w c @ @ , , , @ @ c w v z k X <.",
"<.: # # p < } g I r %.r I g } < p # # : <.",
"<.) +.o $.1 t @.( 6 *.6 ( @.t 1 $.o +.) <.",
"<.8 G (.(.| [.(.(.(.(.(.(.(.[.| (.(.G 8 <.",
"<.F 7 !.!.[.[.[.!.!.!.!.!.[.[.[.!.!.7 F <.",
"<.2 S '.'.'.[.[.[.'.'.'.[.[.[.'.'.'.S 2 <.",
"<.Q 3 ~.~.~.~.[.[.[.~.[.[.[.~.~.~.~.3 Q <.",
"4 { H ].].].].].[.[.[.[.[.].].].].].H { 4 ",
"* ^ ! :.:.:.:.:.:.[.[.[.:.:.:.:.:.:.! ^ * ",
"$ ' u ^.^.^.^.^.[.[.[.[.[.^.^.^.^.^.u ' $ ",
"K n :.).).).).[.[.[.).[.[.;.).).).).:.n K ",
"U ] W {.{.{.[.[.[.{.{.{.[.[.[.{.{.{.W ] U ",
"-  .A ,.,.[.[.[.,.,.,.,.,.[.[.[.,.,.A  .- ",
"- 9 s /./.0 [./././././././.[.0 /./.s 9 - ",
"~ ` a T #.m ; ; 5 L -.L 5 ; ; m #.T a ` ~ ",
"  l Y ..+ + B Z e h =.h e Z B + + ..Y l   ",
"  M V R j b x P y / &./ y P x b j R V M   ",
"J * O % C % > > _ i >.i _ > > % C % O * J ",
"$ q _._._._._._.    _.    _._._._._._.q $ "};
