/* XPM */
static char * left_inactive_xpm[] = {
"4 4 3 1",
" 	c #555555",
".	c #1B1B1B",
"+	c #4C4C4C",
". ++",
". ++",
". ++",
". ++"};
