/* XPM */
static char * maximized_toggled_active_xpm[] = {
"21 21 48 1",
" 	c #424242",
".	c #5F5F5F",
"+	c #4C4C4C",
"@	c #232323",
"#	c #6A6A6A",
"$	c #2D2D2D",
"%	c #6B6B6B",
"&	c #333333",
"*	c #252525",
"=	c #6D6D6D",
"-	c #2B2B2B",
";	c #717171",
">	c #666666",
",	c #6E6E6E",
"'	c #2E2E2E",
")	c #686868",
"!	c #6C6C6C",
"~	c #545454",
"{	c #282828",
"]	c #5B5B5B",
"^	c #242424",
"/	c #707070",
"(	c #373737",
"_	c #777777",
":	c #575757",
"<	c #616161",
"[	c #383838",
"}	c #2C2C2C",
"|	c #606060",
"1	c #5D5D5D",
"2	c #5E5E5E",
"3	c #4B4B4B",
"4	c #696969",
"5	c #626262",
"6	c #7D7D7D",
"7	c #5A5A5A",
"8	c #222222",
"9	c #4A4A4A",
"0	c #656565",
"a	c #4F4F4F",
"b	c #767676",
"c	c #636363",
"d	c #5C5C5C",
"e	c #676767",
"f	c #434343",
"g	c #464646",
"h	c #3F3F3F",
"i	c #FFFFFF",
"#]fffffffffffffffff~#",
"]gbbbbbbbbbbbbbbbbb:~",
"f,/4444444%%4444%%/,f",
"f=eeeeeeeeeeeeeeeee=f",
"f=ccccccccccccccccc=f",
"f!555555iiiiiii5555!f",
"f#......iiiiiii....#f",
"f)ddddddddddddidddd)f",
"fe777iiiiiii77i7777ef",
"(d3++iiiiiii++i++++d[",
"&7gggigggggiggigggg7&",
"$7hhhihhhhhihiihhhh7'",
"-7hhhihhhhhihhhhhhh7-",
"{1hhhihhhhhihhhhhhh2{",
"*|   iiiiiii       <*",
"*>ggggggggggggggggg>*",
"^#99999999999999999#^",
"@;aaaaaaaaaaaaaaaaa;@",
"@5_000000000000000;5@",
"$&06666666666666660&$",
"$-888888888@@888888}'"};
