/* XPM */
static char * top_right_inactive_xpm[] = {
"6 30 32 1",
" 	c None",
".	c #484848",
"+	c #454545",
"@	c #424242",
"#	c #2C2C2C",
"$	c #464646",
"%	c #494949",
"&	c #2A2A2A",
"*	c #282828",
"=	c #3A3A3A",
"-	c #303030",
";	c #545454",
">	c #272727",
",	c #3C3C3C",
"'	c #1B1B1B",
")	c #404040",
"!	c #4A4A4A",
"~	c #474747",
"{	c #4E4E4E",
"]	c #3E3E3E",
"^	c #4B4B4B",
"/	c #2E2E2E",
"(	c #3B3B3B",
"_	c #2B2B2B",
":	c #343434",
"<	c #2D2D2D",
"[	c #393939",
"}	c #292929",
"|	c #4C4C4C",
"1	c #555555",
"2	c #252525",
"3	c #FFFFFF",
"2     ",
"{:2   ",
"[1{}  ",
">*,{2 ",
"**}1: ",
"}}}={2",
"}}}-;2",
"&&&_12",
"____12",
"####12",
"<<<<12",
"<<<<12",
"////12",
"::::12",
"[[[[12",
"((((12",
"]]]]12",
"))))12",
"@@@@12",
"++++12",
"$$$$12",
"~~~~12",
"....12",
"%%%%12",
"!!!!12",
"^^^^12",
"||||12",
"||||12",
"||||12",
"[[[|1'"};
