/* XPM */
static char * top_left_inactive_xpm[] = {
"6 30 30 1",
" 	c None",
".	c #454545",
"+	c #2B2B2B",
"@	c #2C2C2C",
"#	c #3B3B3B",
"$	c #494949",
"%	c #484848",
"&	c #424242",
"*	c #282828",
"=	c #444444",
"-	c #1B1B1B",
";	c #545454",
">	c #4E4E4E",
",	c #404040",
"'	c #4A4A4A",
")	c #474747",
"!	c #2A2A2A",
"~	c #272727",
"{	c #343434",
"]	c #3E3E3E",
"^	c #4B4B4B",
"/	c #2E2E2E",
"(	c #464646",
"_	c #393939",
":	c #2D2D2D",
"<	c #292929",
"[	c #4C4C4C",
"}	c #555555",
"|	c #252525",
"1	c #FFFFFF",
"     |",
"   ||=",
"  |(}~",
" |(~~~",
" |}***",
"|=<<<<",
"|><<<<",
"|;!!!!",
"|}++++",
"|}@@@@",
"|}::::",
"|}::::",
"|}////",
"|}{{{{",
"|}____",
"|}####",
"|}]]]]",
"|},,,,",
"|}&&&&",
"|}....",
"|}((((",
"|}))))",
"|}%%%%",
"|}$$$$",
"|}''''",
"|}^^^^",
"|}[[[[",
"|}[[[[",
"|}[[[[",
"-}[___"};
