/* XPM */
static char * top_left_active_xpm[] = {
"6 30 31 1",
" 	c None",
".	c #636363",
"+	c #1B1B1B",
"@	c #2B2B2B",
"#	c #383838",
"$	c #565656",
"%	c #323232",
"&	c #777777",
"*	c #787878",
"=	c #6C6C6C",
"-	c #444444",
";	c #747474",
">	c #838383",
",	c #666666",
"'	c #606060",
")	c #303030",
"!	c #2D2D2D",
"~	c #545454",
"{	c #343434",
"]	c #5B5B5B",
"^	c #3B3B3B",
"/	c #2E2E2E",
"(	c #656565",
"_	c #6A6A6A",
":	c #363636",
"<	c #3D3D3D",
"[	c #5E5E5E",
"}	c #292929",
"|	c #858585",
"1	c #252525",
"2	c #FFFFFF",
"     1",
"   1-*",
"  /&|*",
" 1&&==",
" -|___",
"1*;___",
"1>_(((",
"1|,(((",
"1|....",
"1|''''",
"1|[[[[",
"1|[[[[",
"1|]]]]",
"1|$$$$",
"1|~~~~",
"1|<<<<",
"1|<<<<",
"1|^^^^",
"1|####",
"1|::::",
"1|::::",
"1|{{{{",
"1|%%%%",
"1|))))",
"1|////",
"1|!!!!",
"1|@@@@",
"1|}}}}",
"1|}}}}",
"+|}+++"};
