/* XPM */
static char * close_inactive_xpm[] = {
"21 21 61 1",
" 	c None",
".	c #4275C6",
"+	c #396DBD",
"@	c #295994",
"#	c #3971BD",
"$	c #426DA5",
"%	c #94B6DE",
"&	c #ADCBE7",
"*	c #84AAD6",
"=	c #9CBEE7",
"-	c #8CAAD6",
";	c #29599C",
">	c #638AC6",
",	c #21599C",
"'	c #8CB6DE",
")	c #5A86C6",
"!	c #84AEDE",
"~	c #4A82C6",
"{	c #B5CFE7",
"]	c #FFFFFF",
"^	c #7BAADE",
"/	c #427DC6",
"(	c #295DA5",
"_	c #73A2D6",
":	c #397DC6",
"<	c #73A2DE",
"[	c #295D9C",
"}	c #6B9ED6",
"|	c #3979CE",
"1	c #315DA5",
"2	c #3161A5",
"3	c #397DCE",
"4	c #3969AD",
"5	c #6B9EDE",
"6	c #4286D6",
"7	c #3969A5",
"8	c #426DAD",
"9	c #4A8ADE",
"0	c #4A8EDE",
"a	c #4271AD",
"b	c #4A71C6",
"c	c #84AEE7",
"d	c #639EE7",
"e	c #F7FBFF",
"f	c #6BA2E7",
"g	c #84B2E7",
"h	c #6BA6E7",
"i	c #8CB2E7",
"j	c #73AAE7",
"k	c #C6DFF7",
"l	c #7BAEE7",
"m	c #7BB2E7",
"n	c #94B6E7",
"o	c #8CBAEF",
"p	c #84B6E7",
"q	c #94BAEF",
"r	c #639EDE",
"s	c #5279C6",
"t	c #9CC3EF",
"u	c #84C3EF",
"v	c #639ADE",
".+@@@@@@@@@@@@@@@@@+.",
"#$%&&&&&&&&&&&&&&&%$#",
"@*=---------------=*@",
";=>>>>>>>>>>>>>>>>>=;",
",')))))))))))))))))',",
";!~~~{]~~~~~~~]{~~~!;",
";^///]]]/////]]]///^;",
"(_::::]]]:::]]]::::<[",
"(}|||||]]]|]]]|||||}1",
"2}333333]]]]]333333}2",
"456666666]]]666666657",
"85900000]]]]]0000005a",
"bcddddd]]]d]]edddddcb",
"bcffff]]]fff]]]ffffcb",
"bghhh]]]hhhhh]]]hhhgb",
"bijjjk]jjjjjjj]kjjjib",
"billlllllllllllllllib",
"bimmmmmmmmmmmmmmmmmib",
"bnopppppppppppppppqnb",
"rstttttttttttttttttbr",
"uvbbbbbbbbbbbbbbbbbvu"};
