/* XPM */
static char * shade_toggled_inactive_xpm[] = {
"21 21 98 2",
"  	c None",
". 	c #4275C6",
"+ 	c #396DBD",
"@ 	c #295994",
"# 	c #3971BD",
"$ 	c #426DA5",
"% 	c #94B6DE",
"& 	c #ADCBE7",
"* 	c #84AAD6",
"= 	c #9CBEE7",
"- 	c #8CAAD6",
"; 	c #29599C",
"> 	c #638AC6",
", 	c #21599C",
"' 	c #8CB6DE",
") 	c #5A86C6",
"! 	c #84AEDE",
"~ 	c #4A82C6",
"{ 	c #7BAADE",
"] 	c #427DC6",
"^ 	c #295DA5",
"/ 	c #73A2D6",
"( 	c #397DC6",
"_ 	c #73A2DE",
": 	c #295D9C",
"< 	c #6B9ED6",
"[ 	c #3979CE",
"} 	c #315DA5",
"| 	c #3161A5",
"1 	c #397DCE",
"2 	c #3969AD",
"3 	c #6B9EDE",
"4 	c #4286D6",
"5 	c #4D90DF",
"6 	c #64A2E5",
"7 	c #83B4E9",
"8 	c #7BAEE7",
"9 	c #64A2E4",
"0 	c #5E9EE4",
"a 	c #498CDC",
"b 	c #3969A5",
"c 	c #426DAD",
"d 	c #4A8ADE",
"e 	c #4A8EDE",
"f 	c #4685D3",
"g 	c #FFFFFF",
"h 	c #3C7CCF",
"i 	c #4286D4",
"j 	c #4271AD",
"k 	c #4A71C6",
"l 	c #84AEE7",
"m 	c #639EE7",
"n 	c #6C9EDB",
"o 	c #DDE8F6",
"p 	c #F2F6FC",
"q 	c #FDFDFD",
"r 	c #FCFDFD",
"s 	c #F1F5FB",
"t 	c #DBE6F5",
"u 	c #5C91D6",
"v 	c #6BA2E7",
"w 	c #4B87D1",
"x 	c #DCE8F5",
"y 	c #F1F6FB",
"z 	c #FBFCFD",
"A 	c #F0F4FA",
"B 	c #DAE5F4",
"C 	c #5C91D5",
"D 	c #4582CE",
"E 	c #84B2E7",
"F 	c #6BA6E7",
"G 	c #4A87CB",
"H 	c #6D9FDB",
"I 	c #DBE7F5",
"J 	c #E4EDF8",
"K 	c #D9E5F4",
"L 	c #5E91D4",
"M 	c #4783CA",
"N 	c #8CB2E7",
"O 	c #73AAE7",
"P 	c #5389CC",
"Q 	c #70A1DB",
"R 	c #CADAF0",
"S 	c #6194D5",
"T 	c #5087CA",
"U 	c #77A2D5",
"V 	c #7FABDF",
"W 	c #75A0D5",
"X 	c #7BB2E7",
"Y 	c #94B6E7",
"Z 	c #8CBAEF",
"` 	c #84B6E7",
" .	c #94BAEF",
"..	c #639EDE",
"+.	c #5279C6",
"@.	c #9CC3EF",
"#.	c #84C3EF",
"$.	c #639ADE",
". + @ @ @ @ @ @ @ @ @ @ @ @ @ @ @ @ @ + . ",
"# $ % & & & & & & & & & & & & & & & % $ # ",
"@ * = - - - - - - - - - - - - - - - = * @ ",
"; = > > > > > > > > > > > > > > > > > = ; ",
", ' ) ) ) ) ) ) ) ) ) ) ) ) ) ) ) ) ) ' , ",
"; ! ~ ~ ~ ~ ~ ~ ~ ~ ~ ~ ~ ~ ~ ~ ~ ~ ~ ! ; ",
"; { ] ] ] ] ] ] ] ] ] ] ] ] ] ] ] ] ] { ; ",
"^ / ( ( ( ( ( ( ( ( ( ( ( ( ( ( ( ( ( _ : ",
"^ < [ [ [ [ [ [ [ [ [ [ [ [ [ [ [ [ [ < } ",
"| < 1 1 1 1 1 1 1 1 1 1 1 1 1 1 1 1 1 < | ",
"2 3 4 4 4 5 6 7 8 8 8 8 8 8 9 0 a 4 4 3 b ",
"c 3 d e e f g g g g g g g g g h i e e 3 j ",
"k l m m m m n o p q q r s t u 1 m m m l k ",
"k l v v v v w n x y z A B C D v v v v l k ",
"k E F F F F F G H I J K L M F F F F F E k ",
"k N O O O O O O P Q R S T O O O O O O N k ",
"k N 8 8 8 8 8 8 8 U V W 8 8 8 8 8 8 8 N k ",
"k N X X X X X X X X X X X X X X X X X N k ",
"k Y Z ` ` ` ` ` ` ` ` ` ` ` ` ` ` `  .Y k ",
"..+.@.@.@.@.@.@.@.@.@.@.@.@.@.@.@.@.@.k ..",
"#.$.k k k k k k k k k k k k k k k k k $.#."};
