/* XPM */
static char * stick_pressed_xpm[] = {
"21 21 176 2",
"  	c None",
". 	c #6BA2DE",
"+ 	c #6396D6",
"@ 	c #4A71C6",
"# 	c #5A86CE",
"$ 	c #6B9EDE",
"% 	c #5279C6",
"& 	c #9CC3EF",
"* 	c #9DC3EF",
"= 	c #A1C6F0",
"- 	c #A6C9F1",
"; 	c #A9CBF1",
"> 	c #AACCF1",
", 	c #A7CAF1",
"' 	c #A3C8F0",
") 	c #9EC4EF",
"! 	c #7392CE",
"~ 	c #94B6E7",
"{ 	c #8CBAEF",
"] 	c #84B6E7",
"^ 	c #89BAE8",
"/ 	c #92C0EA",
"( 	c #9AC5EC",
"_ 	c #9FC8EE",
": 	c #A2CBEF",
"< 	c #A4CCEF",
"[ 	c #A3CBEF",
"} 	c #A0CAEE",
"| 	c #9CC7ED",
"1 	c #95C2EB",
"2 	c #8CBCE9",
"3 	c #85B7E7",
"4 	c #94BAEF",
"5 	c #8CB2E7",
"6 	c #7BB2E7",
"7 	c #82B7E9",
"8 	c #90C0EC",
"9 	c #9AC7EE",
"0 	c #9CC9EF",
"a 	c #9DC9EF",
"b 	c #9CC8EF",
"c 	c #94C3ED",
"d 	c #87BAEA",
"e 	c #7DB3E7",
"f 	c #7BAEE7",
"g 	c #80B2E8",
"h 	c #91BDEC",
"i 	c #9BC5EF",
"j 	c #9DC6EF",
"k 	c #96C1ED",
"l 	c #85B5E9",
"m 	c #7CAFE7",
"n 	c #74ABE7",
"o 	c #86B7EB",
"p 	c #93C1EE",
"q 	c #96C3EF",
"r 	c #8CBCED",
"s 	c #78AEE8",
"t 	c #84B2E7",
"u 	c #72ABE9",
"v 	c #89BBEE",
"w 	c #8EC0EF",
"x 	c #8FC0EF",
"y 	c #8EBFEF",
"z 	c #79B0EA",
"A 	c #86B3E7",
"B 	c #84AEE7",
"C 	c #7CAFEB",
"D 	c #8CBAEE",
"E 	c #8FBCEF",
"F 	c #83B4EC",
"G 	c #88B1E8",
"H 	c #7CB0EC",
"I 	c #87B8EF",
"J 	c #88B9EF",
"K 	c #5E9BDD",
"L 	c #83B5EE",
"M 	c #89B2E8",
"N 	c #426DAD",
"O 	c #67A2E6",
"P 	c #6FADE8",
"Q 	c #70ADE8",
"R 	c #68A6E3",
"S 	c #FFFFFF",
"T 	c #6FACE8",
"U 	c #72A3E0",
"V 	c #4271AD",
"W 	c #3969AD",
"X 	c #5F9FE0",
"Y 	c #67A6E3",
"Z 	c #67A5E3",
"` 	c #3969A5",
" .	c #3161A5",
"..	c #6B9ED6",
"+.	c #5294D8",
"@.	c #5D9EDC",
"#.	c #5E9FDD",
"$.	c #599BDB",
"%.	c #71A2D8",
"&.	c #295DA5",
"*.	c #4B89D5",
"=.	c #5B98DC",
"-.	c #5290D8",
";.	c #6FA1D8",
">.	c #315DA5",
",.	c #73A2D6",
"'.	c #4084C9",
").	c #5799D4",
"!.	c #5D9ED7",
"~.	c #5E9FD7",
"{.	c #5D9ED6",
"].	c #488ACD",
"^.	c #75A3DF",
"/.	c #295D9C",
"(.	c #29599C",
"_.	c #7BAADE",
":.	c #437EC6",
"<.	c #568FCF",
"[.	c #659CD6",
"}.	c #689FD7",
"|.	c #5E96D2",
"1.	c #4882C9",
"2.	c #84AEDE",
"3.	c #4A82C6",
"4.	c #5087C9",
"5.	c #6297D1",
"6.	c #6EA1D6",
"7.	c #70A3D7",
"8.	c #689CD4",
"9.	c #568CCB",
"0.	c #4B83C7",
"a.	c #21599C",
"b.	c #8CB6DE",
"c.	c #5A86C6",
"d.	c #628DCA",
"e.	c #7099D0",
"f.	c #7CA3D5",
"g.	c #7EA6D7",
"h.	c #7FA6D7",
"i.	c #7EA5D6",
"j.	c #759ED3",
"k.	c #6791CC",
"l.	c #5C88C7",
"m.	c #9CBEE7",
"n.	c #638AC6",
"o.	c #698FC9",
"p.	c #7398CD",
"q.	c #7C9FD2",
"r.	c #82A4D4",
"s.	c #86A7D6",
"t.	c #87A9D7",
"u.	c #87A8D6",
"v.	c #84A6D5",
"w.	c #7FA1D3",
"x.	c #779BCF",
"y.	c #6C92CA",
"z.	c #648BC7",
"A.	c #295994",
"B.	c #84AAD6",
"C.	c #A5C3E7",
"D.	c #8CAAD6",
"E.	c #8DABD6",
"F.	c #92AFD8",
"G.	c #97B3DB",
"H.	c #9AB5DC",
"I.	c #9BB6DC",
"J.	c #98B4DB",
"K.	c #94B0D9",
"L.	c #8EACD7",
"M.	c #9CBADE",
"N.	c #2959AD",
"O.	c #426DA5",
"P.	c #8CAED6",
"Q.	c #ADCBE7",
"R.	c #2955B5",
"S.	c #2955AD",
". + @ @ @ @ @ @ @ @ @ @ @ @ @ @ @ @ @ # $ ",
"+ % & & & & * = - ; > ; , ' ) & & & & ! # ",
"@ ~ { ] ] ^ / ( _ : < [ } | 1 2 3 ] 4 ~ @ ",
"@ 5 6 6 7 8 9 0 a a a a a a b c d e 6 5 @ ",
"@ 5 f g h i j j j j j j j j j j k l m 5 @ ",
"@ 5 n o p q q q q q q q q q q q q r s 5 @ ",
"@ t u v w x x x x x x x x x x x x y z A @ ",
"@ B C D E E E E E x x x x E E E E E F G @ ",
"@ B H I J J J J E K K K E J J J J J L M @ ",
"N $ O P Q Q Q Q R S S S R Q Q Q Q Q T U V ",
"W $ X Y R R R R Q S S S Q R R R R R Z U ` ",
" ...+.@.#.#.#.#.#.x x x #.#.#.#.#.#.$.%. .",
"&...*.=.K K K K K K K K K K K K K K -.;.>.",
"&.,.'.).!.~.~.~.~.~.~.~.~.~.~.~.~.{.].^./.",
"(._.:.<.[.}.}.}.}.}.}.}.}.}.}.}.}.|.1._.(.",
"(.2.3.4.5.6.7.7.7.7.7.7.7.7.7.7.8.9.0.2.(.",
"a.b.c.c.d.e.f.g.h.h.h.h.h.h.i.j.k.l.c.b.a.",
"(.m.n.n.n.o.p.q.r.s.t.u.v.w.x.y.z.n.n.m.(.",
"A.B.C.D.D.D.E.F.G.H.I.I.J.K.L.D.D.D.M.B.A.",
"N.O.P.Q.Q.Q.Q.Q.Q.Q.Q.Q.Q.Q.Q.Q.Q.Q.P.O.N.",
"R.S.A.A.A.A.A.A.A.A.A.A.A.A.A.A.A.A.A.N.R."};
