/* XPM */
static char * active_xpm[] = {
"6 30 27 1",
" 	c None",
".	c #294DAD",
"+	c #9CC7F7",
"@	c #84C3EF",
"#	c #84BEEF",
"$	c #7BBAEF",
"%	c #73BAEF",
"&	c #73B2EF",
"*	c #6BAAEF",
"=	c #6BA6EF",
"-	c #63A2EF",
";	c #639EE7",
">	c #5A9AE7",
",	c #5292DE",
"'	c #3982D6",
")	c #397DD6",
"!	c #3179CE",
"~	c #3175CE",
"{	c #3171C6",
"]	c #316DC6",
"^	c #3169C6",
"/	c #3165BD",
"(	c #3161BD",
"_	c #315DB5",
":	c #3159B5",
"<	c #2955B5",
"[	c #214194",
"......",
"++++++",
"@@@@@@",
"######",
"$$$$$$",
"%%%%%%",
"&&&&&&",
"&&&&&&",
"******",
"======",
"------",
"------",
";;;;;;",
">>>>>>",
",,,,,,",
"''''''",
"))))))",
"!!!!!!",
"~~~~~~",
"{{{{{{",
"]]]]]]",
"^^^^^^",
"//////",
"((((((",
"______",
"::::::",
"<<<<<<",
"<<<<<<",
"<<<<<<",
"[[[[[["};
