/* XPM */
static char * top_right_inactive_xpm[] = {
"6 30 47 1",
" 	c None",
".	c #4A71C6",
"+	c #5A7DBD",
"@	c #84B6E7",
"#	c #84B2E7",
"$	c #5275B5",
"%	c #5279BD",
"&	c #527DBD",
"*	c #7BA6DE",
"=	c #5282C6",
"-	c #7BAADE",
";	c #4A75C6",
">	c #5A86C6",
",	c #528AC6",
"'	c #4A79CE",
")	c #5A8ECE",
"!	c #84AADE",
"~	c #84AEDE",
"{	c #4A7DCE",
"]	c #5A92CE",
"^	c #527DCE",
"/	c #5282CE",
"(	c #6BA2DE",
"_	c #8CB2E7",
":	c #73A6DE",
"<	c #8CB6E7",
"[	c #5286D6",
"}	c #73AAE7",
"|	c #528AD6",
"1	c #7BAEE7",
"2	c #8CBAE7",
"3	c #94BAE7",
"4	c #528ED6",
"5	c #528EDE",
"6	c #94BEE7",
"7	c #5292DE",
"8	c #84BEE7",
"9	c #9CC3E7",
"0	c #5296DE",
"a	c #8CBEE7",
"b	c #8CC3E7",
"c	c #529AE7",
"d	c #94C3E7",
"e	c #9CC7E7",
"f	c #529EE7",
"g	c #7BA6E7",
"h	c #A5C7E7",
".     ",
"+..   ",
"@#+.  ",
"$$#+. ",
"%%%#. ",
"&&&#..",
"&&&&*.",
"====-;",
"====-;",
">>>>-;",
",,,,-'",
",,,,-'",
"))))!'",
"))))~{",
"]]]]~^",
"]]]]#/",
"((((_/",
"::::<[",
"}}}}<|",
"11112|",
"111134",
"####35",
"@@@@67",
"@@@@67",
"888890",
"aaaa90",
"bbbb9c",
"ddddec",
"ddddef",
"gggbhf"};
