/* XPM */
static char * top_rig_xpm[] = {
"6 30 46 1",
" 	c None",
".	c #294DAD",
"+	c #739AD6",
"@	c #9CCBF7",
"#	c #9CC7F7",
"$	c #84BEEF",
"%	c #7BBAEF",
"&	c #73BAEF",
"*	c #2955B5",
"=	c #73B2EF",
"-	c #8CB6E7",
";	c #3161BD",
">	c #6BAAEF",
",	c #8CBAE7",
"'	c #6BA6EF",
")	c #8CBAEF",
"!	c #63A2EF",
"~	c #639EE7",
"{	c #5A9AE7",
"]	c #5292DE",
"^	c #3982D6",
"/	c #397DD6",
"(	c #3179CE",
"_	c #3979CE",
":	c #8CBEEF",
"<	c #3175CE",
"[	c #3171C6",
"}	c #316DC6",
"|	c #4279C6",
"1	c #94BEEF",
"2	c #3169C6",
"3	c #4275C6",
"4	c #3165BD",
"5	c #94C3EF",
"6	c #4A75C6",
"7	c #315DB5",
"8	c #4A79C6",
"9	c #3159B5",
"0	c #5279C6",
"a	c #527DC6",
"b	c #9CC3EF",
"c	c #5A82C6",
"d	c #5A82CE",
"e	c #214194",
"f	c #214DAD",
"g	c #5A8ACE",
".     ",
"+..   ",
"@#+.  ",
"$$#+. ",
"%%%#. ",
"&&&#+*",
"====-;",
"====-;",
">>>>,;",
"'''');",
"!!!!);",
"!!!!);",
"~~~~,;",
"{{{{,;",
"]]]],;",
"^^^^);",
"////,;",
"(((_:;",
"<<<_:;",
"[[[_:;",
"}}}|1;",
"22231;",
"444|5;",
";;;65;",
"77785;",
"99905;",
"***ab;",
"***cb;",
"***d5;",
"eefg5;"};
