<?xml version="1.0" encoding="UTF-8" standalone="no"?>
<!-- Created with Inkscape (http://www.inkscape.org/) -->
<svg id="svg7384" xmlns:rdf="http://www.w3.org/1999/02/22-rdf-syntax-ns#" xmlns="http://www.w3.org/2000/svg" height="16.039" width="16" version="1.1" xmlns:cc="http://creativecommons.org/ns#" xmlns:dc="http://purl.org/dc/elements/1.1/">
 <metadata id="metadata90">
  <rdf:RDF>
   <cc:Work rdf:about="">
    <dc:format>image/svg+xml</dc:format>
    <dc:type rdf:resource="http://purl.org/dc/dcmitype/StillImage"/>
    <dc:title>Gnome Symbolic Icon Theme</dc:title>
   </cc:Work>
  </rdf:RDF>
 </metadata>
 <title id="title9167">Gnome Symbolic Icon Theme</title>
 <g id="layer10" transform="translate(429,-487)">
  <path id="rect3806" style="block-progression:tb;text-indent:0;color:#bebebe;text-transform:none;fill:#bebebe" d="m-425.81 487c-1.2016 0-2.1875 0.98757-2.1875 2.1875v0.8125h2v-0.8125c0-0.13089 0.0637-0.1875 0.1875-0.1875h9.625c0.12379 0 0.1875 0.0566 0.1875 0.1875v0.8125h2v-0.8125c0-1.1999-0.98591-2.1875-2.1875-2.1875h-9.625z"/>
  <path id="path3848" style="block-progression:tb;text-indent:0;color:#bebebe;text-transform:none;fill:#bebebe" d="m-425.81 499c-1.2016 0-2.1875 1.0188-2.1875 2.2188v1.8125h2v-1.8125c0-0.13089 0.0637-0.21875 0.1875-0.21875h9.625c0.12379 0 0.1875 0.0879 0.1875 0.21875v1.7812h2v-1.7812c-0.01-1.2-1-2.22-2.2-2.22h-9.625z"/>
  <path id="path3856" style="block-progression:tb;text-indent:0;color:#bebebe;text-transform:none;fill:#bebebe" d="m-425.81 491c-1.2016 0-2.1875 0.98757-2.1875 2.1875v0.8125h2v-0.8125c0-0.13089 0.0637-0.1875 0.1875-0.1875h9.625c0.12379 0 0.1875 0.0566 0.1875 0.1875v0.8125h2v-0.8125c0-1.1999-0.98591-2.1875-2.1875-2.1875h-9.625z"/>
  <path id="path3858" style="block-progression:tb;text-indent:0;color:#bebebe;text-transform:none;fill:#bebebe" d="m-425.81 495c-1.2016 0-2.1875 0.98757-2.1875 2.1875v0.8125h2v-0.8125c0-0.13089 0.0637-0.1875 0.1875-0.1875h9.625c0.12379 0 0.1875 0.0566 0.1875 0.1875v0.8125h2v-0.8125c0-1.1999-0.98591-2.1875-2.1875-2.1875h-9.625z"/>
 </g>
</svg>
