/* XPM */
static char * button_inactive_xpm[] = {
"19 26 2 1",
" 	c None",
".	c #9ea6b1 s inactive_color_1",
"                   ",
"                   ",
"                   ",
"                   ",
"                   ",
"      ......       ",
"    ..........     ",
"   ............    ",
"  ..............   ",
"  ..............   ",
" ................  ",
" ................  ",
" ................  ",
" ................  ",
" ................  ",
" ................  ",
"  ..............   ",
"  ..............   ",
"   ............    ",
"    ..........     ",
"      ......       ",
"                   ",
"                   ",
"                   ",
"                   ",
"                   "};
