<?xml version="1.0" encoding="UTF-8" standalone="no"?>
<!-- Created with Inkscape (http://www.inkscape.org/) -->
<svg id="svg7384" xmlns:rdf="http://www.w3.org/1999/02/22-rdf-syntax-ns#" xmlns="http://www.w3.org/2000/svg" height="16" width="16" version="1.1" xmlns:cc="http://creativecommons.org/ns#" xmlns:dc="http://purl.org/dc/elements/1.1/">
 <metadata id="metadata90">
  <rdf:RDF>
   <cc:Work rdf:about="">
    <dc:format>image/svg+xml</dc:format>
    <dc:type rdf:resource="http://purl.org/dc/dcmitype/StillImage"/>
    <dc:title>Gnome Symbolic Icon Theme</dc:title>
   </cc:Work>
  </rdf:RDF>
 </metadata>
 <title id="title9167">Gnome Symbolic Icon Theme</title>
 <g id="layer12" transform="translate(-161 -747)">
  <path id="path8378" style="block-progression:tb;text-indent:0;color:#000000;text-transform:none;fill:#bebebe" d="m163.78 750a1.0001 1.0001 0 0 0 -0.5 1.7188l5 5 0.71875 0.6875 0.71875-0.6875 5-5a1.0165 1.0165 0 1 0 -1.4375 -1.4375l-4.28 4.28-4.28-4.28a1.0001 1.0001 0 0 0 -0.94 -0.28z"/>
  <rect id="rect8382" style="color:#bebebe;fill:#bebebe" rx="0" ry="0" transform="rotate(90)" width="2" y="-175" x="758" height="12"/>
  <rect id="rect8384" style="fill:#bebebe" rx="0" ry="1" transform="matrix(0,-1,-1,0,0,0)" width="1" y="-175" x="-751" height="1"/>
  <rect id="rect8389" style="fill:#bebebe" rx="0" ry="1" transform="matrix(0,-1,-1,0,0,0)" width="1" y="-164" x="-751" height="1"/>
 </g>
</svg>
