#define shade_width 16
#define shade_height 16
static unsigned char shade_bits[] = {
   0x00, 0x00, 0x00, 0x00, 0x00, 0x00, 0x00, 0x00, 0x80, 0x01, 0xc0, 0x03,
   0x60, 0x06, 0x00, 0x00, 0x00, 0x00, 0x60, 0x06, 0xc0, 0x03, 0x80, 0x01,
   0x00, 0x00, 0x00, 0x00, 0x00, 0x00, 0x00, 0x00 };
