<?xml version="1.0" encoding="UTF-8" standalone="no"?>
<!-- Created with Inkscape (http://www.inkscape.org/) -->

<svg
   xmlns:dc="http://purl.org/dc/elements/1.1/"
   xmlns:cc="http://creativecommons.org/ns#"
   xmlns:rdf="http://www.w3.org/1999/02/22-rdf-syntax-ns#"
   xmlns:svg="http://www.w3.org/2000/svg"
   xmlns="http://www.w3.org/2000/svg"
   xmlns:sodipodi="http://sodipodi.sourceforge.net/DTD/sodipodi-0.dtd"
   xmlns:inkscape="http://www.inkscape.org/namespaces/inkscape"
   id="svg3014"
   height="22"
   width="26"
   version="1.1"
   inkscape:version="0.91 r13725"
   sodipodi:docname="xfpm-ups-charged.svg">
  <defs
     id="defs11" />
  <sodipodi:namedview
     pagecolor="#ffffff"
     bordercolor="#666666"
     borderopacity="1"
     objecttolerance="10"
     gridtolerance="10"
     guidetolerance="10"
     inkscape:pageopacity="0"
     inkscape:pageshadow="2"
     inkscape:window-width="1920"
     inkscape:window-height="1014"
     id="namedview9"
     showgrid="true"
     inkscape:snap-nodes="true"
     inkscape:zoom="40.153846"
     inkscape:cx="14.238279"
     inkscape:cy="12.420326"
     inkscape:window-x="0"
     inkscape:window-y="0"
     inkscape:window-maximized="1"
     inkscape:current-layer="svg3014">
    <inkscape:grid
       type="xygrid"
       id="grid2988" />
  </sodipodi:namedview>
  <metadata
     id="metadata3019">
    <rdf:RDF>
      <cc:Work
         rdf:about="">
        <dc:format>image/svg+xml</dc:format>
        <dc:type
           rdf:resource="http://purl.org/dc/dcmitype/StillImage" />
        <dc:title />
      </cc:Work>
    </rdf:RDF>
  </metadata>
  <g
     id="g4136"
     transform="matrix(0.83189655,0,0,0.6596424,2.1604406,3.7688378)">
    <rect
       ry="0"
       rx="0"
       y="5"
       x="1"
       height="12"
       width="21"
       id="rect2983"
       style="opacity:0.2;fill:#ffffff;fill-opacity:1;stroke:none" />
    <path
       sodipodi:nodetypes="cccccccccccccccccccccccc"
       inkscape:connector-curvature="0"
       id="path2990"
       d="M 2.299369,6.0176099 1,5 l 22,0 0,3 2,0 0,6 -2,0 0,3 -22,0 0,-11 9,7 2.000001,-6 9,7 -8,-5 -2,6 L 2,8 2,16 22.000001,16 22,13 l 2,0 0,-4 -2,0 1e-6,-3 z"
       style="fill:#f2f2f2;fill-opacity:1;stroke:none" />
    <rect
       y="9"
       x="22"
       height="4"
       width="2"
       id="rect3937"
       style="opacity:0.2;fill:#ffffff;fill-opacity:1;stroke:none" />
  </g>
</svg>
