<?xml version="1.0" encoding="UTF-8" standalone="no"?>
<!-- Created with Inkscape (http://www.inkscape.org/) -->

<svg
   xmlns:dc="http://purl.org/dc/elements/1.1/"
   xmlns:cc="http://creativecommons.org/ns#"
   xmlns:rdf="http://www.w3.org/1999/02/22-rdf-syntax-ns#"
   xmlns:svg="http://www.w3.org/2000/svg"
   xmlns="http://www.w3.org/2000/svg"
   xmlns:xlink="http://www.w3.org/1999/xlink"
   xmlns:sodipodi="http://sodipodi.sourceforge.net/DTD/sodipodi-0.dtd"
   xmlns:inkscape="http://www.inkscape.org/namespaces/inkscape"
   width="64"
   height="64"
   id="svg5453"
   version="1.1"
   inkscape:version="0.91 r13725"
   sodipodi:docname="user-trash-full.svg">
  <defs
     id="defs5455">
    <linearGradient
       id="linearGradient4172"
       inkscape:collect="always">
      <stop
         id="stop4174"
         offset="0"
         style="stop-color:#8a8787;stop-opacity:1" />
      <stop
         id="stop4176"
         offset="1"
         style="stop-color:#c4bebe;stop-opacity:1" />
    </linearGradient>
    <linearGradient
       inkscape:collect="always"
       xlink:href="#linearGradient4172"
       id="linearGradient4182-2"
       gradientUnits="userSpaceOnUse"
       x1="414.57144"
       y1="523.79797"
       x2="414.57144"
       y2="505.798"
       gradientTransform="matrix(1,0,0,0.99954446,0,-15.75674)" />
  </defs>
  <sodipodi:namedview
     id="base"
     pagecolor="#ffffff"
     bordercolor="#666666"
     borderopacity="1.0"
     inkscape:pageopacity="0"
     inkscape:pageshadow="2"
     inkscape:zoom="12.06501"
     inkscape:cx="51.460757"
     inkscape:cy="37.035622"
     inkscape:document-units="px"
     inkscape:current-layer="layer1"
     showgrid="true"
     fit-margin-top="0"
     fit-margin-left="0"
     fit-margin-right="0"
     fit-margin-bottom="0"
     inkscape:window-width="1920"
     inkscape:window-height="1016"
     inkscape:window-x="0"
     inkscape:window-y="0"
     inkscape:window-maximized="1"
     inkscape:showpageshadow="false"
     borderlayer="true"
     inkscape:snap-bbox="true">
    <sodipodi:guide
       position="6.0000117,57.999996"
       orientation="51.999969,0"
       id="guide4097" />
    <sodipodi:guide
       position="6.0000117,6.0000264"
       orientation="0,52"
       id="guide4099" />
    <sodipodi:guide
       position="58.000012,6.0000264"
       orientation="-51.999969,0"
       id="guide4101" />
    <sodipodi:guide
       position="58.000012,57.999996"
       orientation="0,-52"
       id="guide4103" />
    <sodipodi:guide
       position="3.0000117,60.999996"
       orientation="57.999969,0"
       id="guide4105" />
    <sodipodi:guide
       position="3.0000117,3.0000264"
       orientation="0,58"
       id="guide4107" />
    <sodipodi:guide
       position="61.000012,3.0000264"
       orientation="-57.999969,0"
       id="guide4109" />
    <sodipodi:guide
       position="61.000012,60.999996"
       orientation="0,-58"
       id="guide4111" />
    <inkscape:grid
       type="xygrid"
       id="grid4115" />
    <sodipodi:guide
       position="20.000012,38.999996"
       orientation="23.999969,0"
       id="guide4129" />
    <sodipodi:guide
       position="20.000012,15.000026"
       orientation="0,24"
       id="guide4131" />
    <sodipodi:guide
       position="44.000012,15.000026"
       orientation="-23.999969,0"
       id="guide4133" />
    <sodipodi:guide
       position="44.000012,38.999996"
       orientation="0,-24"
       id="guide4135" />
    <sodipodi:guide
       position="22.000015,36.999992"
       orientation="19.999975,0"
       id="guide4137" />
    <sodipodi:guide
       position="22.000015,17.000017"
       orientation="0,20"
       id="guide4139" />
    <sodipodi:guide
       position="42.000015,17.000017"
       orientation="-19.999975,0"
       id="guide4141" />
    <sodipodi:guide
       position="42.000015,36.999992"
       orientation="0,-20"
       id="guide4143" />
    <sodipodi:guide
       position="22.000012,36.999996"
       orientation="7.9999695,0"
       id="guide4187" />
    <sodipodi:guide
       position="30.000012,36.999996"
       orientation="0,-8"
       id="guide4193" />
    <sodipodi:guide
       position="26.000012,17.000026"
       orientation="0,12"
       id="guide4300" />
  </sodipodi:namedview>
  <metadata
     id="metadata5458">
    <rdf:RDF>
      <cc:Work
         rdf:about="">
        <dc:format>image/svg+xml</dc:format>
        <dc:type
           rdf:resource="http://purl.org/dc/dcmitype/StillImage" />
        <dc:title />
      </cc:Work>
    </rdf:RDF>
  </metadata>
  <g
     inkscape:label="Capa 1"
     inkscape:groupmode="layer"
     id="layer1"
     transform="translate(-384.57143,-483.798)">
    <path
       inkscape:connector-curvature="0"
       style="fill:url(#linearGradient4182-2);fill-opacity:1.0;stroke:none"
       d="m 388.57143,489.7981 0,5 0,22 c 0,0.55374 0.446,1 1,1 l 54,0 c 0.55399,0 1,-0.44626 1,-1 l 0,-21.99023 c 0,-0.004 -0.002,-0.006 -0.002,-0.01 l 0.002,3e-5 0,-1 -28,0 -3,-4 -25,0 z"
       id="rect4180-8" />
    <rect
       style="opacity:0.15;fill:#000000;fill-opacity:1;stroke:none"
       id="rect3012"
       width="51.999989"
       height="15"
       x="390.6337"
       y="496.7926"
       rx="1"
       ry="1" />
    <rect
       ry="0.93333364"
       rx="0.96153867"
       y="497.7926"
       x="391.6337"
       height="14.000004"
       width="50"
       id="rect3014"
       style="fill:#ffffff;fill-opacity:1;stroke:none" />
    <path
       inkscape:connector-curvature="0"
       style="fill:#d1d1d1;fill-opacity:1;stroke:none"
       d="m 406.57143,501.70444 -3,3.81844 -16,0 0,0.95462 0.002,0 c -5e-5,0.004 -0.002,0.008 -0.002,0.0112 l 0,34.35481 0,0.95461 1,0 56,0 1,0 0,-0.95461 0,-34.35481 0,-0.0112 0,-4.77306 -39,0 z"
       id="rect4113-4" />
    <path
       inkscape:connector-curvature="0"
       style="fill:#adadad;fill-opacity:1;stroke:none"
       d="m 387.57143,540.7981 0,1 1,0 56,0 1,0 0,-1 -1,0 -56,0 -1,0 z"
       id="path4151" />
    <path
       style="fill:#adadad;fill-opacity:1;fill-rule:evenodd;stroke:none;stroke-width:1px;stroke-linecap:butt;stroke-linejoin:miter;stroke-opacity:1"
       d="m 444.57143,493.7981 0,1 -29,0 -2,-5 3,4 z"
       id="path4222"
       inkscape:connector-curvature="0" />
    <path
       style="fill:#ffffff;fill-opacity:0.23529412;fill-rule:evenodd;stroke:none;stroke-width:1px;stroke-linecap:butt;stroke-linejoin:miter;stroke-opacity:1"
       d="m 387.57144,505.5909 0,1 16.99999,0 2,-5 -3,4 z"
       id="path4224"
       inkscape:connector-curvature="0" />
    <path
       style="fill:#959595;fill-opacity:1;fill-rule:evenodd;stroke:none;stroke-width:1px;stroke-linecap:butt;stroke-linejoin:miter;stroke-opacity:1"
       d="m 388.57143,504.7981 0,1 15,0 3,-4 -5,3 z"
       id="path4228"
       inkscape:connector-curvature="0" />
    <path
       inkscape:connector-curvature="0"
       style="fill:#adadad;fill-opacity:1;stroke:none"
       d="m 413.57143,510.798 0,2 -6.99999,0 1e-5,1 1.99998,0 0,16.99997 1,0 15,0 0,-1.99997 0,-15 2.00002,0 0,-1 -7.00002,0 0,-1.99999 z m 1,1 4,0 0,2 1,0 4,0 0,16 -14,0 0,-16 5,0 z m -1,6 0,8 1,0 0,-8 z m 5,0 0,8 1,0 0,-8 z"
       id="path4153"
       sodipodi:nodetypes="ccccccccccccccccccccccccccccccccccc" />
  </g>
</svg>
