/* XPM */
static char * active_xpm[] = {
"21 21 161 2",
"  	c None",
". 	c #73B2EF",
"+ 	c #6396D6",
"@ 	c #4A71C6",
"# 	c #5A92D6",
"$ 	c #6BAEE7",
"% 	c #5279C6",
"& 	c #BDA2AD",
"* 	c #E7AE9C",
"= 	c #E7AA9C",
"- 	c #EFAA9C",
"; 	c #C69EA5",
"> 	c #6B82BD",
", 	c #BD9EAD",
"' 	c #CEA294",
") 	c #C6968C",
"! 	c #CE9684",
"~ 	c #CE9284",
"{ 	c #D79385",
"] 	c #DB9D90",
"^ 	c #DEA497",
"/ 	c #E0A594",
"( 	c #E0A796",
"_ 	c #E4A18F",
": 	c #E29987",
"< 	c #DE8F7C",
"[ 	c #DE8E7B",
"} 	c #E78A73",
"| 	c #E79A84",
"1 	c #DEAA9C",
"2 	c #E78673",
"3 	c #DE8A73",
"4 	c #D3988E",
"5 	c #D9A695",
"6 	c #E2AA99",
"7 	c #E2AB9B",
"8 	c #E3AC9C",
"9 	c #E3AD9D",
"0 	c #E2A79B",
"a 	c #E7A699",
"b 	c #E6A28E",
"c 	c #E1947E",
"d 	c #E7A694",
"e 	c #E7A69C",
"f 	c #E7866B",
"g 	c #E7826B",
"h 	c #EA8F7A",
"i 	c #DBA599",
"j 	c #E3A89C",
"k 	c #E3A996",
"l 	c #E3A696",
"m 	c #E8A696",
"n 	c #E8A595",
"o 	c #E7A28B",
"p 	c #DE826B",
"q 	c #EA886F",
"r 	c #E2A08B",
"s 	c #F4DED7",
"t 	c #FFFFFF",
"u 	c #DDA996",
"v 	c #E7A294",
"w 	c #DE7E65",
"x 	c #EE9982",
"y 	c #E89F8F",
"z 	c #DDA396",
"A 	c #E28671",
"B 	c #EF977E",
"C 	c #E89B88",
"D 	c #DD9F8F",
"E 	c #E7A28C",
"F 	c #E79E8C",
"G 	c #E58D73",
"H 	c #EF9878",
"I 	c #E8987F",
"J 	c #DD9B88",
"K 	c #426DAD",
"L 	c #E26B3E",
"M 	c #E86F35",
"N 	c #DD734B",
"O 	c #D7775E",
"P 	c #4271AD",
"Q 	c #3969AD",
"R 	c #E36E40",
"S 	c #E3734B",
"T 	c #D77755",
"U 	c #E78A6B",
"V 	c #3969A5",
"W 	c #3161A5",
"X 	c #E76D33",
"Y 	c #E37341",
"Z 	c #295DA5",
"` 	c #E6672F",
" .	c #EF6B28",
"..	c #E36F41",
"+.	c #D77355",
"@.	c #FFFAFA",
"#.	c #315DA5",
"$.	c #E78E73",
"%.	c #EB6431",
"&.	c #EF7741",
"*.	c #E87B4B",
"=.	c #DD7E5E",
"-.	c #295D9C",
";.	c #29599C",
">.	c #EF927B",
",.	c #E86236",
"'.	c #F48049",
").	c #E8865E",
"!.	c #E38A70",
"~.	c #EF9A84",
"{.	c #EF6D4A",
"].	c #F17F55",
"^.	c #EF9478",
"/.	c #F4D8D1",
"(.	c #21599C",
"_.	c #EFA694",
":.	c #EF8263",
"<.	c #F7855D",
"[.	c #F99670",
"}.	c #EFA696",
"|.	c #EFA996",
"1.	c #EFA98F",
"2.	c #EFA68F",
"3.	c #EFA688",
"4.	c #F4A688",
"5.	c #F4A67F",
"6.	c #EFA68C",
"7.	c #EFAE9C",
"8.	c #EF967B",
"9.	c #F79673",
"0.	c #F79977",
"a.	c #EBA594",
"b.	c #EFB1A2",
"c.	c #EFB3A4",
"d.	c #F4B39D",
"e.	c #F4B19B",
"f.	c #F2A585",
"g.	c #295994",
"h.	c #A59AAD",
"i.	c #EFA896",
"j.	c #F0AC9B",
"k.	c #F2B4A4",
"l.	c #F3BBAB",
"m.	c #F4BEAF",
"n.	c #F4C0B1",
"o.	c #F3BBA5",
"p.	c #F2B49D",
"q.	c #F0AC93",
"r.	c #EFA88E",
"s.	c #F7A68C",
"t.	c #EFAA94",
"u.	c #2955B5",
"v.	c #426DA5",
"w.	c #A59EB5",
"x.	c #EFC7BD",
"y.	c #EFC9BF",
"z.	c #F0CAC0",
"A.	c #F0CAC1",
"B.	c #F0C6B8",
"C.	c #F7C5B7",
"D.	c #F7C3B5",
". + @ @ @ @ @ @ @ @ @ @ @ @ @ @ @ @ @ # $ ",
"+ % & * = = = = = = = = = - - - - - ; > # ",
"@ , ' ) ! ~ { ] ^ / ( / _ : < [ } } | ; @ ",
"@ 1 2 2 3 4 5 6 7 8 9 8 0 a b c 3 2 2 d @ ",
"@ e f g h i j k k l m m m m n o h g f d @ ",
"@ d p q r s t u u u u u u u t s r q p v @ ",
"@ v w x y t t t z z z z z t t t y x w v @ ",
"@ v A B C D t t t D D D t t t D C B A E @ ",
"@ F G H I J J t t t J t t t J J I H G F @ ",
"K 3 L M N O O O t t t t t O O O N M L } P ",
"Q } R M S T T T T t t t T T T T S M R U V ",
"W 2 X M Y T T T t t t t t T T T Y M X f W ",
"Z 2 `  ...+.+.t t t +.t t @.+.+... .` f #.",
"Z $.%.&.*.=.t t t =.=.=.t t t =.*.&.%.$.-.",
";.>.,.'.).t t t !.!.!.!.!.t t t ).'.,.>.;.",
";.~.{.].^./.t I I I I I I I t /.^.].{.~.;.",
"(._.:.<.[.}.|.|.1.1.1.2.3.4.4.5.[.<.:.6.(.",
";.7.8.9.0.a.b.c.c.c.d.d.d.d.e.f.0.9.8.7.;.",
"g.h.- _._.i.j.k.l.m.n.m.o.p.q.r.6.s.t.h.g.",
"u.v.w.x.x.x.x.y.z.A.A.A.B.C.D.D.D.D.w.v.u.",
"u.u.g.g.g.g.g.g.g.g.g.g.g.g.g.g.g.g.g.u.u."};
