/* XPM */
static char * minimize_active_xpm[] = {
"21 21 61 1",
" 	c None",
".	c #6BA2DE",
"+	c #6396D6",
"@	c #4A71C6",
"#	c #5A86CE",
"$	c #6B9EDE",
"%	c #5279C6",
"&	c #9CC3EF",
"*	c #7392CE",
"=	c #94B6E7",
"-	c #8CBAEF",
";	c #84B6E7",
">	c #94BAEF",
",	c #8CB2E7",
"'	c #7BB2E7",
")	c #7BAEE7",
"!	c #73AAE7",
"~	c #84B2E7",
"{	c #6BA6E7",
"]	c #84AEE7",
"^	c #6BA2E7",
"/	c #639EE7",
"(	c #426DAD",
"_	c #4A8ADE",
":	c #4A8EDE",
"<	c #4271AD",
"[	c #3969AD",
"}	c #4286D6",
"|	c #3969A5",
"1	c #3161A5",
"2	c #6B9ED6",
"3	c #397DCE",
"4	c #295DA5",
"5	c #3979CE",
"6	c #315DA5",
"7	c #73A2D6",
"8	c #397DC6",
"9	c #FFFFFF",
"0	c #73A2DE",
"a	c #295D9C",
"b	c #29599C",
"c	c #7BAADE",
"d	c #427DC6",
"e	c #84AEDE",
"f	c #4A82C6",
"g	c #21599C",
"h	c #8CB6DE",
"i	c #5A86C6",
"j	c #9CBEE7",
"k	c #638AC6",
"l	c #295994",
"m	c #84AAD6",
"n	c #A5C3E7",
"o	c #8CAAD6",
"p	c #9CBADE",
"q	c #2959AD",
"r	c #426DA5",
"s	c #8CAED6",
"t	c #ADCBE7",
"u	c #2955B5",
"v	c #2955AD",
".+@@@@@@@@@@@@@@@@@#$",
"+%&&&&&&&&&&&&&&&&&*#",
"@=-;;;;;;;;;;;;;;;>=@",
"@,''''''''''''''''',@",
"@,))))))))))))))))),@",
"@,!!!!!!!!!!!!!!!!!,@",
"@~{{{{{{{{{{{{{{{{{~@",
"@]^^^^^^^^^^^^^^^^^]@",
"@]/////////////////]@",
"($_:::::_::::::::::$<",
"[$}}}}}}}}}}}}}}}}}$|",
"123333333333333333321",
"425555555555555555526",
"47888999999988888880a",
"bcddd9999999dddddddcb",
"befff9999999fffffffeb",
"ghiiiiiiiiiiiiiiiiihg",
"bjkkkkkkkkkkkkkkkkkjb",
"lmnooooooooooooooopml",
"qrstttttttttttttttsrq",
"uvlllllllllllllllllqu"};
