/* XPM */
static char * maxize_toggle_xpm[] = {
"21 21 101 2",
"  	c None",
". 	c #6BA2DE",
"+ 	c #6396D6",
"@ 	c #4A71C6",
"# 	c #5A86CE",
"$ 	c #6B9EDE",
"% 	c #5279C6",
"& 	c #9CC3EF",
"* 	c #7392CE",
"= 	c #94B6E7",
"- 	c #8CBAEF",
"; 	c #84B6E7",
"> 	c #94BAEF",
", 	c #8CB2E7",
"' 	c #7BB2E7",
") 	c #E5F3FC",
"! 	c #7AAEE7",
"~ 	c #7BAEE7",
"{ 	c #72AAE7",
"] 	c #71A9E6",
"^ 	c #73A9E7",
"/ 	c #73AAE7",
"( 	c #84B2E7",
"_ 	c #6BA6E7",
": 	c #6BA5E7",
"< 	c #6BA6E6",
"[ 	c #6AA5E6",
"} 	c #84AEE7",
"| 	c #6BA2E7",
"1 	c #69A1E6",
"2 	c #68A0E6",
"3 	c #6AA1E6",
"4 	c #639EE7",
"5 	c #629EE5",
"6 	c #619CE5",
"7 	c #5D99E3",
"8 	c #629DE6",
"9 	c #436FAF",
"0 	c #689BDC",
"a 	c #4A8ADD",
"b 	c #4A8CDD",
"c 	c #4A8BDD",
"d 	c #4C8EDD",
"e 	c #4B8DDD",
"f 	c #4A8DDD",
"g 	c #4B8EDD",
"h 	c #4D8FDE",
"i 	c #4A8EDE",
"j 	c #4B8FDE",
"k 	c #4D8FDF",
"l 	c #6A9DDE",
"m 	c #4372AF",
"n 	c #3F71B5",
"o 	c #5890D5",
"p 	c #4687D4",
"q 	c #4386D4",
"r 	c #4286D4",
"s 	c #4185D4",
"t 	c #4084D5",
"u 	c #4385D3",
"v 	c #4586D3",
"w 	c #5C91D4",
"x 	c #4072B0",
"y 	c #3161A5",
"z 	c #6B9ED6",
"A 	c #397DCE",
"B 	c #3A7DCE",
"C 	c #3B7ECF",
"D 	c #3C80D1",
"E 	c #397CCE",
"F 	c #295DA5",
"G 	c #3979CE",
"H 	c #3A7ACF",
"I 	c #3A7BCE",
"J 	c #397ACD",
"K 	c #315DA5",
"L 	c #73A2D6",
"M 	c #397DC6",
"N 	c #73A2DE",
"O 	c #295D9C",
"P 	c #29599C",
"Q 	c #7BAADE",
"R 	c #427DC6",
"S 	c #84AEDE",
"T 	c #4A82C6",
"U 	c #21599C",
"V 	c #8CB6DE",
"W 	c #5A86C6",
"X 	c #9CBEE7",
"Y 	c #638AC6",
"Z 	c #295994",
"` 	c #84AAD6",
" .	c #A5C3E7",
"..	c #8CAAD6",
"+.	c #9CBADE",
"@.	c #2959AD",
"#.	c #426DA5",
"$.	c #8CAED6",
"%.	c #ADCBE7",
"&.	c #2955B5",
"*.	c #2955AD",
". + @ @ @ @ @ @ @ @ @ @ @ @ @ @ @ @ @ # $ ",
"+ % & & & & & & & & & & & & & & & & & * # ",
"@ = - ; ; ; ; ; ; ; ; ; ; ; ; ; ; ; > = @ ",
"@ , ' ' ' ' ' ) ) ) ) ) ) ) ) ) ) ' ' , @ ",
"@ , ! ~ ~ ~ ~ ) ) ) ) ) ) ) ) ) ) ~ ~ , @ ",
"@ , { ] ^ { / ) ) ) ) ) ) ) ) ) ) / / , @ ",
"@ ( _ _ : < [ ) _ _ _ _ _ _ _ _ ) _ _ ( @ ",
"@ } | | ) ) ) ) 1 2 3 | | | | | ) | | } @ ",
"@ } 4 4 ) ) ) ) 5 6 6 7 6 8 8 8 ) 4 4 } @ ",
"9 0 a b ) ) ) ) c d e f g h i i ) j k l m ",
"n o p q ) r r ) r r r r s s t s ) u v w x ",
"y z A A ) A A ) A A A B C D C E ) A A z y ",
"F z G G ) G G ) G G G G G H I J ) G G z K ",
"F L M M ) M M ) ) ) ) ) ) ) ) ) ) M M N O ",
"P Q R R ) R R R R R R R ) R R R R R R Q P ",
"P S T T ) ) ) ) ) ) ) ) ) T T T T T T S P ",
"U V W W W W W W W W W W W W W W W W W V U ",
"P X Y Y Y Y Y Y Y Y Y Y Y Y Y Y Y Y Y X P ",
"Z `  ...............................+.` Z ",
"@.#.$.%.%.%.%.%.%.%.%.%.%.%.%.%.%.%.$.#.@.",
"&.*.Z Z Z Z Z Z Z Z Z Z Z Z Z Z Z Z Z @.&."};
