/* XPM */
static char * max_xpm[] = {
"21 21 61 1",
" 	c None",
".	c #6BA2DE",
"+	c #6396D6",
"@	c #4A71C6",
"#	c #5A86CE",
"$	c #6B9EDE",
"%	c #5279C6",
"&	c #9CC3EF",
"*	c #7392CE",
"=	c #94B6E7",
"-	c #8CBAEF",
";	c #84B6E7",
">	c #94BAEF",
",	c #8CB2E7",
"'	c #7BB2E7",
")	c #7BAEE7",
"!	c #73AAE7",
"~	c #FFFFFF",
"{	c #84B2E7",
"]	c #6BA6E7",
"^	c #84AEE7",
"/	c #6BA2E7",
"(	c #639EE7",
"_	c #426DAD",
":	c #4A8ADE",
"<	c #4A8EDE",
"[	c #4271AD",
"}	c #3969AD",
"|	c #4286D6",
"1	c #3969A5",
"2	c #3161A5",
"3	c #6B9ED6",
"4	c #397DCE",
"5	c #295DA5",
"6	c #3979CE",
"7	c #315DA5",
"8	c #73A2D6",
"9	c #397DC6",
"0	c #73A2DE",
"a	c #295D9C",
"b	c #29599C",
"c	c #7BAADE",
"d	c #427DC6",
"e	c #84AEDE",
"f	c #4A82C6",
"g	c #21599C",
"h	c #8CB6DE",
"i	c #5A86C6",
"j	c #9CBEE7",
"k	c #638AC6",
"l	c #295994",
"m	c #84AAD6",
"n	c #A5C3E7",
"o	c #8CAAD6",
"p	c #9CBADE",
"q	c #2959AD",
"r	c #426DA5",
"s	c #8CAED6",
"t	c #ADCBE7",
"u	c #2955B5",
"v	c #2955AD",
".+@@@@@@@@@@@@@@@@@#$",
"+%&&&&&&&&&&&&&&&&&*#",
"@=-;;;;;;;;;;;;;;;>=@",
"@,''''''''''''''''',@",
"@,))))))))))))))))),@",
"@,!!!~~~~~~~~~~~!!!,@",
"@{]]]~~~~~~~~~~~]]]{@",
"@^///~~~~~~~~~~~///^@",
"@^(((~(((((((((~(((^@",
"_$:<<~<<:<<<<<<~<<<$[",
"}$|||~|||||||||~|||$1",
"23444~444444444~44432",
"53666~666666666~66637",
"58999~999999999~9990a",
"bcddd~ddddddddd~dddcb",
"befff~~~~~~~~~~~fffeb",
"ghiiiiiiiiiiiiiiiiihg",
"bjkkkkkkkkkkkkkkkkkjb",
"lmnooooooooooooooopml",
"qrstttttttttttttttsrq",
"uvlllllllllllllllllqu"};
