/* XPM */
static char * maximize_inactive_xpm[] = {
"21 21 58 1",
" 	c None",
".	c #4275C6",
"+	c #396DBD",
"@	c #295994",
"#	c #3971BD",
"$	c #426DA5",
"%	c #94B6DE",
"&	c #ADCBE7",
"*	c #84AAD6",
"=	c #9CBEE7",
"-	c #8CAAD6",
";	c #29599C",
">	c #638AC6",
",	c #21599C",
"'	c #8CB6DE",
")	c #5A86C6",
"!	c #84AEDE",
"~	c #4A82C6",
"{	c #FFFFFF",
"]	c #7BAADE",
"^	c #427DC6",
"/	c #295DA5",
"(	c #73A2D6",
"_	c #397DC6",
":	c #73A2DE",
"<	c #295D9C",
"[	c #6B9ED6",
"}	c #3979CE",
"|	c #315DA5",
"1	c #3161A5",
"2	c #397DCE",
"3	c #3969AD",
"4	c #6B9EDE",
"5	c #4286D6",
"6	c #3969A5",
"7	c #426DAD",
"8	c #4A8ADE",
"9	c #4A8EDE",
"0	c #4271AD",
"a	c #4A71C6",
"b	c #84AEE7",
"c	c #639EE7",
"d	c #6BA2E7",
"e	c #84B2E7",
"f	c #6BA6E7",
"g	c #8CB2E7",
"h	c #73AAE7",
"i	c #7BAEE7",
"j	c #7BB2E7",
"k	c #94B6E7",
"l	c #8CBAEF",
"m	c #84B6E7",
"n	c #94BAEF",
"o	c #639EDE",
"p	c #5279C6",
"q	c #9CC3EF",
"r	c #84C3EF",
"s	c #639ADE",
".+@@@@@@@@@@@@@@@@@+.",
"#$%&&&&&&&&&&&&&&&%$#",
"@*=---------------=*@",
";=>>>>>>>>>>>>>>>>>=;",
",')))))))))))))))))',",
";!~~~{{{{{{{{{{{~~~!;",
";]^^^{{{{{{{{{{{^^^];",
"/(___{{{{{{{{{{{___:<",
"/[}}}{}}}}}}}}}{}}}[|",
"1[222{222222222{222[1",
"34555{555555555{55546",
"74899{998999999{99940",
"abccc{ccccccccc{cccba",
"abddd{ddddddddd{dddba",
"aefff{fffffffff{fffea",
"aghhh{{{{{{{{{{{hhhga",
"agiiiiiiiiiiiiiiiiiga",
"agjjjjjjjjjjjjjjjjjga",
"aklmmmmmmmmmmmmmmmnka",
"opqqqqqqqqqqqqqqqqqao",
"rsaaaaaaaaaaaaaaaaasr"};
