/* XPM */
static char * menu_inactive_xpm[] = {
"21 21 15 1",
" 	c None",
".	c #527DBD",
"+	c #5282C6",
"@	c #5A86C6",
"#	c #528AC6",
"$	c #5A8ECE",
"%	c #5A92CE",
"&	c #6BA2DE",
"*	c #73A6DE",
"=	c #73AAE7",
"-	c #7BAEE7",
";	c #84B2E7",
">	c #84B6E7",
",	c #84BEE7",
"'	c #8CBEE7",
".....................",
".....................",
"+++++++++++++++++++++",
"+++++++++++++++++++++",
"@@@@@@@@@@@@@@@@@@@@@",
"#####################",
"#####################",
"$$$$$$$$$$$$$$$$$$$$$",
"$$$$$$$$$$$$$$$$$$$$$",
"%%%%%%%%%%%%%%%%%%%%%",
"%%%%%%%%%%%%%%%%%%%%%",
"&&&&&&&&&&&&&&&&&&&&&",
"*********************",
"=====================",
"---------------------",
"---------------------",
";;;;;;;;;;;;;;;;;;;;;",
">>>>>>>>>>>>>>>>>>>>>",
">>>>>>>>>>>>>>>>>>>>>",
",,,,,,,,,,,,,,,,,,,,,",
"'''''''''''''''''''''"};
