/* XPM */
static char * noshare_xpm[] = {
"21 21 109 2",
"  	c None",
". 	c #6BA2DE",
"+ 	c #6396D6",
"@ 	c #4A71C6",
"# 	c #5A86CE",
"$ 	c #6B9EDE",
"% 	c #5279C6",
"& 	c #9CC3EF",
"* 	c #7392CE",
"= 	c #94B6E7",
"- 	c #8CBAEF",
"; 	c #84B6E7",
"> 	c #94BAEF",
", 	c #8CB2E7",
"' 	c #7BB2E7",
") 	c #7AAEE7",
"! 	c #7BAEE7",
"~ 	c #72AAE7",
"{ 	c #71A9E6",
"] 	c #73A9E7",
"^ 	c #73AAE7",
"/ 	c #84B2E7",
"( 	c #6BA6E7",
"_ 	c #6BA5E7",
": 	c #6BA6E6",
"< 	c #6AA5E6",
"[ 	c #6AA4E6",
"} 	c #84AEE7",
"| 	c #6BA2E7",
"1 	c #6BA3E6",
"2 	c #6AA2E7",
"3 	c #69A1E6",
"4 	c #68A0E6",
"5 	c #6AA1E6",
"6 	c #639EE7",
"7 	c #629EE7",
"8 	c #5E9BE5",
"9 	c #609BE5",
"0 	c #629EE5",
"a 	c #619CE5",
"b 	c #5D99E3",
"c 	c #629DE6",
"d 	c #436FAF",
"e 	c #689BDC",
"f 	c #4A8ADD",
"g 	c #4A8CDD",
"h 	c #498CDC",
"i 	c #5E9EE4",
"j 	c #64A2E4",
"k 	c #83B4E9",
"l 	c #64A2E5",
"m 	c #4D90DF",
"n 	c #4A8EDE",
"o 	c #4B8FDE",
"p 	c #4D8FDF",
"q 	c #6A9DDE",
"r 	c #4372AF",
"s 	c #3F71B5",
"t 	c #5890D5",
"u 	c #4687D4",
"v 	c #4386D4",
"w 	c #4286D4",
"x 	c #3C7CCF",
"y 	c #FFFFFF",
"z 	c #4685D3",
"A 	c #4285D4",
"B 	c #4385D3",
"C 	c #4586D3",
"D 	c #5C91D4",
"E 	c #4072B0",
"F 	c #3161A5",
"G 	c #6B9ED6",
"H 	c #397DCE",
"I 	c #3979CE",
"J 	c #4E8CD6",
"K 	c #397CCE",
"L 	c #295DA5",
"M 	c #528FD8",
"N 	c #3A7BCE",
"O 	c #397ACD",
"P 	c #315DA5",
"Q 	c #73A2D6",
"R 	c #397DC6",
"S 	c #397DC8",
"T 	c #397DC7",
"U 	c #73A2DE",
"V 	c #295D9C",
"W 	c #29599C",
"X 	c #7BAADE",
"Y 	c #427DC6",
"Z 	c #84AEDE",
"` 	c #4A82C6",
" .	c #5894DA",
"..	c #21599C",
"+.	c #8CB6DE",
"@.	c #5A86C6",
"#.	c #9CBEE7",
"$.	c #638AC6",
"%.	c #295994",
"&.	c #84AAD6",
"*.	c #A5C3E7",
"=.	c #8CAAD6",
"-.	c #9CBADE",
";.	c #2959AD",
">.	c #426DA5",
",.	c #8CAED6",
"'.	c #ADCBE7",
").	c #2955B5",
"!.	c #2955AD",
". + @ @ @ @ @ @ @ @ @ @ @ @ @ @ @ @ @ # $ ",
"+ % & & & & & & & & & & & & & & & & & * # ",
"@ = - ; ; ; ; ; ; ; ; ; ; ; ; ; ; ; > = @ ",
"@ , ' ' ' ' ' ' ' ' ' ' ' ' ' ' ' ' ' , @ ",
"@ , ) ! ! ! ! ! ! ! ! ! ! ! ! ! ! ! ! , @ ",
"@ , ~ { ] ~ ^ ^ ^ ^ ^ ^ ^ ^ ^ ^ ^ ^ ^ , @ ",
"@ / ( ( _ : < [ ( ( ( ( ( ( ( ( ( ( ( / @ ",
"@ } | | | | 1 2 3 4 5 | | | | | | | | } @ ",
"@ } 6 6 6 7 8 9 0 a a b a c c c c 6 6 } @ ",
"d e f g h i j ! ! ! ! ! ! k l m n o p q r ",
"s t u v w x y y y y y y y y y z A B C D E ",
"F G H H H H I y y y y y y y J K K H H G F ",
"L G I I I I I I y y y y y M N O I I I G P ",
"L Q R R R R R R I y y y M R S T R R R U V ",
"W X Y Y Y Y Y Y Y I y M Y Y Y Y Y Y Y X W ",
"W Z ` ` ` ` ` ` ` `  .` ` ` ` ` ` ` ` Z W ",
"..+.@.@.@.@.@.@.@.@.@.@.@.@.@.@.@.@.@.+...",
"W #.$.$.$.$.$.$.$.$.$.$.$.$.$.$.$.$.$.#.W ",
"%.&.*.=.=.=.=.=.=.=.=.=.=.=.=.=.=.=.-.&.%.",
";.>.,.'.'.'.'.'.'.'.'.'.'.'.'.'.'.'.,.>.;.",
").!.%.%.%.%.%.%.%.%.%.%.%.%.%.%.%.%.%.;.)."};
