/* XPM */
static char * share_active_xpm[] = {
"21 21 97 2",
"  	c None",
". 	c #6BA2DE",
"+ 	c #6396D6",
"@ 	c #4A71C6",
"# 	c #5A86CE",
"$ 	c #6B9EDE",
"% 	c #5279C6",
"& 	c #9CC3EF",
"* 	c #7392CE",
"= 	c #94B6E7",
"- 	c #8CBAEF",
"; 	c #84B6E7",
"> 	c #94BAEF",
", 	c #8CB2E7",
"' 	c #7BB2E7",
") 	c #5894DA",
"! 	c #7AAEE7",
"~ 	c #7BAEE7",
"{ 	c #3979CE",
"] 	c #FFFFFF",
"^ 	c #528FD8",
"/ 	c #72AAE7",
"( 	c #71A9E6",
"_ 	c #73A9E7",
": 	c #73AAE7",
"< 	c #84B2E7",
"[ 	c #6BA6E7",
"} 	c #6BA5E7",
"| 	c #6BA6E6",
"1 	c #6AA5E6",
"2 	c #84AEE7",
"3 	c #6BA2E7",
"4 	c #4E8CD6",
"5 	c #639EE7",
"6 	c #4685D3",
"7 	c #629DE6",
"8 	c #436FAF",
"9 	c #689BDC",
"0 	c #4A8ADD",
"a 	c #4A8CDD",
"b 	c #498CDC",
"c 	c #4A8EDE",
"d 	c #4B8FDE",
"e 	c #4D8FDF",
"f 	c #6A9DDE",
"g 	c #4372AF",
"h 	c #3F71B5",
"i 	c #5890D5",
"j 	c #4687D4",
"k 	c #4386D4",
"l 	c #4286D4",
"m 	c #4185D4",
"n 	c #4084D5",
"o 	c #4285D4",
"p 	c #4385D3",
"q 	c #4586D3",
"r 	c #5C91D4",
"s 	c #4072B0",
"t 	c #3161A5",
"u 	c #6B9ED6",
"v 	c #397DCE",
"w 	c #3A7DCE",
"x 	c #3B7ECF",
"y 	c #3C80D1",
"z 	c #397CCE",
"A 	c #295DA5",
"B 	c #3A7ACF",
"C 	c #3A7BCE",
"D 	c #397ACD",
"E 	c #315DA5",
"F 	c #73A2D6",
"G 	c #397DC6",
"H 	c #397DC8",
"I 	c #397DC7",
"J 	c #73A2DE",
"K 	c #295D9C",
"L 	c #29599C",
"M 	c #7BAADE",
"N 	c #427DC6",
"O 	c #84AEDE",
"P 	c #4A82C6",
"Q 	c #21599C",
"R 	c #8CB6DE",
"S 	c #5A86C6",
"T 	c #9CBEE7",
"U 	c #638AC6",
"V 	c #295994",
"W 	c #84AAD6",
"X 	c #A5C3E7",
"Y 	c #8CAAD6",
"Z 	c #9CBADE",
"` 	c #2959AD",
" .	c #426DA5",
"..	c #8CAED6",
"+.	c #ADCBE7",
"@.	c #2955B5",
"#.	c #2955AD",
". + @ @ @ @ @ @ @ @ @ @ @ @ @ @ @ @ @ # $ ",
"+ % & & & & & & & & & & & & & & & & & * # ",
"@ = - ; ; ; ; ; ; ; ; ; ; ; ; ; ; ; > = @ ",
"@ , ' ' ' ' ' ' ' ' ) ' ' ' ' ' ' ' ' , @ ",
"@ , ! ~ ~ ~ ~ ~ ~ { ] ^ ~ ~ ~ ~ ~ ~ ~ , @ ",
"@ , / ( _ / : : { ] ] ] ^ : : : : : : , @ ",
"@ < [ [ } | 1 { ] ] ] ] ] ^ [ [ [ [ [ < @ ",
"@ 2 3 3 3 3 { ] ] ] ] ] ] ] 4 3 3 3 3 2 @ ",
"@ 2 5 5 5 { ] ] ] ] ] ] ] ] ] 6 7 5 5 2 @ ",
"8 9 0 a b ~ ~ ~ ~ ~ ~ ~ ~ ~ ~ ~ c d e f g ",
"h i j k l l l l l l l l m m n m o p q r s ",
"t u v v v v v v v v v w x y x z z v v u t ",
"A u { { { { { { { { { { { B C D { { { u E ",
"A F G G G G G G G G G G G G H I G G G J K ",
"L M N N N N N N N N N N N N N N N N N M L ",
"L O P P P P P P P P P P P P P P P P P O L ",
"Q R S S S S S S S S S S S S S S S S S R Q ",
"L T U U U U U U U U U U U U U U U U U T L ",
"V W X Y Y Y Y Y Y Y Y Y Y Y Y Y Y Y Z W V ",
"`  ...+.+.+.+.+.+.+.+.+.+.+.+.+.+.+... .` ",
"@.#.V V V V V V V V V V V V V V V V V ` @."};
