/* XPM */
static char * top_left_xpm[] = {
"6 30 47 1",
" 	c None",
".	c #4A71C6",
"+	c #5A7DBD",
"@	c #84B2E7",
"#	c #84B6E7",
"$	c #5275B5",
"%	c #5279BD",
"&	c #527DBD",
"*	c #7BA6DE",
"=	c #4A75C6",
"-	c #7BAADE",
";	c #5282C6",
">	c #5A86C6",
",	c #4A79CE",
"'	c #528AC6",
")	c #84AADE",
"!	c #5A8ECE",
"~	c #4A7DCE",
"{	c #84AEDE",
"]	c #527DCE",
"^	c #5A92CE",
"/	c #5282CE",
"(	c #8CB2E7",
"_	c #6BA2DE",
":	c #5286D6",
"<	c #8CB6E7",
"[	c #73A6DE",
"}	c #528AD6",
"|	c #73AAE7",
"1	c #8CBAE7",
"2	c #7BAEE7",
"3	c #528ED6",
"4	c #94BAE7",
"5	c #528EDE",
"6	c #5292DE",
"7	c #94BEE7",
"8	c #5296DE",
"9	c #9CC3E7",
"0	c #84BEE7",
"a	c #8CBEE7",
"b	c #529AE7",
"c	c #8CC3E7",
"d	c #9CC7E7",
"e	c #94C3E7",
"f	c #529EE7",
"g	c #A5C7E7",
"h	c #7BA6E7",
"     .",
"   ..+",
"  .+@#",
" .+@$$",
" .@%%%",
"..@&&&",
".*&&&&",
"=-;;;;",
"=-;;;;",
"=->>>>",
",-''''",
",-''''",
",)!!!!",
"~{!!!!",
"]{^^^^",
"/@^^^^",
"/(____",
":<[[[[",
"}<||||",
"}12222",
"342222",
"54@@@@",
"67####",
"67####",
"890000",
"89aaaa",
"b9cccc",
"bdeeee",
"fdeeee",
"fgchhh"};
