/* XPM */
static char * top_left_xpm[] = {
"6 30 46 1",
" 	c None",
".	c #294DAD",
"+	c #739AD6",
"@	c #9CC7F7",
"#	c #9CCBF7",
"$	c #84BEEF",
"%	c #7BBAEF",
"&	c #73BAEF",
"*	c #3161BD",
"=	c #8CB6E7",
"-	c #73B2EF",
";	c #8CBAE7",
">	c #6BAAEF",
",	c #8CBAEF",
"'	c #6BA6EF",
")	c #63A2EF",
"!	c #639EE7",
"~	c #5A9AE7",
"{	c #5292DE",
"]	c #3982D6",
"^	c #397DD6",
"/	c #8CBEEF",
"(	c #3979CE",
"_	c #3179CE",
":	c #3175CE",
"<	c #3171C6",
"[	c #94BEEF",
"}	c #4279C6",
"|	c #316DC6",
"1	c #4275C6",
"2	c #3169C6",
"3	c #94C3EF",
"4	c #3165BD",
"5	c #4A75C6",
"6	c #4A79C6",
"7	c #315DB5",
"8	c #5279C6",
"9	c #3159B5",
"0	c #9CC3EF",
"a	c #527DC6",
"b	c #2955B5",
"c	c #5282C6",
"d	c #5A82CE",
"e	c #5A8ACE",
"f	c #184DAD",
"g	c #214194",
"     .",
"   ..+",
"  .+@#",
" .+@$$",
" .@%%%",
".+@&&&",
"*=----",
"*=----",
"*;>>>>",
"*,''''",
"*,))))",
"*,))))",
"*;!!!!",
"*;~~~~",
"*;{{{{",
"*,]]]]",
"*;^^^^",
"*/(___",
"*/(:::",
"*/(<<<",
"*[}|||",
"*[1222",
"*3}444",
"*35***",
"*36777",
"*38999",
"*0abbb",
"*0cbbb",
"*3dbbb",
"*3efgg"};
