#define close_width 16
#define close_height 16
static unsigned char close_bits[] = {
   0x00, 0x00, 0x00, 0x00, 0x00, 0x00, 0x00, 0x00, 0x20, 0x04, 0x70, 0x0e,
   0xe0, 0x07, 0xc0, 0x03, 0xc0, 0x03, 0xe0, 0x07, 0x70, 0x0e, 0x20, 0x04,
   0x00, 0x00, 0x00, 0x00, 0x00, 0x00, 0x00, 0x00 };
